0
SECTION
2
HEADER
9
$INSUNITS
70
4
9
$ACADVER
1
AC1014
9
$HANDSEED
5
FFFF
0
ENDSEC
0
SECTION
2
TABLES
0
TABLE
2
VPORT
5
8
100
AcDbSymbolTable
0
ENDTAB
0
TABLE
2
LTYPE
5
5
100
AcDbSymbolTable
0
LTYPE
5
14
100
AcDbSymbolTableRecord
100
AcDbLinetypeTableRecord
2
BYBLOCK
70
0
0
LTYPE
5
15
100
AcDbSymbolTableRecord
100
AcDbLinetypeTableRecord
2
BYLAYER
70
0
0
ENDTAB
0
TABLE
2
LAYER
5
2
100
AcDbSymbolTable
70
2
0
LAYER
5
50
100
AcDbSymbolTableRecord
100
AcDbLayerTableRecord
2
0
70
0
6
CONTINUOUS
0
ENDTAB
0
TABLE
2
STYLE
5
3
100
AcDbSymbolTable
70
1
0
STYLE
5
11
100
AcDbSymbolTableRecord
100
AcDbTextStyleTableRecord
2
STANDARD
70
0
0
ENDTAB
0
TABLE
2
VIEW
5
6
100
AcDbSymbolTable
70
0
0
ENDTAB
0
TABLE
2
UCS
5
7
100
AcDbSymbolTable
70
0
0
ENDTAB
0
TABLE
2
APPID
5
9
100
AcDbSymbolTable
70
2
0
APPID
5
12
100
AcDbSymbolTableRecord
100
AcDbRegAppTableRecord
2
ACAD
70
0
0
ENDTAB
0
TABLE
2
DIMSTYLE
5
A
100
AcDbSymbolTable
70
1
0
ENDTAB
0
TABLE
2
BLOCK_RECORD
5
1
100
AcDbSymbolTable
70
1
0
BLOCK_RECORD
5
1F
100
AcDbSymbolTableRecord
100
AcDbBlockTableRecord
2
*MODEL_SPACE
0
BLOCK_RECORD
5
1B
100
AcDbSymbolTableRecord
100
AcDbBlockTableRecord
2
*PAPER_SPACE
0
ENDTAB
0
ENDSEC
0
SECTION
2
BLOCKS
0
BLOCK
5
20
100
AcDbEntity
100
AcDbBlockBegin
2
*MODEL_SPACE
0
ENDBLK
5
21
100
AcDbEntity
100
AcDbBlockEnd
0
BLOCK
5
1C
100
AcDbEntity
100
AcDbBlockBegin
2
*PAPER_SPACE
0
ENDBLK
5
1D
100
AcDbEntity
100
AcDbBlockEnd
0
ENDSEC
0
SECTION
2
ENTITIES
0
LWPOLYLINE
5
100
100
AcDbEntity
8
0
100
AcDbPolyline
90
37
70
1
43
0.0
10
86.825769064109366
20
8.1712805566767557
42
0.41421356237309792
10
87.636928639454652
20
9.3297364873558983
10
78.780871573266069
20
59.554931920328222
42
0.41421356237309509
10
77.62241564258693
20
60.366091495673501
10
32.555306610584474
20
52.419544230801392
42
-0.49314542814148532
10
26.420762811729553
20
58.040817990379182
42
0.41421356436171602
10
25.511723856977216
20
59.124168437982306
10
7.6849235599601755
20
60.683811370911869
10
-9.3275386842660684
20
65.885043046128899
10
-24.104147481831617
20
74.075851052396104
42
0.41421356237309509
10
-25.463576809217354
20
73.68604096550304
10
-38.553436563092674
20
50.071308859706477
42
0.41421356237310097
10
-38.16362647619961
20
48.711879532320737
10
-33.515190379753676
20
46.135209328961039
42
-0.27263129185209689
10
-33
20
45.260589621821637
10
-33.000000000000014
20
3.4999999850988406
10
-30.350000000000016
20
3.4999999850988428
10
-30.350000000000016
20
-10.000000014901158
10
-33.000000000000014
20
-10.000000014901158
10
-33
20
-10.500000014901158
42
0.41421356237309243
10
-32
20
-11.500000014901159
10
-10.644
20
-11.500000014901159
10
-10.644
20
-6.0030000149011586
10
-1.5000000000000002
20
-6.0030000149011613
10
-1.5000000000000013
20
-11.500000014901159
10
24.999999985098846
20
-11.500000014901159
42
-0.41421356237309509
10
25.999999985098846
20
-12.500000014901161
10
25.999999985098839
20
-17.500000014901161
42
0.41421356237309048
10
26.999999985098839
20
-18.500000014901158
10
45.000000014901161
20
-18.500000014901161
42
0.41421356237309437
10
46.000000014901161
20
-17.500000014901161
10
46.000000014901175
20
-10.948004036567696
42
-0.39391047561494186
10
46.930243541157054
20
-9.9504399863078739
10
65.9891116537557
20
-8.6177140999420629
42
0.41421356237309009
10
66.916919230271404
20
-7.5503935759381102
10
66.136237707658083
20
3.6138723317365571
42
-0.38386403503541888
10
66.960153580250974
20
4.6684365584928953
0
LWPOLYLINE
5
101
100
AcDbEntity
8
0
100
AcDbPolyline
90
8
70
1
43
0.0
10
-32
20
20.756978214823768
10
-31.999999999999996
20
45.756978214823775
42
-0.41421356237309509
10
-31
20
46.756978214823768
10
-10.999999999999996
20
46.756978214823768
42
-0.41421356237309509
10
-9.9999999999999964
20
45.756978214823775
10
-9.9999999999999982
20
20.756978214823761
42
-0.41421356237309509
10
-10.999999999999998
20
19.756978214823761
10
-31.000000000000007
20
19.756978214823771
42
-0.41421356237309509
0
ENDSEC
0
SECTION
2
OBJECTS
0
DICTIONARY
5
C
100
AcDbDictionary
3
ACAD_GROUP
350
D
3
ACAD_MLINESTYLE
350
17
0
DICTIONARY
5
D
100
AcDbDictionary
0
DICTIONARY
5
1A
330
C
100
AcDbDictionary
0
DICTIONARY
5
17
100
AcDbDictionary
0
ENDSEC
0
EOF
