G04 #@! TF.GenerationSoftware,KiCad,Pcbnew,8.0.4*
G04 #@! TF.CreationDate,2024-10-20T02:46:26-03:00*
G04 #@! TF.ProjectId,carpo_left,63617270-6f5f-46c6-9566-742e6b696361,rev?*
G04 #@! TF.SameCoordinates,Original*
G04 #@! TF.FileFunction,Soldermask,Bot*
G04 #@! TF.FilePolarity,Negative*
%FSLAX46Y46*%
G04 Gerber Fmt 4.6, Leading zero omitted, Abs format (unit mm)*
G04 Created by KiCad (PCBNEW 8.0.4) date 2024-10-20 02:46:26*
%MOMM*%
%LPD*%
G01*
G04 APERTURE LIST*
G04 Aperture macros list*
%AMRoundRect*
0 Rectangle with rounded corners*
0 $1 Rounding radius*
0 $2 $3 $4 $5 $6 $7 $8 $9 X,Y pos of 4 corners*
0 Add a 4 corners polygon primitive as box body*
4,1,4,$2,$3,$4,$5,$6,$7,$8,$9,$2,$3,0*
0 Add four circle primitives for the rounded corners*
1,1,$1+$1,$2,$3*
1,1,$1+$1,$4,$5*
1,1,$1+$1,$6,$7*
1,1,$1+$1,$8,$9*
0 Add four rect primitives between the rounded corners*
20,1,$1+$1,$2,$3,$4,$5,0*
20,1,$1+$1,$4,$5,$6,$7,0*
20,1,$1+$1,$6,$7,$8,$9,0*
20,1,$1+$1,$8,$9,$2,$3,0*%
G04 Aperture macros list end*
%ADD10C,4.300000*%
%ADD11R,1.700000X1.700000*%
%ADD12O,1.700000X1.700000*%
%ADD13RoundRect,0.225000X-0.408374X0.156464X-0.330232X-0.286700X0.408374X-0.156464X0.330232X0.286700X0*%
%ADD14C,1.700000*%
%ADD15C,3.400000*%
%ADD16C,3.300000*%
%ADD17RoundRect,0.260000X1.065000X1.040000X-1.065000X1.040000X-1.065000X-1.040000X1.065000X-1.040000X0*%
%ADD18RoundRect,0.200000X0.200000X0.275000X-0.200000X0.275000X-0.200000X-0.275000X0.200000X-0.275000X0*%
%ADD19RoundRect,0.225000X-0.292831X0.324808X-0.424398X-0.105529X0.292831X-0.324808X0.424398X0.105529X0*%
%ADD20RoundRect,0.243750X0.243750X0.456250X-0.243750X0.456250X-0.243750X-0.456250X0.243750X-0.456250X0*%
%ADD21RoundRect,0.225000X0.250000X-0.225000X0.250000X0.225000X-0.250000X0.225000X-0.250000X-0.225000X0*%
%ADD22RoundRect,0.225000X-0.375000X0.225000X-0.375000X-0.225000X0.375000X-0.225000X0.375000X0.225000X0*%
%ADD23RoundRect,0.260000X0.989859X1.111757X-1.134952X0.963176X-0.989859X-1.111757X1.134952X-0.963176X0*%
%ADD24RoundRect,0.260000X0.868226X1.209135X-1.229414X0.839265X-0.868226X-1.209135X1.229414X-0.839265X0*%
%ADD25RoundRect,0.260000X1.151589X0.943222X-0.970305X1.128863X-1.151589X-0.943222X0.970305X-1.128863X0*%
%ADD26R,0.700000X1.524000*%
%ADD27R,1.524000X0.700000*%
%ADD28RoundRect,0.150000X0.512500X0.150000X-0.512500X0.150000X-0.512500X-0.150000X0.512500X-0.150000X0*%
%ADD29RoundRect,0.225000X-0.389782X0.198293X-0.358391X-0.250611X0.389782X-0.198293X0.358391X0.250611X0*%
%ADD30RoundRect,0.225000X-0.250000X0.225000X-0.250000X-0.225000X0.250000X-0.225000X0.250000X0.225000X0*%
%ADD31RoundRect,0.260000X-0.393282X1.435672X-1.425927X-0.427268X0.393282X-1.435672X1.425927X0.427268X0*%
%ADD32RoundRect,0.225000X-0.225000X-0.250000X0.225000X-0.250000X0.225000X0.250000X-0.225000X0.250000X0*%
%ADD33C,0.750000*%
%ADD34R,1.550000X1.000000*%
%ADD35RoundRect,0.225000X0.225000X0.375000X-0.225000X0.375000X-0.225000X-0.375000X0.225000X-0.375000X0*%
%ADD36RoundRect,0.200000X-0.200000X-0.275000X0.200000X-0.275000X0.200000X0.275000X-0.200000X0.275000X0*%
%ADD37R,0.800000X1.000000*%
%ADD38C,0.900000*%
%ADD39R,1.500000X0.700000*%
%ADD40RoundRect,0.200000X0.275000X-0.200000X0.275000X0.200000X-0.275000X0.200000X-0.275000X-0.200000X0*%
%ADD41RoundRect,0.260000X1.322531X0.683181X-0.714398X1.305933X-1.322531X-0.683181X0.714398X-1.305933X0*%
%ADD42RoundRect,0.150000X-0.587500X-0.150000X0.587500X-0.150000X0.587500X0.150000X-0.587500X0.150000X0*%
%ADD43RoundRect,0.225000X-0.353963X0.256827X-0.393183X-0.191460X0.353963X-0.256827X0.393183X0.191460X0*%
%ADD44R,0.540000X0.800000*%
%ADD45R,0.300000X0.800000*%
%ADD46O,1.000000X1.800000*%
%ADD47O,1.000000X2.200000*%
%ADD48RoundRect,0.150000X0.587500X0.150000X-0.587500X0.150000X-0.587500X-0.150000X0.587500X-0.150000X0*%
%ADD49RoundRect,0.093750X-0.156250X-0.093750X0.156250X-0.093750X0.156250X0.093750X-0.156250X0.093750X0*%
%ADD50RoundRect,0.075000X-0.250000X-0.075000X0.250000X-0.075000X0.250000X0.075000X-0.250000X0.075000X0*%
%ADD51RoundRect,0.225000X-0.378593X-0.218900X0.014986X-0.437065X0.378593X0.218900X-0.014986X0.437065X0*%
%ADD52RoundRect,0.150000X-0.275000X0.150000X-0.275000X-0.150000X0.275000X-0.150000X0.275000X0.150000X0*%
%ADD53RoundRect,0.175000X-0.225000X0.175000X-0.225000X-0.175000X0.225000X-0.175000X0.225000X0.175000X0*%
G04 APERTURE END LIST*
D10*
X111784477Y-83118956D03*
X169554515Y-77399999D03*
D11*
X205980000Y-65650000D03*
D12*
X203440000Y-65650000D03*
X200900000Y-65650000D03*
X198360000Y-65650000D03*
D10*
X194177165Y-120406206D03*
X118252436Y-114041804D03*
D13*
X98058951Y-96557175D03*
X98631989Y-99807041D03*
D14*
X165700000Y-100900000D03*
D15*
X160200000Y-100900000D03*
D14*
X154700000Y-100900000D03*
D16*
X155200000Y-104650000D03*
D17*
X151955000Y-104650000D03*
X163445000Y-106850000D03*
D16*
X160200000Y-106850000D03*
D18*
X177325000Y-65900000D03*
X175675000Y-65900000D03*
D19*
X178049662Y-115522969D03*
X177084836Y-118678775D03*
D20*
X189137500Y-66800000D03*
X187262500Y-66800000D03*
D14*
X183700000Y-68900000D03*
D15*
X178200000Y-68900000D03*
D14*
X172700000Y-68900000D03*
D16*
X173200000Y-72650000D03*
D17*
X169955000Y-72650000D03*
X181445000Y-74850000D03*
D16*
X178200000Y-74850000D03*
D14*
X183700000Y-102900000D03*
D15*
X178200000Y-102900000D03*
D14*
X172700000Y-102900000D03*
D16*
X173200000Y-106650000D03*
D17*
X169955000Y-106650000D03*
X181445000Y-108850000D03*
D16*
X178200000Y-108850000D03*
D21*
X200300000Y-82350000D03*
X200300000Y-80800000D03*
D13*
X101010970Y-113298907D03*
X101584008Y-116548773D03*
D22*
X154399473Y-94750650D03*
X154399473Y-98050650D03*
X136399473Y-87750650D03*
X136399473Y-91050650D03*
D14*
X127338254Y-68747675D03*
D15*
X121851652Y-69131336D03*
D14*
X116365050Y-69514997D03*
D16*
X117125419Y-73220984D03*
D23*
X113888323Y-73447343D03*
X125503798Y-74840482D03*
D16*
X122266703Y-75066842D03*
D14*
X110255621Y-100650787D03*
D15*
X104839178Y-101605852D03*
D14*
X99422735Y-102560917D03*
D16*
X100566320Y-106167122D03*
D24*
X97370619Y-106730610D03*
X109068086Y-106901970D03*
D16*
X105872385Y-107465458D03*
D14*
X167961079Y-119824077D03*
D15*
X162482008Y-119344720D03*
D14*
X157002937Y-118865363D03*
D16*
X157174197Y-122644671D03*
D25*
X153941549Y-122361851D03*
X165196083Y-125554899D03*
D16*
X161963431Y-125272078D03*
D14*
X165700000Y-66900001D03*
D15*
X160200000Y-66900001D03*
D14*
X154700000Y-66900001D03*
D16*
X155200000Y-70650001D03*
D17*
X151955000Y-70650001D03*
X163445000Y-72850001D03*
D16*
X160200000Y-72850001D03*
D26*
X207900000Y-72400000D03*
X206800000Y-72400000D03*
X205700000Y-72400000D03*
X204600000Y-72400000D03*
X203500000Y-72400000D03*
X202400000Y-72400000D03*
X201300000Y-72400000D03*
X200200000Y-72400000D03*
X199100000Y-72400000D03*
X198000000Y-72400000D03*
X196900000Y-72400000D03*
X195800000Y-72400000D03*
X194700000Y-72400000D03*
D27*
X193200000Y-71150000D03*
X193200000Y-70050000D03*
X193200000Y-68950000D03*
X193200000Y-67850000D03*
X193200000Y-66750000D03*
X193200000Y-65650000D03*
X193200000Y-64550000D03*
X193200000Y-63450000D03*
X193200000Y-62350000D03*
X193200000Y-61250000D03*
X193200000Y-60150000D03*
D26*
X194700000Y-58900000D03*
X195800000Y-58900000D03*
X196900000Y-58900000D03*
X198000000Y-58900000D03*
X199100000Y-58900000D03*
X200200000Y-58900000D03*
X201300000Y-58900000D03*
X202400000Y-58900000D03*
X203500000Y-58900000D03*
X204600000Y-58900000D03*
X205700000Y-58900000D03*
X206800000Y-58900000D03*
X207900000Y-58900000D03*
X205700000Y-69900000D03*
X204600000Y-69900000D03*
X203500000Y-69900000D03*
X202400000Y-69900000D03*
X201300000Y-69900000D03*
X200200000Y-69900000D03*
X199100000Y-69900000D03*
X198000000Y-69900000D03*
X196900000Y-69900000D03*
X205700000Y-61400000D03*
X204600000Y-61400000D03*
X203500000Y-61400000D03*
X202400000Y-61400000D03*
X201300000Y-61400000D03*
X200200000Y-61400000D03*
X199100000Y-61400000D03*
X198000000Y-61400000D03*
X196900000Y-61400000D03*
D22*
X172399473Y-79750650D03*
X172399473Y-83050650D03*
D14*
X129709974Y-102664852D03*
D15*
X124223372Y-103048513D03*
D14*
X118736770Y-103432174D03*
D16*
X119497139Y-107138161D03*
D23*
X116260043Y-107364520D03*
X127875518Y-108757659D03*
D16*
X124638423Y-108984019D03*
D22*
X172399473Y-96750650D03*
X172399473Y-100050650D03*
D28*
X198475000Y-80000000D03*
X198475000Y-80950000D03*
X198475000Y-81900000D03*
X196200000Y-81900000D03*
X196200000Y-80000000D03*
D29*
X118008018Y-97318766D03*
X118238214Y-100610728D03*
D30*
X200600000Y-83925000D03*
X200600000Y-85475000D03*
D29*
X116822158Y-80360177D03*
X117052354Y-83652139D03*
D14*
X204566072Y-121362575D03*
D15*
X201899619Y-126172983D03*
D14*
X199233166Y-130983391D03*
D16*
X202755395Y-132364118D03*
D31*
X201182188Y-135202259D03*
X208676813Y-126219459D03*
D16*
X207103606Y-129057600D03*
D29*
X115636298Y-63401589D03*
X115866494Y-66693551D03*
D32*
X175025000Y-59300000D03*
X176575000Y-59300000D03*
D14*
X165700000Y-83900000D03*
D15*
X160200000Y-83900000D03*
D14*
X154700000Y-83900000D03*
D16*
X155200000Y-87650000D03*
D17*
X151955000Y-87650000D03*
X163445000Y-89850000D03*
D16*
X160200000Y-89850000D03*
D33*
X160200000Y-60685000D03*
X160200000Y-57935000D03*
D34*
X162825000Y-58460000D03*
X157575000Y-58460000D03*
X162825000Y-60160000D03*
X157575000Y-60160000D03*
D35*
X194750000Y-84600000D03*
X191450000Y-84600000D03*
D36*
X191375000Y-86600000D03*
X193025000Y-86600000D03*
D14*
X113207640Y-117392519D03*
D15*
X107791197Y-118347584D03*
D14*
X102374754Y-119302649D03*
D16*
X103518339Y-122908854D03*
D24*
X100322638Y-123472342D03*
X112020105Y-123643702D03*
D16*
X108824404Y-124207190D03*
D36*
X174975000Y-61200000D03*
X176625000Y-61200000D03*
D21*
X206300000Y-86875000D03*
X206300000Y-85325000D03*
D22*
X154399473Y-60750651D03*
X154399473Y-64050651D03*
D37*
X210830000Y-76350000D03*
X208620000Y-76350000D03*
D38*
X209730000Y-78500000D03*
X209730000Y-81500000D03*
D37*
X210830000Y-83650000D03*
X208620000Y-83650000D03*
D39*
X207970000Y-77750000D03*
X207970000Y-80750000D03*
X207970000Y-82250000D03*
D22*
X136399473Y-53750650D03*
X136399473Y-57050650D03*
D40*
X203200000Y-79325000D03*
X203200000Y-77675000D03*
D22*
X172399473Y-62750650D03*
X172399473Y-66050650D03*
X154399473Y-77750650D03*
X154399473Y-81050650D03*
D14*
X147700000Y-76900000D03*
D15*
X142200000Y-76900000D03*
D14*
X136700000Y-76900000D03*
D16*
X137200000Y-80650000D03*
D17*
X133955000Y-80650000D03*
X145445000Y-82850000D03*
D16*
X142200000Y-82850000D03*
D14*
X187058514Y-124707576D03*
D15*
X181798838Y-123099532D03*
D14*
X176539162Y-121491488D03*
D16*
X175920920Y-125223816D03*
D41*
X172817711Y-124275070D03*
X183162435Y-129738291D03*
D16*
X180059226Y-128789545D03*
D21*
X194400000Y-81575000D03*
X194400000Y-80025000D03*
D42*
X196762500Y-87550000D03*
X196762500Y-85650000D03*
X198637500Y-86600000D03*
D43*
X157239505Y-112713221D03*
X156951891Y-116000663D03*
D14*
X147700000Y-59900000D03*
D15*
X142200000Y-59900000D03*
D14*
X136700000Y-59900000D03*
D16*
X137200000Y-63650000D03*
D17*
X133955000Y-63650000D03*
X145445000Y-65850000D03*
D16*
X142200000Y-65850000D03*
D44*
X187477000Y-63297000D03*
X181077000Y-63297000D03*
X186677000Y-63297000D03*
X181877000Y-63297000D03*
D45*
X183027000Y-63297000D03*
X184027000Y-63297000D03*
X184527000Y-63297000D03*
X185527000Y-63297000D03*
X186027000Y-63297000D03*
X185027000Y-63297000D03*
X183527000Y-63297000D03*
X182519000Y-63297000D03*
D46*
X189852300Y-62397000D03*
D47*
X189852300Y-58597000D03*
X178701700Y-58597000D03*
D46*
X178701400Y-62397000D03*
D18*
X177325000Y-64300000D03*
X175675000Y-64300000D03*
D40*
X203200000Y-82425000D03*
X203200000Y-80775000D03*
D48*
X204437500Y-84050000D03*
X204437500Y-85950000D03*
X202562500Y-85000000D03*
D49*
X187350000Y-69737500D03*
D50*
X187275000Y-69200000D03*
D49*
X187350000Y-68662500D03*
X189050000Y-68662500D03*
D50*
X189125000Y-69200000D03*
D49*
X189050000Y-69737500D03*
D51*
X193709124Y-128264974D03*
X196595370Y-129864846D03*
D22*
X136399473Y-70750650D03*
X136399473Y-74050650D03*
D14*
X128524114Y-85706263D03*
D15*
X123037512Y-86089924D03*
D14*
X117550910Y-86473585D03*
D16*
X118311279Y-90179572D03*
D23*
X115074183Y-90405931D03*
X126689658Y-91799070D03*
D16*
X123452563Y-92025430D03*
D36*
X194675000Y-78400000D03*
X196325000Y-78400000D03*
D52*
X183125000Y-112500000D03*
X183125000Y-113700000D03*
D53*
X186900000Y-111350000D03*
X186900000Y-114850000D03*
D40*
X200300000Y-79300000D03*
X200300000Y-77650000D03*
D14*
X147700000Y-93900000D03*
D15*
X142200000Y-93900000D03*
D14*
X136700000Y-93900000D03*
D16*
X137200000Y-97650000D03*
D17*
X133955000Y-97650000D03*
X145445000Y-99850000D03*
D16*
X142200000Y-99850000D03*
D14*
X183700000Y-85900000D03*
D15*
X178200000Y-85900000D03*
D14*
X172700000Y-85900000D03*
D16*
X173200000Y-89650000D03*
D17*
X169955000Y-89650000D03*
X181445000Y-91850000D03*
D16*
X178200000Y-91850000D03*
D13*
X95106932Y-79815443D03*
X95679970Y-83065309D03*
D14*
X107303602Y-83909055D03*
D15*
X101887159Y-84864120D03*
D14*
X96470716Y-85819185D03*
D16*
X97614301Y-89425390D03*
D24*
X94418600Y-89988878D03*
X106116067Y-90160238D03*
D16*
X102920366Y-90723726D03*
D40*
X143500000Y-108125000D03*
X143500000Y-106475000D03*
M02*
