G04 #@! TF.GenerationSoftware,KiCad,Pcbnew,8.0.4*
G04 #@! TF.CreationDate,2024-10-20T02:46:26-03:00*
G04 #@! TF.ProjectId,carpo_left,63617270-6f5f-46c6-9566-742e6b696361,rev?*
G04 #@! TF.SameCoordinates,Original*
G04 #@! TF.FileFunction,Legend,Top*
G04 #@! TF.FilePolarity,Positive*
%FSLAX46Y46*%
G04 Gerber Fmt 4.6, Leading zero omitted, Abs format (unit mm)*
G04 Created by KiCad (PCBNEW 8.0.4) date 2024-10-20 02:46:26*
%MOMM*%
%LPD*%
G01*
G04 APERTURE LIST*
G04 Aperture macros list*
%AMRoundRect*
0 Rectangle with rounded corners*
0 $1 Rounding radius*
0 $2 $3 $4 $5 $6 $7 $8 $9 X,Y pos of 4 corners*
0 Add a 4 corners polygon primitive as box body*
4,1,4,$2,$3,$4,$5,$6,$7,$8,$9,$2,$3,0*
0 Add four circle primitives for the rounded corners*
1,1,$1+$1,$2,$3*
1,1,$1+$1,$4,$5*
1,1,$1+$1,$6,$7*
1,1,$1+$1,$8,$9*
0 Add four rect primitives between the rounded corners*
20,1,$1+$1,$2,$3,$4,$5,0*
20,1,$1+$1,$4,$5,$6,$7,0*
20,1,$1+$1,$6,$7,$8,$9,0*
20,1,$1+$1,$8,$9,$2,$3,0*%
G04 Aperture macros list end*
%ADD10C,0.000000*%
%ADD11C,0.200000*%
%ADD12C,0.150000*%
%ADD13C,0.120000*%
%ADD14RoundRect,0.218750X0.256250X-0.218750X0.256250X0.218750X-0.256250X0.218750X-0.256250X-0.218750X0*%
%ADD15C,4.300000*%
%ADD16R,1.700000X1.700000*%
%ADD17O,1.700000X1.700000*%
%ADD18C,1.700000*%
%ADD19C,3.400000*%
%ADD20C,0.750000*%
%ADD21C,0.900000*%
%ADD22O,1.000000X1.800000*%
%ADD23O,1.000000X2.200000*%
G04 APERTURE END LIST*
D10*
G36*
X133989167Y-115543374D02*
G01*
X134038320Y-115548086D01*
X134085714Y-115555904D01*
X134131350Y-115566760D01*
X134175229Y-115580592D01*
X134217353Y-115597332D01*
X134257722Y-115616915D01*
X134296337Y-115639276D01*
X134333201Y-115664351D01*
X134368314Y-115692073D01*
X134401678Y-115722375D01*
X134433293Y-115755195D01*
X134463162Y-115790467D01*
X134491286Y-115828124D01*
X134517664Y-115868101D01*
X134542298Y-115910334D01*
X134565190Y-115954756D01*
X134586343Y-116001302D01*
X134605756Y-116049908D01*
X134623429Y-116100507D01*
X134639367Y-116153034D01*
X134653569Y-116207423D01*
X134666035Y-116263611D01*
X134676769Y-116321531D01*
X134685769Y-116381117D01*
X134693040Y-116442304D01*
X134698580Y-116505028D01*
X134702393Y-116569223D01*
X134704478Y-116634822D01*
X134701477Y-116767563D01*
X134691346Y-116897033D01*
X134674086Y-117022678D01*
X134649698Y-117143947D01*
X134618185Y-117260288D01*
X134579548Y-117371146D01*
X134533789Y-117475972D01*
X134480910Y-117574211D01*
X134451800Y-117620689D01*
X134420911Y-117665314D01*
X134388243Y-117708015D01*
X134353795Y-117748724D01*
X134317569Y-117787373D01*
X134279565Y-117823893D01*
X134239782Y-117858214D01*
X134198221Y-117890265D01*
X134154881Y-117919982D01*
X134109764Y-117947293D01*
X134062870Y-117972128D01*
X134014196Y-117994419D01*
X133963747Y-118014097D01*
X133911522Y-118031093D01*
X133857518Y-118045339D01*
X133801739Y-118056763D01*
X133748141Y-118064724D01*
X133696024Y-118069474D01*
X133645401Y-118071065D01*
X133596282Y-118069540D01*
X133548682Y-118064948D01*
X133502611Y-118057341D01*
X133458085Y-118046759D01*
X133415112Y-118033257D01*
X133373706Y-118016878D01*
X133333879Y-117997671D01*
X133295645Y-117975684D01*
X133259014Y-117950965D01*
X133223999Y-117923560D01*
X133190613Y-117893519D01*
X133158868Y-117860887D01*
X133128775Y-117825715D01*
X133100347Y-117788048D01*
X133073597Y-117747934D01*
X133048537Y-117705421D01*
X133025179Y-117660557D01*
X133003536Y-117613390D01*
X132983618Y-117563967D01*
X132965440Y-117512336D01*
X132949012Y-117458545D01*
X132934349Y-117402640D01*
X132921461Y-117344670D01*
X132910361Y-117284684D01*
X132901062Y-117222726D01*
X132893574Y-117158847D01*
X132887913Y-117093095D01*
X132884087Y-117025514D01*
X132882112Y-116956154D01*
X132883961Y-116818863D01*
X132893350Y-116686487D01*
X132910205Y-116559396D01*
X132934452Y-116437960D01*
X132966017Y-116322550D01*
X133004825Y-116213540D01*
X133050803Y-116111297D01*
X133103874Y-116016194D01*
X133133047Y-115971435D01*
X133163967Y-115928600D01*
X133196623Y-115887736D01*
X133231004Y-115848888D01*
X133267104Y-115812102D01*
X133304913Y-115777427D01*
X133344423Y-115744908D01*
X133385621Y-115714589D01*
X133428500Y-115686519D01*
X133473050Y-115660745D01*
X133519263Y-115637311D01*
X133567128Y-115616265D01*
X133616639Y-115597651D01*
X133667781Y-115581520D01*
X133720551Y-115567913D01*
X133774935Y-115556880D01*
X133831138Y-115548520D01*
X133885576Y-115543524D01*
X133938252Y-115541832D01*
X133989167Y-115543374D01*
G37*
G36*
X138483259Y-113405346D02*
G01*
X138728786Y-113487455D01*
X138951340Y-113613525D01*
X139146000Y-113779606D01*
X139307056Y-113982174D01*
X139428045Y-114216955D01*
X139501524Y-114477047D01*
X140223271Y-118570278D01*
X140243171Y-118839766D01*
X140209779Y-119101769D01*
X140127726Y-119347253D01*
X140001602Y-119569848D01*
X139835587Y-119764435D01*
X139632958Y-119925613D01*
X139398145Y-120046549D01*
X139138151Y-120120051D01*
X124553185Y-122691774D01*
X124283636Y-122711645D01*
X124021621Y-122678313D01*
X123776179Y-122596142D01*
X123553535Y-122470086D01*
X123358979Y-122304035D01*
X123197819Y-122101436D01*
X123076834Y-121866654D01*
X123003358Y-121606613D01*
X122946455Y-121283903D01*
X122921400Y-121141811D01*
X123752296Y-121141811D01*
X124039869Y-121916393D01*
X124290014Y-121872287D01*
X124325732Y-121757629D01*
X124345703Y-121693521D01*
X124577202Y-121693521D01*
X124577383Y-121699996D01*
X124577903Y-121706507D01*
X124578816Y-121713004D01*
X124580027Y-121719358D01*
X124581528Y-121725563D01*
X124583313Y-121731612D01*
X124585371Y-121737499D01*
X124587698Y-121743216D01*
X124590284Y-121748760D01*
X124593120Y-121754120D01*
X124596202Y-121759292D01*
X124599520Y-121764268D01*
X124603067Y-121769043D01*
X124606834Y-121773609D01*
X124610816Y-121777961D01*
X124615001Y-121782090D01*
X124619385Y-121785991D01*
X124623959Y-121789657D01*
X124628715Y-121793083D01*
X124633646Y-121796260D01*
X124638743Y-121799181D01*
X124644000Y-121801841D01*
X124649409Y-121804234D01*
X124654961Y-121806352D01*
X124660650Y-121808189D01*
X124666465Y-121809739D01*
X124672403Y-121810994D01*
X124678453Y-121811947D01*
X124684607Y-121812594D01*
X124690860Y-121812927D01*
X124697202Y-121812937D01*
X124703627Y-121812622D01*
X124710125Y-121811972D01*
X124716690Y-121810982D01*
X124722761Y-121809744D01*
X124728755Y-121808191D01*
X124734659Y-121806333D01*
X124740469Y-121804179D01*
X124746173Y-121801739D01*
X124751762Y-121799020D01*
X124757229Y-121796037D01*
X124762564Y-121792794D01*
X124767758Y-121789303D01*
X124772803Y-121785574D01*
X124777689Y-121781615D01*
X124782408Y-121777436D01*
X124786951Y-121773047D01*
X124791309Y-121768459D01*
X124795474Y-121763679D01*
X124799435Y-121758717D01*
X124803186Y-121753582D01*
X124806715Y-121748285D01*
X124810018Y-121742836D01*
X124813079Y-121737243D01*
X124815896Y-121731515D01*
X124818455Y-121725664D01*
X124820751Y-121719698D01*
X124822773Y-121713626D01*
X124824514Y-121707459D01*
X124825963Y-121701204D01*
X124827112Y-121694873D01*
X124827953Y-121688475D01*
X124828475Y-121682019D01*
X124828672Y-121675515D01*
X124828532Y-121668972D01*
X124828048Y-121662401D01*
X124827301Y-121656024D01*
X124826228Y-121649789D01*
X124824839Y-121643701D01*
X124823145Y-121637766D01*
X124821156Y-121631992D01*
X124818880Y-121626384D01*
X124816328Y-121620949D01*
X124813511Y-121615693D01*
X124810437Y-121610621D01*
X124807117Y-121605742D01*
X124803560Y-121601060D01*
X124799777Y-121596583D01*
X124795778Y-121592315D01*
X124791570Y-121588265D01*
X124787166Y-121584438D01*
X124782575Y-121580841D01*
X124777807Y-121577480D01*
X124772871Y-121574360D01*
X124767778Y-121571489D01*
X124762538Y-121568873D01*
X124757160Y-121566517D01*
X124751654Y-121564431D01*
X124746029Y-121562617D01*
X124740297Y-121561083D01*
X124734465Y-121559835D01*
X124728547Y-121558882D01*
X124722549Y-121558226D01*
X124716484Y-121557876D01*
X124710358Y-121557838D01*
X124704185Y-121558118D01*
X124697972Y-121558723D01*
X124691730Y-121559658D01*
X124685288Y-121560956D01*
X124678957Y-121562555D01*
X124672742Y-121564446D01*
X124666652Y-121566618D01*
X124660692Y-121569066D01*
X124654873Y-121571779D01*
X124649203Y-121574749D01*
X124643687Y-121577966D01*
X124638334Y-121581421D01*
X124633152Y-121585108D01*
X124628148Y-121589014D01*
X124623331Y-121593134D01*
X124618706Y-121597456D01*
X124614284Y-121601973D01*
X124610070Y-121606676D01*
X124606073Y-121611556D01*
X124602302Y-121616605D01*
X124598761Y-121621813D01*
X124595462Y-121627171D01*
X124592410Y-121632671D01*
X124589614Y-121638304D01*
X124587080Y-121644061D01*
X124584817Y-121649933D01*
X124582832Y-121655911D01*
X124581133Y-121661988D01*
X124579729Y-121668152D01*
X124578625Y-121674397D01*
X124577832Y-121680711D01*
X124577356Y-121687088D01*
X124577202Y-121693521D01*
X124345703Y-121693521D01*
X124527870Y-121108754D01*
X124562051Y-120999030D01*
X124318746Y-121041931D01*
X124158642Y-121660646D01*
X124150256Y-121662125D01*
X123978475Y-121101930D01*
X123752296Y-121141811D01*
X122921400Y-121141811D01*
X122870856Y-120855162D01*
X124796021Y-120855162D01*
X124797947Y-121061132D01*
X125040860Y-120860368D01*
X125047149Y-120859259D01*
X125055846Y-121737250D01*
X125281482Y-121697464D01*
X125278722Y-121422347D01*
X125270465Y-120599055D01*
X125058317Y-120636463D01*
X124796021Y-120855162D01*
X122870856Y-120855162D01*
X122575146Y-119178105D01*
X122482595Y-118653223D01*
X123349945Y-118653223D01*
X123352490Y-118752786D01*
X123358567Y-118849818D01*
X123368136Y-118944243D01*
X123381158Y-119035984D01*
X123397589Y-119124965D01*
X123417391Y-119211112D01*
X123440523Y-119294347D01*
X123466943Y-119374595D01*
X123496612Y-119451781D01*
X123529488Y-119525829D01*
X123565531Y-119596662D01*
X123604701Y-119664204D01*
X123646956Y-119728379D01*
X123692257Y-119789114D01*
X123740562Y-119846330D01*
X123791830Y-119899953D01*
X123846023Y-119949904D01*
X123903097Y-119996111D01*
X123963014Y-120038495D01*
X124025732Y-120076983D01*
X124091211Y-120111497D01*
X124159409Y-120141962D01*
X124230288Y-120168302D01*
X124303805Y-120190441D01*
X124379921Y-120208304D01*
X124458594Y-120221814D01*
X124539783Y-120230894D01*
X124623449Y-120235471D01*
X124709551Y-120235467D01*
X124798048Y-120230808D01*
X124888898Y-120221416D01*
X124982064Y-120207216D01*
X125057738Y-120192397D01*
X125131648Y-120174977D01*
X125203767Y-120155019D01*
X125274067Y-120132586D01*
X125409108Y-120080547D01*
X125536557Y-120019366D01*
X125656199Y-119949547D01*
X125767820Y-119871592D01*
X125871208Y-119786008D01*
X125966149Y-119693298D01*
X126052428Y-119593967D01*
X126129832Y-119488520D01*
X126198145Y-119377462D01*
X126257157Y-119261296D01*
X126306650Y-119140525D01*
X126326769Y-119077345D01*
X126346414Y-119015658D01*
X126376233Y-118887195D01*
X126384142Y-118834275D01*
X126635736Y-118834275D01*
X126638082Y-118898570D01*
X126643339Y-118960512D01*
X126651439Y-119020097D01*
X126662315Y-119077327D01*
X126675900Y-119132195D01*
X126692127Y-119184702D01*
X126710929Y-119234844D01*
X126732238Y-119282620D01*
X126755987Y-119328028D01*
X126782109Y-119371064D01*
X126810536Y-119411728D01*
X126841202Y-119450015D01*
X126874039Y-119485927D01*
X126908981Y-119519459D01*
X126945958Y-119550608D01*
X126984907Y-119579374D01*
X127025756Y-119605753D01*
X127068440Y-119629744D01*
X127112893Y-119651346D01*
X127159047Y-119670553D01*
X127206833Y-119687366D01*
X127256187Y-119701782D01*
X127307038Y-119713798D01*
X127359322Y-119723413D01*
X127412970Y-119730624D01*
X127467915Y-119735430D01*
X127524091Y-119737827D01*
X127581429Y-119737813D01*
X127639862Y-119735388D01*
X127699325Y-119730547D01*
X127759748Y-119723290D01*
X127821065Y-119713613D01*
X127925505Y-119691763D01*
X128024078Y-119664404D01*
X128116871Y-119632009D01*
X128203974Y-119595047D01*
X128285479Y-119553990D01*
X128361474Y-119509310D01*
X128432049Y-119461477D01*
X128497295Y-119410963D01*
X128557300Y-119358238D01*
X128612155Y-119303776D01*
X128661949Y-119248045D01*
X128706773Y-119191517D01*
X128746717Y-119134666D01*
X128781869Y-119077959D01*
X128812321Y-119021870D01*
X128838160Y-118966869D01*
X128865226Y-118962097D01*
X128867544Y-119450052D01*
X129526119Y-119333927D01*
X129501659Y-116966166D01*
X129498382Y-116871708D01*
X129490721Y-116782787D01*
X129478865Y-116699257D01*
X129462996Y-116620967D01*
X129443306Y-116547772D01*
X129419981Y-116479523D01*
X129393207Y-116416073D01*
X129363169Y-116357275D01*
X129330056Y-116302981D01*
X129294056Y-116253045D01*
X129255353Y-116207316D01*
X129214135Y-116165650D01*
X129170591Y-116127898D01*
X129124905Y-116093913D01*
X129077264Y-116063547D01*
X129027858Y-116036652D01*
X128976870Y-116013082D01*
X128924488Y-115992688D01*
X128870901Y-115975324D01*
X128816294Y-115960840D01*
X128760854Y-115949092D01*
X128704768Y-115939930D01*
X128591407Y-115928774D01*
X128477704Y-115926195D01*
X128365154Y-115931012D01*
X128255255Y-115942046D01*
X128149498Y-115958116D01*
X128032544Y-115981823D01*
X127917108Y-116011555D01*
X127803664Y-116047424D01*
X127692687Y-116089533D01*
X127584656Y-116137992D01*
X127480044Y-116192905D01*
X127379327Y-116254381D01*
X127282979Y-116322526D01*
X127191478Y-116397448D01*
X127105299Y-116479252D01*
X127024917Y-116568047D01*
X126950806Y-116663941D01*
X126883446Y-116767037D01*
X126823308Y-116877444D01*
X126796097Y-116935424D01*
X126770870Y-116995270D01*
X126747687Y-117056999D01*
X126726607Y-117120623D01*
X127356508Y-117158381D01*
X127377398Y-117107332D01*
X127402209Y-117056153D01*
X127430969Y-117005187D01*
X127463703Y-116954771D01*
X127500437Y-116905244D01*
X127520311Y-116880920D01*
X127541196Y-116856946D01*
X127563093Y-116833365D01*
X127586005Y-116810217D01*
X127609939Y-116787547D01*
X127634893Y-116765397D01*
X127660873Y-116743808D01*
X127687882Y-116722823D01*
X127715923Y-116702485D01*
X127745001Y-116682836D01*
X127775116Y-116663919D01*
X127806273Y-116645775D01*
X127838474Y-116628448D01*
X127871725Y-116611980D01*
X127906025Y-116596413D01*
X127941382Y-116581791D01*
X127977795Y-116568153D01*
X128015271Y-116555545D01*
X128053810Y-116544007D01*
X128093416Y-116533583D01*
X128134094Y-116524315D01*
X128175845Y-116516246D01*
X128215795Y-116509894D01*
X128254452Y-116505147D01*
X128291820Y-116501991D01*
X128327899Y-116500412D01*
X128362696Y-116500398D01*
X128396209Y-116501933D01*
X128428444Y-116505004D01*
X128459403Y-116509597D01*
X128489088Y-116515699D01*
X128517502Y-116523297D01*
X128544648Y-116532376D01*
X128570528Y-116542923D01*
X128595146Y-116554925D01*
X128618502Y-116568366D01*
X128640602Y-116583233D01*
X128661447Y-116599515D01*
X128681038Y-116617195D01*
X128699382Y-116636262D01*
X128716478Y-116656700D01*
X128732331Y-116678496D01*
X128746941Y-116701638D01*
X128760314Y-116726109D01*
X128772450Y-116751898D01*
X128783353Y-116778991D01*
X128793025Y-116807374D01*
X128801470Y-116837032D01*
X128808690Y-116867953D01*
X128814686Y-116900124D01*
X128819463Y-116933530D01*
X128823024Y-116968156D01*
X128825368Y-117003990D01*
X128826502Y-117041019D01*
X128829288Y-117056818D01*
X128828505Y-117079558D01*
X128826197Y-117101157D01*
X128822344Y-117121676D01*
X128816926Y-117141181D01*
X128809928Y-117159737D01*
X128801330Y-117177404D01*
X128791113Y-117194248D01*
X128779258Y-117210333D01*
X128765748Y-117225721D01*
X128750562Y-117240478D01*
X128733685Y-117254666D01*
X128715096Y-117268349D01*
X128694777Y-117281592D01*
X128672709Y-117294456D01*
X128648873Y-117307008D01*
X128623253Y-117319310D01*
X128595828Y-117331425D01*
X128566580Y-117343418D01*
X128535491Y-117355353D01*
X128502543Y-117367293D01*
X128430992Y-117391442D01*
X128351778Y-117416378D01*
X127955341Y-117534166D01*
X127832299Y-117571990D01*
X127709978Y-117612808D01*
X127589381Y-117657218D01*
X127471513Y-117705821D01*
X127357380Y-117759213D01*
X127247984Y-117817998D01*
X127144334Y-117882774D01*
X127047432Y-117954139D01*
X126958283Y-118032695D01*
X126916930Y-118074857D01*
X126877892Y-118119041D01*
X126841295Y-118165322D01*
X126807264Y-118213776D01*
X126775925Y-118264476D01*
X126747404Y-118317499D01*
X126721826Y-118372918D01*
X126699316Y-118430811D01*
X126680001Y-118491250D01*
X126664006Y-118554311D01*
X126651456Y-118620070D01*
X126642478Y-118688600D01*
X126637196Y-118759977D01*
X126635736Y-118834275D01*
X126384142Y-118834275D01*
X126395893Y-118755643D01*
X125737311Y-118871769D01*
X125728943Y-118908969D01*
X125719393Y-118945441D01*
X125708678Y-118981165D01*
X125696823Y-119016125D01*
X125683841Y-119050307D01*
X125669759Y-119083693D01*
X125654590Y-119116265D01*
X125638357Y-119148010D01*
X125621081Y-119178911D01*
X125602778Y-119208950D01*
X125583470Y-119238114D01*
X125563176Y-119266381D01*
X125541918Y-119293742D01*
X125519713Y-119320175D01*
X125496582Y-119345668D01*
X125472542Y-119370200D01*
X125447618Y-119393759D01*
X125421825Y-119416327D01*
X125395185Y-119437889D01*
X125367716Y-119458425D01*
X125339440Y-119477924D01*
X125310376Y-119496366D01*
X125280543Y-119513736D01*
X125249959Y-119530017D01*
X125218648Y-119545194D01*
X125186627Y-119559250D01*
X125153914Y-119572170D01*
X125120532Y-119583935D01*
X125086500Y-119594532D01*
X125051837Y-119603942D01*
X125016562Y-119612150D01*
X124980697Y-119619139D01*
X124927579Y-119627074D01*
X124875654Y-119631961D01*
X124824950Y-119633829D01*
X124775502Y-119632714D01*
X124727338Y-119628644D01*
X124680493Y-119621651D01*
X124634998Y-119611769D01*
X124590882Y-119599027D01*
X124548179Y-119583456D01*
X124506920Y-119565090D01*
X124467136Y-119543958D01*
X124428858Y-119520094D01*
X124392121Y-119493528D01*
X124356951Y-119464290D01*
X124323383Y-119432415D01*
X124291448Y-119397931D01*
X124261179Y-119360873D01*
X124232606Y-119321269D01*
X124205760Y-119279153D01*
X124180673Y-119234556D01*
X124157377Y-119187509D01*
X124135904Y-119138045D01*
X124116285Y-119086193D01*
X124098550Y-119031984D01*
X124082733Y-118975453D01*
X124068865Y-118916629D01*
X124056976Y-118855545D01*
X124047100Y-118792231D01*
X124039266Y-118726719D01*
X124033508Y-118659042D01*
X124029855Y-118589229D01*
X124028340Y-118517313D01*
X124030283Y-118376888D01*
X124041007Y-118241853D01*
X124060229Y-118112549D01*
X124087663Y-117989315D01*
X124123027Y-117872492D01*
X124166035Y-117762417D01*
X124216404Y-117659432D01*
X124244260Y-117610704D01*
X124273850Y-117563875D01*
X124305138Y-117518988D01*
X124338088Y-117476086D01*
X124372666Y-117435211D01*
X124408836Y-117396406D01*
X124446561Y-117359712D01*
X124485806Y-117325172D01*
X124526538Y-117292830D01*
X124568719Y-117262727D01*
X124612313Y-117234905D01*
X124657287Y-117209408D01*
X124703604Y-117186277D01*
X124751229Y-117165554D01*
X124800123Y-117147284D01*
X124850257Y-117131508D01*
X124901590Y-117118267D01*
X124954090Y-117107606D01*
X124993794Y-117101416D01*
X125032541Y-117096989D01*
X125070330Y-117094283D01*
X125107153Y-117093261D01*
X125143004Y-117093882D01*
X125177879Y-117096105D01*
X125211773Y-117099891D01*
X125244680Y-117105200D01*
X125276594Y-117111993D01*
X125307511Y-117120228D01*
X125337425Y-117129866D01*
X125366332Y-117140868D01*
X125394223Y-117153193D01*
X125421097Y-117166801D01*
X125446946Y-117181653D01*
X125471766Y-117197708D01*
X125495550Y-117214927D01*
X125518293Y-117233269D01*
X125539993Y-117252695D01*
X125560640Y-117273164D01*
X125580231Y-117294638D01*
X125598760Y-117317075D01*
X125616223Y-117340437D01*
X125632613Y-117364682D01*
X125647925Y-117389771D01*
X125662155Y-117415665D01*
X125687344Y-117469704D01*
X125708136Y-117526479D01*
X125724490Y-117585674D01*
X126380792Y-117469950D01*
X126371613Y-117404700D01*
X126359622Y-117341406D01*
X126344867Y-117280102D01*
X126327400Y-117220827D01*
X126307271Y-117163608D01*
X126284527Y-117108487D01*
X126259222Y-117055494D01*
X126231402Y-117004666D01*
X126201119Y-116956036D01*
X126168424Y-116909642D01*
X126133365Y-116865513D01*
X126095993Y-116823689D01*
X126056357Y-116784201D01*
X126014507Y-116747086D01*
X125970495Y-116712377D01*
X125924368Y-116680109D01*
X125876177Y-116650318D01*
X125825973Y-116623038D01*
X125773806Y-116598301D01*
X125719723Y-116576145D01*
X125663777Y-116556604D01*
X125606017Y-116539712D01*
X125546492Y-116525502D01*
X125485254Y-116514011D01*
X125422351Y-116505274D01*
X125357833Y-116499324D01*
X125291751Y-116496197D01*
X125224155Y-116495926D01*
X125155095Y-116498547D01*
X125084619Y-116504093D01*
X125012778Y-116512601D01*
X124939624Y-116524105D01*
X124848888Y-116542311D01*
X124760262Y-116564509D01*
X124673800Y-116590615D01*
X124589554Y-116620536D01*
X124507579Y-116654187D01*
X124427928Y-116691481D01*
X124350657Y-116732331D01*
X124275819Y-116776647D01*
X124203468Y-116824344D01*
X124133659Y-116875335D01*
X124066442Y-116929530D01*
X124001875Y-116986843D01*
X123940012Y-117047186D01*
X123880905Y-117110473D01*
X123824609Y-117176615D01*
X123771177Y-117245526D01*
X123720664Y-117317117D01*
X123673125Y-117391302D01*
X123628612Y-117467992D01*
X123587180Y-117547101D01*
X123548882Y-117628542D01*
X123513774Y-117712224D01*
X123481908Y-117798065D01*
X123453338Y-117885974D01*
X123428121Y-117975864D01*
X123406306Y-118067647D01*
X123387951Y-118161237D01*
X123373108Y-118256546D01*
X123361832Y-118353486D01*
X123354177Y-118451972D01*
X123350197Y-118551913D01*
X123349945Y-118653223D01*
X122482595Y-118653223D01*
X122281610Y-117513381D01*
X122261708Y-117243844D01*
X122295096Y-116981841D01*
X122377253Y-116736388D01*
X122503274Y-116513762D01*
X122669378Y-116319162D01*
X122871923Y-116158047D01*
X123106727Y-116037063D01*
X123366816Y-115963543D01*
X125057108Y-115665499D01*
X130072773Y-115665499D01*
X130106240Y-119231636D01*
X130780584Y-119112731D01*
X130754925Y-116935891D01*
X130756041Y-116892259D01*
X130759124Y-116849081D01*
X130764137Y-116806403D01*
X130771041Y-116764267D01*
X130779799Y-116722720D01*
X130790370Y-116681806D01*
X130802718Y-116641569D01*
X130816800Y-116602055D01*
X130832583Y-116563307D01*
X130850027Y-116525371D01*
X130869091Y-116488290D01*
X130889738Y-116452112D01*
X130911930Y-116416879D01*
X130935629Y-116382635D01*
X130960794Y-116349428D01*
X130987389Y-116317299D01*
X131015374Y-116286295D01*
X131044711Y-116256460D01*
X131075361Y-116227837D01*
X131107286Y-116200475D01*
X131140448Y-116174415D01*
X131174807Y-116149702D01*
X131210326Y-116126382D01*
X131246966Y-116104499D01*
X131284687Y-116084097D01*
X131323453Y-116065222D01*
X131363223Y-116047919D01*
X131403961Y-116032230D01*
X131445627Y-116018202D01*
X131488181Y-116005879D01*
X131531588Y-115995306D01*
X131575806Y-115986528D01*
X131629709Y-115978152D01*
X131683837Y-115971725D01*
X131736747Y-115967090D01*
X131787001Y-115964096D01*
X131833155Y-115962588D01*
X131873771Y-115962412D01*
X131907407Y-115963417D01*
X131932621Y-115965444D01*
X131927138Y-115301317D01*
X131912931Y-115301336D01*
X131897545Y-115301823D01*
X131863820Y-115304041D01*
X131827133Y-115307655D01*
X131788651Y-115312350D01*
X131749541Y-115317812D01*
X131710973Y-115323723D01*
X131640129Y-115335636D01*
X131564712Y-115351692D01*
X131490870Y-115372897D01*
X131418859Y-115399073D01*
X131348932Y-115430042D01*
X131281345Y-115465628D01*
X131216353Y-115505652D01*
X131154211Y-115549935D01*
X131095173Y-115598301D01*
X131039496Y-115650571D01*
X130987432Y-115706568D01*
X130939239Y-115766114D01*
X130895169Y-115829030D01*
X130855480Y-115895140D01*
X130820425Y-115964265D01*
X130790258Y-116036228D01*
X130765237Y-116110850D01*
X130729150Y-116117213D01*
X130724606Y-115550563D01*
X130072773Y-115665499D01*
X125057108Y-115665499D01*
X127188949Y-115289598D01*
X132204609Y-115289598D01*
X132250627Y-120193011D01*
X132924971Y-120074106D01*
X132907586Y-118181847D01*
X132948135Y-118174697D01*
X133002688Y-118257394D01*
X133035122Y-118301722D01*
X133071510Y-118346839D01*
X133112240Y-118391844D01*
X133157697Y-118435839D01*
X133182317Y-118457175D01*
X133208267Y-118477923D01*
X133235589Y-118497968D01*
X133264336Y-118517196D01*
X133294554Y-118535499D01*
X133326292Y-118552762D01*
X133359599Y-118568873D01*
X133394522Y-118583720D01*
X133431111Y-118597189D01*
X133469412Y-118609170D01*
X133509475Y-118619548D01*
X133551346Y-118628213D01*
X133595077Y-118635052D01*
X133640714Y-118639950D01*
X133688306Y-118642798D01*
X133737901Y-118643483D01*
X133789548Y-118641890D01*
X133843293Y-118637909D01*
X133899188Y-118631427D01*
X133957278Y-118622332D01*
X134035233Y-118606564D01*
X134111736Y-118587032D01*
X134186719Y-118563793D01*
X134260112Y-118536899D01*
X134331845Y-118506408D01*
X134401849Y-118472371D01*
X134470052Y-118434843D01*
X134536388Y-118393880D01*
X134600785Y-118349535D01*
X134663173Y-118301863D01*
X134723484Y-118250918D01*
X134781650Y-118196756D01*
X134837597Y-118139428D01*
X134891257Y-118078992D01*
X134942563Y-118015502D01*
X134991442Y-117949011D01*
X135037827Y-117879573D01*
X135081647Y-117807244D01*
X135122832Y-117732078D01*
X135161312Y-117654128D01*
X135197021Y-117573450D01*
X135229887Y-117490099D01*
X135259837Y-117404128D01*
X135286809Y-117315591D01*
X135310725Y-117224546D01*
X135331522Y-117131042D01*
X135349128Y-117035137D01*
X135363472Y-116936885D01*
X135366820Y-116906325D01*
X135374486Y-116836339D01*
X135382099Y-116733556D01*
X135386246Y-116628589D01*
X135386851Y-116521492D01*
X135384853Y-116450574D01*
X135670139Y-116450574D01*
X135673268Y-116554014D01*
X135680082Y-116654567D01*
X135690527Y-116752174D01*
X135704547Y-116846775D01*
X135722089Y-116938308D01*
X135743097Y-117026713D01*
X135767518Y-117111932D01*
X135795297Y-117193903D01*
X135826380Y-117272565D01*
X135860712Y-117347860D01*
X135898238Y-117419726D01*
X135938904Y-117488104D01*
X135982656Y-117552934D01*
X136029438Y-117614155D01*
X136079198Y-117671706D01*
X136131881Y-117725527D01*
X136187430Y-117775558D01*
X136245792Y-117821740D01*
X136306913Y-117864012D01*
X136370739Y-117902315D01*
X136437214Y-117936586D01*
X136506285Y-117966766D01*
X136577897Y-117992795D01*
X136651996Y-118014615D01*
X136728526Y-118032163D01*
X136807433Y-118045379D01*
X136888664Y-118054201D01*
X136972162Y-118058574D01*
X137057875Y-118058434D01*
X137145748Y-118053721D01*
X137235725Y-118044376D01*
X137327754Y-118030338D01*
X137416814Y-118012532D01*
X137503818Y-117990930D01*
X137588712Y-117965605D01*
X137671442Y-117936630D01*
X137751957Y-117904078D01*
X137830203Y-117868024D01*
X137906126Y-117828542D01*
X137979675Y-117785704D01*
X138050796Y-117739584D01*
X138119435Y-117690256D01*
X138185541Y-117637795D01*
X138249060Y-117582273D01*
X138309938Y-117523764D01*
X138368121Y-117462342D01*
X138423560Y-117398080D01*
X138476199Y-117331052D01*
X138525987Y-117261331D01*
X138572868Y-117188992D01*
X138616791Y-117114108D01*
X138657703Y-117036753D01*
X138695550Y-116956999D01*
X138730280Y-116874922D01*
X138761839Y-116790595D01*
X138790175Y-116704089D01*
X138815235Y-116615482D01*
X138836966Y-116524844D01*
X138855313Y-116432252D01*
X138870225Y-116337776D01*
X138881647Y-116241492D01*
X138889529Y-116143473D01*
X138893816Y-116043793D01*
X138894455Y-115942526D01*
X138891005Y-115838508D01*
X138883877Y-115737414D01*
X138873129Y-115639303D01*
X138858816Y-115544235D01*
X138840993Y-115452268D01*
X138819715Y-115363461D01*
X138795038Y-115277871D01*
X138767018Y-115195559D01*
X138735709Y-115116582D01*
X138701168Y-115041000D01*
X138663450Y-114968873D01*
X138622609Y-114900256D01*
X138578702Y-114835211D01*
X138531785Y-114773795D01*
X138481913Y-114716068D01*
X138429140Y-114662088D01*
X138373523Y-114611914D01*
X138315116Y-114565606D01*
X138253978Y-114523220D01*
X138190159Y-114484816D01*
X138123718Y-114450454D01*
X138054712Y-114420192D01*
X137983191Y-114394088D01*
X137909216Y-114372201D01*
X137832840Y-114354591D01*
X137754119Y-114341315D01*
X137673107Y-114332433D01*
X137589860Y-114328003D01*
X137504437Y-114328085D01*
X137416887Y-114332736D01*
X137327271Y-114342016D01*
X137235642Y-114355984D01*
X137146167Y-114373862D01*
X137058778Y-114395534D01*
X136973524Y-114420927D01*
X136890461Y-114449970D01*
X136809642Y-114482587D01*
X136731120Y-114518709D01*
X136654948Y-114558263D01*
X136581178Y-114601176D01*
X136509865Y-114647375D01*
X136441062Y-114696789D01*
X136374822Y-114749345D01*
X136311198Y-114804971D01*
X136250244Y-114863592D01*
X136192012Y-114925141D01*
X136136556Y-114989539D01*
X136083930Y-115056719D01*
X136034186Y-115126606D01*
X135987379Y-115199128D01*
X135943559Y-115274213D01*
X135902782Y-115351788D01*
X135865101Y-115431781D01*
X135830569Y-115514119D01*
X135799238Y-115598731D01*
X135771163Y-115685542D01*
X135746396Y-115774483D01*
X135724990Y-115865479D01*
X135707000Y-115958458D01*
X135692478Y-116053350D01*
X135681478Y-116150078D01*
X135674053Y-116248574D01*
X135670255Y-116348764D01*
X135670139Y-116450574D01*
X135384853Y-116450574D01*
X135383847Y-116414849D01*
X135377348Y-116311654D01*
X135367428Y-116211930D01*
X135354160Y-116115704D01*
X135337611Y-116022998D01*
X135317859Y-115933839D01*
X135294973Y-115848249D01*
X135269026Y-115766256D01*
X135240089Y-115687883D01*
X135208234Y-115613155D01*
X135173535Y-115542096D01*
X135136064Y-115474733D01*
X135095890Y-115411089D01*
X135053087Y-115351189D01*
X135007728Y-115295057D01*
X134959882Y-115242720D01*
X134909625Y-115194201D01*
X134857027Y-115149525D01*
X134802161Y-115108717D01*
X134745097Y-115071801D01*
X134685909Y-115038803D01*
X134624669Y-115009748D01*
X134561447Y-114984659D01*
X134496319Y-114963562D01*
X134429353Y-114946483D01*
X134360623Y-114933443D01*
X134290201Y-114924470D01*
X134218159Y-114919588D01*
X134144568Y-114918822D01*
X134069502Y-114922195D01*
X133993031Y-114929734D01*
X133915228Y-114941463D01*
X133856162Y-114953044D01*
X133799458Y-114966474D01*
X133745058Y-114981652D01*
X133692910Y-114998481D01*
X133642961Y-115016863D01*
X133595153Y-115036699D01*
X133549434Y-115057893D01*
X133505748Y-115080343D01*
X133424262Y-115128627D01*
X133350261Y-115180765D01*
X133283307Y-115235973D01*
X133222968Y-115293465D01*
X133168805Y-115352459D01*
X133120388Y-115412165D01*
X133077278Y-115471801D01*
X133039041Y-115530582D01*
X133005243Y-115587721D01*
X132975448Y-115642434D01*
X132926127Y-115741442D01*
X132869717Y-115751388D01*
X132863186Y-115173474D01*
X132204609Y-115289598D01*
X127188949Y-115289598D01*
X137951781Y-113391821D01*
X138221235Y-113371968D01*
X138483259Y-113405346D01*
G37*
G36*
X137513210Y-114914014D02*
G01*
X137562609Y-114919351D01*
X137610135Y-114927909D01*
X137655798Y-114939603D01*
X137699608Y-114954349D01*
X137741572Y-114972061D01*
X137781700Y-114992651D01*
X137820003Y-115016036D01*
X137856488Y-115042130D01*
X137891165Y-115070847D01*
X137924042Y-115102102D01*
X137955131Y-115135809D01*
X137984440Y-115171885D01*
X138011978Y-115210239D01*
X138037752Y-115250790D01*
X138061775Y-115293452D01*
X138084055Y-115338139D01*
X138104601Y-115384763D01*
X138123421Y-115433242D01*
X138140526Y-115483490D01*
X138155925Y-115535420D01*
X138169627Y-115588947D01*
X138181641Y-115643986D01*
X138191975Y-115700451D01*
X138200640Y-115758256D01*
X138207645Y-115817318D01*
X138212999Y-115877549D01*
X138216712Y-115938864D01*
X138218792Y-116001177D01*
X138216342Y-116131432D01*
X138206391Y-116259696D01*
X138188917Y-116385274D01*
X138163895Y-116507470D01*
X138131303Y-116625592D01*
X138091114Y-116738945D01*
X138043308Y-116846837D01*
X137987860Y-116948569D01*
X137957262Y-116996911D01*
X137924745Y-117043452D01*
X137890305Y-117088107D01*
X137853940Y-117130789D01*
X137815648Y-117171411D01*
X137775422Y-117209887D01*
X137733263Y-117246128D01*
X137689168Y-117280050D01*
X137643131Y-117311565D01*
X137595151Y-117340585D01*
X137545226Y-117367025D01*
X137493351Y-117390798D01*
X137439524Y-117411817D01*
X137383743Y-117429996D01*
X137326003Y-117445246D01*
X137266301Y-117457482D01*
X137208916Y-117465973D01*
X137153469Y-117470919D01*
X137099954Y-117472408D01*
X137048359Y-117470521D01*
X136998676Y-117465343D01*
X136950894Y-117456960D01*
X136905006Y-117445455D01*
X136861000Y-117430912D01*
X136818868Y-117413415D01*
X136778601Y-117393049D01*
X136740189Y-117369898D01*
X136703622Y-117344047D01*
X136668892Y-117315579D01*
X136635988Y-117284579D01*
X136604902Y-117251132D01*
X136575624Y-117215321D01*
X136548144Y-117177231D01*
X136522455Y-117136946D01*
X136498545Y-117094550D01*
X136476406Y-117050128D01*
X136456027Y-117003762D01*
X136437400Y-116955541D01*
X136420515Y-116905545D01*
X136405364Y-116853860D01*
X136391935Y-116800570D01*
X136380222Y-116745760D01*
X136370212Y-116689512D01*
X136361898Y-116631913D01*
X136355270Y-116573045D01*
X136350318Y-116512994D01*
X136347034Y-116451844D01*
X136345407Y-116389678D01*
X136347043Y-116259489D01*
X136356264Y-116131131D01*
X136373096Y-116005323D01*
X136397566Y-115882776D01*
X136429699Y-115764206D01*
X136469524Y-115650326D01*
X136517068Y-115541851D01*
X136572355Y-115439494D01*
X136602913Y-115390833D01*
X136635416Y-115343969D01*
X136669869Y-115298993D01*
X136706274Y-115255992D01*
X136744637Y-115215057D01*
X136784959Y-115176275D01*
X136827245Y-115139738D01*
X136871495Y-115105533D01*
X136917717Y-115073751D01*
X136965911Y-115044481D01*
X137016082Y-115017810D01*
X137068232Y-114993830D01*
X137122366Y-114972630D01*
X137178488Y-114954297D01*
X137236598Y-114938923D01*
X137296702Y-114926596D01*
X137353683Y-114918191D01*
X137408756Y-114913348D01*
X137461929Y-114911985D01*
X137513210Y-114914014D01*
G37*
G36*
X128838956Y-118166737D02*
G01*
X128838427Y-118206391D01*
X128835976Y-118246102D01*
X128831620Y-118285802D01*
X128825376Y-118325426D01*
X128817264Y-118364905D01*
X128807299Y-118404174D01*
X128795500Y-118443165D01*
X128781884Y-118481811D01*
X128766469Y-118520046D01*
X128749271Y-118557802D01*
X128730309Y-118595013D01*
X128709601Y-118631610D01*
X128687164Y-118667528D01*
X128663015Y-118702700D01*
X128637171Y-118737057D01*
X128609652Y-118770535D01*
X128580472Y-118803066D01*
X128549652Y-118834582D01*
X128517208Y-118865016D01*
X128483157Y-118894302D01*
X128447517Y-118922371D01*
X128410305Y-118949160D01*
X128371541Y-118974600D01*
X128331240Y-118998623D01*
X128289420Y-119021162D01*
X128246099Y-119042151D01*
X128201295Y-119061524D01*
X128155024Y-119079212D01*
X128107304Y-119095149D01*
X128058155Y-119109268D01*
X128007591Y-119121502D01*
X127955632Y-119131784D01*
X127885482Y-119142084D01*
X127818133Y-119147761D01*
X127753816Y-119148788D01*
X127692757Y-119145137D01*
X127663523Y-119141550D01*
X127635189Y-119136782D01*
X127607787Y-119130834D01*
X127581343Y-119123698D01*
X127555888Y-119115373D01*
X127531448Y-119105856D01*
X127508055Y-119095143D01*
X127485735Y-119083229D01*
X127464518Y-119070114D01*
X127444432Y-119055793D01*
X127425507Y-119040261D01*
X127407772Y-119023517D01*
X127391255Y-119005557D01*
X127375984Y-118986377D01*
X127361989Y-118965975D01*
X127349298Y-118944346D01*
X127337940Y-118921488D01*
X127327943Y-118897396D01*
X127319339Y-118872068D01*
X127312153Y-118845502D01*
X127306417Y-118817692D01*
X127302156Y-118788635D01*
X127299400Y-118758330D01*
X127298181Y-118726769D01*
X127298475Y-118692533D01*
X127300676Y-118659335D01*
X127304735Y-118627152D01*
X127310602Y-118595967D01*
X127318227Y-118565756D01*
X127327558Y-118536502D01*
X127338548Y-118508182D01*
X127351145Y-118480778D01*
X127365298Y-118454265D01*
X127380960Y-118428626D01*
X127398080Y-118403839D01*
X127416606Y-118379885D01*
X127436490Y-118356742D01*
X127457682Y-118334390D01*
X127480130Y-118312808D01*
X127503786Y-118291977D01*
X127528599Y-118271874D01*
X127554519Y-118252480D01*
X127581498Y-118233774D01*
X127609483Y-118215737D01*
X127638425Y-118198345D01*
X127668275Y-118181581D01*
X127730494Y-118149849D01*
X127795742Y-118120377D01*
X127863618Y-118093000D01*
X127933722Y-118067553D01*
X128005654Y-118043873D01*
X128212813Y-117978870D01*
X128337601Y-117938105D01*
X128465231Y-117893678D01*
X128587226Y-117846972D01*
X128643463Y-117823199D01*
X128695112Y-117799375D01*
X128741117Y-117775673D01*
X128780416Y-117752267D01*
X128811950Y-117729332D01*
X128834661Y-117707038D01*
X128838956Y-118166737D01*
G37*
D11*
G36*
X206427780Y-69489160D02*
G01*
X206392758Y-69594224D01*
X206325686Y-69661296D01*
X206254780Y-69696749D01*
X206086899Y-69738720D01*
X205968661Y-69738720D01*
X205800780Y-69696749D01*
X205729875Y-69661297D01*
X205662802Y-69594224D01*
X205627780Y-69489159D01*
X205627780Y-69367292D01*
X206427780Y-69367292D01*
X206427780Y-69489160D01*
G37*
G36*
X206738891Y-70049831D02*
G01*
X205316669Y-70049831D01*
X205316669Y-69267292D01*
X205427780Y-69267292D01*
X205427780Y-69505387D01*
X205428752Y-69515260D01*
X205428565Y-69517895D01*
X205429352Y-69521358D01*
X205429701Y-69524896D01*
X205430712Y-69527337D01*
X205432912Y-69537010D01*
X205480532Y-69679868D01*
X205488524Y-69697768D01*
X205490878Y-69700482D01*
X205492253Y-69703801D01*
X205504689Y-69718955D01*
X205599927Y-69814193D01*
X205607593Y-69820484D01*
X205609326Y-69822482D01*
X205612337Y-69824377D01*
X205615081Y-69826629D01*
X205617518Y-69827638D01*
X205625917Y-69832925D01*
X205721154Y-69880544D01*
X205722582Y-69881090D01*
X205723162Y-69881520D01*
X205731338Y-69884441D01*
X205739463Y-69887550D01*
X205740183Y-69887601D01*
X205741622Y-69888115D01*
X205932098Y-69935734D01*
X205935479Y-69936234D01*
X205936843Y-69936799D01*
X205944193Y-69937522D01*
X205951491Y-69938602D01*
X205952949Y-69938384D01*
X205956352Y-69938720D01*
X206099209Y-69938720D01*
X206102611Y-69938384D01*
X206104070Y-69938602D01*
X206111367Y-69937522D01*
X206118718Y-69936799D01*
X206120081Y-69936234D01*
X206123463Y-69935734D01*
X206313938Y-69888115D01*
X206315375Y-69887601D01*
X206316098Y-69887550D01*
X206324222Y-69884441D01*
X206332399Y-69881520D01*
X206332979Y-69881089D01*
X206334406Y-69880544D01*
X206429644Y-69832925D01*
X206438040Y-69827639D01*
X206440480Y-69826629D01*
X206443226Y-69824375D01*
X206446234Y-69822482D01*
X206447963Y-69820487D01*
X206455634Y-69814193D01*
X206550872Y-69718955D01*
X206563308Y-69703801D01*
X206564682Y-69700482D01*
X206567038Y-69697767D01*
X206575029Y-69679867D01*
X206622648Y-69537010D01*
X206624847Y-69527337D01*
X206625859Y-69524896D01*
X206626207Y-69521358D01*
X206626995Y-69517895D01*
X206626807Y-69515260D01*
X206627780Y-69505387D01*
X206627780Y-69267292D01*
X206625859Y-69247783D01*
X206610927Y-69211735D01*
X206583337Y-69184145D01*
X206547289Y-69169213D01*
X206527780Y-69167292D01*
X205527780Y-69167292D01*
X205508271Y-69169213D01*
X205472223Y-69184145D01*
X205444633Y-69211735D01*
X205429701Y-69247783D01*
X205427780Y-69267292D01*
X205316669Y-69267292D01*
X205316669Y-68784116D01*
X205428024Y-68784116D01*
X205429701Y-68797309D01*
X205429701Y-68810610D01*
X205432140Y-68816498D01*
X205432944Y-68822823D01*
X205439544Y-68834372D01*
X205444633Y-68846658D01*
X205449140Y-68851165D01*
X205452303Y-68856700D01*
X205462817Y-68864842D01*
X205472223Y-68874248D01*
X205478113Y-68876687D01*
X205483152Y-68880590D01*
X205495980Y-68884088D01*
X205508271Y-68889180D01*
X205518248Y-68890162D01*
X205520795Y-68890857D01*
X205522762Y-68890606D01*
X205527780Y-68891101D01*
X206527780Y-68891101D01*
X206547289Y-68889180D01*
X206583337Y-68874248D01*
X206610927Y-68846658D01*
X206625859Y-68810610D01*
X206625859Y-68771592D01*
X206610927Y-68735544D01*
X206583337Y-68707954D01*
X206547289Y-68693022D01*
X206527780Y-68691101D01*
X205904336Y-68691101D01*
X206577394Y-68306497D01*
X206581504Y-68303578D01*
X206583337Y-68302820D01*
X206585203Y-68300953D01*
X206593379Y-68295150D01*
X206601523Y-68284633D01*
X206610927Y-68275230D01*
X206613365Y-68269342D01*
X206617270Y-68264301D01*
X206620769Y-68251468D01*
X206625859Y-68239182D01*
X206625859Y-68232806D01*
X206627536Y-68226657D01*
X206625859Y-68213463D01*
X206625859Y-68200164D01*
X206623419Y-68194275D01*
X206622616Y-68187951D01*
X206616015Y-68176401D01*
X206610927Y-68164116D01*
X206606419Y-68159608D01*
X206603257Y-68154074D01*
X206592740Y-68145929D01*
X206583337Y-68136526D01*
X206577449Y-68134087D01*
X206572408Y-68130183D01*
X206559575Y-68126683D01*
X206547289Y-68121594D01*
X206537311Y-68120611D01*
X206534765Y-68119917D01*
X206532797Y-68120167D01*
X206527780Y-68119673D01*
X205527780Y-68119673D01*
X205508271Y-68121594D01*
X205472223Y-68136526D01*
X205444633Y-68164116D01*
X205429701Y-68200164D01*
X205429701Y-68239182D01*
X205444633Y-68275230D01*
X205472223Y-68302820D01*
X205508271Y-68317752D01*
X205527780Y-68319673D01*
X206151224Y-68319673D01*
X205478166Y-68704277D01*
X205474055Y-68707195D01*
X205472223Y-68707954D01*
X205470356Y-68709820D01*
X205462181Y-68715624D01*
X205454038Y-68726138D01*
X205444633Y-68735544D01*
X205442193Y-68741434D01*
X205438291Y-68746473D01*
X205434792Y-68759301D01*
X205429701Y-68771592D01*
X205429701Y-68777967D01*
X205428024Y-68784116D01*
X205316669Y-68784116D01*
X205316669Y-67505387D01*
X205427780Y-67505387D01*
X205427780Y-67600625D01*
X205428752Y-67610498D01*
X205428565Y-67613133D01*
X205429352Y-67616596D01*
X205429701Y-67620134D01*
X205430712Y-67622575D01*
X205432912Y-67632248D01*
X205480532Y-67775106D01*
X205488524Y-67793006D01*
X205490878Y-67795720D01*
X205492253Y-67799039D01*
X205504689Y-67814193D01*
X205552308Y-67861811D01*
X205567461Y-67874248D01*
X205578019Y-67878621D01*
X205603510Y-67889180D01*
X205623019Y-67891101D01*
X205956352Y-67891101D01*
X205975861Y-67889180D01*
X206011909Y-67874248D01*
X206039499Y-67846658D01*
X206054431Y-67810610D01*
X206056352Y-67791101D01*
X206056352Y-67600625D01*
X206054431Y-67581116D01*
X206039499Y-67545068D01*
X206011909Y-67517478D01*
X205975861Y-67502546D01*
X205936843Y-67502546D01*
X205900795Y-67517478D01*
X205873205Y-67545068D01*
X205858273Y-67581116D01*
X205856352Y-67600625D01*
X205856352Y-67691101D01*
X205664441Y-67691101D01*
X205662802Y-67689462D01*
X205627780Y-67584397D01*
X205627780Y-67521614D01*
X205662802Y-67416549D01*
X205729875Y-67349477D01*
X205800780Y-67314024D01*
X205968661Y-67272054D01*
X206086899Y-67272054D01*
X206254780Y-67314024D01*
X206325686Y-67349477D01*
X206392758Y-67416549D01*
X206427780Y-67521613D01*
X206427780Y-67624637D01*
X206390718Y-67698761D01*
X206383712Y-67717069D01*
X206380946Y-67755989D01*
X206393285Y-67793005D01*
X206418849Y-67822482D01*
X206453748Y-67839931D01*
X206492668Y-67842697D01*
X206529684Y-67830358D01*
X206559161Y-67804794D01*
X206569604Y-67788203D01*
X206617223Y-67692966D01*
X206624229Y-67674657D01*
X206624483Y-67671073D01*
X206625859Y-67667753D01*
X206627780Y-67648244D01*
X206627780Y-67505387D01*
X206626807Y-67495513D01*
X206626995Y-67492879D01*
X206626207Y-67489415D01*
X206625859Y-67485878D01*
X206624847Y-67483436D01*
X206622648Y-67473764D01*
X206575029Y-67330907D01*
X206567038Y-67313007D01*
X206564682Y-67310291D01*
X206563308Y-67306973D01*
X206550872Y-67291819D01*
X206455634Y-67196581D01*
X206447963Y-67190286D01*
X206446234Y-67188292D01*
X206443226Y-67186398D01*
X206440480Y-67184145D01*
X206438040Y-67183134D01*
X206429644Y-67177849D01*
X206334406Y-67130230D01*
X206332979Y-67129684D01*
X206332399Y-67129254D01*
X206324222Y-67126332D01*
X206316098Y-67123224D01*
X206315375Y-67123172D01*
X206313938Y-67122659D01*
X206123463Y-67075040D01*
X206120081Y-67074539D01*
X206118718Y-67073975D01*
X206111367Y-67073251D01*
X206104070Y-67072172D01*
X206102611Y-67072389D01*
X206099209Y-67072054D01*
X205956352Y-67072054D01*
X205952949Y-67072389D01*
X205951491Y-67072172D01*
X205944193Y-67073251D01*
X205936843Y-67073975D01*
X205935479Y-67074539D01*
X205932098Y-67075040D01*
X205741622Y-67122659D01*
X205740183Y-67123172D01*
X205739463Y-67123224D01*
X205731338Y-67126332D01*
X205723162Y-67129254D01*
X205722582Y-67129683D01*
X205721154Y-67130230D01*
X205625917Y-67177849D01*
X205617518Y-67183135D01*
X205615081Y-67184145D01*
X205612337Y-67186396D01*
X205609326Y-67188292D01*
X205607593Y-67190289D01*
X205599927Y-67196581D01*
X205504689Y-67291819D01*
X205492253Y-67306973D01*
X205490878Y-67310291D01*
X205488524Y-67313006D01*
X205480532Y-67330906D01*
X205432912Y-67473764D01*
X205430712Y-67483436D01*
X205429701Y-67485878D01*
X205429352Y-67489415D01*
X205428565Y-67492879D01*
X205428752Y-67495513D01*
X205427780Y-67505387D01*
X205316669Y-67505387D01*
X205316669Y-66960943D01*
X206738891Y-66960943D01*
X206738891Y-70049831D01*
G37*
G36*
X204198891Y-71906826D02*
G01*
X202776669Y-71906826D01*
X202776669Y-71701306D01*
X202887928Y-71701306D01*
X202897611Y-71739103D01*
X202921022Y-71770318D01*
X202954597Y-71790197D01*
X202993223Y-71795715D01*
X203031020Y-71786032D01*
X203047780Y-71775863D01*
X203549824Y-71399329D01*
X203917069Y-71766574D01*
X203932222Y-71779010D01*
X203968271Y-71793941D01*
X204007289Y-71793941D01*
X204043337Y-71779010D01*
X204070927Y-71751420D01*
X204085858Y-71715372D01*
X204085858Y-71676354D01*
X204070927Y-71640305D01*
X204058491Y-71625152D01*
X203657774Y-71224435D01*
X203987780Y-71224435D01*
X204007289Y-71222514D01*
X204043337Y-71207582D01*
X204070927Y-71179992D01*
X204085859Y-71143944D01*
X204085859Y-71104926D01*
X204070927Y-71068878D01*
X204043337Y-71041288D01*
X204007289Y-71026356D01*
X203987780Y-71024435D01*
X202987780Y-71024435D01*
X202968271Y-71026356D01*
X202932223Y-71041288D01*
X202904633Y-71068878D01*
X202889701Y-71104926D01*
X202889701Y-71143944D01*
X202904633Y-71179992D01*
X202932223Y-71207582D01*
X202968271Y-71222514D01*
X202987780Y-71224435D01*
X203374930Y-71224435D01*
X203406967Y-71256472D01*
X202927780Y-71615863D01*
X202913325Y-71629105D01*
X202893446Y-71662680D01*
X202887928Y-71701306D01*
X202776669Y-71701306D01*
X202776669Y-70314911D01*
X202887780Y-70314911D01*
X202887780Y-70791101D01*
X202889701Y-70810610D01*
X202904633Y-70846658D01*
X202932223Y-70874248D01*
X202968271Y-70889180D01*
X203007289Y-70889180D01*
X203043337Y-70874248D01*
X203070927Y-70846658D01*
X203085859Y-70810610D01*
X203087780Y-70791101D01*
X203087780Y-70414911D01*
X203987780Y-70414911D01*
X204007289Y-70412990D01*
X204043337Y-70398058D01*
X204070927Y-70370468D01*
X204085859Y-70334420D01*
X204085859Y-70295402D01*
X204070927Y-70259354D01*
X204043337Y-70231764D01*
X204007289Y-70216832D01*
X203987780Y-70214911D01*
X202987780Y-70214911D01*
X202968271Y-70216832D01*
X202932223Y-70231764D01*
X202904633Y-70259354D01*
X202889701Y-70295402D01*
X202887780Y-70314911D01*
X202776669Y-70314911D01*
X202776669Y-69600625D01*
X202887780Y-69600625D01*
X202887780Y-69695863D01*
X202888752Y-69705736D01*
X202888565Y-69708371D01*
X202889352Y-69711834D01*
X202889701Y-69715372D01*
X202890712Y-69717813D01*
X202892912Y-69727486D01*
X202940532Y-69870344D01*
X202948524Y-69888244D01*
X202950878Y-69890958D01*
X202952253Y-69894277D01*
X202964689Y-69909431D01*
X203012308Y-69957049D01*
X203027461Y-69969486D01*
X203063510Y-69984417D01*
X203102528Y-69984417D01*
X203138576Y-69969486D01*
X203166166Y-69941896D01*
X203181097Y-69905848D01*
X203181097Y-69866830D01*
X203166166Y-69830781D01*
X203153729Y-69815628D01*
X203122802Y-69784700D01*
X203087780Y-69679635D01*
X203087780Y-69616852D01*
X203122802Y-69511787D01*
X203189875Y-69444715D01*
X203260780Y-69409262D01*
X203428661Y-69367292D01*
X203546899Y-69367292D01*
X203714780Y-69409262D01*
X203785686Y-69444715D01*
X203852758Y-69511787D01*
X203887780Y-69616851D01*
X203887780Y-69679636D01*
X203852758Y-69784701D01*
X203821831Y-69815628D01*
X203809395Y-69830782D01*
X203794463Y-69866830D01*
X203794463Y-69905848D01*
X203809395Y-69941896D01*
X203836985Y-69969486D01*
X203873033Y-69984418D01*
X203912051Y-69984418D01*
X203948099Y-69969486D01*
X203963253Y-69957050D01*
X204010871Y-69909431D01*
X204023308Y-69894278D01*
X204024682Y-69890958D01*
X204027038Y-69888243D01*
X204035029Y-69870343D01*
X204082648Y-69727486D01*
X204084847Y-69717813D01*
X204085859Y-69715372D01*
X204086207Y-69711834D01*
X204086995Y-69708371D01*
X204086807Y-69705736D01*
X204087780Y-69695863D01*
X204087780Y-69600625D01*
X204086807Y-69590751D01*
X204086995Y-69588117D01*
X204086207Y-69584653D01*
X204085859Y-69581116D01*
X204084847Y-69578674D01*
X204082648Y-69569002D01*
X204035029Y-69426145D01*
X204027038Y-69408245D01*
X204024682Y-69405529D01*
X204023308Y-69402211D01*
X204010872Y-69387057D01*
X203915634Y-69291819D01*
X203907963Y-69285524D01*
X203906234Y-69283530D01*
X203903226Y-69281636D01*
X203900480Y-69279383D01*
X203898040Y-69278372D01*
X203889644Y-69273087D01*
X203794406Y-69225468D01*
X203792979Y-69224922D01*
X203792399Y-69224492D01*
X203784222Y-69221570D01*
X203776098Y-69218462D01*
X203775375Y-69218410D01*
X203773938Y-69217897D01*
X203583463Y-69170278D01*
X203580081Y-69169777D01*
X203578718Y-69169213D01*
X203571367Y-69168489D01*
X203564070Y-69167410D01*
X203562611Y-69167627D01*
X203559209Y-69167292D01*
X203416352Y-69167292D01*
X203412949Y-69167627D01*
X203411491Y-69167410D01*
X203404193Y-69168489D01*
X203396843Y-69169213D01*
X203395479Y-69169777D01*
X203392098Y-69170278D01*
X203201622Y-69217897D01*
X203200183Y-69218410D01*
X203199463Y-69218462D01*
X203191338Y-69221570D01*
X203183162Y-69224492D01*
X203182582Y-69224921D01*
X203181154Y-69225468D01*
X203085917Y-69273087D01*
X203077518Y-69278373D01*
X203075081Y-69279383D01*
X203072337Y-69281634D01*
X203069326Y-69283530D01*
X203067593Y-69285527D01*
X203059927Y-69291819D01*
X202964689Y-69387057D01*
X202952253Y-69402211D01*
X202950878Y-69405529D01*
X202948524Y-69408244D01*
X202940532Y-69426144D01*
X202892912Y-69569002D01*
X202890712Y-69578674D01*
X202889701Y-69581116D01*
X202889352Y-69584653D01*
X202888565Y-69588117D01*
X202888752Y-69590751D01*
X202887780Y-69600625D01*
X202776669Y-69600625D01*
X202776669Y-68318650D01*
X202887849Y-68318650D01*
X202891214Y-68332784D01*
X202893126Y-68347168D01*
X202895696Y-68351608D01*
X202896887Y-68356607D01*
X202905402Y-68368373D01*
X202912675Y-68380936D01*
X202916752Y-68384056D01*
X202919762Y-68388216D01*
X202932124Y-68395823D01*
X202943658Y-68404652D01*
X202950858Y-68407351D01*
X202952992Y-68408665D01*
X202955382Y-68409048D01*
X202962014Y-68411535D01*
X203313959Y-68505387D01*
X202962014Y-68599239D01*
X202955382Y-68601725D01*
X202952992Y-68602109D01*
X202950858Y-68603422D01*
X202943658Y-68606122D01*
X202932124Y-68614950D01*
X202919762Y-68622558D01*
X202916752Y-68626717D01*
X202912675Y-68629838D01*
X202905402Y-68642400D01*
X202896887Y-68654167D01*
X202895696Y-68659165D01*
X202893126Y-68663606D01*
X202891214Y-68677989D01*
X202887849Y-68692124D01*
X202888662Y-68697195D01*
X202887986Y-68702284D01*
X202891727Y-68716316D01*
X202894026Y-68730651D01*
X202896715Y-68735021D01*
X202898039Y-68739985D01*
X202906867Y-68751518D01*
X202914475Y-68763881D01*
X202918634Y-68766890D01*
X202921755Y-68770968D01*
X202934317Y-68778240D01*
X202946084Y-68786756D01*
X202953355Y-68789262D01*
X202955523Y-68790517D01*
X202957920Y-68790835D01*
X202964618Y-68793144D01*
X203964618Y-69031240D01*
X203984041Y-69033890D01*
X204022567Y-69027713D01*
X204055798Y-69007264D01*
X204078673Y-68975655D01*
X204087710Y-68937698D01*
X204081534Y-68899171D01*
X204061085Y-68865941D01*
X204029476Y-68843066D01*
X204010942Y-68836678D01*
X203396468Y-68690374D01*
X203727833Y-68602010D01*
X203732400Y-68600297D01*
X203734324Y-68600042D01*
X203736606Y-68598720D01*
X203746188Y-68595128D01*
X203756670Y-68587103D01*
X203768091Y-68580492D01*
X203772027Y-68575348D01*
X203777171Y-68571412D01*
X203783782Y-68559992D01*
X203791807Y-68549509D01*
X203793476Y-68543248D01*
X203796721Y-68537644D01*
X203798459Y-68524561D01*
X203801860Y-68511808D01*
X203801006Y-68505387D01*
X203801860Y-68498966D01*
X203798459Y-68486212D01*
X203796721Y-68473130D01*
X203793476Y-68467525D01*
X203791807Y-68461265D01*
X203783782Y-68450781D01*
X203777171Y-68439362D01*
X203772027Y-68435425D01*
X203768091Y-68430282D01*
X203756670Y-68423670D01*
X203746188Y-68415646D01*
X203736606Y-68412053D01*
X203734324Y-68410732D01*
X203732400Y-68410476D01*
X203727833Y-68408764D01*
X203396468Y-68320399D01*
X204010942Y-68174097D01*
X204029476Y-68167709D01*
X204061085Y-68144834D01*
X204081534Y-68111604D01*
X204087711Y-68073077D01*
X204078673Y-68035120D01*
X204055798Y-68003511D01*
X204022568Y-67983062D01*
X203984041Y-67976885D01*
X203964618Y-67979535D01*
X202964618Y-68217630D01*
X202957920Y-68219938D01*
X202955523Y-68220257D01*
X202953355Y-68221511D01*
X202946084Y-68224018D01*
X202934317Y-68232533D01*
X202921755Y-68239806D01*
X202918634Y-68243883D01*
X202914475Y-68246893D01*
X202906867Y-68259255D01*
X202898039Y-68270789D01*
X202896715Y-68275752D01*
X202894026Y-68280123D01*
X202891727Y-68294457D01*
X202887986Y-68308490D01*
X202888662Y-68313578D01*
X202887849Y-68318650D01*
X202776669Y-68318650D01*
X202776669Y-67314911D01*
X202887780Y-67314911D01*
X202887780Y-67553006D01*
X202889701Y-67572515D01*
X202891076Y-67575834D01*
X202891331Y-67579420D01*
X202898338Y-67597728D01*
X202945958Y-67692966D01*
X202951242Y-67701361D01*
X202952253Y-67703801D01*
X202954506Y-67706546D01*
X202956401Y-67709557D01*
X202958397Y-67711288D01*
X202964689Y-67718955D01*
X203012308Y-67766573D01*
X203019974Y-67772865D01*
X203021707Y-67774863D01*
X203024715Y-67776756D01*
X203027461Y-67779010D01*
X203029901Y-67780020D01*
X203038298Y-67785306D01*
X203133535Y-67832925D01*
X203151844Y-67839931D01*
X203155427Y-67840185D01*
X203158748Y-67841561D01*
X203178257Y-67843482D01*
X203273495Y-67843482D01*
X203293004Y-67841561D01*
X203296324Y-67840185D01*
X203299908Y-67839931D01*
X203318216Y-67832925D01*
X203413454Y-67785306D01*
X203421850Y-67780020D01*
X203424290Y-67779010D01*
X203427036Y-67776756D01*
X203430044Y-67774863D01*
X203431773Y-67772868D01*
X203439444Y-67766574D01*
X203487062Y-67718955D01*
X203493354Y-67711288D01*
X203495352Y-67709556D01*
X203497245Y-67706547D01*
X203499499Y-67703802D01*
X203500509Y-67701361D01*
X203505795Y-67692965D01*
X203553414Y-67597728D01*
X203553960Y-67596299D01*
X203554390Y-67595720D01*
X203557311Y-67587543D01*
X203560420Y-67579419D01*
X203560471Y-67578698D01*
X203560985Y-67577260D01*
X203605941Y-67397434D01*
X203641395Y-67326527D01*
X203666063Y-67301858D01*
X203725673Y-67272054D01*
X203773697Y-67272054D01*
X203833306Y-67301859D01*
X203857975Y-67326527D01*
X203887780Y-67386137D01*
X203887780Y-67584398D01*
X203845293Y-67711859D01*
X203840946Y-67730975D01*
X203843712Y-67769895D01*
X203861162Y-67804794D01*
X203890638Y-67830359D01*
X203927654Y-67842697D01*
X203966574Y-67839931D01*
X204001473Y-67822481D01*
X204027038Y-67793005D01*
X204035029Y-67775105D01*
X204082648Y-67632248D01*
X204084847Y-67622575D01*
X204085859Y-67620134D01*
X204086207Y-67616596D01*
X204086995Y-67613133D01*
X204086807Y-67610498D01*
X204087780Y-67600625D01*
X204087780Y-67362530D01*
X204085859Y-67343021D01*
X204084483Y-67339700D01*
X204084229Y-67336117D01*
X204077223Y-67317808D01*
X204029604Y-67222571D01*
X204024318Y-67214174D01*
X204023308Y-67211734D01*
X204021054Y-67208988D01*
X204019161Y-67205980D01*
X204017163Y-67204247D01*
X204010871Y-67196581D01*
X203963253Y-67148962D01*
X203955582Y-67142667D01*
X203953853Y-67140673D01*
X203950845Y-67138779D01*
X203948099Y-67136526D01*
X203945659Y-67135515D01*
X203937263Y-67130230D01*
X203842025Y-67082611D01*
X203823717Y-67075605D01*
X203820133Y-67075350D01*
X203816813Y-67073975D01*
X203797304Y-67072054D01*
X203702066Y-67072054D01*
X203682557Y-67073975D01*
X203679236Y-67075350D01*
X203675653Y-67075605D01*
X203657344Y-67082611D01*
X203562107Y-67130230D01*
X203553710Y-67135515D01*
X203551270Y-67136526D01*
X203548524Y-67138779D01*
X203545516Y-67140673D01*
X203543783Y-67142670D01*
X203536117Y-67148963D01*
X203488498Y-67196581D01*
X203482203Y-67204251D01*
X203480209Y-67205981D01*
X203478315Y-67208988D01*
X203476062Y-67211735D01*
X203475051Y-67214174D01*
X203469766Y-67222571D01*
X203422147Y-67317809D01*
X203421601Y-67319235D01*
X203421171Y-67319816D01*
X203418249Y-67327992D01*
X203415141Y-67336117D01*
X203415089Y-67336839D01*
X203414576Y-67338277D01*
X203369619Y-67518101D01*
X203334166Y-67589008D01*
X203309497Y-67613676D01*
X203249888Y-67643482D01*
X203201864Y-67643482D01*
X203142254Y-67613677D01*
X203117583Y-67589006D01*
X203087780Y-67529399D01*
X203087780Y-67331138D01*
X203130268Y-67203677D01*
X203134615Y-67184562D01*
X203131849Y-67145642D01*
X203114400Y-67110743D01*
X203084924Y-67085178D01*
X203047908Y-67072839D01*
X203008988Y-67075605D01*
X202974089Y-67093054D01*
X202948524Y-67122530D01*
X202940532Y-67140430D01*
X202892912Y-67283288D01*
X202890712Y-67292960D01*
X202889701Y-67295402D01*
X202889352Y-67298939D01*
X202888565Y-67302403D01*
X202888752Y-67305037D01*
X202887780Y-67314911D01*
X202776669Y-67314911D01*
X202776669Y-66960943D01*
X204198891Y-66960943D01*
X204198891Y-71906826D01*
G37*
G36*
X201253797Y-70881397D02*
G01*
X201317976Y-70945576D01*
X201347780Y-71005184D01*
X201347780Y-71148446D01*
X201317976Y-71208054D01*
X201253797Y-71272233D01*
X201102137Y-71310148D01*
X200793423Y-71310148D01*
X200641764Y-71272233D01*
X200577583Y-71208052D01*
X200547780Y-71148446D01*
X200547780Y-71005183D01*
X200577583Y-70945577D01*
X200641764Y-70881396D01*
X200793423Y-70843482D01*
X201102137Y-70843482D01*
X201253797Y-70881397D01*
G37*
G36*
X201347780Y-69536779D02*
G01*
X201312758Y-69641843D01*
X201245686Y-69708915D01*
X201174780Y-69744368D01*
X201006899Y-69786339D01*
X200888661Y-69786339D01*
X200720780Y-69744368D01*
X200649875Y-69708916D01*
X200582802Y-69641843D01*
X200547780Y-69536778D01*
X200547780Y-69414911D01*
X201347780Y-69414911D01*
X201347780Y-69536779D01*
G37*
G36*
X201658891Y-71621259D02*
G01*
X200236669Y-71621259D01*
X200236669Y-70981577D01*
X200347780Y-70981577D01*
X200347780Y-71172053D01*
X200349701Y-71191562D01*
X200351076Y-71194881D01*
X200351331Y-71198467D01*
X200358338Y-71216775D01*
X200405958Y-71312013D01*
X200411242Y-71320408D01*
X200412253Y-71322848D01*
X200414506Y-71325593D01*
X200416401Y-71328604D01*
X200418397Y-71330335D01*
X200424689Y-71338002D01*
X200519927Y-71433240D01*
X200535081Y-71445676D01*
X200541949Y-71448521D01*
X200547924Y-71452948D01*
X200566384Y-71459543D01*
X200756860Y-71507162D01*
X200760241Y-71507662D01*
X200761605Y-71508227D01*
X200768955Y-71508950D01*
X200776253Y-71510030D01*
X200777711Y-71509812D01*
X200781114Y-71510148D01*
X201114447Y-71510148D01*
X201117849Y-71509812D01*
X201119308Y-71510030D01*
X201126605Y-71508950D01*
X201133956Y-71508227D01*
X201135319Y-71507662D01*
X201138701Y-71507162D01*
X201329176Y-71459543D01*
X201347637Y-71452948D01*
X201353611Y-71448521D01*
X201360480Y-71445676D01*
X201375634Y-71433240D01*
X201470872Y-71338002D01*
X201477163Y-71330335D01*
X201479161Y-71328603D01*
X201481056Y-71325591D01*
X201483308Y-71322848D01*
X201484317Y-71320410D01*
X201489604Y-71312012D01*
X201537223Y-71216775D01*
X201544229Y-71198466D01*
X201544483Y-71194882D01*
X201545859Y-71191562D01*
X201547780Y-71172053D01*
X201547780Y-70981577D01*
X201545859Y-70962068D01*
X201544483Y-70958747D01*
X201544229Y-70955164D01*
X201537223Y-70936855D01*
X201489604Y-70841618D01*
X201484317Y-70833219D01*
X201483308Y-70830782D01*
X201481056Y-70828038D01*
X201479161Y-70825027D01*
X201477163Y-70823294D01*
X201470872Y-70815628D01*
X201375634Y-70720390D01*
X201360480Y-70707954D01*
X201353611Y-70705108D01*
X201347637Y-70700682D01*
X201329176Y-70694087D01*
X201138701Y-70646468D01*
X201135319Y-70645967D01*
X201133956Y-70645403D01*
X201126605Y-70644679D01*
X201119308Y-70643600D01*
X201117849Y-70643817D01*
X201114447Y-70643482D01*
X200781114Y-70643482D01*
X200777711Y-70643817D01*
X200776253Y-70643600D01*
X200768955Y-70644679D01*
X200761605Y-70645403D01*
X200760241Y-70645967D01*
X200756860Y-70646468D01*
X200566384Y-70694087D01*
X200547924Y-70700682D01*
X200541949Y-70705108D01*
X200535081Y-70707954D01*
X200519927Y-70720390D01*
X200424689Y-70815628D01*
X200418397Y-70823294D01*
X200416401Y-70825026D01*
X200414506Y-70828036D01*
X200412253Y-70830782D01*
X200411242Y-70833221D01*
X200405958Y-70841617D01*
X200358338Y-70936855D01*
X200351331Y-70955163D01*
X200351076Y-70958748D01*
X200349701Y-70962068D01*
X200347780Y-70981577D01*
X200236669Y-70981577D01*
X200236669Y-70295402D01*
X200349701Y-70295402D01*
X200349701Y-70334420D01*
X200364633Y-70370468D01*
X200392223Y-70398058D01*
X200428271Y-70412990D01*
X200447780Y-70414911D01*
X201447780Y-70414911D01*
X201467289Y-70412990D01*
X201503337Y-70398058D01*
X201530927Y-70370468D01*
X201545859Y-70334420D01*
X201545859Y-70295402D01*
X201530927Y-70259354D01*
X201503337Y-70231764D01*
X201467289Y-70216832D01*
X201447780Y-70214911D01*
X200447780Y-70214911D01*
X200428271Y-70216832D01*
X200392223Y-70231764D01*
X200364633Y-70259354D01*
X200349701Y-70295402D01*
X200236669Y-70295402D01*
X200236669Y-69314911D01*
X200347780Y-69314911D01*
X200347780Y-69553006D01*
X200348752Y-69562879D01*
X200348565Y-69565514D01*
X200349352Y-69568977D01*
X200349701Y-69572515D01*
X200350712Y-69574956D01*
X200352912Y-69584629D01*
X200400532Y-69727487D01*
X200408524Y-69745387D01*
X200410878Y-69748101D01*
X200412253Y-69751420D01*
X200424689Y-69766574D01*
X200519927Y-69861812D01*
X200527593Y-69868103D01*
X200529326Y-69870101D01*
X200532337Y-69871996D01*
X200535081Y-69874248D01*
X200537518Y-69875257D01*
X200545917Y-69880544D01*
X200641154Y-69928163D01*
X200642582Y-69928709D01*
X200643162Y-69929139D01*
X200651338Y-69932060D01*
X200659463Y-69935169D01*
X200660183Y-69935220D01*
X200661622Y-69935734D01*
X200852098Y-69983353D01*
X200855479Y-69983853D01*
X200856843Y-69984418D01*
X200864193Y-69985141D01*
X200871491Y-69986221D01*
X200872949Y-69986003D01*
X200876352Y-69986339D01*
X201019209Y-69986339D01*
X201022611Y-69986003D01*
X201024070Y-69986221D01*
X201031367Y-69985141D01*
X201038718Y-69984418D01*
X201040081Y-69983853D01*
X201043463Y-69983353D01*
X201233938Y-69935734D01*
X201235375Y-69935220D01*
X201236098Y-69935169D01*
X201244222Y-69932060D01*
X201252399Y-69929139D01*
X201252979Y-69928708D01*
X201254406Y-69928163D01*
X201349644Y-69880544D01*
X201358040Y-69875258D01*
X201360480Y-69874248D01*
X201363226Y-69871994D01*
X201366234Y-69870101D01*
X201367963Y-69868106D01*
X201375634Y-69861812D01*
X201470872Y-69766574D01*
X201483308Y-69751420D01*
X201484682Y-69748101D01*
X201487038Y-69745386D01*
X201495029Y-69727486D01*
X201542648Y-69584629D01*
X201544847Y-69574956D01*
X201545859Y-69572515D01*
X201546207Y-69568977D01*
X201546995Y-69565514D01*
X201546807Y-69562879D01*
X201547780Y-69553006D01*
X201547780Y-69314911D01*
X201545859Y-69295402D01*
X201530927Y-69259354D01*
X201503337Y-69231764D01*
X201467289Y-69216832D01*
X201447780Y-69214911D01*
X200447780Y-69214911D01*
X200428271Y-69216832D01*
X200392223Y-69231764D01*
X200364633Y-69259354D01*
X200349701Y-69295402D01*
X200347780Y-69314911D01*
X200236669Y-69314911D01*
X200236669Y-68318650D01*
X200347849Y-68318650D01*
X200351214Y-68332784D01*
X200353126Y-68347168D01*
X200355696Y-68351608D01*
X200356887Y-68356607D01*
X200365402Y-68368373D01*
X200372675Y-68380936D01*
X200376752Y-68384056D01*
X200379762Y-68388216D01*
X200392124Y-68395823D01*
X200403658Y-68404652D01*
X200410858Y-68407351D01*
X200412992Y-68408665D01*
X200415382Y-68409048D01*
X200422014Y-68411535D01*
X200773959Y-68505387D01*
X200422014Y-68599239D01*
X200415382Y-68601725D01*
X200412992Y-68602109D01*
X200410858Y-68603422D01*
X200403658Y-68606122D01*
X200392124Y-68614950D01*
X200379762Y-68622558D01*
X200376752Y-68626717D01*
X200372675Y-68629838D01*
X200365402Y-68642400D01*
X200356887Y-68654167D01*
X200355696Y-68659165D01*
X200353126Y-68663606D01*
X200351214Y-68677989D01*
X200347849Y-68692124D01*
X200348662Y-68697195D01*
X200347986Y-68702284D01*
X200351727Y-68716316D01*
X200354026Y-68730651D01*
X200356715Y-68735021D01*
X200358039Y-68739985D01*
X200366867Y-68751518D01*
X200374475Y-68763881D01*
X200378634Y-68766890D01*
X200381755Y-68770968D01*
X200394317Y-68778240D01*
X200406084Y-68786756D01*
X200413355Y-68789262D01*
X200415523Y-68790517D01*
X200417920Y-68790835D01*
X200424618Y-68793144D01*
X201424618Y-69031240D01*
X201444041Y-69033890D01*
X201482567Y-69027713D01*
X201515798Y-69007264D01*
X201538673Y-68975655D01*
X201547710Y-68937698D01*
X201541534Y-68899171D01*
X201521085Y-68865941D01*
X201489476Y-68843066D01*
X201470942Y-68836678D01*
X200856468Y-68690374D01*
X201187833Y-68602010D01*
X201192400Y-68600297D01*
X201194324Y-68600042D01*
X201196606Y-68598720D01*
X201206188Y-68595128D01*
X201216670Y-68587103D01*
X201228091Y-68580492D01*
X201232027Y-68575348D01*
X201237171Y-68571412D01*
X201243782Y-68559992D01*
X201251807Y-68549509D01*
X201253476Y-68543248D01*
X201256721Y-68537644D01*
X201258459Y-68524561D01*
X201261860Y-68511808D01*
X201261006Y-68505387D01*
X201261860Y-68498966D01*
X201258459Y-68486212D01*
X201256721Y-68473130D01*
X201253476Y-68467525D01*
X201251807Y-68461265D01*
X201243782Y-68450781D01*
X201237171Y-68439362D01*
X201232027Y-68435425D01*
X201228091Y-68430282D01*
X201216670Y-68423670D01*
X201206188Y-68415646D01*
X201196606Y-68412053D01*
X201194324Y-68410732D01*
X201192400Y-68410476D01*
X201187833Y-68408764D01*
X200856468Y-68320399D01*
X201470942Y-68174097D01*
X201489476Y-68167709D01*
X201521085Y-68144834D01*
X201541534Y-68111604D01*
X201547711Y-68073077D01*
X201538673Y-68035120D01*
X201515798Y-68003511D01*
X201482568Y-67983062D01*
X201444041Y-67976885D01*
X201424618Y-67979535D01*
X200424618Y-68217630D01*
X200417920Y-68219938D01*
X200415523Y-68220257D01*
X200413355Y-68221511D01*
X200406084Y-68224018D01*
X200394317Y-68232533D01*
X200381755Y-68239806D01*
X200378634Y-68243883D01*
X200374475Y-68246893D01*
X200366867Y-68259255D01*
X200358039Y-68270789D01*
X200356715Y-68275752D01*
X200354026Y-68280123D01*
X200351727Y-68294457D01*
X200347986Y-68308490D01*
X200348662Y-68313578D01*
X200347849Y-68318650D01*
X200236669Y-68318650D01*
X200236669Y-67314911D01*
X200347780Y-67314911D01*
X200347780Y-67553006D01*
X200349701Y-67572515D01*
X200351076Y-67575834D01*
X200351331Y-67579420D01*
X200358338Y-67597728D01*
X200405958Y-67692966D01*
X200411242Y-67701361D01*
X200412253Y-67703801D01*
X200414506Y-67706546D01*
X200416401Y-67709557D01*
X200418397Y-67711288D01*
X200424689Y-67718955D01*
X200472308Y-67766573D01*
X200479974Y-67772865D01*
X200481707Y-67774863D01*
X200484715Y-67776756D01*
X200487461Y-67779010D01*
X200489901Y-67780020D01*
X200498298Y-67785306D01*
X200593535Y-67832925D01*
X200611844Y-67839931D01*
X200615427Y-67840185D01*
X200618748Y-67841561D01*
X200638257Y-67843482D01*
X200733495Y-67843482D01*
X200753004Y-67841561D01*
X200756324Y-67840185D01*
X200759908Y-67839931D01*
X200778216Y-67832925D01*
X200873454Y-67785306D01*
X200881850Y-67780020D01*
X200884290Y-67779010D01*
X200887036Y-67776756D01*
X200890044Y-67774863D01*
X200891773Y-67772868D01*
X200899444Y-67766574D01*
X200947062Y-67718955D01*
X200953354Y-67711288D01*
X200955352Y-67709556D01*
X200957245Y-67706547D01*
X200959499Y-67703802D01*
X200960509Y-67701361D01*
X200965795Y-67692965D01*
X201013414Y-67597728D01*
X201013960Y-67596299D01*
X201014390Y-67595720D01*
X201017311Y-67587543D01*
X201020420Y-67579419D01*
X201020471Y-67578698D01*
X201020985Y-67577260D01*
X201065941Y-67397434D01*
X201101395Y-67326527D01*
X201126063Y-67301858D01*
X201185673Y-67272054D01*
X201233697Y-67272054D01*
X201293306Y-67301859D01*
X201317975Y-67326527D01*
X201347780Y-67386137D01*
X201347780Y-67584398D01*
X201305293Y-67711859D01*
X201300946Y-67730975D01*
X201303712Y-67769895D01*
X201321162Y-67804794D01*
X201350638Y-67830359D01*
X201387654Y-67842697D01*
X201426574Y-67839931D01*
X201461473Y-67822481D01*
X201487038Y-67793005D01*
X201495029Y-67775105D01*
X201542648Y-67632248D01*
X201544847Y-67622575D01*
X201545859Y-67620134D01*
X201546207Y-67616596D01*
X201546995Y-67613133D01*
X201546807Y-67610498D01*
X201547780Y-67600625D01*
X201547780Y-67362530D01*
X201545859Y-67343021D01*
X201544483Y-67339700D01*
X201544229Y-67336117D01*
X201537223Y-67317808D01*
X201489604Y-67222571D01*
X201484318Y-67214174D01*
X201483308Y-67211734D01*
X201481054Y-67208988D01*
X201479161Y-67205980D01*
X201477163Y-67204247D01*
X201470871Y-67196581D01*
X201423253Y-67148962D01*
X201415582Y-67142667D01*
X201413853Y-67140673D01*
X201410845Y-67138779D01*
X201408099Y-67136526D01*
X201405659Y-67135515D01*
X201397263Y-67130230D01*
X201302025Y-67082611D01*
X201283717Y-67075605D01*
X201280133Y-67075350D01*
X201276813Y-67073975D01*
X201257304Y-67072054D01*
X201162066Y-67072054D01*
X201142557Y-67073975D01*
X201139236Y-67075350D01*
X201135653Y-67075605D01*
X201117344Y-67082611D01*
X201022107Y-67130230D01*
X201013710Y-67135515D01*
X201011270Y-67136526D01*
X201008524Y-67138779D01*
X201005516Y-67140673D01*
X201003783Y-67142670D01*
X200996117Y-67148963D01*
X200948498Y-67196581D01*
X200942203Y-67204251D01*
X200940209Y-67205981D01*
X200938315Y-67208988D01*
X200936062Y-67211735D01*
X200935051Y-67214174D01*
X200929766Y-67222571D01*
X200882147Y-67317809D01*
X200881601Y-67319235D01*
X200881171Y-67319816D01*
X200878249Y-67327992D01*
X200875141Y-67336117D01*
X200875089Y-67336839D01*
X200874576Y-67338277D01*
X200829619Y-67518101D01*
X200794166Y-67589008D01*
X200769497Y-67613676D01*
X200709888Y-67643482D01*
X200661864Y-67643482D01*
X200602254Y-67613677D01*
X200577583Y-67589006D01*
X200547780Y-67529399D01*
X200547780Y-67331138D01*
X200590268Y-67203677D01*
X200594615Y-67184562D01*
X200591849Y-67145642D01*
X200574400Y-67110743D01*
X200544924Y-67085178D01*
X200507908Y-67072839D01*
X200468988Y-67075605D01*
X200434089Y-67093054D01*
X200408524Y-67122530D01*
X200400532Y-67140430D01*
X200352912Y-67283288D01*
X200350712Y-67292960D01*
X200349701Y-67295402D01*
X200349352Y-67298939D01*
X200348565Y-67302403D01*
X200348752Y-67305037D01*
X200347780Y-67314911D01*
X200236669Y-67314911D01*
X200236669Y-66960943D01*
X201658891Y-66960943D01*
X201658891Y-71621259D01*
G37*
G36*
X199118891Y-69957434D02*
G01*
X197696669Y-69957434D01*
X197696669Y-69462530D01*
X197807780Y-69462530D01*
X197807780Y-69557768D01*
X197808752Y-69567641D01*
X197808565Y-69570276D01*
X197809352Y-69573739D01*
X197809701Y-69577277D01*
X197810712Y-69579718D01*
X197812912Y-69589391D01*
X197860532Y-69732249D01*
X197868524Y-69750149D01*
X197870878Y-69752863D01*
X197872253Y-69756182D01*
X197884689Y-69771336D01*
X197932308Y-69818954D01*
X197947461Y-69831391D01*
X197983510Y-69846322D01*
X198022528Y-69846322D01*
X198058576Y-69831391D01*
X198086166Y-69803801D01*
X198101097Y-69767753D01*
X198101097Y-69728735D01*
X198086166Y-69692686D01*
X198073729Y-69677533D01*
X198042802Y-69646605D01*
X198007780Y-69541540D01*
X198007780Y-69478757D01*
X198042802Y-69373692D01*
X198109875Y-69306620D01*
X198180780Y-69271167D01*
X198348661Y-69229197D01*
X198466899Y-69229197D01*
X198634780Y-69271167D01*
X198705686Y-69306620D01*
X198772758Y-69373692D01*
X198807780Y-69478756D01*
X198807780Y-69541541D01*
X198772758Y-69646606D01*
X198741831Y-69677533D01*
X198729395Y-69692687D01*
X198714463Y-69728735D01*
X198714463Y-69767753D01*
X198729395Y-69803801D01*
X198756985Y-69831391D01*
X198793033Y-69846323D01*
X198832051Y-69846323D01*
X198868099Y-69831391D01*
X198883253Y-69818955D01*
X198930871Y-69771336D01*
X198943308Y-69756183D01*
X198944682Y-69752863D01*
X198947038Y-69750148D01*
X198955029Y-69732248D01*
X199002648Y-69589391D01*
X199004847Y-69579718D01*
X199005859Y-69577277D01*
X199006207Y-69573739D01*
X199006995Y-69570276D01*
X199006807Y-69567641D01*
X199007780Y-69557768D01*
X199007780Y-69462530D01*
X199006807Y-69452656D01*
X199006995Y-69450022D01*
X199006207Y-69446558D01*
X199005859Y-69443021D01*
X199004847Y-69440579D01*
X199002648Y-69430907D01*
X198955029Y-69288050D01*
X198947038Y-69270150D01*
X198944682Y-69267434D01*
X198943308Y-69264116D01*
X198930872Y-69248962D01*
X198835634Y-69153724D01*
X198827963Y-69147429D01*
X198826234Y-69145435D01*
X198823226Y-69143541D01*
X198820480Y-69141288D01*
X198818040Y-69140277D01*
X198809644Y-69134992D01*
X198714406Y-69087373D01*
X198712979Y-69086827D01*
X198712399Y-69086397D01*
X198704222Y-69083475D01*
X198696098Y-69080367D01*
X198695375Y-69080315D01*
X198693938Y-69079802D01*
X198503463Y-69032183D01*
X198500081Y-69031682D01*
X198498718Y-69031118D01*
X198491367Y-69030394D01*
X198484070Y-69029315D01*
X198482611Y-69029532D01*
X198479209Y-69029197D01*
X198336352Y-69029197D01*
X198332949Y-69029532D01*
X198331491Y-69029315D01*
X198324193Y-69030394D01*
X198316843Y-69031118D01*
X198315479Y-69031682D01*
X198312098Y-69032183D01*
X198121622Y-69079802D01*
X198120183Y-69080315D01*
X198119463Y-69080367D01*
X198111338Y-69083475D01*
X198103162Y-69086397D01*
X198102582Y-69086826D01*
X198101154Y-69087373D01*
X198005917Y-69134992D01*
X197997518Y-69140278D01*
X197995081Y-69141288D01*
X197992337Y-69143539D01*
X197989326Y-69145435D01*
X197987593Y-69147432D01*
X197979927Y-69153724D01*
X197884689Y-69248962D01*
X197872253Y-69264116D01*
X197870878Y-69267434D01*
X197868524Y-69270149D01*
X197860532Y-69288049D01*
X197812912Y-69430907D01*
X197810712Y-69440579D01*
X197809701Y-69443021D01*
X197809352Y-69446558D01*
X197808565Y-69450022D01*
X197808752Y-69452656D01*
X197807780Y-69462530D01*
X197696669Y-69462530D01*
X197696669Y-68462530D01*
X197807780Y-68462530D01*
X197807780Y-68557768D01*
X197808752Y-68567641D01*
X197808565Y-68570276D01*
X197809352Y-68573739D01*
X197809701Y-68577277D01*
X197810712Y-68579718D01*
X197812912Y-68589391D01*
X197860532Y-68732249D01*
X197868524Y-68750149D01*
X197870878Y-68752863D01*
X197872253Y-68756182D01*
X197884689Y-68771336D01*
X197932308Y-68818954D01*
X197947461Y-68831391D01*
X197983510Y-68846322D01*
X198022528Y-68846322D01*
X198058576Y-68831391D01*
X198086166Y-68803801D01*
X198101097Y-68767753D01*
X198101097Y-68728735D01*
X198086166Y-68692686D01*
X198073729Y-68677533D01*
X198042802Y-68646605D01*
X198007780Y-68541540D01*
X198007780Y-68478757D01*
X198042802Y-68373692D01*
X198109875Y-68306620D01*
X198180780Y-68271167D01*
X198348661Y-68229197D01*
X198466899Y-68229197D01*
X198634780Y-68271167D01*
X198705686Y-68306620D01*
X198772758Y-68373692D01*
X198807780Y-68478756D01*
X198807780Y-68541541D01*
X198772758Y-68646606D01*
X198741831Y-68677533D01*
X198729395Y-68692687D01*
X198714463Y-68728735D01*
X198714463Y-68767753D01*
X198729395Y-68803801D01*
X198756985Y-68831391D01*
X198793033Y-68846323D01*
X198832051Y-68846323D01*
X198868099Y-68831391D01*
X198883253Y-68818955D01*
X198930871Y-68771336D01*
X198943308Y-68756183D01*
X198944682Y-68752863D01*
X198947038Y-68750148D01*
X198955029Y-68732248D01*
X199002648Y-68589391D01*
X199004847Y-68579718D01*
X199005859Y-68577277D01*
X199006207Y-68573739D01*
X199006995Y-68570276D01*
X199006807Y-68567641D01*
X199007780Y-68557768D01*
X199007780Y-68462530D01*
X199006807Y-68452656D01*
X199006995Y-68450022D01*
X199006207Y-68446558D01*
X199005859Y-68443021D01*
X199004847Y-68440579D01*
X199002648Y-68430907D01*
X198955029Y-68288050D01*
X198947038Y-68270150D01*
X198944682Y-68267434D01*
X198943308Y-68264116D01*
X198930872Y-68248962D01*
X198835634Y-68153724D01*
X198827963Y-68147429D01*
X198826234Y-68145435D01*
X198823226Y-68143541D01*
X198820480Y-68141288D01*
X198818040Y-68140277D01*
X198809644Y-68134992D01*
X198714406Y-68087373D01*
X198712979Y-68086827D01*
X198712399Y-68086397D01*
X198704222Y-68083475D01*
X198696098Y-68080367D01*
X198695375Y-68080315D01*
X198693938Y-68079802D01*
X198503463Y-68032183D01*
X198500081Y-68031682D01*
X198498718Y-68031118D01*
X198491367Y-68030394D01*
X198484070Y-68029315D01*
X198482611Y-68029532D01*
X198479209Y-68029197D01*
X198336352Y-68029197D01*
X198332949Y-68029532D01*
X198331491Y-68029315D01*
X198324193Y-68030394D01*
X198316843Y-68031118D01*
X198315479Y-68031682D01*
X198312098Y-68032183D01*
X198121622Y-68079802D01*
X198120183Y-68080315D01*
X198119463Y-68080367D01*
X198111338Y-68083475D01*
X198103162Y-68086397D01*
X198102582Y-68086826D01*
X198101154Y-68087373D01*
X198005917Y-68134992D01*
X197997518Y-68140278D01*
X197995081Y-68141288D01*
X197992337Y-68143539D01*
X197989326Y-68145435D01*
X197987593Y-68147432D01*
X197979927Y-68153724D01*
X197884689Y-68248962D01*
X197872253Y-68264116D01*
X197870878Y-68267434D01*
X197868524Y-68270149D01*
X197860532Y-68288049D01*
X197812912Y-68430907D01*
X197810712Y-68440579D01*
X197809701Y-68443021D01*
X197809352Y-68446558D01*
X197808565Y-68450022D01*
X197808752Y-68452656D01*
X197807780Y-68462530D01*
X197696669Y-68462530D01*
X197696669Y-67497642D01*
X197808565Y-67497642D01*
X197809453Y-67510149D01*
X197808565Y-67522656D01*
X197810824Y-67529434D01*
X197811331Y-67536562D01*
X197816937Y-67547774D01*
X197820903Y-67559672D01*
X197825586Y-67565071D01*
X197828781Y-67571461D01*
X197838252Y-67579676D01*
X197846468Y-67589148D01*
X197852857Y-67592342D01*
X197858257Y-67597026D01*
X197876157Y-67605017D01*
X198876157Y-67938350D01*
X198895272Y-67942697D01*
X198934192Y-67939931D01*
X198969091Y-67922481D01*
X198994656Y-67893005D01*
X199006995Y-67855989D01*
X199004228Y-67817069D01*
X198986779Y-67782170D01*
X198957303Y-67756605D01*
X198939402Y-67748614D01*
X198224007Y-67510149D01*
X198939402Y-67271684D01*
X198957303Y-67263693D01*
X198986779Y-67238128D01*
X199004228Y-67203229D01*
X199006995Y-67164309D01*
X198994656Y-67127293D01*
X198969091Y-67097817D01*
X198934192Y-67080367D01*
X198895272Y-67077601D01*
X198876157Y-67081948D01*
X197876157Y-67415281D01*
X197858257Y-67423272D01*
X197852857Y-67427955D01*
X197846468Y-67431150D01*
X197838252Y-67440621D01*
X197828781Y-67448837D01*
X197825586Y-67455226D01*
X197820903Y-67460626D01*
X197816937Y-67472523D01*
X197811331Y-67483736D01*
X197810824Y-67490863D01*
X197808565Y-67497642D01*
X197696669Y-67497642D01*
X197696669Y-66966490D01*
X199118891Y-66966490D01*
X199118891Y-69957434D01*
G37*
D12*
X147954819Y-111614285D02*
X146954819Y-111614285D01*
X146954819Y-111614285D02*
X146954819Y-111376190D01*
X146954819Y-111376190D02*
X147002438Y-111233333D01*
X147002438Y-111233333D02*
X147097676Y-111138095D01*
X147097676Y-111138095D02*
X147192914Y-111090476D01*
X147192914Y-111090476D02*
X147383390Y-111042857D01*
X147383390Y-111042857D02*
X147526247Y-111042857D01*
X147526247Y-111042857D02*
X147716723Y-111090476D01*
X147716723Y-111090476D02*
X147811961Y-111138095D01*
X147811961Y-111138095D02*
X147907200Y-111233333D01*
X147907200Y-111233333D02*
X147954819Y-111376190D01*
X147954819Y-111376190D02*
X147954819Y-111614285D01*
X147050057Y-110661904D02*
X147002438Y-110614285D01*
X147002438Y-110614285D02*
X146954819Y-110519047D01*
X146954819Y-110519047D02*
X146954819Y-110280952D01*
X146954819Y-110280952D02*
X147002438Y-110185714D01*
X147002438Y-110185714D02*
X147050057Y-110138095D01*
X147050057Y-110138095D02*
X147145295Y-110090476D01*
X147145295Y-110090476D02*
X147240533Y-110090476D01*
X147240533Y-110090476D02*
X147383390Y-110138095D01*
X147383390Y-110138095D02*
X147954819Y-110709523D01*
X147954819Y-110709523D02*
X147954819Y-110090476D01*
X146954819Y-109471428D02*
X146954819Y-109376190D01*
X146954819Y-109376190D02*
X147002438Y-109280952D01*
X147002438Y-109280952D02*
X147050057Y-109233333D01*
X147050057Y-109233333D02*
X147145295Y-109185714D01*
X147145295Y-109185714D02*
X147335771Y-109138095D01*
X147335771Y-109138095D02*
X147573866Y-109138095D01*
X147573866Y-109138095D02*
X147764342Y-109185714D01*
X147764342Y-109185714D02*
X147859580Y-109233333D01*
X147859580Y-109233333D02*
X147907200Y-109280952D01*
X147907200Y-109280952D02*
X147954819Y-109376190D01*
X147954819Y-109376190D02*
X147954819Y-109471428D01*
X147954819Y-109471428D02*
X147907200Y-109566666D01*
X147907200Y-109566666D02*
X147859580Y-109614285D01*
X147859580Y-109614285D02*
X147764342Y-109661904D01*
X147764342Y-109661904D02*
X147573866Y-109709523D01*
X147573866Y-109709523D02*
X147335771Y-109709523D01*
X147335771Y-109709523D02*
X147145295Y-109661904D01*
X147145295Y-109661904D02*
X147050057Y-109614285D01*
X147050057Y-109614285D02*
X147002438Y-109566666D01*
X147002438Y-109566666D02*
X146954819Y-109471428D01*
X143954819Y-111614285D02*
X142954819Y-111614285D01*
X142954819Y-111614285D02*
X142954819Y-111376190D01*
X142954819Y-111376190D02*
X143002438Y-111233333D01*
X143002438Y-111233333D02*
X143097676Y-111138095D01*
X143097676Y-111138095D02*
X143192914Y-111090476D01*
X143192914Y-111090476D02*
X143383390Y-111042857D01*
X143383390Y-111042857D02*
X143526247Y-111042857D01*
X143526247Y-111042857D02*
X143716723Y-111090476D01*
X143716723Y-111090476D02*
X143811961Y-111138095D01*
X143811961Y-111138095D02*
X143907200Y-111233333D01*
X143907200Y-111233333D02*
X143954819Y-111376190D01*
X143954819Y-111376190D02*
X143954819Y-111614285D01*
X143050057Y-110661904D02*
X143002438Y-110614285D01*
X143002438Y-110614285D02*
X142954819Y-110519047D01*
X142954819Y-110519047D02*
X142954819Y-110280952D01*
X142954819Y-110280952D02*
X143002438Y-110185714D01*
X143002438Y-110185714D02*
X143050057Y-110138095D01*
X143050057Y-110138095D02*
X143145295Y-110090476D01*
X143145295Y-110090476D02*
X143240533Y-110090476D01*
X143240533Y-110090476D02*
X143383390Y-110138095D01*
X143383390Y-110138095D02*
X143954819Y-110709523D01*
X143954819Y-110709523D02*
X143954819Y-110090476D01*
X143954819Y-109138095D02*
X143954819Y-109709523D01*
X143954819Y-109423809D02*
X142954819Y-109423809D01*
X142954819Y-109423809D02*
X143097676Y-109519047D01*
X143097676Y-109519047D02*
X143192914Y-109614285D01*
X143192914Y-109614285D02*
X143240533Y-109709523D01*
D13*
X146765000Y-106500000D02*
X146765000Y-108785000D01*
X146765000Y-108785000D02*
X148235000Y-108785000D01*
X148235000Y-108785000D02*
X148235000Y-106500000D01*
X197030000Y-64320000D02*
X197030000Y-66980000D01*
X207310000Y-64320000D02*
X197030000Y-64320000D01*
X207310000Y-64320000D02*
X207310000Y-66980000D01*
X207310000Y-66980000D02*
X197030000Y-66980000D01*
X142765000Y-106500000D02*
X142765000Y-108785000D01*
X142765000Y-108785000D02*
X144235000Y-108785000D01*
X144235000Y-108785000D02*
X144235000Y-106500000D01*
%LPC*%
D14*
X147500000Y-108087500D03*
X147500000Y-106512500D03*
D15*
X111784477Y-83118956D03*
X169554515Y-77399999D03*
D16*
X205980000Y-65650000D03*
D17*
X203440000Y-65650000D03*
X200900000Y-65650000D03*
X198360000Y-65650000D03*
D15*
X194177165Y-120406206D03*
D14*
X143500000Y-108087500D03*
X143500000Y-106512500D03*
D15*
X118252436Y-114041804D03*
D18*
X165700000Y-100900000D03*
D19*
X160200000Y-100900000D03*
D18*
X154700000Y-100900000D03*
X183700000Y-68900000D03*
D19*
X178200000Y-68900000D03*
D18*
X172700000Y-68900000D03*
X183700000Y-102900000D03*
D19*
X178200000Y-102900000D03*
D18*
X172700000Y-102900000D03*
X127338254Y-68747675D03*
D19*
X121851652Y-69131336D03*
D18*
X116365050Y-69514997D03*
X110255621Y-100650787D03*
D19*
X104839178Y-101605852D03*
D18*
X99422735Y-102560917D03*
X167961079Y-119824077D03*
D19*
X162482008Y-119344720D03*
D18*
X157002937Y-118865363D03*
X165700000Y-66900001D03*
D19*
X160200000Y-66900001D03*
D18*
X154700000Y-66900001D03*
X129709974Y-102664852D03*
D19*
X124223372Y-103048513D03*
D18*
X118736770Y-103432174D03*
X204566072Y-121362575D03*
D19*
X201899619Y-126172983D03*
D18*
X199233166Y-130983391D03*
X165700000Y-83900000D03*
D19*
X160200000Y-83900000D03*
D18*
X154700000Y-83900000D03*
D20*
X160200000Y-60685000D03*
X160200000Y-57935000D03*
D18*
X113207640Y-117392519D03*
D19*
X107791197Y-118347584D03*
D18*
X102374754Y-119302649D03*
D21*
X209730000Y-78500000D03*
X209730000Y-81500000D03*
D18*
X147700000Y-76900000D03*
D19*
X142200000Y-76900000D03*
D18*
X136700000Y-76900000D03*
X187058514Y-124707576D03*
D19*
X181798838Y-123099532D03*
D18*
X176539162Y-121491488D03*
X147700000Y-59900000D03*
D19*
X142200000Y-59900000D03*
D18*
X136700000Y-59900000D03*
D22*
X189852300Y-62397000D03*
D23*
X189852300Y-58597000D03*
X178701700Y-58597000D03*
D22*
X178701400Y-62397000D03*
D18*
X128524114Y-85706263D03*
D19*
X123037512Y-86089924D03*
D18*
X117550910Y-86473585D03*
X147700000Y-93900000D03*
D19*
X142200000Y-93900000D03*
D18*
X136700000Y-93900000D03*
X183700000Y-85900000D03*
D19*
X178200000Y-85900000D03*
D18*
X172700000Y-85900000D03*
X107303602Y-83909055D03*
D19*
X101887159Y-84864120D03*
D18*
X96470716Y-85819185D03*
%LPD*%
M02*
