G04 #@! TF.GenerationSoftware,KiCad,Pcbnew,8.0.4*
G04 #@! TF.CreationDate,2024-10-20T02:46:26-03:00*
G04 #@! TF.ProjectId,carpo_left,63617270-6f5f-46c6-9566-742e6b696361,rev?*
G04 #@! TF.SameCoordinates,Original*
G04 #@! TF.FileFunction,Profile,NP*
%FSLAX46Y46*%
G04 Gerber Fmt 4.6, Leading zero omitted, Abs format (unit mm)*
G04 Created by KiCad (PCBNEW 8.0.4) date 2024-10-20 02:46:26*
%MOMM*%
%LPD*%
G01*
G04 APERTURE LIST*
G04 #@! TA.AperFunction,Profile*
%ADD10C,0.100000*%
G04 #@! TD*
G04 APERTURE END LIST*
D10*
X216363626Y-117611879D02*
G75*
G02*
X216753432Y-118971306I-484826J-874621D01*
G01*
X170515077Y-129583811D02*
X187527538Y-134785043D01*
X132200000Y-51400000D02*
G75*
G02*
X133200000Y-50400000I1000000J0D01*
G01*
X152200001Y-56400000D02*
X152200001Y-51400000D01*
X208550000Y-58900000D02*
X211200000Y-58900000D01*
X187527538Y-134785043D02*
X202304147Y-142975851D01*
X210199999Y-114656978D02*
G75*
G02*
X209199999Y-115656999I-999999J-22D01*
G01*
X209199999Y-115656978D02*
X189199999Y-115656978D01*
X210199999Y-89656978D02*
X210199999Y-114656978D01*
X179700000Y-57400000D02*
X153200001Y-57400000D01*
X189199999Y-115656978D02*
G75*
G02*
X188200022Y-114656978I1J999978D01*
G01*
X151200001Y-50400000D02*
X133200000Y-50400000D01*
X145644694Y-121319544D02*
G75*
G02*
X151779271Y-126940820I910606J-5164256D01*
G01*
X90563072Y-78229736D02*
G75*
G02*
X91374231Y-77071278I984828J173636D01*
G01*
X132200000Y-51400000D02*
X132200000Y-57951996D01*
X112063763Y-72513872D02*
G75*
G02*
X111239842Y-73568406I-997563J-69728D01*
G01*
X188199999Y-114656978D02*
X188199999Y-89656978D01*
X188844000Y-57400000D02*
X188844000Y-62897000D01*
X216363626Y-117611879D02*
X211715190Y-115035209D01*
X111239847Y-73568436D02*
X91374231Y-77071280D01*
X188844000Y-62897000D02*
X179700000Y-62897000D01*
X209200000Y-88656978D02*
G75*
G02*
X210200022Y-89656978I0J-1000022D01*
G01*
X111283081Y-61349607D02*
X112063763Y-72513872D01*
X179700000Y-62897000D02*
X179700000Y-57400000D01*
X132200000Y-57951996D02*
G75*
G02*
X131269757Y-58949564I-1000000J-4D01*
G01*
X151200001Y-50400000D02*
G75*
G02*
X152200000Y-51400000I-1J-1000000D01*
G01*
X100577585Y-129266091D02*
X145644694Y-121319544D01*
X153200001Y-57400000D02*
G75*
G02*
X152200000Y-56400000I-1J1000000D01*
G01*
X131269757Y-58949561D02*
X112210889Y-60282286D01*
X100577585Y-129266091D02*
G75*
G02*
X99419100Y-128454936I-173685J984791D01*
G01*
X203663576Y-142586040D02*
G75*
G02*
X202304182Y-142975788I-874576J484840D01*
G01*
X152688277Y-128024168D02*
G75*
G02*
X151779237Y-126940817I87123J996168D01*
G01*
X210200000Y-57400000D02*
X188844000Y-57400000D01*
X188199999Y-89656978D02*
G75*
G02*
X189199999Y-88656999I1000001J-22D01*
G01*
X210200000Y-57400000D02*
G75*
G02*
X211200000Y-58400000I0J-1000000D01*
G01*
X152688277Y-128024168D02*
X170515077Y-129583811D01*
X203663576Y-142586040D02*
X216753436Y-118971308D01*
X208550000Y-72399999D02*
X208550000Y-58900000D01*
X189199999Y-88656978D02*
X209200000Y-88656978D01*
X211200000Y-58900000D02*
X211200000Y-58400000D01*
X90563072Y-78229736D02*
X99419129Y-128454931D01*
X211199999Y-114160589D02*
X211200000Y-72399999D01*
X211715190Y-115035209D02*
G75*
G02*
X211200009Y-114160589I484810J874609D01*
G01*
X211200000Y-72399999D02*
X208550000Y-72399999D01*
X111283081Y-61349607D02*
G75*
G02*
X112210888Y-60282274I997519J69807D01*
G01*
M02*
