M48
; DRILL file {KiCad 8.0.4} date 2024-10-20T02:46:27-0300
; FORMAT={-:-/ absolute / metric / decimal}
; #@! TF.CreationDate,2024-10-20T02:46:27-03:00
; #@! TF.GenerationSoftware,Kicad,Pcbnew,8.0.4
; #@! TF.FileFunction,Plated,1,2,PTH
FMAT,2
METRIC
; #@! TA.AperFunction,Plated,PTH,ViaDrill
T1C0.300
; #@! TA.AperFunction,Plated,PTH,ComponentDrill
T2C0.600
; #@! TA.AperFunction,Plated,PTH,ComponentDrill
T3C1.000
; #@! TA.AperFunction,Plated,PTH,ComponentDrill
T4C3.000
%
G90
G05
T1
X110.1Y-75.1
X130.2Y-60.1
X142.488Y-89.636
X142.934Y-90.3
X143.5Y-90.9
X144.4Y-108.1
X144.475Y-106.508
X148.0Y-63.8
X151.3Y-56.2
X157.6Y-61.3
X162.8Y-61.3
X168.5Y-59.4
X174.8Y-58.4
X175.0Y-62.2
X175.8Y-63.2
X176.0Y-67.0
X178.2Y-64.2
X179.2Y-64.8
X179.9Y-64.8
X180.6Y-64.8
X181.4Y-69.0
X181.9Y-64.5
X183.577Y-64.15
X184.62Y-64.3
X185.584Y-78.337
X185.74Y-81.89
X185.75Y-82.8
X185.81Y-64.176
X186.15Y-77.771
X186.5Y-65.4
X186.5Y-68.1
X186.7Y-64.1
X187.55Y-72.6
X187.75Y-80.7
X188.2Y-69.7
X188.5Y-64.1
X189.1Y-83.0
X189.8Y-64.3
X189.8Y-65.2
X191.3Y-71.1
X193.4Y-72.1
X193.4Y-81.6
X193.5Y-79.1
X194.6Y-62.4
X194.7Y-60.1
X195.0Y-71.1
X197.2Y-78.4
X197.2Y-81.0
X198.5Y-83.0
X200.1Y-62.6
X201.5Y-80.3
X201.6Y-86.2
X202.2Y-79.7
X203.2Y-76.6
X204.4Y-85.3
X205.5Y-84.0
X206.4Y-84.2
X207.9Y-60.2
X207.9Y-71.1
T3
X198.36Y-65.65
X200.9Y-65.65
X203.44Y-65.65
X205.98Y-65.65
T4
X97.614Y-89.425
X100.566Y-106.167
X102.92Y-90.724
X103.518Y-122.909
X105.872Y-107.465
X108.824Y-124.207
X117.125Y-73.221
X118.311Y-90.18
X119.497Y-107.138
X122.267Y-75.067
X123.453Y-92.025
X124.638Y-108.984
X137.2Y-63.65
X137.2Y-80.65
X137.2Y-97.65
X142.2Y-65.85
X142.2Y-82.85
X142.2Y-99.85
X155.2Y-70.65
X155.2Y-87.65
X155.2Y-104.65
X157.174Y-122.645
X160.2Y-72.85
X160.2Y-89.85
X160.2Y-106.85
X161.963Y-125.272
X173.2Y-72.65
X173.2Y-89.65
X173.2Y-106.65
X175.921Y-125.224
X178.2Y-74.85
X178.2Y-91.85
X178.2Y-108.85
X180.059Y-128.79
X202.755Y-132.364
X207.104Y-129.058
T2
X178.701Y-62.797G85X178.701Y-61.997
G05
X178.702Y-59.197G85X178.702Y-57.997
G05
X189.852Y-59.197G85X189.852Y-57.997
G05
X189.852Y-62.797G85X189.852Y-61.997
G05
M30
