G04 #@! TF.GenerationSoftware,KiCad,Pcbnew,8.0.4*
G04 #@! TF.CreationDate,2024-10-20T02:46:26-03:00*
G04 #@! TF.ProjectId,carpo_left,63617270-6f5f-46c6-9566-742e6b696361,rev?*
G04 #@! TF.SameCoordinates,Original*
G04 #@! TF.FileFunction,Legend,Bot*
G04 #@! TF.FilePolarity,Positive*
%FSLAX46Y46*%
G04 Gerber Fmt 4.6, Leading zero omitted, Abs format (unit mm)*
G04 Created by KiCad (PCBNEW 8.0.4) date 2024-10-20 02:46:26*
%MOMM*%
%LPD*%
G01*
G04 APERTURE LIST*
G04 Aperture macros list*
%AMRoundRect*
0 Rectangle with rounded corners*
0 $1 Rounding radius*
0 $2 $3 $4 $5 $6 $7 $8 $9 X,Y pos of 4 corners*
0 Add a 4 corners polygon primitive as box body*
4,1,4,$2,$3,$4,$5,$6,$7,$8,$9,$2,$3,0*
0 Add four circle primitives for the rounded corners*
1,1,$1+$1,$2,$3*
1,1,$1+$1,$4,$5*
1,1,$1+$1,$6,$7*
1,1,$1+$1,$8,$9*
0 Add four rect primitives between the rounded corners*
20,1,$1+$1,$2,$3,$4,$5,0*
20,1,$1+$1,$4,$5,$6,$7,0*
20,1,$1+$1,$6,$7,$8,$9,0*
20,1,$1+$1,$8,$9,$2,$3,0*%
G04 Aperture macros list end*
%ADD10C,0.150000*%
%ADD11C,0.120000*%
%ADD12C,4.300000*%
%ADD13R,1.700000X1.700000*%
%ADD14O,1.700000X1.700000*%
%ADD15RoundRect,0.225000X-0.408374X0.156464X-0.330232X-0.286700X0.408374X-0.156464X0.330232X0.286700X0*%
%ADD16C,1.700000*%
%ADD17C,3.400000*%
%ADD18C,3.300000*%
%ADD19RoundRect,0.260000X1.065000X1.040000X-1.065000X1.040000X-1.065000X-1.040000X1.065000X-1.040000X0*%
%ADD20RoundRect,0.200000X0.200000X0.275000X-0.200000X0.275000X-0.200000X-0.275000X0.200000X-0.275000X0*%
%ADD21RoundRect,0.225000X-0.292831X0.324808X-0.424398X-0.105529X0.292831X-0.324808X0.424398X0.105529X0*%
%ADD22RoundRect,0.243750X0.243750X0.456250X-0.243750X0.456250X-0.243750X-0.456250X0.243750X-0.456250X0*%
%ADD23RoundRect,0.225000X0.250000X-0.225000X0.250000X0.225000X-0.250000X0.225000X-0.250000X-0.225000X0*%
%ADD24RoundRect,0.225000X-0.375000X0.225000X-0.375000X-0.225000X0.375000X-0.225000X0.375000X0.225000X0*%
%ADD25RoundRect,0.260000X0.989859X1.111757X-1.134952X0.963176X-0.989859X-1.111757X1.134952X-0.963176X0*%
%ADD26RoundRect,0.260000X0.868226X1.209135X-1.229414X0.839265X-0.868226X-1.209135X1.229414X-0.839265X0*%
%ADD27RoundRect,0.260000X1.151589X0.943222X-0.970305X1.128863X-1.151589X-0.943222X0.970305X-1.128863X0*%
%ADD28R,0.700000X1.524000*%
%ADD29R,1.524000X0.700000*%
%ADD30RoundRect,0.150000X0.512500X0.150000X-0.512500X0.150000X-0.512500X-0.150000X0.512500X-0.150000X0*%
%ADD31RoundRect,0.225000X-0.389782X0.198293X-0.358391X-0.250611X0.389782X-0.198293X0.358391X0.250611X0*%
%ADD32RoundRect,0.225000X-0.250000X0.225000X-0.250000X-0.225000X0.250000X-0.225000X0.250000X0.225000X0*%
%ADD33RoundRect,0.260000X-0.393282X1.435672X-1.425927X-0.427268X0.393282X-1.435672X1.425927X0.427268X0*%
%ADD34RoundRect,0.225000X-0.225000X-0.250000X0.225000X-0.250000X0.225000X0.250000X-0.225000X0.250000X0*%
%ADD35C,0.750000*%
%ADD36R,1.550000X1.000000*%
%ADD37RoundRect,0.225000X0.225000X0.375000X-0.225000X0.375000X-0.225000X-0.375000X0.225000X-0.375000X0*%
%ADD38RoundRect,0.200000X-0.200000X-0.275000X0.200000X-0.275000X0.200000X0.275000X-0.200000X0.275000X0*%
%ADD39R,0.800000X1.000000*%
%ADD40C,0.900000*%
%ADD41R,1.500000X0.700000*%
%ADD42RoundRect,0.200000X0.275000X-0.200000X0.275000X0.200000X-0.275000X0.200000X-0.275000X-0.200000X0*%
%ADD43RoundRect,0.260000X1.322531X0.683181X-0.714398X1.305933X-1.322531X-0.683181X0.714398X-1.305933X0*%
%ADD44RoundRect,0.150000X-0.587500X-0.150000X0.587500X-0.150000X0.587500X0.150000X-0.587500X0.150000X0*%
%ADD45RoundRect,0.225000X-0.353963X0.256827X-0.393183X-0.191460X0.353963X-0.256827X0.393183X0.191460X0*%
%ADD46R,0.540000X0.800000*%
%ADD47R,0.300000X0.800000*%
%ADD48O,1.000000X1.800000*%
%ADD49O,1.000000X2.200000*%
%ADD50RoundRect,0.150000X0.587500X0.150000X-0.587500X0.150000X-0.587500X-0.150000X0.587500X-0.150000X0*%
%ADD51RoundRect,0.093750X-0.156250X-0.093750X0.156250X-0.093750X0.156250X0.093750X-0.156250X0.093750X0*%
%ADD52RoundRect,0.075000X-0.250000X-0.075000X0.250000X-0.075000X0.250000X0.075000X-0.250000X0.075000X0*%
%ADD53RoundRect,0.225000X-0.378593X-0.218900X0.014986X-0.437065X0.378593X0.218900X-0.014986X0.437065X0*%
%ADD54RoundRect,0.150000X-0.275000X0.150000X-0.275000X-0.150000X0.275000X-0.150000X0.275000X0.150000X0*%
%ADD55RoundRect,0.175000X-0.225000X0.175000X-0.225000X-0.175000X0.225000X-0.175000X0.225000X0.175000X0*%
G04 APERTURE END LIST*
D10*
X181980951Y-111573866D02*
X181219047Y-111573866D01*
X181599999Y-111954819D02*
X181599999Y-111192914D01*
X204080952Y-67254819D02*
X204080952Y-67969104D01*
X204080952Y-67969104D02*
X204128571Y-68111961D01*
X204128571Y-68111961D02*
X204223809Y-68207200D01*
X204223809Y-68207200D02*
X204366666Y-68254819D01*
X204366666Y-68254819D02*
X204461904Y-68254819D01*
X203652380Y-68207200D02*
X203509523Y-68254819D01*
X203509523Y-68254819D02*
X203271428Y-68254819D01*
X203271428Y-68254819D02*
X203176190Y-68207200D01*
X203176190Y-68207200D02*
X203128571Y-68159580D01*
X203128571Y-68159580D02*
X203080952Y-68064342D01*
X203080952Y-68064342D02*
X203080952Y-67969104D01*
X203080952Y-67969104D02*
X203128571Y-67873866D01*
X203128571Y-67873866D02*
X203176190Y-67826247D01*
X203176190Y-67826247D02*
X203271428Y-67778628D01*
X203271428Y-67778628D02*
X203461904Y-67731009D01*
X203461904Y-67731009D02*
X203557142Y-67683390D01*
X203557142Y-67683390D02*
X203604761Y-67635771D01*
X203604761Y-67635771D02*
X203652380Y-67540533D01*
X203652380Y-67540533D02*
X203652380Y-67445295D01*
X203652380Y-67445295D02*
X203604761Y-67350057D01*
X203604761Y-67350057D02*
X203557142Y-67302438D01*
X203557142Y-67302438D02*
X203461904Y-67254819D01*
X203461904Y-67254819D02*
X203223809Y-67254819D01*
X203223809Y-67254819D02*
X203080952Y-67302438D01*
X202747618Y-67254819D02*
X202509523Y-68254819D01*
X202509523Y-68254819D02*
X202319047Y-67540533D01*
X202319047Y-67540533D02*
X202128571Y-68254819D01*
X202128571Y-68254819D02*
X201890476Y-67254819D01*
X201509523Y-68254819D02*
X201509523Y-67254819D01*
X201509523Y-67254819D02*
X201271428Y-67254819D01*
X201271428Y-67254819D02*
X201128571Y-67302438D01*
X201128571Y-67302438D02*
X201033333Y-67397676D01*
X201033333Y-67397676D02*
X200985714Y-67492914D01*
X200985714Y-67492914D02*
X200938095Y-67683390D01*
X200938095Y-67683390D02*
X200938095Y-67826247D01*
X200938095Y-67826247D02*
X200985714Y-68016723D01*
X200985714Y-68016723D02*
X201033333Y-68111961D01*
X201033333Y-68111961D02*
X201128571Y-68207200D01*
X201128571Y-68207200D02*
X201271428Y-68254819D01*
X201271428Y-68254819D02*
X201509523Y-68254819D01*
X199985714Y-68254819D02*
X200557142Y-68254819D01*
X200271428Y-68254819D02*
X200271428Y-67254819D01*
X200271428Y-67254819D02*
X200366666Y-67397676D01*
X200366666Y-67397676D02*
X200461904Y-67492914D01*
X200461904Y-67492914D02*
X200557142Y-67540533D01*
X96056114Y-99335264D02*
X97040922Y-99161616D01*
X97040922Y-99161616D02*
X96999577Y-98927138D01*
X96999577Y-98927138D02*
X96927874Y-98794720D01*
X96927874Y-98794720D02*
X96817545Y-98717467D01*
X96817545Y-98717467D02*
X96715485Y-98687109D01*
X96715485Y-98687109D02*
X96519634Y-98673290D01*
X96519634Y-98673290D02*
X96378947Y-98698097D01*
X96378947Y-98698097D02*
X96199633Y-98778068D01*
X96199633Y-98778068D02*
X96114111Y-98841501D01*
X96114111Y-98841501D02*
X96036858Y-98951831D01*
X96036858Y-98951831D02*
X96014769Y-99100786D01*
X96014769Y-99100786D02*
X96056114Y-99335264D01*
X96792853Y-97754748D02*
X96825929Y-97942330D01*
X96825929Y-97942330D02*
X96795571Y-98044391D01*
X96795571Y-98044391D02*
X96756944Y-98099555D01*
X96756944Y-98099555D02*
X96632796Y-98218153D01*
X96632796Y-98218153D02*
X96453482Y-98298125D01*
X96453482Y-98298125D02*
X96078317Y-98364276D01*
X96078317Y-98364276D02*
X95976257Y-98333919D01*
X95976257Y-98333919D02*
X95921092Y-98295292D01*
X95921092Y-98295292D02*
X95857659Y-98209770D01*
X95857659Y-98209770D02*
X95824583Y-98022187D01*
X95824583Y-98022187D02*
X95854941Y-97920127D01*
X95854941Y-97920127D02*
X95893567Y-97864963D01*
X95893567Y-97864963D02*
X95979090Y-97801529D01*
X95979090Y-97801529D02*
X96213568Y-97760184D01*
X96213568Y-97760184D02*
X96315628Y-97790542D01*
X96315628Y-97790542D02*
X96370792Y-97829169D01*
X96370792Y-97829169D02*
X96434226Y-97914691D01*
X96434226Y-97914691D02*
X96467302Y-98102273D01*
X96467302Y-98102273D02*
X96436944Y-98204334D01*
X96436944Y-98204334D02*
X96398317Y-98259498D01*
X96398317Y-98259498D02*
X96312795Y-98322932D01*
X157009523Y-108707200D02*
X156866666Y-108754819D01*
X156866666Y-108754819D02*
X156628571Y-108754819D01*
X156628571Y-108754819D02*
X156533333Y-108707200D01*
X156533333Y-108707200D02*
X156485714Y-108659580D01*
X156485714Y-108659580D02*
X156438095Y-108564342D01*
X156438095Y-108564342D02*
X156438095Y-108469104D01*
X156438095Y-108469104D02*
X156485714Y-108373866D01*
X156485714Y-108373866D02*
X156533333Y-108326247D01*
X156533333Y-108326247D02*
X156628571Y-108278628D01*
X156628571Y-108278628D02*
X156819047Y-108231009D01*
X156819047Y-108231009D02*
X156914285Y-108183390D01*
X156914285Y-108183390D02*
X156961904Y-108135771D01*
X156961904Y-108135771D02*
X157009523Y-108040533D01*
X157009523Y-108040533D02*
X157009523Y-107945295D01*
X157009523Y-107945295D02*
X156961904Y-107850057D01*
X156961904Y-107850057D02*
X156914285Y-107802438D01*
X156914285Y-107802438D02*
X156819047Y-107754819D01*
X156819047Y-107754819D02*
X156580952Y-107754819D01*
X156580952Y-107754819D02*
X156438095Y-107802438D01*
X156104761Y-107754819D02*
X155866666Y-108754819D01*
X155866666Y-108754819D02*
X155676190Y-108040533D01*
X155676190Y-108040533D02*
X155485714Y-108754819D01*
X155485714Y-108754819D02*
X155247619Y-107754819D01*
X154342857Y-108754819D02*
X154914285Y-108754819D01*
X154628571Y-108754819D02*
X154628571Y-107754819D01*
X154628571Y-107754819D02*
X154723809Y-107897676D01*
X154723809Y-107897676D02*
X154819047Y-107992914D01*
X154819047Y-107992914D02*
X154914285Y-108040533D01*
X153485714Y-108088152D02*
X153485714Y-108754819D01*
X153723809Y-107707200D02*
X153961904Y-108421485D01*
X153961904Y-108421485D02*
X153342857Y-108421485D01*
X179166666Y-66354819D02*
X179499999Y-65878628D01*
X179738094Y-66354819D02*
X179738094Y-65354819D01*
X179738094Y-65354819D02*
X179357142Y-65354819D01*
X179357142Y-65354819D02*
X179261904Y-65402438D01*
X179261904Y-65402438D02*
X179214285Y-65450057D01*
X179214285Y-65450057D02*
X179166666Y-65545295D01*
X179166666Y-65545295D02*
X179166666Y-65688152D01*
X179166666Y-65688152D02*
X179214285Y-65783390D01*
X179214285Y-65783390D02*
X179261904Y-65831009D01*
X179261904Y-65831009D02*
X179357142Y-65878628D01*
X179357142Y-65878628D02*
X179738094Y-65878628D01*
X178214285Y-66354819D02*
X178785713Y-66354819D01*
X178499999Y-66354819D02*
X178499999Y-65354819D01*
X178499999Y-65354819D02*
X178595237Y-65497676D01*
X178595237Y-65497676D02*
X178690475Y-65592914D01*
X178690475Y-65592914D02*
X178785713Y-65640533D01*
X176444607Y-115487878D02*
X175488302Y-115195507D01*
X175488302Y-115195507D02*
X175418690Y-115423198D01*
X175418690Y-115423198D02*
X175422461Y-115573736D01*
X175422461Y-115573736D02*
X175485693Y-115692657D01*
X175485693Y-115692657D02*
X175562847Y-115766041D01*
X175562847Y-115766041D02*
X175731078Y-115867269D01*
X175731078Y-115867269D02*
X175867692Y-115909036D01*
X175867692Y-115909036D02*
X176063768Y-115919188D01*
X176063768Y-115919188D02*
X176168767Y-115901494D01*
X176168767Y-115901494D02*
X176287689Y-115838263D01*
X176287689Y-115838263D02*
X176374995Y-115715570D01*
X176374995Y-115715570D02*
X176444607Y-115487878D01*
X175999088Y-116945105D02*
X176166158Y-116398645D01*
X176082623Y-116671875D02*
X175126318Y-116379503D01*
X175126318Y-116379503D02*
X175290778Y-116330194D01*
X175290778Y-116330194D02*
X175409700Y-116266962D01*
X175409700Y-116266962D02*
X175483083Y-116189808D01*
X174945326Y-116971501D02*
X174750412Y-117609038D01*
X174750412Y-117609038D02*
X175832019Y-117491565D01*
X188533333Y-65081009D02*
X188866666Y-65081009D01*
X188866666Y-65604819D02*
X188866666Y-64604819D01*
X188866666Y-64604819D02*
X188390476Y-64604819D01*
X187485714Y-65604819D02*
X188057142Y-65604819D01*
X187771428Y-65604819D02*
X187771428Y-64604819D01*
X187771428Y-64604819D02*
X187866666Y-64747676D01*
X187866666Y-64747676D02*
X187961904Y-64842914D01*
X187961904Y-64842914D02*
X188057142Y-64890533D01*
X174533332Y-76707200D02*
X174390475Y-76754819D01*
X174390475Y-76754819D02*
X174152380Y-76754819D01*
X174152380Y-76754819D02*
X174057142Y-76707200D01*
X174057142Y-76707200D02*
X174009523Y-76659580D01*
X174009523Y-76659580D02*
X173961904Y-76564342D01*
X173961904Y-76564342D02*
X173961904Y-76469104D01*
X173961904Y-76469104D02*
X174009523Y-76373866D01*
X174009523Y-76373866D02*
X174057142Y-76326247D01*
X174057142Y-76326247D02*
X174152380Y-76278628D01*
X174152380Y-76278628D02*
X174342856Y-76231009D01*
X174342856Y-76231009D02*
X174438094Y-76183390D01*
X174438094Y-76183390D02*
X174485713Y-76135771D01*
X174485713Y-76135771D02*
X174533332Y-76040533D01*
X174533332Y-76040533D02*
X174533332Y-75945295D01*
X174533332Y-75945295D02*
X174485713Y-75850057D01*
X174485713Y-75850057D02*
X174438094Y-75802438D01*
X174438094Y-75802438D02*
X174342856Y-75754819D01*
X174342856Y-75754819D02*
X174104761Y-75754819D01*
X174104761Y-75754819D02*
X173961904Y-75802438D01*
X173628570Y-75754819D02*
X173390475Y-76754819D01*
X173390475Y-76754819D02*
X173199999Y-76040533D01*
X173199999Y-76040533D02*
X173009523Y-76754819D01*
X173009523Y-76754819D02*
X172771428Y-75754819D01*
X171914285Y-75754819D02*
X172390475Y-75754819D01*
X172390475Y-75754819D02*
X172438094Y-76231009D01*
X172438094Y-76231009D02*
X172390475Y-76183390D01*
X172390475Y-76183390D02*
X172295237Y-76135771D01*
X172295237Y-76135771D02*
X172057142Y-76135771D01*
X172057142Y-76135771D02*
X171961904Y-76183390D01*
X171961904Y-76183390D02*
X171914285Y-76231009D01*
X171914285Y-76231009D02*
X171866666Y-76326247D01*
X171866666Y-76326247D02*
X171866666Y-76564342D01*
X171866666Y-76564342D02*
X171914285Y-76659580D01*
X171914285Y-76659580D02*
X171961904Y-76707200D01*
X171961904Y-76707200D02*
X172057142Y-76754819D01*
X172057142Y-76754819D02*
X172295237Y-76754819D01*
X172295237Y-76754819D02*
X172390475Y-76707200D01*
X172390475Y-76707200D02*
X172438094Y-76659580D01*
X175009523Y-110707200D02*
X174866666Y-110754819D01*
X174866666Y-110754819D02*
X174628571Y-110754819D01*
X174628571Y-110754819D02*
X174533333Y-110707200D01*
X174533333Y-110707200D02*
X174485714Y-110659580D01*
X174485714Y-110659580D02*
X174438095Y-110564342D01*
X174438095Y-110564342D02*
X174438095Y-110469104D01*
X174438095Y-110469104D02*
X174485714Y-110373866D01*
X174485714Y-110373866D02*
X174533333Y-110326247D01*
X174533333Y-110326247D02*
X174628571Y-110278628D01*
X174628571Y-110278628D02*
X174819047Y-110231009D01*
X174819047Y-110231009D02*
X174914285Y-110183390D01*
X174914285Y-110183390D02*
X174961904Y-110135771D01*
X174961904Y-110135771D02*
X175009523Y-110040533D01*
X175009523Y-110040533D02*
X175009523Y-109945295D01*
X175009523Y-109945295D02*
X174961904Y-109850057D01*
X174961904Y-109850057D02*
X174914285Y-109802438D01*
X174914285Y-109802438D02*
X174819047Y-109754819D01*
X174819047Y-109754819D02*
X174580952Y-109754819D01*
X174580952Y-109754819D02*
X174438095Y-109802438D01*
X174104761Y-109754819D02*
X173866666Y-110754819D01*
X173866666Y-110754819D02*
X173676190Y-110040533D01*
X173676190Y-110040533D02*
X173485714Y-110754819D01*
X173485714Y-110754819D02*
X173247619Y-109754819D01*
X172342857Y-110754819D02*
X172914285Y-110754819D01*
X172628571Y-110754819D02*
X172628571Y-109754819D01*
X172628571Y-109754819D02*
X172723809Y-109897676D01*
X172723809Y-109897676D02*
X172819047Y-109992914D01*
X172819047Y-109992914D02*
X172914285Y-110040533D01*
X171438095Y-109754819D02*
X171914285Y-109754819D01*
X171914285Y-109754819D02*
X171961904Y-110231009D01*
X171961904Y-110231009D02*
X171914285Y-110183390D01*
X171914285Y-110183390D02*
X171819047Y-110135771D01*
X171819047Y-110135771D02*
X171580952Y-110135771D01*
X171580952Y-110135771D02*
X171485714Y-110183390D01*
X171485714Y-110183390D02*
X171438095Y-110231009D01*
X171438095Y-110231009D02*
X171390476Y-110326247D01*
X171390476Y-110326247D02*
X171390476Y-110564342D01*
X171390476Y-110564342D02*
X171438095Y-110659580D01*
X171438095Y-110659580D02*
X171485714Y-110707200D01*
X171485714Y-110707200D02*
X171580952Y-110754819D01*
X171580952Y-110754819D02*
X171819047Y-110754819D01*
X171819047Y-110754819D02*
X171914285Y-110707200D01*
X171914285Y-110707200D02*
X171961904Y-110659580D01*
X202089580Y-81408333D02*
X202137200Y-81360714D01*
X202137200Y-81360714D02*
X202184819Y-81217857D01*
X202184819Y-81217857D02*
X202184819Y-81122619D01*
X202184819Y-81122619D02*
X202137200Y-80979762D01*
X202137200Y-80979762D02*
X202041961Y-80884524D01*
X202041961Y-80884524D02*
X201946723Y-80836905D01*
X201946723Y-80836905D02*
X201756247Y-80789286D01*
X201756247Y-80789286D02*
X201613390Y-80789286D01*
X201613390Y-80789286D02*
X201422914Y-80836905D01*
X201422914Y-80836905D02*
X201327676Y-80884524D01*
X201327676Y-80884524D02*
X201232438Y-80979762D01*
X201232438Y-80979762D02*
X201184819Y-81122619D01*
X201184819Y-81122619D02*
X201184819Y-81217857D01*
X201184819Y-81217857D02*
X201232438Y-81360714D01*
X201232438Y-81360714D02*
X201280057Y-81408333D01*
X201184819Y-82313095D02*
X201184819Y-81836905D01*
X201184819Y-81836905D02*
X201661009Y-81789286D01*
X201661009Y-81789286D02*
X201613390Y-81836905D01*
X201613390Y-81836905D02*
X201565771Y-81932143D01*
X201565771Y-81932143D02*
X201565771Y-82170238D01*
X201565771Y-82170238D02*
X201613390Y-82265476D01*
X201613390Y-82265476D02*
X201661009Y-82313095D01*
X201661009Y-82313095D02*
X201756247Y-82360714D01*
X201756247Y-82360714D02*
X201994342Y-82360714D01*
X201994342Y-82360714D02*
X202089580Y-82313095D01*
X202089580Y-82313095D02*
X202137200Y-82265476D01*
X202137200Y-82265476D02*
X202184819Y-82170238D01*
X202184819Y-82170238D02*
X202184819Y-81932143D01*
X202184819Y-81932143D02*
X202137200Y-81836905D01*
X202137200Y-81836905D02*
X202089580Y-81789286D01*
X99090823Y-116545953D02*
X100075630Y-116372305D01*
X100075630Y-116372305D02*
X100034286Y-116137827D01*
X100034286Y-116137827D02*
X99962583Y-116005409D01*
X99962583Y-116005409D02*
X99852254Y-115928156D01*
X99852254Y-115928156D02*
X99750194Y-115897798D01*
X99750194Y-115897798D02*
X99554342Y-115883978D01*
X99554342Y-115883978D02*
X99413656Y-115908785D01*
X99413656Y-115908785D02*
X99234342Y-115988757D01*
X99234342Y-115988757D02*
X99148820Y-116052190D01*
X99148820Y-116052190D02*
X99071567Y-116162519D01*
X99071567Y-116162519D02*
X99049478Y-116311475D01*
X99049478Y-116311475D02*
X99090823Y-116545953D01*
X98826216Y-115045294D02*
X98925443Y-115608041D01*
X98875830Y-115326667D02*
X99860637Y-115153019D01*
X99860637Y-115153019D02*
X99736489Y-115271617D01*
X99736489Y-115271617D02*
X99659235Y-115381946D01*
X99659235Y-115381946D02*
X99628878Y-115484006D01*
X98660837Y-114107381D02*
X98760064Y-114670129D01*
X98710450Y-114388755D02*
X99695258Y-114215107D01*
X99695258Y-114215107D02*
X99571109Y-114333705D01*
X99571109Y-114333705D02*
X99493856Y-114444034D01*
X99493856Y-114444034D02*
X99463498Y-114546094D01*
X152854292Y-95186364D02*
X151854292Y-95186364D01*
X151854292Y-95186364D02*
X151854292Y-95424459D01*
X151854292Y-95424459D02*
X151901911Y-95567316D01*
X151901911Y-95567316D02*
X151997149Y-95662554D01*
X151997149Y-95662554D02*
X152092387Y-95710173D01*
X152092387Y-95710173D02*
X152282863Y-95757792D01*
X152282863Y-95757792D02*
X152425720Y-95757792D01*
X152425720Y-95757792D02*
X152616196Y-95710173D01*
X152616196Y-95710173D02*
X152711434Y-95662554D01*
X152711434Y-95662554D02*
X152806673Y-95567316D01*
X152806673Y-95567316D02*
X152854292Y-95424459D01*
X152854292Y-95424459D02*
X152854292Y-95186364D01*
X152854292Y-96710173D02*
X152854292Y-96138745D01*
X152854292Y-96424459D02*
X151854292Y-96424459D01*
X151854292Y-96424459D02*
X151997149Y-96329221D01*
X151997149Y-96329221D02*
X152092387Y-96233983D01*
X152092387Y-96233983D02*
X152140006Y-96138745D01*
X152187625Y-97567316D02*
X152854292Y-97567316D01*
X151806673Y-97329221D02*
X152520958Y-97091126D01*
X152520958Y-97091126D02*
X152520958Y-97710173D01*
X134854292Y-88186364D02*
X133854292Y-88186364D01*
X133854292Y-88186364D02*
X133854292Y-88424459D01*
X133854292Y-88424459D02*
X133901911Y-88567316D01*
X133901911Y-88567316D02*
X133997149Y-88662554D01*
X133997149Y-88662554D02*
X134092387Y-88710173D01*
X134092387Y-88710173D02*
X134282863Y-88757792D01*
X134282863Y-88757792D02*
X134425720Y-88757792D01*
X134425720Y-88757792D02*
X134616196Y-88710173D01*
X134616196Y-88710173D02*
X134711434Y-88662554D01*
X134711434Y-88662554D02*
X134806673Y-88567316D01*
X134806673Y-88567316D02*
X134854292Y-88424459D01*
X134854292Y-88424459D02*
X134854292Y-88186364D01*
X134854292Y-89710173D02*
X134854292Y-89138745D01*
X134854292Y-89424459D02*
X133854292Y-89424459D01*
X133854292Y-89424459D02*
X133997149Y-89329221D01*
X133997149Y-89329221D02*
X134092387Y-89233983D01*
X134092387Y-89233983D02*
X134140006Y-89138745D01*
X133854292Y-90043507D02*
X133854292Y-90662554D01*
X133854292Y-90662554D02*
X134235244Y-90329221D01*
X134235244Y-90329221D02*
X134235244Y-90472078D01*
X134235244Y-90472078D02*
X134282863Y-90567316D01*
X134282863Y-90567316D02*
X134330482Y-90614935D01*
X134330482Y-90614935D02*
X134425720Y-90662554D01*
X134425720Y-90662554D02*
X134663815Y-90662554D01*
X134663815Y-90662554D02*
X134759053Y-90614935D01*
X134759053Y-90614935D02*
X134806673Y-90567316D01*
X134806673Y-90567316D02*
X134854292Y-90472078D01*
X134854292Y-90472078D02*
X134854292Y-90186364D01*
X134854292Y-90186364D02*
X134806673Y-90091126D01*
X134806673Y-90091126D02*
X134759053Y-90043507D01*
X118738519Y-77175291D02*
X118599332Y-77232759D01*
X118599332Y-77232759D02*
X118361817Y-77249368D01*
X118361817Y-77249368D02*
X118263489Y-77208508D01*
X118263489Y-77208508D02*
X118212664Y-77164327D01*
X118212664Y-77164327D02*
X118158517Y-77072643D01*
X118158517Y-77072643D02*
X118151874Y-76977637D01*
X118151874Y-76977637D02*
X118192734Y-76879309D01*
X118192734Y-76879309D02*
X118236915Y-76828484D01*
X118236915Y-76828484D02*
X118328599Y-76774337D01*
X118328599Y-76774337D02*
X118515290Y-76713547D01*
X118515290Y-76713547D02*
X118606974Y-76659401D01*
X118606974Y-76659401D02*
X118651155Y-76608576D01*
X118651155Y-76608576D02*
X118692015Y-76510248D01*
X118692015Y-76510248D02*
X118685371Y-76415242D01*
X118685371Y-76415242D02*
X118631225Y-76323558D01*
X118631225Y-76323558D02*
X118580400Y-76279377D01*
X118580400Y-76279377D02*
X118482072Y-76238517D01*
X118482072Y-76238517D02*
X118244557Y-76255126D01*
X118244557Y-76255126D02*
X118105370Y-76312594D01*
X117769526Y-76288343D02*
X117601768Y-77302516D01*
X117601768Y-77302516D02*
X117361929Y-76603257D01*
X117361929Y-76603257D02*
X117221743Y-77329090D01*
X117221743Y-77329090D02*
X116914472Y-76348134D01*
X116588594Y-76466393D02*
X116537769Y-76422211D01*
X116537769Y-76422211D02*
X116439441Y-76381352D01*
X116439441Y-76381352D02*
X116201926Y-76397960D01*
X116201926Y-76397960D02*
X116110242Y-76452107D01*
X116110242Y-76452107D02*
X116066060Y-76502932D01*
X116066060Y-76502932D02*
X116025201Y-76601259D01*
X116025201Y-76601259D02*
X116031844Y-76696266D01*
X116031844Y-76696266D02*
X116089312Y-76835453D01*
X116089312Y-76835453D02*
X116699210Y-77365629D01*
X116699210Y-77365629D02*
X116081670Y-77408811D01*
X102583921Y-109931152D02*
X102451503Y-110002855D01*
X102451503Y-110002855D02*
X102217025Y-110044200D01*
X102217025Y-110044200D02*
X102114964Y-110013842D01*
X102114964Y-110013842D02*
X102059800Y-109975215D01*
X102059800Y-109975215D02*
X101996366Y-109889693D01*
X101996366Y-109889693D02*
X101979828Y-109795902D01*
X101979828Y-109795902D02*
X102010186Y-109693842D01*
X102010186Y-109693842D02*
X102048813Y-109638677D01*
X102048813Y-109638677D02*
X102134335Y-109575244D01*
X102134335Y-109575244D02*
X102313648Y-109495272D01*
X102313648Y-109495272D02*
X102399171Y-109431839D01*
X102399171Y-109431839D02*
X102437797Y-109376674D01*
X102437797Y-109376674D02*
X102468155Y-109274614D01*
X102468155Y-109274614D02*
X102451617Y-109180823D01*
X102451617Y-109180823D02*
X102388184Y-109095300D01*
X102388184Y-109095300D02*
X102333019Y-109056674D01*
X102333019Y-109056674D02*
X102230959Y-109026316D01*
X102230959Y-109026316D02*
X101996481Y-109067661D01*
X101996481Y-109067661D02*
X101864063Y-109139363D01*
X101527525Y-109150351D02*
X101466695Y-110176503D01*
X101466695Y-110176503D02*
X101155078Y-109506145D01*
X101155078Y-109506145D02*
X101091530Y-110242655D01*
X101091530Y-110242655D02*
X100683404Y-109299192D01*
X99886179Y-109439764D02*
X100073761Y-109406688D01*
X100073761Y-109406688D02*
X100175821Y-109437046D01*
X100175821Y-109437046D02*
X100230986Y-109475673D01*
X100230986Y-109475673D02*
X100349584Y-109599822D01*
X100349584Y-109599822D02*
X100429555Y-109779135D01*
X100429555Y-109779135D02*
X100495707Y-110154300D01*
X100495707Y-110154300D02*
X100465349Y-110256360D01*
X100465349Y-110256360D02*
X100426723Y-110311525D01*
X100426723Y-110311525D02*
X100341200Y-110374958D01*
X100341200Y-110374958D02*
X100153618Y-110408034D01*
X100153618Y-110408034D02*
X100051558Y-110377676D01*
X100051558Y-110377676D02*
X99996393Y-110339050D01*
X99996393Y-110339050D02*
X99932960Y-110253527D01*
X99932960Y-110253527D02*
X99891615Y-110019049D01*
X99891615Y-110019049D02*
X99921973Y-109916989D01*
X99921973Y-109916989D02*
X99960599Y-109861825D01*
X99960599Y-109861825D02*
X100046122Y-109798391D01*
X100046122Y-109798391D02*
X100233704Y-109765315D01*
X100233704Y-109765315D02*
X100335764Y-109795673D01*
X100335764Y-109795673D02*
X100390929Y-109834300D01*
X100390929Y-109834300D02*
X100454362Y-109919822D01*
X158623230Y-126844142D02*
X158476766Y-126879129D01*
X158476766Y-126879129D02*
X158239577Y-126858378D01*
X158239577Y-126858378D02*
X158148851Y-126802640D01*
X158148851Y-126802640D02*
X158105564Y-126751052D01*
X158105564Y-126751052D02*
X158066426Y-126652026D01*
X158066426Y-126652026D02*
X158074727Y-126557150D01*
X158074727Y-126557150D02*
X158130465Y-126466424D01*
X158130465Y-126466424D02*
X158182053Y-126423137D01*
X158182053Y-126423137D02*
X158281079Y-126384000D01*
X158281079Y-126384000D02*
X158474981Y-126353163D01*
X158474981Y-126353163D02*
X158574007Y-126314026D01*
X158574007Y-126314026D02*
X158625595Y-126270738D01*
X158625595Y-126270738D02*
X158681334Y-126180013D01*
X158681334Y-126180013D02*
X158689634Y-126085137D01*
X158689634Y-126085137D02*
X158650497Y-125986111D01*
X158650497Y-125986111D02*
X158607209Y-125934523D01*
X158607209Y-125934523D02*
X158516484Y-125878784D01*
X158516484Y-125878784D02*
X158279295Y-125858033D01*
X158279295Y-125858033D02*
X158132831Y-125893020D01*
X157804916Y-125816530D02*
X157480571Y-126791974D01*
X157480571Y-126791974D02*
X157353074Y-126063805D01*
X157353074Y-126063805D02*
X157101068Y-126758771D01*
X157101068Y-126758771D02*
X156951035Y-125741825D01*
X155962560Y-126659165D02*
X156531814Y-126708968D01*
X156247187Y-126684067D02*
X156334343Y-125687872D01*
X156334343Y-125687872D02*
X156416768Y-125838486D01*
X156416768Y-125838486D02*
X156503343Y-125941662D01*
X156503343Y-125941662D02*
X156594069Y-125997401D01*
X155195835Y-125588265D02*
X155385586Y-125604866D01*
X155385586Y-125604866D02*
X155476312Y-125660605D01*
X155476312Y-125660605D02*
X155519599Y-125712193D01*
X155519599Y-125712193D02*
X155602024Y-125862807D01*
X155602024Y-125862807D02*
X155632861Y-126056709D01*
X155632861Y-126056709D02*
X155599659Y-126436211D01*
X155599659Y-126436211D02*
X155543920Y-126526937D01*
X155543920Y-126526937D02*
X155492332Y-126570224D01*
X155492332Y-126570224D02*
X155393306Y-126609362D01*
X155393306Y-126609362D02*
X155203555Y-126592761D01*
X155203555Y-126592761D02*
X155112829Y-126537022D01*
X155112829Y-126537022D02*
X155069542Y-126485434D01*
X155069542Y-126485434D02*
X155030405Y-126386408D01*
X155030405Y-126386408D02*
X155051156Y-126149219D01*
X155051156Y-126149219D02*
X155106894Y-126058493D01*
X155106894Y-126058493D02*
X155158482Y-126015206D01*
X155158482Y-126015206D02*
X155257508Y-125976069D01*
X155257508Y-125976069D02*
X155447260Y-125992670D01*
X155447260Y-125992670D02*
X155537985Y-126048408D01*
X155537985Y-126048408D02*
X155581273Y-126099996D01*
X155581273Y-126099996D02*
X155620410Y-126199022D01*
X156533332Y-74707201D02*
X156390475Y-74754820D01*
X156390475Y-74754820D02*
X156152380Y-74754820D01*
X156152380Y-74754820D02*
X156057142Y-74707201D01*
X156057142Y-74707201D02*
X156009523Y-74659581D01*
X156009523Y-74659581D02*
X155961904Y-74564343D01*
X155961904Y-74564343D02*
X155961904Y-74469105D01*
X155961904Y-74469105D02*
X156009523Y-74373867D01*
X156009523Y-74373867D02*
X156057142Y-74326248D01*
X156057142Y-74326248D02*
X156152380Y-74278629D01*
X156152380Y-74278629D02*
X156342856Y-74231010D01*
X156342856Y-74231010D02*
X156438094Y-74183391D01*
X156438094Y-74183391D02*
X156485713Y-74135772D01*
X156485713Y-74135772D02*
X156533332Y-74040534D01*
X156533332Y-74040534D02*
X156533332Y-73945296D01*
X156533332Y-73945296D02*
X156485713Y-73850058D01*
X156485713Y-73850058D02*
X156438094Y-73802439D01*
X156438094Y-73802439D02*
X156342856Y-73754820D01*
X156342856Y-73754820D02*
X156104761Y-73754820D01*
X156104761Y-73754820D02*
X155961904Y-73802439D01*
X155628570Y-73754820D02*
X155390475Y-74754820D01*
X155390475Y-74754820D02*
X155199999Y-74040534D01*
X155199999Y-74040534D02*
X155009523Y-74754820D01*
X155009523Y-74754820D02*
X154771428Y-73754820D01*
X153961904Y-74088153D02*
X153961904Y-74754820D01*
X154199999Y-73707201D02*
X154438094Y-74421486D01*
X154438094Y-74421486D02*
X153819047Y-74421486D01*
X190904819Y-70188095D02*
X191714342Y-70188095D01*
X191714342Y-70188095D02*
X191809580Y-70235714D01*
X191809580Y-70235714D02*
X191857200Y-70283333D01*
X191857200Y-70283333D02*
X191904819Y-70378571D01*
X191904819Y-70378571D02*
X191904819Y-70569047D01*
X191904819Y-70569047D02*
X191857200Y-70664285D01*
X191857200Y-70664285D02*
X191809580Y-70711904D01*
X191809580Y-70711904D02*
X191714342Y-70759523D01*
X191714342Y-70759523D02*
X190904819Y-70759523D01*
X191904819Y-71759523D02*
X191904819Y-71188095D01*
X191904819Y-71473809D02*
X190904819Y-71473809D01*
X190904819Y-71473809D02*
X191047676Y-71378571D01*
X191047676Y-71378571D02*
X191142914Y-71283333D01*
X191142914Y-71283333D02*
X191190533Y-71188095D01*
X170854292Y-80186364D02*
X169854292Y-80186364D01*
X169854292Y-80186364D02*
X169854292Y-80424459D01*
X169854292Y-80424459D02*
X169901911Y-80567316D01*
X169901911Y-80567316D02*
X169997149Y-80662554D01*
X169997149Y-80662554D02*
X170092387Y-80710173D01*
X170092387Y-80710173D02*
X170282863Y-80757792D01*
X170282863Y-80757792D02*
X170425720Y-80757792D01*
X170425720Y-80757792D02*
X170616196Y-80710173D01*
X170616196Y-80710173D02*
X170711434Y-80662554D01*
X170711434Y-80662554D02*
X170806673Y-80567316D01*
X170806673Y-80567316D02*
X170854292Y-80424459D01*
X170854292Y-80424459D02*
X170854292Y-80186364D01*
X170854292Y-81710173D02*
X170854292Y-81138745D01*
X170854292Y-81424459D02*
X169854292Y-81424459D01*
X169854292Y-81424459D02*
X169997149Y-81329221D01*
X169997149Y-81329221D02*
X170092387Y-81233983D01*
X170092387Y-81233983D02*
X170140006Y-81138745D01*
X169854292Y-82329221D02*
X169854292Y-82424459D01*
X169854292Y-82424459D02*
X169901911Y-82519697D01*
X169901911Y-82519697D02*
X169949530Y-82567316D01*
X169949530Y-82567316D02*
X170044768Y-82614935D01*
X170044768Y-82614935D02*
X170235244Y-82662554D01*
X170235244Y-82662554D02*
X170473339Y-82662554D01*
X170473339Y-82662554D02*
X170663815Y-82614935D01*
X170663815Y-82614935D02*
X170759053Y-82567316D01*
X170759053Y-82567316D02*
X170806673Y-82519697D01*
X170806673Y-82519697D02*
X170854292Y-82424459D01*
X170854292Y-82424459D02*
X170854292Y-82329221D01*
X170854292Y-82329221D02*
X170806673Y-82233983D01*
X170806673Y-82233983D02*
X170759053Y-82186364D01*
X170759053Y-82186364D02*
X170663815Y-82138745D01*
X170663815Y-82138745D02*
X170473339Y-82091126D01*
X170473339Y-82091126D02*
X170235244Y-82091126D01*
X170235244Y-82091126D02*
X170044768Y-82138745D01*
X170044768Y-82138745D02*
X169949530Y-82186364D01*
X169949530Y-82186364D02*
X169901911Y-82233983D01*
X169901911Y-82233983D02*
X169854292Y-82329221D01*
X121585270Y-111059251D02*
X121446083Y-111116719D01*
X121446083Y-111116719D02*
X121208568Y-111133328D01*
X121208568Y-111133328D02*
X121110240Y-111092468D01*
X121110240Y-111092468D02*
X121059415Y-111048287D01*
X121059415Y-111048287D02*
X121005268Y-110956602D01*
X121005268Y-110956602D02*
X120998625Y-110861596D01*
X120998625Y-110861596D02*
X121039485Y-110763268D01*
X121039485Y-110763268D02*
X121083666Y-110712444D01*
X121083666Y-110712444D02*
X121175350Y-110658297D01*
X121175350Y-110658297D02*
X121362041Y-110597507D01*
X121362041Y-110597507D02*
X121453725Y-110543361D01*
X121453725Y-110543361D02*
X121497906Y-110492536D01*
X121497906Y-110492536D02*
X121538766Y-110394208D01*
X121538766Y-110394208D02*
X121532122Y-110299202D01*
X121532122Y-110299202D02*
X121477976Y-110207517D01*
X121477976Y-110207517D02*
X121427151Y-110163336D01*
X121427151Y-110163336D02*
X121328823Y-110122477D01*
X121328823Y-110122477D02*
X121091308Y-110139085D01*
X121091308Y-110139085D02*
X120952121Y-110196553D01*
X120616278Y-110172303D02*
X120448519Y-111186475D01*
X120448519Y-111186475D02*
X120208680Y-110487217D01*
X120208680Y-110487217D02*
X120068494Y-111213049D01*
X120068494Y-111213049D02*
X119761223Y-110232094D01*
X118928421Y-111292771D02*
X119498458Y-111252910D01*
X119213440Y-111272840D02*
X119143683Y-110275276D01*
X119143683Y-110275276D02*
X119248654Y-110411142D01*
X119248654Y-110411142D02*
X119350304Y-110499505D01*
X119350304Y-110499505D02*
X119448632Y-110540364D01*
X118485284Y-110416787D02*
X118434459Y-110372606D01*
X118434459Y-110372606D02*
X118336131Y-110331746D01*
X118336131Y-110331746D02*
X118098616Y-110348355D01*
X118098616Y-110348355D02*
X118006932Y-110402501D01*
X118006932Y-110402501D02*
X117962750Y-110453326D01*
X117962750Y-110453326D02*
X117921891Y-110551654D01*
X117921891Y-110551654D02*
X117928534Y-110646660D01*
X117928534Y-110646660D02*
X117986002Y-110785847D01*
X117986002Y-110785847D02*
X118595900Y-111316023D01*
X118595900Y-111316023D02*
X117978360Y-111359206D01*
X170854292Y-97186364D02*
X169854292Y-97186364D01*
X169854292Y-97186364D02*
X169854292Y-97424459D01*
X169854292Y-97424459D02*
X169901911Y-97567316D01*
X169901911Y-97567316D02*
X169997149Y-97662554D01*
X169997149Y-97662554D02*
X170092387Y-97710173D01*
X170092387Y-97710173D02*
X170282863Y-97757792D01*
X170282863Y-97757792D02*
X170425720Y-97757792D01*
X170425720Y-97757792D02*
X170616196Y-97710173D01*
X170616196Y-97710173D02*
X170711434Y-97662554D01*
X170711434Y-97662554D02*
X170806673Y-97567316D01*
X170806673Y-97567316D02*
X170854292Y-97424459D01*
X170854292Y-97424459D02*
X170854292Y-97186364D01*
X170854292Y-98710173D02*
X170854292Y-98138745D01*
X170854292Y-98424459D02*
X169854292Y-98424459D01*
X169854292Y-98424459D02*
X169997149Y-98329221D01*
X169997149Y-98329221D02*
X170092387Y-98233983D01*
X170092387Y-98233983D02*
X170140006Y-98138745D01*
X169854292Y-99614935D02*
X169854292Y-99138745D01*
X169854292Y-99138745D02*
X170330482Y-99091126D01*
X170330482Y-99091126D02*
X170282863Y-99138745D01*
X170282863Y-99138745D02*
X170235244Y-99233983D01*
X170235244Y-99233983D02*
X170235244Y-99472078D01*
X170235244Y-99472078D02*
X170282863Y-99567316D01*
X170282863Y-99567316D02*
X170330482Y-99614935D01*
X170330482Y-99614935D02*
X170425720Y-99662554D01*
X170425720Y-99662554D02*
X170663815Y-99662554D01*
X170663815Y-99662554D02*
X170759053Y-99614935D01*
X170759053Y-99614935D02*
X170806673Y-99567316D01*
X170806673Y-99567316D02*
X170854292Y-99472078D01*
X170854292Y-99472078D02*
X170854292Y-99233983D01*
X170854292Y-99233983D02*
X170806673Y-99138745D01*
X170806673Y-99138745D02*
X170759053Y-99091126D01*
X199199404Y-77929819D02*
X199199404Y-78739342D01*
X199199404Y-78739342D02*
X199151785Y-78834580D01*
X199151785Y-78834580D02*
X199104166Y-78882200D01*
X199104166Y-78882200D02*
X199008928Y-78929819D01*
X199008928Y-78929819D02*
X198818452Y-78929819D01*
X198818452Y-78929819D02*
X198723214Y-78882200D01*
X198723214Y-78882200D02*
X198675595Y-78834580D01*
X198675595Y-78834580D02*
X198627976Y-78739342D01*
X198627976Y-78739342D02*
X198627976Y-77929819D01*
X198247023Y-77929819D02*
X197627976Y-77929819D01*
X197627976Y-77929819D02*
X197961309Y-78310771D01*
X197961309Y-78310771D02*
X197818452Y-78310771D01*
X197818452Y-78310771D02*
X197723214Y-78358390D01*
X197723214Y-78358390D02*
X197675595Y-78406009D01*
X197675595Y-78406009D02*
X197627976Y-78501247D01*
X197627976Y-78501247D02*
X197627976Y-78739342D01*
X197627976Y-78739342D02*
X197675595Y-78834580D01*
X197675595Y-78834580D02*
X197723214Y-78882200D01*
X197723214Y-78882200D02*
X197818452Y-78929819D01*
X197818452Y-78929819D02*
X198104166Y-78929819D01*
X198104166Y-78929819D02*
X198199404Y-78882200D01*
X198199404Y-78882200D02*
X198247023Y-78834580D01*
X115758981Y-100347314D02*
X116756545Y-100277557D01*
X116756545Y-100277557D02*
X116739936Y-100040042D01*
X116739936Y-100040042D02*
X116682468Y-99900855D01*
X116682468Y-99900855D02*
X116580818Y-99812492D01*
X116580818Y-99812492D02*
X116482490Y-99771633D01*
X116482490Y-99771633D02*
X116289156Y-99737416D01*
X116289156Y-99737416D02*
X116146647Y-99747382D01*
X116146647Y-99747382D02*
X115959957Y-99808172D01*
X115959957Y-99808172D02*
X115868272Y-99862318D01*
X115868272Y-99862318D02*
X115779910Y-99963968D01*
X115779910Y-99963968D02*
X115742372Y-100109799D01*
X115742372Y-100109799D02*
X115758981Y-100347314D01*
X115652685Y-98827216D02*
X115692546Y-99397253D01*
X115672616Y-99112235D02*
X116670180Y-99042478D01*
X116670180Y-99042478D02*
X116534314Y-99147449D01*
X116534314Y-99147449D02*
X116445951Y-99249099D01*
X116445951Y-99249099D02*
X116405092Y-99347427D01*
X116528669Y-98384079D02*
X116572850Y-98333254D01*
X116572850Y-98333254D02*
X116613710Y-98234926D01*
X116613710Y-98234926D02*
X116597101Y-97997411D01*
X116597101Y-97997411D02*
X116542955Y-97905727D01*
X116542955Y-97905727D02*
X116492130Y-97861545D01*
X116492130Y-97861545D02*
X116393802Y-97820686D01*
X116393802Y-97820686D02*
X116298796Y-97827329D01*
X116298796Y-97827329D02*
X116159609Y-97884797D01*
X116159609Y-97884797D02*
X115629433Y-98494695D01*
X115629433Y-98494695D02*
X115586250Y-97877155D01*
X200959580Y-86933333D02*
X201007200Y-86885714D01*
X201007200Y-86885714D02*
X201054819Y-86742857D01*
X201054819Y-86742857D02*
X201054819Y-86647619D01*
X201054819Y-86647619D02*
X201007200Y-86504762D01*
X201007200Y-86504762D02*
X200911961Y-86409524D01*
X200911961Y-86409524D02*
X200816723Y-86361905D01*
X200816723Y-86361905D02*
X200626247Y-86314286D01*
X200626247Y-86314286D02*
X200483390Y-86314286D01*
X200483390Y-86314286D02*
X200292914Y-86361905D01*
X200292914Y-86361905D02*
X200197676Y-86409524D01*
X200197676Y-86409524D02*
X200102438Y-86504762D01*
X200102438Y-86504762D02*
X200054819Y-86647619D01*
X200054819Y-86647619D02*
X200054819Y-86742857D01*
X200054819Y-86742857D02*
X200102438Y-86885714D01*
X200102438Y-86885714D02*
X200150057Y-86933333D01*
X200054819Y-87790476D02*
X200054819Y-87600000D01*
X200054819Y-87600000D02*
X200102438Y-87504762D01*
X200102438Y-87504762D02*
X200150057Y-87457143D01*
X200150057Y-87457143D02*
X200292914Y-87361905D01*
X200292914Y-87361905D02*
X200483390Y-87314286D01*
X200483390Y-87314286D02*
X200864342Y-87314286D01*
X200864342Y-87314286D02*
X200959580Y-87361905D01*
X200959580Y-87361905D02*
X201007200Y-87409524D01*
X201007200Y-87409524D02*
X201054819Y-87504762D01*
X201054819Y-87504762D02*
X201054819Y-87695238D01*
X201054819Y-87695238D02*
X201007200Y-87790476D01*
X201007200Y-87790476D02*
X200959580Y-87838095D01*
X200959580Y-87838095D02*
X200864342Y-87885714D01*
X200864342Y-87885714D02*
X200626247Y-87885714D01*
X200626247Y-87885714D02*
X200531009Y-87838095D01*
X200531009Y-87838095D02*
X200483390Y-87790476D01*
X200483390Y-87790476D02*
X200435771Y-87695238D01*
X200435771Y-87695238D02*
X200435771Y-87504762D01*
X200435771Y-87504762D02*
X200483390Y-87409524D01*
X200483390Y-87409524D02*
X200531009Y-87361905D01*
X200531009Y-87361905D02*
X200626247Y-87314286D01*
X114539903Y-82913694D02*
X115537467Y-82843937D01*
X115537467Y-82843937D02*
X115520859Y-82606422D01*
X115520859Y-82606422D02*
X115463390Y-82467235D01*
X115463390Y-82467235D02*
X115361741Y-82378872D01*
X115361741Y-82378872D02*
X115263413Y-82338013D01*
X115263413Y-82338013D02*
X115070079Y-82303796D01*
X115070079Y-82303796D02*
X114927570Y-82313762D01*
X114927570Y-82313762D02*
X114740879Y-82374552D01*
X114740879Y-82374552D02*
X114649195Y-82428698D01*
X114649195Y-82428698D02*
X114560832Y-82530348D01*
X114560832Y-82530348D02*
X114523295Y-82676179D01*
X114523295Y-82676179D02*
X114539903Y-82913694D01*
X115474354Y-81941379D02*
X115427850Y-81276337D01*
X115427850Y-81276337D02*
X114460182Y-81773621D01*
X207181176Y-132748442D02*
X207153566Y-132896474D01*
X207153566Y-132896474D02*
X207038135Y-133104716D01*
X207038135Y-133104716D02*
X206950314Y-133164927D01*
X206950314Y-133164927D02*
X206885580Y-133183490D01*
X206885580Y-133183490D02*
X206779196Y-133178966D01*
X206779196Y-133178966D02*
X206695899Y-133132794D01*
X206695899Y-133132794D02*
X206635688Y-133044973D01*
X206635688Y-133044973D02*
X206617126Y-132980238D01*
X206617126Y-132980238D02*
X206621650Y-132873855D01*
X206621650Y-132873855D02*
X206672346Y-132684174D01*
X206672346Y-132684174D02*
X206676870Y-132577791D01*
X206676870Y-132577791D02*
X206658307Y-132513056D01*
X206658307Y-132513056D02*
X206598096Y-132425235D01*
X206598096Y-132425235D02*
X206514799Y-132379063D01*
X206514799Y-132379063D02*
X206408416Y-132374539D01*
X206408416Y-132374539D02*
X206343681Y-132393102D01*
X206343681Y-132393102D02*
X206255860Y-132453313D01*
X206255860Y-132453313D02*
X206140429Y-132661555D01*
X206140429Y-132661555D02*
X206112820Y-132809587D01*
X205909568Y-133078041D02*
X206668757Y-133771093D01*
X206668757Y-133771093D02*
X205951684Y-133591395D01*
X205951684Y-133591395D02*
X206484067Y-134104282D01*
X206484067Y-134104282D02*
X205494017Y-133827715D01*
X205929999Y-135103847D02*
X206207033Y-134604064D01*
X206068516Y-134853956D02*
X205193896Y-134369146D01*
X205193896Y-134369146D02*
X205365014Y-134355108D01*
X205365014Y-134355108D02*
X205494484Y-134317983D01*
X205494484Y-134317983D02*
X205582305Y-134257772D01*
X205153182Y-135326596D02*
X205157706Y-135220212D01*
X205157706Y-135220212D02*
X205139144Y-135155478D01*
X205139144Y-135155478D02*
X205078933Y-135067657D01*
X205078933Y-135067657D02*
X205037284Y-135044571D01*
X205037284Y-135044571D02*
X204930901Y-135040047D01*
X204930901Y-135040047D02*
X204866166Y-135058609D01*
X204866166Y-135058609D02*
X204778345Y-135118820D01*
X204778345Y-135118820D02*
X204686001Y-135285414D01*
X204686001Y-135285414D02*
X204681477Y-135391798D01*
X204681477Y-135391798D02*
X204700039Y-135456532D01*
X204700039Y-135456532D02*
X204760250Y-135544353D01*
X204760250Y-135544353D02*
X204801899Y-135567440D01*
X204801899Y-135567440D02*
X204908282Y-135571963D01*
X204908282Y-135571963D02*
X204973017Y-135553401D01*
X204973017Y-135553401D02*
X205060838Y-135493190D01*
X205060838Y-135493190D02*
X205153182Y-135326596D01*
X205153182Y-135326596D02*
X205241003Y-135266385D01*
X205241003Y-135266385D02*
X205305738Y-135247822D01*
X205305738Y-135247822D02*
X205412121Y-135252346D01*
X205412121Y-135252346D02*
X205578716Y-135344691D01*
X205578716Y-135344691D02*
X205638926Y-135432512D01*
X205638926Y-135432512D02*
X205657489Y-135497247D01*
X205657489Y-135497247D02*
X205652965Y-135603630D01*
X205652965Y-135603630D02*
X205560620Y-135770224D01*
X205560620Y-135770224D02*
X205472799Y-135830435D01*
X205472799Y-135830435D02*
X205408065Y-135848997D01*
X205408065Y-135848997D02*
X205301681Y-135844474D01*
X205301681Y-135844474D02*
X205135087Y-135752129D01*
X205135087Y-135752129D02*
X205074876Y-135664308D01*
X205074876Y-135664308D02*
X205056314Y-135599573D01*
X205056314Y-135599573D02*
X205060838Y-135493190D01*
X113354043Y-65955106D02*
X114351607Y-65885349D01*
X114351607Y-65885349D02*
X114334999Y-65647834D01*
X114334999Y-65647834D02*
X114277530Y-65508647D01*
X114277530Y-65508647D02*
X114175881Y-65420284D01*
X114175881Y-65420284D02*
X114077553Y-65379425D01*
X114077553Y-65379425D02*
X113884219Y-65345208D01*
X113884219Y-65345208D02*
X113741710Y-65355174D01*
X113741710Y-65355174D02*
X113555019Y-65415964D01*
X113555019Y-65415964D02*
X113463335Y-65470110D01*
X113463335Y-65470110D02*
X113374972Y-65571760D01*
X113374972Y-65571760D02*
X113337435Y-65717591D01*
X113337435Y-65717591D02*
X113354043Y-65955106D01*
X114190166Y-64941932D02*
X114234348Y-64891107D01*
X114234348Y-64891107D02*
X114275207Y-64792779D01*
X114275207Y-64792779D02*
X114258599Y-64555264D01*
X114258599Y-64555264D02*
X114204452Y-64463580D01*
X114204452Y-64463580D02*
X114153627Y-64419398D01*
X114153627Y-64419398D02*
X114055300Y-64378539D01*
X114055300Y-64378539D02*
X113960293Y-64385182D01*
X113960293Y-64385182D02*
X113821106Y-64442650D01*
X113821106Y-64442650D02*
X113290930Y-65052548D01*
X113290930Y-65052548D02*
X113247748Y-64435008D01*
X173566666Y-59659580D02*
X173614285Y-59707200D01*
X173614285Y-59707200D02*
X173757142Y-59754819D01*
X173757142Y-59754819D02*
X173852380Y-59754819D01*
X173852380Y-59754819D02*
X173995237Y-59707200D01*
X173995237Y-59707200D02*
X174090475Y-59611961D01*
X174090475Y-59611961D02*
X174138094Y-59516723D01*
X174138094Y-59516723D02*
X174185713Y-59326247D01*
X174185713Y-59326247D02*
X174185713Y-59183390D01*
X174185713Y-59183390D02*
X174138094Y-58992914D01*
X174138094Y-58992914D02*
X174090475Y-58897676D01*
X174090475Y-58897676D02*
X173995237Y-58802438D01*
X173995237Y-58802438D02*
X173852380Y-58754819D01*
X173852380Y-58754819D02*
X173757142Y-58754819D01*
X173757142Y-58754819D02*
X173614285Y-58802438D01*
X173614285Y-58802438D02*
X173566666Y-58850057D01*
X172614285Y-59754819D02*
X173185713Y-59754819D01*
X172899999Y-59754819D02*
X172899999Y-58754819D01*
X172899999Y-58754819D02*
X172995237Y-58897676D01*
X172995237Y-58897676D02*
X173090475Y-58992914D01*
X173090475Y-58992914D02*
X173185713Y-59040533D01*
X156533332Y-91707200D02*
X156390475Y-91754819D01*
X156390475Y-91754819D02*
X156152380Y-91754819D01*
X156152380Y-91754819D02*
X156057142Y-91707200D01*
X156057142Y-91707200D02*
X156009523Y-91659580D01*
X156009523Y-91659580D02*
X155961904Y-91564342D01*
X155961904Y-91564342D02*
X155961904Y-91469104D01*
X155961904Y-91469104D02*
X156009523Y-91373866D01*
X156009523Y-91373866D02*
X156057142Y-91326247D01*
X156057142Y-91326247D02*
X156152380Y-91278628D01*
X156152380Y-91278628D02*
X156342856Y-91231009D01*
X156342856Y-91231009D02*
X156438094Y-91183390D01*
X156438094Y-91183390D02*
X156485713Y-91135771D01*
X156485713Y-91135771D02*
X156533332Y-91040533D01*
X156533332Y-91040533D02*
X156533332Y-90945295D01*
X156533332Y-90945295D02*
X156485713Y-90850057D01*
X156485713Y-90850057D02*
X156438094Y-90802438D01*
X156438094Y-90802438D02*
X156342856Y-90754819D01*
X156342856Y-90754819D02*
X156104761Y-90754819D01*
X156104761Y-90754819D02*
X155961904Y-90802438D01*
X155628570Y-90754819D02*
X155390475Y-91754819D01*
X155390475Y-91754819D02*
X155199999Y-91040533D01*
X155199999Y-91040533D02*
X155009523Y-91754819D01*
X155009523Y-91754819D02*
X154771428Y-90754819D01*
X154342856Y-91754819D02*
X154152380Y-91754819D01*
X154152380Y-91754819D02*
X154057142Y-91707200D01*
X154057142Y-91707200D02*
X154009523Y-91659580D01*
X154009523Y-91659580D02*
X153914285Y-91516723D01*
X153914285Y-91516723D02*
X153866666Y-91326247D01*
X153866666Y-91326247D02*
X153866666Y-90945295D01*
X153866666Y-90945295D02*
X153914285Y-90850057D01*
X153914285Y-90850057D02*
X153961904Y-90802438D01*
X153961904Y-90802438D02*
X154057142Y-90754819D01*
X154057142Y-90754819D02*
X154247618Y-90754819D01*
X154247618Y-90754819D02*
X154342856Y-90802438D01*
X154342856Y-90802438D02*
X154390475Y-90850057D01*
X154390475Y-90850057D02*
X154438094Y-90945295D01*
X154438094Y-90945295D02*
X154438094Y-91183390D01*
X154438094Y-91183390D02*
X154390475Y-91278628D01*
X154390475Y-91278628D02*
X154342856Y-91326247D01*
X154342856Y-91326247D02*
X154247618Y-91373866D01*
X154247618Y-91373866D02*
X154057142Y-91373866D01*
X154057142Y-91373866D02*
X153961904Y-91326247D01*
X153961904Y-91326247D02*
X153914285Y-91278628D01*
X153914285Y-91278628D02*
X153866666Y-91183390D01*
X162438095Y-55264819D02*
X162771428Y-54788628D01*
X163009523Y-55264819D02*
X163009523Y-54264819D01*
X163009523Y-54264819D02*
X162628571Y-54264819D01*
X162628571Y-54264819D02*
X162533333Y-54312438D01*
X162533333Y-54312438D02*
X162485714Y-54360057D01*
X162485714Y-54360057D02*
X162438095Y-54455295D01*
X162438095Y-54455295D02*
X162438095Y-54598152D01*
X162438095Y-54598152D02*
X162485714Y-54693390D01*
X162485714Y-54693390D02*
X162533333Y-54741009D01*
X162533333Y-54741009D02*
X162628571Y-54788628D01*
X162628571Y-54788628D02*
X163009523Y-54788628D01*
X162247619Y-55360057D02*
X161485714Y-55360057D01*
X161390475Y-54264819D02*
X160819047Y-54264819D01*
X161104761Y-55264819D02*
X161104761Y-54264819D01*
X160533332Y-54979104D02*
X160057142Y-54979104D01*
X160628570Y-55264819D02*
X160295237Y-54264819D01*
X160295237Y-54264819D02*
X159961904Y-55264819D01*
X159057142Y-55169580D02*
X159104761Y-55217200D01*
X159104761Y-55217200D02*
X159247618Y-55264819D01*
X159247618Y-55264819D02*
X159342856Y-55264819D01*
X159342856Y-55264819D02*
X159485713Y-55217200D01*
X159485713Y-55217200D02*
X159580951Y-55121961D01*
X159580951Y-55121961D02*
X159628570Y-55026723D01*
X159628570Y-55026723D02*
X159676189Y-54836247D01*
X159676189Y-54836247D02*
X159676189Y-54693390D01*
X159676189Y-54693390D02*
X159628570Y-54502914D01*
X159628570Y-54502914D02*
X159580951Y-54407676D01*
X159580951Y-54407676D02*
X159485713Y-54312438D01*
X159485713Y-54312438D02*
X159342856Y-54264819D01*
X159342856Y-54264819D02*
X159247618Y-54264819D01*
X159247618Y-54264819D02*
X159104761Y-54312438D01*
X159104761Y-54312438D02*
X159057142Y-54360057D01*
X158771427Y-54264819D02*
X158199999Y-54264819D01*
X158485713Y-55264819D02*
X158485713Y-54264819D01*
X157342856Y-55264819D02*
X157914284Y-55264819D01*
X157628570Y-55264819D02*
X157628570Y-54264819D01*
X157628570Y-54264819D02*
X157723808Y-54407676D01*
X157723808Y-54407676D02*
X157819046Y-54502914D01*
X157819046Y-54502914D02*
X157914284Y-54550533D01*
X190514285Y-85154819D02*
X190514285Y-84154819D01*
X190514285Y-84154819D02*
X190276190Y-84154819D01*
X190276190Y-84154819D02*
X190133333Y-84202438D01*
X190133333Y-84202438D02*
X190038095Y-84297676D01*
X190038095Y-84297676D02*
X189990476Y-84392914D01*
X189990476Y-84392914D02*
X189942857Y-84583390D01*
X189942857Y-84583390D02*
X189942857Y-84726247D01*
X189942857Y-84726247D02*
X189990476Y-84916723D01*
X189990476Y-84916723D02*
X190038095Y-85011961D01*
X190038095Y-85011961D02*
X190133333Y-85107200D01*
X190133333Y-85107200D02*
X190276190Y-85154819D01*
X190276190Y-85154819D02*
X190514285Y-85154819D01*
X188990476Y-85154819D02*
X189561904Y-85154819D01*
X189276190Y-85154819D02*
X189276190Y-84154819D01*
X189276190Y-84154819D02*
X189371428Y-84297676D01*
X189371428Y-84297676D02*
X189466666Y-84392914D01*
X189466666Y-84392914D02*
X189561904Y-84440533D01*
X188514285Y-85154819D02*
X188323809Y-85154819D01*
X188323809Y-85154819D02*
X188228571Y-85107200D01*
X188228571Y-85107200D02*
X188180952Y-85059580D01*
X188180952Y-85059580D02*
X188085714Y-84916723D01*
X188085714Y-84916723D02*
X188038095Y-84726247D01*
X188038095Y-84726247D02*
X188038095Y-84345295D01*
X188038095Y-84345295D02*
X188085714Y-84250057D01*
X188085714Y-84250057D02*
X188133333Y-84202438D01*
X188133333Y-84202438D02*
X188228571Y-84154819D01*
X188228571Y-84154819D02*
X188419047Y-84154819D01*
X188419047Y-84154819D02*
X188514285Y-84202438D01*
X188514285Y-84202438D02*
X188561904Y-84250057D01*
X188561904Y-84250057D02*
X188609523Y-84345295D01*
X188609523Y-84345295D02*
X188609523Y-84583390D01*
X188609523Y-84583390D02*
X188561904Y-84678628D01*
X188561904Y-84678628D02*
X188514285Y-84726247D01*
X188514285Y-84726247D02*
X188419047Y-84773866D01*
X188419047Y-84773866D02*
X188228571Y-84773866D01*
X188228571Y-84773866D02*
X188133333Y-84726247D01*
X188133333Y-84726247D02*
X188085714Y-84678628D01*
X188085714Y-84678628D02*
X188038095Y-84583390D01*
X189766666Y-87054819D02*
X190099999Y-86578628D01*
X190338094Y-87054819D02*
X190338094Y-86054819D01*
X190338094Y-86054819D02*
X189957142Y-86054819D01*
X189957142Y-86054819D02*
X189861904Y-86102438D01*
X189861904Y-86102438D02*
X189814285Y-86150057D01*
X189814285Y-86150057D02*
X189766666Y-86245295D01*
X189766666Y-86245295D02*
X189766666Y-86388152D01*
X189766666Y-86388152D02*
X189814285Y-86483390D01*
X189814285Y-86483390D02*
X189861904Y-86531009D01*
X189861904Y-86531009D02*
X189957142Y-86578628D01*
X189957142Y-86578628D02*
X190338094Y-86578628D01*
X188909523Y-86388152D02*
X188909523Y-87054819D01*
X189147618Y-86007200D02*
X189385713Y-86721485D01*
X189385713Y-86721485D02*
X188766666Y-86721485D01*
X106004896Y-126590195D02*
X105872478Y-126661897D01*
X105872478Y-126661897D02*
X105638000Y-126703242D01*
X105638000Y-126703242D02*
X105535940Y-126672884D01*
X105535940Y-126672884D02*
X105480775Y-126634258D01*
X105480775Y-126634258D02*
X105417342Y-126548735D01*
X105417342Y-126548735D02*
X105400804Y-126454944D01*
X105400804Y-126454944D02*
X105431162Y-126352884D01*
X105431162Y-126352884D02*
X105469788Y-126297719D01*
X105469788Y-126297719D02*
X105555311Y-126234286D01*
X105555311Y-126234286D02*
X105734624Y-126154314D01*
X105734624Y-126154314D02*
X105820146Y-126090881D01*
X105820146Y-126090881D02*
X105858773Y-126035716D01*
X105858773Y-126035716D02*
X105889131Y-125933656D01*
X105889131Y-125933656D02*
X105872593Y-125839865D01*
X105872593Y-125839865D02*
X105809159Y-125754343D01*
X105809159Y-125754343D02*
X105753995Y-125715716D01*
X105753995Y-125715716D02*
X105651934Y-125685358D01*
X105651934Y-125685358D02*
X105417456Y-125726703D01*
X105417456Y-125726703D02*
X105285039Y-125798406D01*
X104948500Y-125809393D02*
X104887670Y-126835545D01*
X104887670Y-126835545D02*
X104576054Y-126165187D01*
X104576054Y-126165187D02*
X104512506Y-126901697D01*
X104512506Y-126901697D02*
X104104379Y-125958234D01*
X103387011Y-127100152D02*
X103949758Y-127000925D01*
X103668385Y-127050538D02*
X103494737Y-126065731D01*
X103494737Y-126065731D02*
X103613335Y-126189879D01*
X103613335Y-126189879D02*
X103723664Y-126267133D01*
X103723664Y-126267133D02*
X103825724Y-126297490D01*
X102449099Y-127265531D02*
X103011846Y-127166304D01*
X102730473Y-127215918D02*
X102556824Y-126231110D01*
X102556824Y-126231110D02*
X102675423Y-126355259D01*
X102675423Y-126355259D02*
X102785752Y-126432512D01*
X102785752Y-126432512D02*
X102887812Y-126462870D01*
X173566666Y-61654819D02*
X173899999Y-61178628D01*
X174138094Y-61654819D02*
X174138094Y-60654819D01*
X174138094Y-60654819D02*
X173757142Y-60654819D01*
X173757142Y-60654819D02*
X173661904Y-60702438D01*
X173661904Y-60702438D02*
X173614285Y-60750057D01*
X173614285Y-60750057D02*
X173566666Y-60845295D01*
X173566666Y-60845295D02*
X173566666Y-60988152D01*
X173566666Y-60988152D02*
X173614285Y-61083390D01*
X173614285Y-61083390D02*
X173661904Y-61131009D01*
X173661904Y-61131009D02*
X173757142Y-61178628D01*
X173757142Y-61178628D02*
X174138094Y-61178628D01*
X173233332Y-60654819D02*
X172614285Y-60654819D01*
X172614285Y-60654819D02*
X172947618Y-61035771D01*
X172947618Y-61035771D02*
X172804761Y-61035771D01*
X172804761Y-61035771D02*
X172709523Y-61083390D01*
X172709523Y-61083390D02*
X172661904Y-61131009D01*
X172661904Y-61131009D02*
X172614285Y-61226247D01*
X172614285Y-61226247D02*
X172614285Y-61464342D01*
X172614285Y-61464342D02*
X172661904Y-61559580D01*
X172661904Y-61559580D02*
X172709523Y-61607200D01*
X172709523Y-61607200D02*
X172804761Y-61654819D01*
X172804761Y-61654819D02*
X173090475Y-61654819D01*
X173090475Y-61654819D02*
X173185713Y-61607200D01*
X173185713Y-61607200D02*
X173233332Y-61559580D01*
X208159580Y-85933333D02*
X208207200Y-85885714D01*
X208207200Y-85885714D02*
X208254819Y-85742857D01*
X208254819Y-85742857D02*
X208254819Y-85647619D01*
X208254819Y-85647619D02*
X208207200Y-85504762D01*
X208207200Y-85504762D02*
X208111961Y-85409524D01*
X208111961Y-85409524D02*
X208016723Y-85361905D01*
X208016723Y-85361905D02*
X207826247Y-85314286D01*
X207826247Y-85314286D02*
X207683390Y-85314286D01*
X207683390Y-85314286D02*
X207492914Y-85361905D01*
X207492914Y-85361905D02*
X207397676Y-85409524D01*
X207397676Y-85409524D02*
X207302438Y-85504762D01*
X207302438Y-85504762D02*
X207254819Y-85647619D01*
X207254819Y-85647619D02*
X207254819Y-85742857D01*
X207254819Y-85742857D02*
X207302438Y-85885714D01*
X207302438Y-85885714D02*
X207350057Y-85933333D01*
X207254819Y-86266667D02*
X207254819Y-86933333D01*
X207254819Y-86933333D02*
X208254819Y-86504762D01*
X152854292Y-61662556D02*
X151854292Y-61662556D01*
X151854292Y-61662556D02*
X151854292Y-61900651D01*
X151854292Y-61900651D02*
X151901911Y-62043508D01*
X151901911Y-62043508D02*
X151997149Y-62138746D01*
X151997149Y-62138746D02*
X152092387Y-62186365D01*
X152092387Y-62186365D02*
X152282863Y-62233984D01*
X152282863Y-62233984D02*
X152425720Y-62233984D01*
X152425720Y-62233984D02*
X152616196Y-62186365D01*
X152616196Y-62186365D02*
X152711434Y-62138746D01*
X152711434Y-62138746D02*
X152806673Y-62043508D01*
X152806673Y-62043508D02*
X152854292Y-61900651D01*
X152854292Y-61900651D02*
X152854292Y-61662556D01*
X152187625Y-63091127D02*
X152854292Y-63091127D01*
X151806673Y-62853032D02*
X152520958Y-62614937D01*
X152520958Y-62614937D02*
X152520958Y-63233984D01*
X206607200Y-78190476D02*
X206654819Y-78333333D01*
X206654819Y-78333333D02*
X206654819Y-78571428D01*
X206654819Y-78571428D02*
X206607200Y-78666666D01*
X206607200Y-78666666D02*
X206559580Y-78714285D01*
X206559580Y-78714285D02*
X206464342Y-78761904D01*
X206464342Y-78761904D02*
X206369104Y-78761904D01*
X206369104Y-78761904D02*
X206273866Y-78714285D01*
X206273866Y-78714285D02*
X206226247Y-78666666D01*
X206226247Y-78666666D02*
X206178628Y-78571428D01*
X206178628Y-78571428D02*
X206131009Y-78380952D01*
X206131009Y-78380952D02*
X206083390Y-78285714D01*
X206083390Y-78285714D02*
X206035771Y-78238095D01*
X206035771Y-78238095D02*
X205940533Y-78190476D01*
X205940533Y-78190476D02*
X205845295Y-78190476D01*
X205845295Y-78190476D02*
X205750057Y-78238095D01*
X205750057Y-78238095D02*
X205702438Y-78285714D01*
X205702438Y-78285714D02*
X205654819Y-78380952D01*
X205654819Y-78380952D02*
X205654819Y-78619047D01*
X205654819Y-78619047D02*
X205702438Y-78761904D01*
X205654819Y-79095238D02*
X206654819Y-79333333D01*
X206654819Y-79333333D02*
X205940533Y-79523809D01*
X205940533Y-79523809D02*
X206654819Y-79714285D01*
X206654819Y-79714285D02*
X205654819Y-79952381D01*
X206654819Y-80857142D02*
X206654819Y-80285714D01*
X206654819Y-80571428D02*
X205654819Y-80571428D01*
X205654819Y-80571428D02*
X205797676Y-80476190D01*
X205797676Y-80476190D02*
X205892914Y-80380952D01*
X205892914Y-80380952D02*
X205940533Y-80285714D01*
X206654819Y-81333333D02*
X206654819Y-81523809D01*
X206654819Y-81523809D02*
X206607200Y-81619047D01*
X206607200Y-81619047D02*
X206559580Y-81666666D01*
X206559580Y-81666666D02*
X206416723Y-81761904D01*
X206416723Y-81761904D02*
X206226247Y-81809523D01*
X206226247Y-81809523D02*
X205845295Y-81809523D01*
X205845295Y-81809523D02*
X205750057Y-81761904D01*
X205750057Y-81761904D02*
X205702438Y-81714285D01*
X205702438Y-81714285D02*
X205654819Y-81619047D01*
X205654819Y-81619047D02*
X205654819Y-81428571D01*
X205654819Y-81428571D02*
X205702438Y-81333333D01*
X205702438Y-81333333D02*
X205750057Y-81285714D01*
X205750057Y-81285714D02*
X205845295Y-81238095D01*
X205845295Y-81238095D02*
X206083390Y-81238095D01*
X206083390Y-81238095D02*
X206178628Y-81285714D01*
X206178628Y-81285714D02*
X206226247Y-81333333D01*
X206226247Y-81333333D02*
X206273866Y-81428571D01*
X206273866Y-81428571D02*
X206273866Y-81619047D01*
X206273866Y-81619047D02*
X206226247Y-81714285D01*
X206226247Y-81714285D02*
X206178628Y-81761904D01*
X206178628Y-81761904D02*
X206083390Y-81809523D01*
X134854292Y-54662555D02*
X133854292Y-54662555D01*
X133854292Y-54662555D02*
X133854292Y-54900650D01*
X133854292Y-54900650D02*
X133901911Y-55043507D01*
X133901911Y-55043507D02*
X133997149Y-55138745D01*
X133997149Y-55138745D02*
X134092387Y-55186364D01*
X134092387Y-55186364D02*
X134282863Y-55233983D01*
X134282863Y-55233983D02*
X134425720Y-55233983D01*
X134425720Y-55233983D02*
X134616196Y-55186364D01*
X134616196Y-55186364D02*
X134711434Y-55138745D01*
X134711434Y-55138745D02*
X134806673Y-55043507D01*
X134806673Y-55043507D02*
X134854292Y-54900650D01*
X134854292Y-54900650D02*
X134854292Y-54662555D01*
X133854292Y-55567317D02*
X133854292Y-56186364D01*
X133854292Y-56186364D02*
X134235244Y-55853031D01*
X134235244Y-55853031D02*
X134235244Y-55995888D01*
X134235244Y-55995888D02*
X134282863Y-56091126D01*
X134282863Y-56091126D02*
X134330482Y-56138745D01*
X134330482Y-56138745D02*
X134425720Y-56186364D01*
X134425720Y-56186364D02*
X134663815Y-56186364D01*
X134663815Y-56186364D02*
X134759053Y-56138745D01*
X134759053Y-56138745D02*
X134806673Y-56091126D01*
X134806673Y-56091126D02*
X134854292Y-55995888D01*
X134854292Y-55995888D02*
X134854292Y-55710174D01*
X134854292Y-55710174D02*
X134806673Y-55614936D01*
X134806673Y-55614936D02*
X134759053Y-55567317D01*
X205084819Y-78333333D02*
X204608628Y-78000000D01*
X205084819Y-77761905D02*
X204084819Y-77761905D01*
X204084819Y-77761905D02*
X204084819Y-78142857D01*
X204084819Y-78142857D02*
X204132438Y-78238095D01*
X204132438Y-78238095D02*
X204180057Y-78285714D01*
X204180057Y-78285714D02*
X204275295Y-78333333D01*
X204275295Y-78333333D02*
X204418152Y-78333333D01*
X204418152Y-78333333D02*
X204513390Y-78285714D01*
X204513390Y-78285714D02*
X204561009Y-78238095D01*
X204561009Y-78238095D02*
X204608628Y-78142857D01*
X204608628Y-78142857D02*
X204608628Y-77761905D01*
X204513390Y-78904762D02*
X204465771Y-78809524D01*
X204465771Y-78809524D02*
X204418152Y-78761905D01*
X204418152Y-78761905D02*
X204322914Y-78714286D01*
X204322914Y-78714286D02*
X204275295Y-78714286D01*
X204275295Y-78714286D02*
X204180057Y-78761905D01*
X204180057Y-78761905D02*
X204132438Y-78809524D01*
X204132438Y-78809524D02*
X204084819Y-78904762D01*
X204084819Y-78904762D02*
X204084819Y-79095238D01*
X204084819Y-79095238D02*
X204132438Y-79190476D01*
X204132438Y-79190476D02*
X204180057Y-79238095D01*
X204180057Y-79238095D02*
X204275295Y-79285714D01*
X204275295Y-79285714D02*
X204322914Y-79285714D01*
X204322914Y-79285714D02*
X204418152Y-79238095D01*
X204418152Y-79238095D02*
X204465771Y-79190476D01*
X204465771Y-79190476D02*
X204513390Y-79095238D01*
X204513390Y-79095238D02*
X204513390Y-78904762D01*
X204513390Y-78904762D02*
X204561009Y-78809524D01*
X204561009Y-78809524D02*
X204608628Y-78761905D01*
X204608628Y-78761905D02*
X204703866Y-78714286D01*
X204703866Y-78714286D02*
X204894342Y-78714286D01*
X204894342Y-78714286D02*
X204989580Y-78761905D01*
X204989580Y-78761905D02*
X205037200Y-78809524D01*
X205037200Y-78809524D02*
X205084819Y-78904762D01*
X205084819Y-78904762D02*
X205084819Y-79095238D01*
X205084819Y-79095238D02*
X205037200Y-79190476D01*
X205037200Y-79190476D02*
X204989580Y-79238095D01*
X204989580Y-79238095D02*
X204894342Y-79285714D01*
X204894342Y-79285714D02*
X204703866Y-79285714D01*
X204703866Y-79285714D02*
X204608628Y-79238095D01*
X204608628Y-79238095D02*
X204561009Y-79190476D01*
X204561009Y-79190476D02*
X204513390Y-79095238D01*
X170854292Y-63662555D02*
X169854292Y-63662555D01*
X169854292Y-63662555D02*
X169854292Y-63900650D01*
X169854292Y-63900650D02*
X169901911Y-64043507D01*
X169901911Y-64043507D02*
X169997149Y-64138745D01*
X169997149Y-64138745D02*
X170092387Y-64186364D01*
X170092387Y-64186364D02*
X170282863Y-64233983D01*
X170282863Y-64233983D02*
X170425720Y-64233983D01*
X170425720Y-64233983D02*
X170616196Y-64186364D01*
X170616196Y-64186364D02*
X170711434Y-64138745D01*
X170711434Y-64138745D02*
X170806673Y-64043507D01*
X170806673Y-64043507D02*
X170854292Y-63900650D01*
X170854292Y-63900650D02*
X170854292Y-63662555D01*
X169854292Y-65138745D02*
X169854292Y-64662555D01*
X169854292Y-64662555D02*
X170330482Y-64614936D01*
X170330482Y-64614936D02*
X170282863Y-64662555D01*
X170282863Y-64662555D02*
X170235244Y-64757793D01*
X170235244Y-64757793D02*
X170235244Y-64995888D01*
X170235244Y-64995888D02*
X170282863Y-65091126D01*
X170282863Y-65091126D02*
X170330482Y-65138745D01*
X170330482Y-65138745D02*
X170425720Y-65186364D01*
X170425720Y-65186364D02*
X170663815Y-65186364D01*
X170663815Y-65186364D02*
X170759053Y-65138745D01*
X170759053Y-65138745D02*
X170806673Y-65091126D01*
X170806673Y-65091126D02*
X170854292Y-64995888D01*
X170854292Y-64995888D02*
X170854292Y-64757793D01*
X170854292Y-64757793D02*
X170806673Y-64662555D01*
X170806673Y-64662555D02*
X170759053Y-64614936D01*
X152854292Y-78662555D02*
X151854292Y-78662555D01*
X151854292Y-78662555D02*
X151854292Y-78900650D01*
X151854292Y-78900650D02*
X151901911Y-79043507D01*
X151901911Y-79043507D02*
X151997149Y-79138745D01*
X151997149Y-79138745D02*
X152092387Y-79186364D01*
X152092387Y-79186364D02*
X152282863Y-79233983D01*
X152282863Y-79233983D02*
X152425720Y-79233983D01*
X152425720Y-79233983D02*
X152616196Y-79186364D01*
X152616196Y-79186364D02*
X152711434Y-79138745D01*
X152711434Y-79138745D02*
X152806673Y-79043507D01*
X152806673Y-79043507D02*
X152854292Y-78900650D01*
X152854292Y-78900650D02*
X152854292Y-78662555D01*
X152854292Y-79710174D02*
X152854292Y-79900650D01*
X152854292Y-79900650D02*
X152806673Y-79995888D01*
X152806673Y-79995888D02*
X152759053Y-80043507D01*
X152759053Y-80043507D02*
X152616196Y-80138745D01*
X152616196Y-80138745D02*
X152425720Y-80186364D01*
X152425720Y-80186364D02*
X152044768Y-80186364D01*
X152044768Y-80186364D02*
X151949530Y-80138745D01*
X151949530Y-80138745D02*
X151901911Y-80091126D01*
X151901911Y-80091126D02*
X151854292Y-79995888D01*
X151854292Y-79995888D02*
X151854292Y-79805412D01*
X151854292Y-79805412D02*
X151901911Y-79710174D01*
X151901911Y-79710174D02*
X151949530Y-79662555D01*
X151949530Y-79662555D02*
X152044768Y-79614936D01*
X152044768Y-79614936D02*
X152282863Y-79614936D01*
X152282863Y-79614936D02*
X152378101Y-79662555D01*
X152378101Y-79662555D02*
X152425720Y-79710174D01*
X152425720Y-79710174D02*
X152473339Y-79805412D01*
X152473339Y-79805412D02*
X152473339Y-79995888D01*
X152473339Y-79995888D02*
X152425720Y-80091126D01*
X152425720Y-80091126D02*
X152378101Y-80138745D01*
X152378101Y-80138745D02*
X152282863Y-80186364D01*
X138533332Y-84707200D02*
X138390475Y-84754819D01*
X138390475Y-84754819D02*
X138152380Y-84754819D01*
X138152380Y-84754819D02*
X138057142Y-84707200D01*
X138057142Y-84707200D02*
X138009523Y-84659580D01*
X138009523Y-84659580D02*
X137961904Y-84564342D01*
X137961904Y-84564342D02*
X137961904Y-84469104D01*
X137961904Y-84469104D02*
X138009523Y-84373866D01*
X138009523Y-84373866D02*
X138057142Y-84326247D01*
X138057142Y-84326247D02*
X138152380Y-84278628D01*
X138152380Y-84278628D02*
X138342856Y-84231009D01*
X138342856Y-84231009D02*
X138438094Y-84183390D01*
X138438094Y-84183390D02*
X138485713Y-84135771D01*
X138485713Y-84135771D02*
X138533332Y-84040533D01*
X138533332Y-84040533D02*
X138533332Y-83945295D01*
X138533332Y-83945295D02*
X138485713Y-83850057D01*
X138485713Y-83850057D02*
X138438094Y-83802438D01*
X138438094Y-83802438D02*
X138342856Y-83754819D01*
X138342856Y-83754819D02*
X138104761Y-83754819D01*
X138104761Y-83754819D02*
X137961904Y-83802438D01*
X137628570Y-83754819D02*
X137390475Y-84754819D01*
X137390475Y-84754819D02*
X137199999Y-84040533D01*
X137199999Y-84040533D02*
X137009523Y-84754819D01*
X137009523Y-84754819D02*
X136771428Y-83754819D01*
X136247618Y-84183390D02*
X136342856Y-84135771D01*
X136342856Y-84135771D02*
X136390475Y-84088152D01*
X136390475Y-84088152D02*
X136438094Y-83992914D01*
X136438094Y-83992914D02*
X136438094Y-83945295D01*
X136438094Y-83945295D02*
X136390475Y-83850057D01*
X136390475Y-83850057D02*
X136342856Y-83802438D01*
X136342856Y-83802438D02*
X136247618Y-83754819D01*
X136247618Y-83754819D02*
X136057142Y-83754819D01*
X136057142Y-83754819D02*
X135961904Y-83802438D01*
X135961904Y-83802438D02*
X135914285Y-83850057D01*
X135914285Y-83850057D02*
X135866666Y-83945295D01*
X135866666Y-83945295D02*
X135866666Y-83992914D01*
X135866666Y-83992914D02*
X135914285Y-84088152D01*
X135914285Y-84088152D02*
X135961904Y-84135771D01*
X135961904Y-84135771D02*
X136057142Y-84183390D01*
X136057142Y-84183390D02*
X136247618Y-84183390D01*
X136247618Y-84183390D02*
X136342856Y-84231009D01*
X136342856Y-84231009D02*
X136390475Y-84278628D01*
X136390475Y-84278628D02*
X136438094Y-84373866D01*
X136438094Y-84373866D02*
X136438094Y-84564342D01*
X136438094Y-84564342D02*
X136390475Y-84659580D01*
X136390475Y-84659580D02*
X136342856Y-84707200D01*
X136342856Y-84707200D02*
X136247618Y-84754819D01*
X136247618Y-84754819D02*
X136057142Y-84754819D01*
X136057142Y-84754819D02*
X135961904Y-84707200D01*
X135961904Y-84707200D02*
X135914285Y-84659580D01*
X135914285Y-84659580D02*
X135866666Y-84564342D01*
X135866666Y-84564342D02*
X135866666Y-84373866D01*
X135866666Y-84373866D02*
X135914285Y-84278628D01*
X135914285Y-84278628D02*
X135961904Y-84231009D01*
X135961904Y-84231009D02*
X136057142Y-84183390D01*
X176465166Y-129632789D02*
X176314629Y-129636560D01*
X176314629Y-129636560D02*
X176086937Y-129566948D01*
X176086937Y-129566948D02*
X176009783Y-129493565D01*
X176009783Y-129493565D02*
X175978167Y-129434104D01*
X175978167Y-129434104D02*
X175960473Y-129329105D01*
X175960473Y-129329105D02*
X175988318Y-129238028D01*
X175988318Y-129238028D02*
X176061702Y-129160874D01*
X176061702Y-129160874D02*
X176121162Y-129129258D01*
X176121162Y-129129258D02*
X176226162Y-129111565D01*
X176226162Y-129111565D02*
X176422237Y-129121716D01*
X176422237Y-129121716D02*
X176527236Y-129104023D01*
X176527236Y-129104023D02*
X176586697Y-129072407D01*
X176586697Y-129072407D02*
X176660080Y-128995253D01*
X176660080Y-128995253D02*
X176687925Y-128904176D01*
X176687925Y-128904176D02*
X176670232Y-128799177D01*
X176670232Y-128799177D02*
X176638616Y-128739716D01*
X176638616Y-128739716D02*
X176561462Y-128666333D01*
X176561462Y-128666333D02*
X176333770Y-128596721D01*
X176333770Y-128596721D02*
X176183233Y-128600492D01*
X175878387Y-128457496D02*
X175358324Y-129344189D01*
X175358324Y-129344189D02*
X175385007Y-128605424D01*
X175385007Y-128605424D02*
X174994017Y-129232809D01*
X174994017Y-129232809D02*
X175058697Y-128206892D01*
X173901098Y-128898670D02*
X174447557Y-129065739D01*
X174174328Y-128982205D02*
X174466699Y-128025900D01*
X174466699Y-128025900D02*
X174516008Y-128190360D01*
X174516008Y-128190360D02*
X174579240Y-128309281D01*
X174579240Y-128309281D02*
X174656394Y-128382665D01*
X173874701Y-127844908D02*
X173237164Y-127649993D01*
X173237164Y-127649993D02*
X173354638Y-128731600D01*
X193359580Y-80033333D02*
X193407200Y-79985714D01*
X193407200Y-79985714D02*
X193454819Y-79842857D01*
X193454819Y-79842857D02*
X193454819Y-79747619D01*
X193454819Y-79747619D02*
X193407200Y-79604762D01*
X193407200Y-79604762D02*
X193311961Y-79509524D01*
X193311961Y-79509524D02*
X193216723Y-79461905D01*
X193216723Y-79461905D02*
X193026247Y-79414286D01*
X193026247Y-79414286D02*
X192883390Y-79414286D01*
X192883390Y-79414286D02*
X192692914Y-79461905D01*
X192692914Y-79461905D02*
X192597676Y-79509524D01*
X192597676Y-79509524D02*
X192502438Y-79604762D01*
X192502438Y-79604762D02*
X192454819Y-79747619D01*
X192454819Y-79747619D02*
X192454819Y-79842857D01*
X192454819Y-79842857D02*
X192502438Y-79985714D01*
X192502438Y-79985714D02*
X192550057Y-80033333D01*
X192788152Y-80890476D02*
X193454819Y-80890476D01*
X192407200Y-80652381D02*
X193121485Y-80414286D01*
X193121485Y-80414286D02*
X193121485Y-81033333D01*
X197795238Y-84650057D02*
X197890476Y-84602438D01*
X197890476Y-84602438D02*
X197985714Y-84507200D01*
X197985714Y-84507200D02*
X198128571Y-84364342D01*
X198128571Y-84364342D02*
X198223809Y-84316723D01*
X198223809Y-84316723D02*
X198319047Y-84316723D01*
X198271428Y-84554819D02*
X198366666Y-84507200D01*
X198366666Y-84507200D02*
X198461904Y-84411961D01*
X198461904Y-84411961D02*
X198509523Y-84221485D01*
X198509523Y-84221485D02*
X198509523Y-83888152D01*
X198509523Y-83888152D02*
X198461904Y-83697676D01*
X198461904Y-83697676D02*
X198366666Y-83602438D01*
X198366666Y-83602438D02*
X198271428Y-83554819D01*
X198271428Y-83554819D02*
X198080952Y-83554819D01*
X198080952Y-83554819D02*
X197985714Y-83602438D01*
X197985714Y-83602438D02*
X197890476Y-83697676D01*
X197890476Y-83697676D02*
X197842857Y-83888152D01*
X197842857Y-83888152D02*
X197842857Y-84221485D01*
X197842857Y-84221485D02*
X197890476Y-84411961D01*
X197890476Y-84411961D02*
X197985714Y-84507200D01*
X197985714Y-84507200D02*
X198080952Y-84554819D01*
X198080952Y-84554819D02*
X198271428Y-84554819D01*
X196890476Y-84554819D02*
X197461904Y-84554819D01*
X197176190Y-84554819D02*
X197176190Y-83554819D01*
X197176190Y-83554819D02*
X197271428Y-83697676D01*
X197271428Y-83697676D02*
X197366666Y-83792914D01*
X197366666Y-83792914D02*
X197461904Y-83840533D01*
X155662229Y-113012606D02*
X154666034Y-112925450D01*
X154666034Y-112925450D02*
X154645283Y-113162639D01*
X154645283Y-113162639D02*
X154680270Y-113309103D01*
X154680270Y-113309103D02*
X154766845Y-113412279D01*
X154766845Y-113412279D02*
X154857570Y-113468017D01*
X154857570Y-113468017D02*
X155043171Y-113532056D01*
X155043171Y-113532056D02*
X155185485Y-113544507D01*
X155185485Y-113544507D02*
X155379387Y-113513670D01*
X155379387Y-113513670D02*
X155478413Y-113474533D01*
X155478413Y-113474533D02*
X155581589Y-113387958D01*
X155581589Y-113387958D02*
X155641477Y-113249795D01*
X155641477Y-113249795D02*
X155662229Y-113012606D01*
X155529420Y-114530617D02*
X155579223Y-113961362D01*
X155554322Y-114245989D02*
X154558127Y-114158834D01*
X154558127Y-114158834D02*
X154708741Y-114076409D01*
X154708741Y-114076409D02*
X154811917Y-113989834D01*
X154811917Y-113989834D02*
X154867656Y-113899108D01*
X154458520Y-115297342D02*
X154475122Y-115107591D01*
X154475122Y-115107591D02*
X154530860Y-115016865D01*
X154530860Y-115016865D02*
X154582448Y-114973578D01*
X154582448Y-114973578D02*
X154733062Y-114891153D01*
X154733062Y-114891153D02*
X154926964Y-114860316D01*
X154926964Y-114860316D02*
X155306466Y-114893518D01*
X155306466Y-114893518D02*
X155397192Y-114949257D01*
X155397192Y-114949257D02*
X155440479Y-115000845D01*
X155440479Y-115000845D02*
X155479617Y-115099871D01*
X155479617Y-115099871D02*
X155463016Y-115289622D01*
X155463016Y-115289622D02*
X155407277Y-115380347D01*
X155407277Y-115380347D02*
X155355689Y-115423635D01*
X155355689Y-115423635D02*
X155256663Y-115462772D01*
X155256663Y-115462772D02*
X155019474Y-115442021D01*
X155019474Y-115442021D02*
X154928749Y-115386283D01*
X154928749Y-115386283D02*
X154885461Y-115334694D01*
X154885461Y-115334694D02*
X154846324Y-115235668D01*
X154846324Y-115235668D02*
X154862925Y-115045917D01*
X154862925Y-115045917D02*
X154918663Y-114955192D01*
X154918663Y-114955192D02*
X154970251Y-114911904D01*
X154970251Y-114911904D02*
X155069277Y-114872767D01*
X138533332Y-67707200D02*
X138390475Y-67754819D01*
X138390475Y-67754819D02*
X138152380Y-67754819D01*
X138152380Y-67754819D02*
X138057142Y-67707200D01*
X138057142Y-67707200D02*
X138009523Y-67659580D01*
X138009523Y-67659580D02*
X137961904Y-67564342D01*
X137961904Y-67564342D02*
X137961904Y-67469104D01*
X137961904Y-67469104D02*
X138009523Y-67373866D01*
X138009523Y-67373866D02*
X138057142Y-67326247D01*
X138057142Y-67326247D02*
X138152380Y-67278628D01*
X138152380Y-67278628D02*
X138342856Y-67231009D01*
X138342856Y-67231009D02*
X138438094Y-67183390D01*
X138438094Y-67183390D02*
X138485713Y-67135771D01*
X138485713Y-67135771D02*
X138533332Y-67040533D01*
X138533332Y-67040533D02*
X138533332Y-66945295D01*
X138533332Y-66945295D02*
X138485713Y-66850057D01*
X138485713Y-66850057D02*
X138438094Y-66802438D01*
X138438094Y-66802438D02*
X138342856Y-66754819D01*
X138342856Y-66754819D02*
X138104761Y-66754819D01*
X138104761Y-66754819D02*
X137961904Y-66802438D01*
X137628570Y-66754819D02*
X137390475Y-67754819D01*
X137390475Y-67754819D02*
X137199999Y-67040533D01*
X137199999Y-67040533D02*
X137009523Y-67754819D01*
X137009523Y-67754819D02*
X136771428Y-66754819D01*
X136485713Y-66754819D02*
X135866666Y-66754819D01*
X135866666Y-66754819D02*
X136199999Y-67135771D01*
X136199999Y-67135771D02*
X136057142Y-67135771D01*
X136057142Y-67135771D02*
X135961904Y-67183390D01*
X135961904Y-67183390D02*
X135914285Y-67231009D01*
X135914285Y-67231009D02*
X135866666Y-67326247D01*
X135866666Y-67326247D02*
X135866666Y-67564342D01*
X135866666Y-67564342D02*
X135914285Y-67659580D01*
X135914285Y-67659580D02*
X135961904Y-67707200D01*
X135961904Y-67707200D02*
X136057142Y-67754819D01*
X136057142Y-67754819D02*
X136342856Y-67754819D01*
X136342856Y-67754819D02*
X136438094Y-67707200D01*
X136438094Y-67707200D02*
X136485713Y-67659580D01*
X179166666Y-64754819D02*
X179499999Y-64278628D01*
X179738094Y-64754819D02*
X179738094Y-63754819D01*
X179738094Y-63754819D02*
X179357142Y-63754819D01*
X179357142Y-63754819D02*
X179261904Y-63802438D01*
X179261904Y-63802438D02*
X179214285Y-63850057D01*
X179214285Y-63850057D02*
X179166666Y-63945295D01*
X179166666Y-63945295D02*
X179166666Y-64088152D01*
X179166666Y-64088152D02*
X179214285Y-64183390D01*
X179214285Y-64183390D02*
X179261904Y-64231009D01*
X179261904Y-64231009D02*
X179357142Y-64278628D01*
X179357142Y-64278628D02*
X179738094Y-64278628D01*
X178785713Y-63850057D02*
X178738094Y-63802438D01*
X178738094Y-63802438D02*
X178642856Y-63754819D01*
X178642856Y-63754819D02*
X178404761Y-63754819D01*
X178404761Y-63754819D02*
X178309523Y-63802438D01*
X178309523Y-63802438D02*
X178261904Y-63850057D01*
X178261904Y-63850057D02*
X178214285Y-63945295D01*
X178214285Y-63945295D02*
X178214285Y-64040533D01*
X178214285Y-64040533D02*
X178261904Y-64183390D01*
X178261904Y-64183390D02*
X178833332Y-64754819D01*
X178833332Y-64754819D02*
X178214285Y-64754819D01*
X205084819Y-81433333D02*
X204608628Y-81100000D01*
X205084819Y-80861905D02*
X204084819Y-80861905D01*
X204084819Y-80861905D02*
X204084819Y-81242857D01*
X204084819Y-81242857D02*
X204132438Y-81338095D01*
X204132438Y-81338095D02*
X204180057Y-81385714D01*
X204180057Y-81385714D02*
X204275295Y-81433333D01*
X204275295Y-81433333D02*
X204418152Y-81433333D01*
X204418152Y-81433333D02*
X204513390Y-81385714D01*
X204513390Y-81385714D02*
X204561009Y-81338095D01*
X204561009Y-81338095D02*
X204608628Y-81242857D01*
X204608628Y-81242857D02*
X204608628Y-80861905D01*
X204084819Y-81766667D02*
X204084819Y-82433333D01*
X204084819Y-82433333D02*
X205084819Y-82004762D01*
X205361904Y-86954819D02*
X205361904Y-87764342D01*
X205361904Y-87764342D02*
X205314285Y-87859580D01*
X205314285Y-87859580D02*
X205266666Y-87907200D01*
X205266666Y-87907200D02*
X205171428Y-87954819D01*
X205171428Y-87954819D02*
X204980952Y-87954819D01*
X204980952Y-87954819D02*
X204885714Y-87907200D01*
X204885714Y-87907200D02*
X204838095Y-87859580D01*
X204838095Y-87859580D02*
X204790476Y-87764342D01*
X204790476Y-87764342D02*
X204790476Y-86954819D01*
X204361904Y-87050057D02*
X204314285Y-87002438D01*
X204314285Y-87002438D02*
X204219047Y-86954819D01*
X204219047Y-86954819D02*
X203980952Y-86954819D01*
X203980952Y-86954819D02*
X203885714Y-87002438D01*
X203885714Y-87002438D02*
X203838095Y-87050057D01*
X203838095Y-87050057D02*
X203790476Y-87145295D01*
X203790476Y-87145295D02*
X203790476Y-87240533D01*
X203790476Y-87240533D02*
X203838095Y-87383390D01*
X203838095Y-87383390D02*
X204409523Y-87954819D01*
X204409523Y-87954819D02*
X203790476Y-87954819D01*
X189766666Y-71031009D02*
X189433333Y-71031009D01*
X189290476Y-71554819D02*
X189766666Y-71554819D01*
X189766666Y-71554819D02*
X189766666Y-70554819D01*
X189766666Y-70554819D02*
X189290476Y-70554819D01*
X188909523Y-71507200D02*
X188766666Y-71554819D01*
X188766666Y-71554819D02*
X188528571Y-71554819D01*
X188528571Y-71554819D02*
X188433333Y-71507200D01*
X188433333Y-71507200D02*
X188385714Y-71459580D01*
X188385714Y-71459580D02*
X188338095Y-71364342D01*
X188338095Y-71364342D02*
X188338095Y-71269104D01*
X188338095Y-71269104D02*
X188385714Y-71173866D01*
X188385714Y-71173866D02*
X188433333Y-71126247D01*
X188433333Y-71126247D02*
X188528571Y-71078628D01*
X188528571Y-71078628D02*
X188719047Y-71031009D01*
X188719047Y-71031009D02*
X188814285Y-70983390D01*
X188814285Y-70983390D02*
X188861904Y-70935771D01*
X188861904Y-70935771D02*
X188909523Y-70840533D01*
X188909523Y-70840533D02*
X188909523Y-70745295D01*
X188909523Y-70745295D02*
X188861904Y-70650057D01*
X188861904Y-70650057D02*
X188814285Y-70602438D01*
X188814285Y-70602438D02*
X188719047Y-70554819D01*
X188719047Y-70554819D02*
X188480952Y-70554819D01*
X188480952Y-70554819D02*
X188338095Y-70602438D01*
X187909523Y-71554819D02*
X187909523Y-70554819D01*
X187909523Y-70554819D02*
X187671428Y-70554819D01*
X187671428Y-70554819D02*
X187528571Y-70602438D01*
X187528571Y-70602438D02*
X187433333Y-70697676D01*
X187433333Y-70697676D02*
X187385714Y-70792914D01*
X187385714Y-70792914D02*
X187338095Y-70983390D01*
X187338095Y-70983390D02*
X187338095Y-71126247D01*
X187338095Y-71126247D02*
X187385714Y-71316723D01*
X187385714Y-71316723D02*
X187433333Y-71411961D01*
X187433333Y-71411961D02*
X187528571Y-71507200D01*
X187528571Y-71507200D02*
X187671428Y-71554819D01*
X187671428Y-71554819D02*
X187909523Y-71554819D01*
X186385714Y-71554819D02*
X186957142Y-71554819D01*
X186671428Y-71554819D02*
X186671428Y-70554819D01*
X186671428Y-70554819D02*
X186766666Y-70697676D01*
X186766666Y-70697676D02*
X186861904Y-70792914D01*
X186861904Y-70792914D02*
X186957142Y-70840533D01*
X195024165Y-131800640D02*
X195508975Y-130926020D01*
X195508975Y-130926020D02*
X195300732Y-130810589D01*
X195300732Y-130810589D02*
X195152700Y-130782979D01*
X195152700Y-130782979D02*
X195023231Y-130820104D01*
X195023231Y-130820104D02*
X194935410Y-130880315D01*
X194935410Y-130880315D02*
X194801416Y-131023823D01*
X194801416Y-131023823D02*
X194732158Y-131148769D01*
X194732158Y-131148769D02*
X194681462Y-131338449D01*
X194681462Y-131338449D02*
X194676938Y-131444832D01*
X194676938Y-131444832D02*
X194714063Y-131574302D01*
X194714063Y-131574302D02*
X194815922Y-131685209D01*
X194815922Y-131685209D02*
X195024165Y-131800640D01*
X193691411Y-131061882D02*
X194191194Y-131338916D01*
X193941303Y-131200399D02*
X194426112Y-130325779D01*
X194426112Y-130325779D02*
X194440151Y-130496897D01*
X194440151Y-130496897D02*
X194477276Y-130626367D01*
X194477276Y-130626367D02*
X194537487Y-130714188D01*
X193468663Y-130285065D02*
X193575046Y-130289589D01*
X193575046Y-130289589D02*
X193639781Y-130271027D01*
X193639781Y-130271027D02*
X193727602Y-130210816D01*
X193727602Y-130210816D02*
X193750688Y-130169167D01*
X193750688Y-130169167D02*
X193755211Y-130062784D01*
X193755211Y-130062784D02*
X193736649Y-129998049D01*
X193736649Y-129998049D02*
X193676438Y-129910228D01*
X193676438Y-129910228D02*
X193509844Y-129817884D01*
X193509844Y-129817884D02*
X193403461Y-129813360D01*
X193403461Y-129813360D02*
X193338726Y-129831922D01*
X193338726Y-129831922D02*
X193250905Y-129892133D01*
X193250905Y-129892133D02*
X193227819Y-129933782D01*
X193227819Y-129933782D02*
X193223295Y-130040165D01*
X193223295Y-130040165D02*
X193241857Y-130104900D01*
X193241857Y-130104900D02*
X193302068Y-130192721D01*
X193302068Y-130192721D02*
X193468663Y-130285065D01*
X193468663Y-130285065D02*
X193528874Y-130372886D01*
X193528874Y-130372886D02*
X193547436Y-130437621D01*
X193547436Y-130437621D02*
X193542912Y-130544004D01*
X193542912Y-130544004D02*
X193450567Y-130710598D01*
X193450567Y-130710598D02*
X193362747Y-130770809D01*
X193362747Y-130770809D02*
X193298012Y-130789372D01*
X193298012Y-130789372D02*
X193191629Y-130784848D01*
X193191629Y-130784848D02*
X193025034Y-130692503D01*
X193025034Y-130692503D02*
X192964823Y-130604682D01*
X192964823Y-130604682D02*
X192946261Y-130539948D01*
X192946261Y-130539948D02*
X192950785Y-130433564D01*
X192950785Y-130433564D02*
X193043129Y-130266970D01*
X193043129Y-130266970D02*
X193130950Y-130206759D01*
X193130950Y-130206759D02*
X193195685Y-130188197D01*
X193195685Y-130188197D02*
X193302068Y-130192721D01*
X134854292Y-71662555D02*
X133854292Y-71662555D01*
X133854292Y-71662555D02*
X133854292Y-71900650D01*
X133854292Y-71900650D02*
X133901911Y-72043507D01*
X133901911Y-72043507D02*
X133997149Y-72138745D01*
X133997149Y-72138745D02*
X134092387Y-72186364D01*
X134092387Y-72186364D02*
X134282863Y-72233983D01*
X134282863Y-72233983D02*
X134425720Y-72233983D01*
X134425720Y-72233983D02*
X134616196Y-72186364D01*
X134616196Y-72186364D02*
X134711434Y-72138745D01*
X134711434Y-72138745D02*
X134806673Y-72043507D01*
X134806673Y-72043507D02*
X134854292Y-71900650D01*
X134854292Y-71900650D02*
X134854292Y-71662555D01*
X134282863Y-72805412D02*
X134235244Y-72710174D01*
X134235244Y-72710174D02*
X134187625Y-72662555D01*
X134187625Y-72662555D02*
X134092387Y-72614936D01*
X134092387Y-72614936D02*
X134044768Y-72614936D01*
X134044768Y-72614936D02*
X133949530Y-72662555D01*
X133949530Y-72662555D02*
X133901911Y-72710174D01*
X133901911Y-72710174D02*
X133854292Y-72805412D01*
X133854292Y-72805412D02*
X133854292Y-72995888D01*
X133854292Y-72995888D02*
X133901911Y-73091126D01*
X133901911Y-73091126D02*
X133949530Y-73138745D01*
X133949530Y-73138745D02*
X134044768Y-73186364D01*
X134044768Y-73186364D02*
X134092387Y-73186364D01*
X134092387Y-73186364D02*
X134187625Y-73138745D01*
X134187625Y-73138745D02*
X134235244Y-73091126D01*
X134235244Y-73091126D02*
X134282863Y-72995888D01*
X134282863Y-72995888D02*
X134282863Y-72805412D01*
X134282863Y-72805412D02*
X134330482Y-72710174D01*
X134330482Y-72710174D02*
X134378101Y-72662555D01*
X134378101Y-72662555D02*
X134473339Y-72614936D01*
X134473339Y-72614936D02*
X134663815Y-72614936D01*
X134663815Y-72614936D02*
X134759053Y-72662555D01*
X134759053Y-72662555D02*
X134806673Y-72710174D01*
X134806673Y-72710174D02*
X134854292Y-72805412D01*
X134854292Y-72805412D02*
X134854292Y-72995888D01*
X134854292Y-72995888D02*
X134806673Y-73091126D01*
X134806673Y-73091126D02*
X134759053Y-73138745D01*
X134759053Y-73138745D02*
X134663815Y-73186364D01*
X134663815Y-73186364D02*
X134473339Y-73186364D01*
X134473339Y-73186364D02*
X134378101Y-73138745D01*
X134378101Y-73138745D02*
X134330482Y-73091126D01*
X134330482Y-73091126D02*
X134282863Y-72995888D01*
X119924379Y-94133879D02*
X119785192Y-94191347D01*
X119785192Y-94191347D02*
X119547677Y-94207956D01*
X119547677Y-94207956D02*
X119449349Y-94167096D01*
X119449349Y-94167096D02*
X119398524Y-94122915D01*
X119398524Y-94122915D02*
X119344377Y-94031231D01*
X119344377Y-94031231D02*
X119337734Y-93936225D01*
X119337734Y-93936225D02*
X119378594Y-93837897D01*
X119378594Y-93837897D02*
X119422775Y-93787072D01*
X119422775Y-93787072D02*
X119514459Y-93732925D01*
X119514459Y-93732925D02*
X119701150Y-93672135D01*
X119701150Y-93672135D02*
X119792834Y-93617989D01*
X119792834Y-93617989D02*
X119837015Y-93567164D01*
X119837015Y-93567164D02*
X119877875Y-93468836D01*
X119877875Y-93468836D02*
X119871231Y-93373830D01*
X119871231Y-93373830D02*
X119817085Y-93282146D01*
X119817085Y-93282146D02*
X119766260Y-93237965D01*
X119766260Y-93237965D02*
X119667932Y-93197105D01*
X119667932Y-93197105D02*
X119430417Y-93213714D01*
X119430417Y-93213714D02*
X119291230Y-93271182D01*
X118955386Y-93246931D02*
X118787628Y-94261104D01*
X118787628Y-94261104D02*
X118547789Y-93561845D01*
X118547789Y-93561845D02*
X118407603Y-94287678D01*
X118407603Y-94287678D02*
X118100332Y-93306722D01*
X117815313Y-93326653D02*
X117150271Y-93373157D01*
X117150271Y-93373157D02*
X117647555Y-94340825D01*
X195666666Y-77379819D02*
X195999999Y-76903628D01*
X196238094Y-77379819D02*
X196238094Y-76379819D01*
X196238094Y-76379819D02*
X195857142Y-76379819D01*
X195857142Y-76379819D02*
X195761904Y-76427438D01*
X195761904Y-76427438D02*
X195714285Y-76475057D01*
X195714285Y-76475057D02*
X195666666Y-76570295D01*
X195666666Y-76570295D02*
X195666666Y-76713152D01*
X195666666Y-76713152D02*
X195714285Y-76808390D01*
X195714285Y-76808390D02*
X195761904Y-76856009D01*
X195761904Y-76856009D02*
X195857142Y-76903628D01*
X195857142Y-76903628D02*
X196238094Y-76903628D01*
X194809523Y-76379819D02*
X194999999Y-76379819D01*
X194999999Y-76379819D02*
X195095237Y-76427438D01*
X195095237Y-76427438D02*
X195142856Y-76475057D01*
X195142856Y-76475057D02*
X195238094Y-76617914D01*
X195238094Y-76617914D02*
X195285713Y-76808390D01*
X195285713Y-76808390D02*
X195285713Y-77189342D01*
X195285713Y-77189342D02*
X195238094Y-77284580D01*
X195238094Y-77284580D02*
X195190475Y-77332200D01*
X195190475Y-77332200D02*
X195095237Y-77379819D01*
X195095237Y-77379819D02*
X194904761Y-77379819D01*
X194904761Y-77379819D02*
X194809523Y-77332200D01*
X194809523Y-77332200D02*
X194761904Y-77284580D01*
X194761904Y-77284580D02*
X194714285Y-77189342D01*
X194714285Y-77189342D02*
X194714285Y-76951247D01*
X194714285Y-76951247D02*
X194761904Y-76856009D01*
X194761904Y-76856009D02*
X194809523Y-76808390D01*
X194809523Y-76808390D02*
X194904761Y-76760771D01*
X194904761Y-76760771D02*
X195095237Y-76760771D01*
X195095237Y-76760771D02*
X195190475Y-76808390D01*
X195190475Y-76808390D02*
X195238094Y-76856009D01*
X195238094Y-76856009D02*
X195285713Y-76951247D01*
X180954819Y-113666666D02*
X181669104Y-113666666D01*
X181669104Y-113666666D02*
X181811961Y-113619047D01*
X181811961Y-113619047D02*
X181907200Y-113523809D01*
X181907200Y-113523809D02*
X181954819Y-113380952D01*
X181954819Y-113380952D02*
X181954819Y-113285714D01*
X181050057Y-114095238D02*
X181002438Y-114142857D01*
X181002438Y-114142857D02*
X180954819Y-114238095D01*
X180954819Y-114238095D02*
X180954819Y-114476190D01*
X180954819Y-114476190D02*
X181002438Y-114571428D01*
X181002438Y-114571428D02*
X181050057Y-114619047D01*
X181050057Y-114619047D02*
X181145295Y-114666666D01*
X181145295Y-114666666D02*
X181240533Y-114666666D01*
X181240533Y-114666666D02*
X181383390Y-114619047D01*
X181383390Y-114619047D02*
X181954819Y-114047619D01*
X181954819Y-114047619D02*
X181954819Y-114666666D01*
X202184819Y-78308333D02*
X201708628Y-77975000D01*
X202184819Y-77736905D02*
X201184819Y-77736905D01*
X201184819Y-77736905D02*
X201184819Y-78117857D01*
X201184819Y-78117857D02*
X201232438Y-78213095D01*
X201232438Y-78213095D02*
X201280057Y-78260714D01*
X201280057Y-78260714D02*
X201375295Y-78308333D01*
X201375295Y-78308333D02*
X201518152Y-78308333D01*
X201518152Y-78308333D02*
X201613390Y-78260714D01*
X201613390Y-78260714D02*
X201661009Y-78213095D01*
X201661009Y-78213095D02*
X201708628Y-78117857D01*
X201708628Y-78117857D02*
X201708628Y-77736905D01*
X201184819Y-79213095D02*
X201184819Y-78736905D01*
X201184819Y-78736905D02*
X201661009Y-78689286D01*
X201661009Y-78689286D02*
X201613390Y-78736905D01*
X201613390Y-78736905D02*
X201565771Y-78832143D01*
X201565771Y-78832143D02*
X201565771Y-79070238D01*
X201565771Y-79070238D02*
X201613390Y-79165476D01*
X201613390Y-79165476D02*
X201661009Y-79213095D01*
X201661009Y-79213095D02*
X201756247Y-79260714D01*
X201756247Y-79260714D02*
X201994342Y-79260714D01*
X201994342Y-79260714D02*
X202089580Y-79213095D01*
X202089580Y-79213095D02*
X202137200Y-79165476D01*
X202137200Y-79165476D02*
X202184819Y-79070238D01*
X202184819Y-79070238D02*
X202184819Y-78832143D01*
X202184819Y-78832143D02*
X202137200Y-78736905D01*
X202137200Y-78736905D02*
X202089580Y-78689286D01*
X139009523Y-101707200D02*
X138866666Y-101754819D01*
X138866666Y-101754819D02*
X138628571Y-101754819D01*
X138628571Y-101754819D02*
X138533333Y-101707200D01*
X138533333Y-101707200D02*
X138485714Y-101659580D01*
X138485714Y-101659580D02*
X138438095Y-101564342D01*
X138438095Y-101564342D02*
X138438095Y-101469104D01*
X138438095Y-101469104D02*
X138485714Y-101373866D01*
X138485714Y-101373866D02*
X138533333Y-101326247D01*
X138533333Y-101326247D02*
X138628571Y-101278628D01*
X138628571Y-101278628D02*
X138819047Y-101231009D01*
X138819047Y-101231009D02*
X138914285Y-101183390D01*
X138914285Y-101183390D02*
X138961904Y-101135771D01*
X138961904Y-101135771D02*
X139009523Y-101040533D01*
X139009523Y-101040533D02*
X139009523Y-100945295D01*
X139009523Y-100945295D02*
X138961904Y-100850057D01*
X138961904Y-100850057D02*
X138914285Y-100802438D01*
X138914285Y-100802438D02*
X138819047Y-100754819D01*
X138819047Y-100754819D02*
X138580952Y-100754819D01*
X138580952Y-100754819D02*
X138438095Y-100802438D01*
X138104761Y-100754819D02*
X137866666Y-101754819D01*
X137866666Y-101754819D02*
X137676190Y-101040533D01*
X137676190Y-101040533D02*
X137485714Y-101754819D01*
X137485714Y-101754819D02*
X137247619Y-100754819D01*
X136342857Y-101754819D02*
X136914285Y-101754819D01*
X136628571Y-101754819D02*
X136628571Y-100754819D01*
X136628571Y-100754819D02*
X136723809Y-100897676D01*
X136723809Y-100897676D02*
X136819047Y-100992914D01*
X136819047Y-100992914D02*
X136914285Y-101040533D01*
X136009523Y-100754819D02*
X135390476Y-100754819D01*
X135390476Y-100754819D02*
X135723809Y-101135771D01*
X135723809Y-101135771D02*
X135580952Y-101135771D01*
X135580952Y-101135771D02*
X135485714Y-101183390D01*
X135485714Y-101183390D02*
X135438095Y-101231009D01*
X135438095Y-101231009D02*
X135390476Y-101326247D01*
X135390476Y-101326247D02*
X135390476Y-101564342D01*
X135390476Y-101564342D02*
X135438095Y-101659580D01*
X135438095Y-101659580D02*
X135485714Y-101707200D01*
X135485714Y-101707200D02*
X135580952Y-101754819D01*
X135580952Y-101754819D02*
X135866666Y-101754819D01*
X135866666Y-101754819D02*
X135961904Y-101707200D01*
X135961904Y-101707200D02*
X136009523Y-101659580D01*
X175009523Y-93707200D02*
X174866666Y-93754819D01*
X174866666Y-93754819D02*
X174628571Y-93754819D01*
X174628571Y-93754819D02*
X174533333Y-93707200D01*
X174533333Y-93707200D02*
X174485714Y-93659580D01*
X174485714Y-93659580D02*
X174438095Y-93564342D01*
X174438095Y-93564342D02*
X174438095Y-93469104D01*
X174438095Y-93469104D02*
X174485714Y-93373866D01*
X174485714Y-93373866D02*
X174533333Y-93326247D01*
X174533333Y-93326247D02*
X174628571Y-93278628D01*
X174628571Y-93278628D02*
X174819047Y-93231009D01*
X174819047Y-93231009D02*
X174914285Y-93183390D01*
X174914285Y-93183390D02*
X174961904Y-93135771D01*
X174961904Y-93135771D02*
X175009523Y-93040533D01*
X175009523Y-93040533D02*
X175009523Y-92945295D01*
X175009523Y-92945295D02*
X174961904Y-92850057D01*
X174961904Y-92850057D02*
X174914285Y-92802438D01*
X174914285Y-92802438D02*
X174819047Y-92754819D01*
X174819047Y-92754819D02*
X174580952Y-92754819D01*
X174580952Y-92754819D02*
X174438095Y-92802438D01*
X174104761Y-92754819D02*
X173866666Y-93754819D01*
X173866666Y-93754819D02*
X173676190Y-93040533D01*
X173676190Y-93040533D02*
X173485714Y-93754819D01*
X173485714Y-93754819D02*
X173247619Y-92754819D01*
X172342857Y-93754819D02*
X172914285Y-93754819D01*
X172628571Y-93754819D02*
X172628571Y-92754819D01*
X172628571Y-92754819D02*
X172723809Y-92897676D01*
X172723809Y-92897676D02*
X172819047Y-92992914D01*
X172819047Y-92992914D02*
X172914285Y-93040533D01*
X171723809Y-92754819D02*
X171628571Y-92754819D01*
X171628571Y-92754819D02*
X171533333Y-92802438D01*
X171533333Y-92802438D02*
X171485714Y-92850057D01*
X171485714Y-92850057D02*
X171438095Y-92945295D01*
X171438095Y-92945295D02*
X171390476Y-93135771D01*
X171390476Y-93135771D02*
X171390476Y-93373866D01*
X171390476Y-93373866D02*
X171438095Y-93564342D01*
X171438095Y-93564342D02*
X171485714Y-93659580D01*
X171485714Y-93659580D02*
X171533333Y-93707200D01*
X171533333Y-93707200D02*
X171628571Y-93754819D01*
X171628571Y-93754819D02*
X171723809Y-93754819D01*
X171723809Y-93754819D02*
X171819047Y-93707200D01*
X171819047Y-93707200D02*
X171866666Y-93659580D01*
X171866666Y-93659580D02*
X171914285Y-93564342D01*
X171914285Y-93564342D02*
X171961904Y-93373866D01*
X171961904Y-93373866D02*
X171961904Y-93135771D01*
X171961904Y-93135771D02*
X171914285Y-92945295D01*
X171914285Y-92945295D02*
X171866666Y-92850057D01*
X171866666Y-92850057D02*
X171819047Y-92802438D01*
X171819047Y-92802438D02*
X171723809Y-92754819D01*
X93104095Y-82593532D02*
X94088903Y-82419884D01*
X94088903Y-82419884D02*
X94047558Y-82185406D01*
X94047558Y-82185406D02*
X93975855Y-82052988D01*
X93975855Y-82052988D02*
X93865526Y-81975735D01*
X93865526Y-81975735D02*
X93763466Y-81945377D01*
X93763466Y-81945377D02*
X93567615Y-81931558D01*
X93567615Y-81931558D02*
X93426928Y-81956365D01*
X93426928Y-81956365D02*
X93247614Y-82036336D01*
X93247614Y-82036336D02*
X93162092Y-82099769D01*
X93162092Y-82099769D02*
X93084839Y-82210099D01*
X93084839Y-82210099D02*
X93062750Y-82359054D01*
X93062750Y-82359054D02*
X93104095Y-82593532D01*
X92839488Y-81092873D02*
X92938716Y-81655620D01*
X92889102Y-81374247D02*
X93873910Y-81200598D01*
X93873910Y-81200598D02*
X93749761Y-81319197D01*
X93749761Y-81319197D02*
X93672508Y-81429526D01*
X93672508Y-81429526D02*
X93642150Y-81531586D01*
X99631902Y-93189420D02*
X99499484Y-93261123D01*
X99499484Y-93261123D02*
X99265006Y-93302468D01*
X99265006Y-93302468D02*
X99162945Y-93272110D01*
X99162945Y-93272110D02*
X99107781Y-93233483D01*
X99107781Y-93233483D02*
X99044347Y-93147961D01*
X99044347Y-93147961D02*
X99027809Y-93054170D01*
X99027809Y-93054170D02*
X99058167Y-92952110D01*
X99058167Y-92952110D02*
X99096794Y-92896945D01*
X99096794Y-92896945D02*
X99182316Y-92833512D01*
X99182316Y-92833512D02*
X99361629Y-92753540D01*
X99361629Y-92753540D02*
X99447152Y-92690107D01*
X99447152Y-92690107D02*
X99485778Y-92634942D01*
X99485778Y-92634942D02*
X99516136Y-92532882D01*
X99516136Y-92532882D02*
X99499598Y-92439091D01*
X99499598Y-92439091D02*
X99436165Y-92353568D01*
X99436165Y-92353568D02*
X99381000Y-92314942D01*
X99381000Y-92314942D02*
X99278940Y-92284584D01*
X99278940Y-92284584D02*
X99044462Y-92325929D01*
X99044462Y-92325929D02*
X98912044Y-92397631D01*
X98575506Y-92408619D02*
X98514676Y-93434771D01*
X98514676Y-93434771D02*
X98203059Y-92764413D01*
X98203059Y-92764413D02*
X98139511Y-93500923D01*
X98139511Y-93500923D02*
X97731385Y-92557460D01*
X97014017Y-93699378D02*
X97576764Y-93600150D01*
X97295390Y-93649764D02*
X97121742Y-92664956D01*
X97121742Y-92664956D02*
X97240340Y-92789105D01*
X97240340Y-92789105D02*
X97350669Y-92866358D01*
X97350669Y-92866358D02*
X97452729Y-92896716D01*
X143954819Y-109633333D02*
X143478628Y-109300000D01*
X143954819Y-109061905D02*
X142954819Y-109061905D01*
X142954819Y-109061905D02*
X142954819Y-109442857D01*
X142954819Y-109442857D02*
X143002438Y-109538095D01*
X143002438Y-109538095D02*
X143050057Y-109585714D01*
X143050057Y-109585714D02*
X143145295Y-109633333D01*
X143145295Y-109633333D02*
X143288152Y-109633333D01*
X143288152Y-109633333D02*
X143383390Y-109585714D01*
X143383390Y-109585714D02*
X143431009Y-109538095D01*
X143431009Y-109538095D02*
X143478628Y-109442857D01*
X143478628Y-109442857D02*
X143478628Y-109061905D01*
X143954819Y-110109524D02*
X143954819Y-110300000D01*
X143954819Y-110300000D02*
X143907200Y-110395238D01*
X143907200Y-110395238D02*
X143859580Y-110442857D01*
X143859580Y-110442857D02*
X143716723Y-110538095D01*
X143716723Y-110538095D02*
X143526247Y-110585714D01*
X143526247Y-110585714D02*
X143145295Y-110585714D01*
X143145295Y-110585714D02*
X143050057Y-110538095D01*
X143050057Y-110538095D02*
X143002438Y-110490476D01*
X143002438Y-110490476D02*
X142954819Y-110395238D01*
X142954819Y-110395238D02*
X142954819Y-110204762D01*
X142954819Y-110204762D02*
X143002438Y-110109524D01*
X143002438Y-110109524D02*
X143050057Y-110061905D01*
X143050057Y-110061905D02*
X143145295Y-110014286D01*
X143145295Y-110014286D02*
X143383390Y-110014286D01*
X143383390Y-110014286D02*
X143478628Y-110061905D01*
X143478628Y-110061905D02*
X143526247Y-110109524D01*
X143526247Y-110109524D02*
X143573866Y-110204762D01*
X143573866Y-110204762D02*
X143573866Y-110395238D01*
X143573866Y-110395238D02*
X143526247Y-110490476D01*
X143526247Y-110490476D02*
X143478628Y-110538095D01*
X143478628Y-110538095D02*
X143383390Y-110585714D01*
D11*
X97647182Y-99980689D02*
X96950853Y-96031610D01*
X98920468Y-95684314D02*
X96950853Y-96031610D01*
X99616797Y-99633393D02*
X98920468Y-95684314D01*
X152696000Y-103075000D02*
X152696000Y-102375000D01*
X153696000Y-102375000D02*
X152696000Y-102375000D01*
X160700000Y-104525000D02*
X161700000Y-104525000D01*
X160700000Y-109175000D02*
X161700000Y-109175000D01*
X161700000Y-109175000D02*
X162500000Y-108375000D01*
X162500000Y-105325000D02*
X161700000Y-104525000D01*
X153750000Y-107025000D02*
G75*
G02*
X152950000Y-106225000I0J800000D01*
G01*
X176262742Y-65377500D02*
X176737258Y-65377500D01*
X176262742Y-66422500D02*
X176737258Y-66422500D01*
X176128531Y-118386403D02*
X177300941Y-114551621D01*
X178041140Y-118971148D02*
X179213551Y-115136364D01*
X179213551Y-115136364D02*
X177300941Y-114551621D01*
X187941422Y-66090000D02*
X188458578Y-66090000D01*
X187941422Y-67510000D02*
X188458578Y-67510000D01*
X170696000Y-71075000D02*
X170696000Y-70375000D01*
X171696000Y-70375000D02*
X170696000Y-70375000D01*
X178700000Y-72525000D02*
X179700000Y-72525000D01*
X178700000Y-77175000D02*
X179700000Y-77175000D01*
X179700000Y-77175000D02*
X180500000Y-76375000D01*
X180500000Y-73325000D02*
X179700000Y-72525000D01*
X171750000Y-75025000D02*
G75*
G02*
X170950000Y-74225000I0J800000D01*
G01*
X170696000Y-105075000D02*
X170696000Y-104375000D01*
X171696000Y-104375000D02*
X170696000Y-104375000D01*
X178700000Y-106525000D02*
X179700000Y-106525000D01*
X178700000Y-111175000D02*
X179700000Y-111175000D01*
X179700000Y-111175000D02*
X180500000Y-110375000D01*
X180500000Y-107325000D02*
X179700000Y-106525000D01*
X171750000Y-109025000D02*
G75*
G02*
X170950000Y-108225000I0J800000D01*
G01*
X199790000Y-81434420D02*
X199790000Y-81715580D01*
X200810000Y-81434420D02*
X200810000Y-81715580D01*
X100599201Y-116722421D02*
X99902872Y-112773342D01*
X101872487Y-112426046D02*
X99902872Y-112773342D01*
X102568816Y-116375125D02*
X101872487Y-112426046D01*
X153399473Y-98050650D02*
X153399473Y-94040650D01*
X155399473Y-94040650D02*
X153399473Y-94040650D01*
X155399473Y-98050650D02*
X155399473Y-94040650D01*
X135399473Y-91050650D02*
X135399473Y-87040650D01*
X137399473Y-87040650D02*
X135399473Y-87040650D01*
X137399473Y-91050650D02*
X137399473Y-87040650D01*
X114517652Y-71824490D02*
X114468822Y-71126196D01*
X115466386Y-71056439D02*
X114468822Y-71126196D01*
X122603301Y-72712627D02*
X123600865Y-72642871D01*
X122927669Y-77351300D02*
X123925233Y-77281544D01*
X123925233Y-77281544D02*
X124667479Y-76427687D01*
X124454722Y-73385117D02*
X123600865Y-72642871D01*
X115844622Y-75691345D02*
G75*
G02*
X114990766Y-74949099I-55805J798051D01*
G01*
X97826865Y-105050865D02*
X97705312Y-104361499D01*
X98690119Y-104187851D02*
X97705312Y-104361499D01*
X105961057Y-105088956D02*
X106945864Y-104915308D01*
X106768521Y-109668312D02*
X107753328Y-109494664D01*
X107753328Y-109494664D02*
X108402256Y-108567899D01*
X107872629Y-105564235D02*
X106945864Y-104915308D01*
X99550763Y-108757830D02*
G75*
G02*
X98623999Y-108108903I-138918J787846D01*
G01*
X154816999Y-120857427D02*
X154878008Y-120160090D01*
X155874203Y-120247246D02*
X154878008Y-120160090D01*
X162258892Y-127631809D02*
X163255086Y-127718965D01*
X162664166Y-122999504D02*
X163660356Y-123086659D01*
X163255086Y-127718965D02*
X164121767Y-126991734D01*
X164387592Y-123953340D02*
X163660356Y-123086659D01*
X155522723Y-124884258D02*
G75*
G02*
X154795492Y-124017578I69725J796956D01*
G01*
X152696000Y-69075001D02*
X152696000Y-68375001D01*
X153696000Y-68375001D02*
X152696000Y-68375001D01*
X160700000Y-70525001D02*
X161700000Y-70525001D01*
X160700000Y-75175001D02*
X161700000Y-75175001D01*
X161700000Y-75175001D02*
X162500000Y-74375001D01*
X162500000Y-71325001D02*
X161700000Y-70525001D01*
X153750000Y-73025001D02*
G75*
G02*
X152950000Y-72225001I0J800000D01*
G01*
X192700000Y-58400000D02*
X192700000Y-59400000D01*
X192700000Y-58400000D02*
X193700000Y-58400000D01*
X192700000Y-72900000D02*
X192700000Y-71900000D01*
X192700000Y-72900000D02*
X193700000Y-72900000D01*
X208140000Y-73781892D02*
X207660000Y-73781892D01*
X207900000Y-73451892D01*
X208140000Y-73781892D01*
G36*
X208140000Y-73781892D02*
G01*
X207660000Y-73781892D01*
X207900000Y-73451892D01*
X208140000Y-73781892D01*
G37*
X171399473Y-83050650D02*
X171399473Y-79040650D01*
X173399473Y-79040650D02*
X171399473Y-79040650D01*
X173399473Y-83050650D02*
X173399473Y-79040650D01*
X116889372Y-105741667D02*
X116840542Y-105043373D01*
X117838106Y-104973616D02*
X116840542Y-105043373D01*
X124975021Y-106629804D02*
X125972585Y-106560048D01*
X125299389Y-111268477D02*
X126296953Y-111198721D01*
X126296953Y-111198721D02*
X127039199Y-110344864D01*
X126826442Y-107302294D02*
X125972585Y-106560048D01*
X118216342Y-109608522D02*
G75*
G02*
X117362486Y-108866276I-55805J798051D01*
G01*
X171399473Y-100050650D02*
X171399473Y-96040650D01*
X173399473Y-96040650D02*
X171399473Y-96040650D01*
X173399473Y-100050650D02*
X173399473Y-96040650D01*
X196537500Y-79390000D02*
X197337500Y-79390000D01*
X196537500Y-82510000D02*
X197337500Y-82510000D01*
X198137500Y-79390000D02*
X197337500Y-79390000D01*
X198137500Y-82510000D02*
X197337500Y-82510000D01*
X198637500Y-79440000D02*
X198397500Y-79110000D01*
X198877500Y-79110000D01*
X198637500Y-79440000D01*
G36*
X198637500Y-79440000D02*
G01*
X198397500Y-79110000D01*
X198877500Y-79110000D01*
X198637500Y-79440000D01*
G37*
X117240650Y-100680484D02*
X116960927Y-96680252D01*
X118956055Y-96540739D02*
X116960927Y-96680252D01*
X119235778Y-100540971D02*
X118956055Y-96540739D01*
X200090000Y-84840580D02*
X200090000Y-84559420D01*
X201110000Y-84840580D02*
X201110000Y-84559420D01*
X116054790Y-83721895D02*
X115775067Y-79721663D01*
X117770195Y-79582150D02*
X115775067Y-79721663D01*
X118049918Y-83582382D02*
X117770195Y-79582150D01*
X200036481Y-132576604D02*
X199551672Y-133451223D01*
X200163905Y-133790590D02*
X199551672Y-133451223D01*
X205312520Y-127493108D02*
X205797330Y-126618488D01*
X206884873Y-126306640D02*
X205797330Y-126618488D01*
X209379502Y-129747473D02*
X209864312Y-128872853D01*
X209864312Y-128872853D02*
X209552463Y-127785310D01*
X204129643Y-134783739D02*
G75*
G02*
X203042099Y-135095587I-699696J387848D01*
G01*
X114868930Y-66763307D02*
X114589207Y-62763075D01*
X116584335Y-62623562D02*
X114589207Y-62763075D01*
X116864058Y-66623794D02*
X116584335Y-62623562D01*
X175940580Y-58790000D02*
X175659420Y-58790000D01*
X175940580Y-59810000D02*
X175659420Y-59810000D01*
X152696000Y-86075000D02*
X152696000Y-85375000D01*
X153696000Y-85375000D02*
X152696000Y-85375000D01*
X160700000Y-87525000D02*
X161700000Y-87525000D01*
X160700000Y-92175000D02*
X161700000Y-92175000D01*
X161700000Y-92175000D02*
X162500000Y-91375000D01*
X162500000Y-88325000D02*
X161700000Y-87525000D01*
X153750000Y-90025000D02*
G75*
G02*
X152950000Y-89225000I0J800000D01*
G01*
X157750000Y-59035000D02*
X157750000Y-59585000D01*
X158775000Y-57460000D02*
X157850000Y-57460000D01*
X162550000Y-57460000D02*
X161625000Y-57460000D01*
X162550000Y-61160000D02*
X157850000Y-61160000D01*
X162650000Y-59035000D02*
X162650000Y-59585000D01*
X191450000Y-83600000D02*
X195460000Y-83600000D01*
X191450000Y-85600000D02*
X195460000Y-85600000D01*
X195460000Y-85600000D02*
X195460000Y-83600000D01*
X192437258Y-86077500D02*
X191962742Y-86077500D01*
X192437258Y-87122500D02*
X191962742Y-87122500D01*
X100778884Y-121792597D02*
X100657331Y-121103231D01*
X101642138Y-120929583D02*
X100657331Y-121103231D01*
X108913076Y-121830688D02*
X109897883Y-121657040D01*
X109720540Y-126410044D02*
X110705347Y-126236396D01*
X110705347Y-126236396D02*
X111354275Y-125309631D01*
X110824648Y-122305967D02*
X109897883Y-121657040D01*
X102502782Y-125499562D02*
G75*
G02*
X101576018Y-124850635I-138918J787846D01*
G01*
X176037258Y-60677500D02*
X175562742Y-60677500D01*
X176037258Y-61722500D02*
X175562742Y-61722500D01*
X205790000Y-85959420D02*
X205790000Y-86240580D01*
X206810000Y-85959420D02*
X206810000Y-86240580D01*
X153399473Y-64050651D02*
X153399473Y-60040651D01*
X155399473Y-60040651D02*
X153399473Y-60040651D01*
X155399473Y-64050651D02*
X155399473Y-60040651D01*
X208280000Y-80100000D02*
X208280000Y-78400000D01*
X208280000Y-81600000D02*
X208280000Y-81400000D01*
X209330000Y-83450000D02*
X210120000Y-83450000D01*
X210120000Y-76550000D02*
X209330000Y-76550000D01*
X211130000Y-82850000D02*
X211130000Y-77150000D01*
X135399473Y-57050650D02*
X135399473Y-53040650D01*
X137399473Y-53040650D02*
X135399473Y-53040650D01*
X137399473Y-57050650D02*
X137399473Y-53040650D01*
X202677500Y-78262742D02*
X202677500Y-78737258D01*
X203722500Y-78262742D02*
X203722500Y-78737258D01*
X171399473Y-66050650D02*
X171399473Y-62040650D01*
X173399473Y-62040650D02*
X171399473Y-62040650D01*
X173399473Y-66050650D02*
X173399473Y-62040650D01*
X153399473Y-81050650D02*
X153399473Y-77040650D01*
X155399473Y-77040650D02*
X153399473Y-77040650D01*
X155399473Y-81050650D02*
X155399473Y-77040650D01*
X134696000Y-79075000D02*
X134696000Y-78375000D01*
X135696000Y-78375000D02*
X134696000Y-78375000D01*
X142700000Y-80525000D02*
X143700000Y-80525000D01*
X142700000Y-85175000D02*
X143700000Y-85175000D01*
X143700000Y-85175000D02*
X144500000Y-84375000D01*
X144500000Y-81325000D02*
X143700000Y-80525000D01*
X135750000Y-83025000D02*
G75*
G02*
X134950000Y-82225000I0J800000D01*
G01*
X173986819Y-122985538D02*
X174191479Y-122316124D01*
X175147784Y-122608496D02*
X174191479Y-122316124D01*
X179857615Y-131159140D02*
X180813919Y-131451511D01*
X180813919Y-131451511D02*
X181812860Y-130920365D01*
X181217143Y-126712323D02*
X182173448Y-127004694D01*
X182704594Y-128003635D02*
X182173448Y-127004694D01*
X173839896Y-127071101D02*
G75*
G02*
X173308749Y-126072160I233897J765044D01*
G01*
X193890000Y-80659420D02*
X193890000Y-80940580D01*
X194910000Y-80659420D02*
X194910000Y-80940580D01*
X197050000Y-85040000D02*
X197700000Y-85040000D01*
X197050000Y-88160000D02*
X197700000Y-88160000D01*
X198350000Y-85040000D02*
X197700000Y-85040000D01*
X198350000Y-88160000D02*
X197700000Y-88160000D01*
X196777500Y-88440000D02*
X196297500Y-88440000D01*
X196537500Y-88110000D01*
X196777500Y-88440000D01*
G36*
X196777500Y-88440000D02*
G01*
X196297500Y-88440000D01*
X196537500Y-88110000D01*
X196777500Y-88440000D01*
G37*
X155955696Y-115913510D02*
X156305191Y-111918767D01*
X157948086Y-116087819D02*
X158297580Y-112093078D01*
X158297580Y-112093078D02*
X156305191Y-111918767D01*
X134696000Y-62075000D02*
X134696000Y-61375000D01*
X135696000Y-61375000D02*
X134696000Y-61375000D01*
X142700000Y-63525000D02*
X143700000Y-63525000D01*
X142700000Y-68175000D02*
X143700000Y-68175000D01*
X143700000Y-68175000D02*
X144500000Y-67375000D01*
X144500000Y-64325000D02*
X143700000Y-63525000D01*
X135750000Y-66025000D02*
G75*
G02*
X134950000Y-65225000I0J800000D01*
G01*
X176262742Y-63777500D02*
X176737258Y-63777500D01*
X176262742Y-64822500D02*
X176737258Y-64822500D01*
X202677500Y-81362742D02*
X202677500Y-81837258D01*
X203722500Y-81362742D02*
X203722500Y-81837258D01*
X202850000Y-83440000D02*
X203500000Y-83440000D01*
X202850000Y-86560000D02*
X203500000Y-86560000D01*
X204150000Y-83440000D02*
X203500000Y-83440000D01*
X204150000Y-86560000D02*
X203500000Y-86560000D01*
X204662500Y-83490000D02*
X204422500Y-83160000D01*
X204902500Y-83160000D01*
X204662500Y-83490000D01*
G36*
X204662500Y-83490000D02*
G01*
X204422500Y-83160000D01*
X204902500Y-83160000D01*
X204662500Y-83490000D01*
G37*
X187550000Y-68210000D02*
X188850000Y-68210000D01*
X187800000Y-70190000D02*
X188850000Y-70190000D01*
X187430000Y-70470000D02*
X187150000Y-70190000D01*
X187430000Y-70190000D01*
X187430000Y-70470000D01*
G36*
X187430000Y-70470000D02*
G01*
X187150000Y-70190000D01*
X187430000Y-70190000D01*
X187430000Y-70470000D01*
G37*
X193572954Y-127046140D02*
X192603335Y-128795379D01*
X196110560Y-130739466D02*
X192603335Y-128795379D01*
X197080179Y-128990226D02*
X193572954Y-127046140D01*
X135399473Y-74050650D02*
X135399473Y-70040650D01*
X137399473Y-70040650D02*
X135399473Y-70040650D01*
X137399473Y-74050650D02*
X137399473Y-70040650D01*
X115703512Y-88783078D02*
X115654682Y-88084784D01*
X116652246Y-88015027D02*
X115654682Y-88084784D01*
X123789161Y-89671215D02*
X124786725Y-89601459D01*
X124113529Y-94309888D02*
X125111093Y-94240132D01*
X125111093Y-94240132D02*
X125853339Y-93386275D01*
X125640582Y-90343705D02*
X124786725Y-89601459D01*
X117030482Y-92649933D02*
G75*
G02*
X116176626Y-91907687I-55805J798051D01*
G01*
X195737258Y-77877500D02*
X195262742Y-77877500D01*
X195737258Y-78922500D02*
X195262742Y-78922500D01*
X181846447Y-112250000D02*
X181846447Y-112750000D01*
X181846447Y-112750000D02*
X182200000Y-112500000D01*
X182200000Y-112500000D02*
X181846447Y-112250000D01*
X182700000Y-111940000D02*
X182910000Y-111940000D01*
X182910000Y-110890000D02*
X186240000Y-110890000D01*
X182910000Y-111940000D02*
X182910000Y-110890000D01*
X182910000Y-114260000D02*
X182910000Y-115310000D01*
X182910000Y-115310000D02*
X186240000Y-115310000D01*
X187130000Y-112760000D02*
X187630000Y-112460000D01*
X187130000Y-113440000D02*
X187130000Y-112760000D01*
X187630000Y-112460000D02*
X187630000Y-111960000D01*
X187630000Y-113740000D02*
X187130000Y-113440000D01*
X187630000Y-114240000D02*
X187630000Y-113740000D01*
X199777500Y-78237742D02*
X199777500Y-78712258D01*
X200822500Y-78237742D02*
X200822500Y-78712258D01*
X134696000Y-96075000D02*
X134696000Y-95375000D01*
X135696000Y-95375000D02*
X134696000Y-95375000D01*
X142700000Y-97525000D02*
X143700000Y-97525000D01*
X142700000Y-102175000D02*
X143700000Y-102175000D01*
X143700000Y-102175000D02*
X144500000Y-101375000D01*
X144500000Y-98325000D02*
X143700000Y-97525000D01*
X135750000Y-100025000D02*
G75*
G02*
X134950000Y-99225000I0J800000D01*
G01*
X170696000Y-88075000D02*
X170696000Y-87375000D01*
X171696000Y-87375000D02*
X170696000Y-87375000D01*
X178700000Y-89525000D02*
X179700000Y-89525000D01*
X178700000Y-94175000D02*
X179700000Y-94175000D01*
X179700000Y-94175000D02*
X180500000Y-93375000D01*
X180500000Y-90325000D02*
X179700000Y-89525000D01*
X171750000Y-92025000D02*
G75*
G02*
X170950000Y-91225000I0J800000D01*
G01*
X94695163Y-83238957D02*
X93998834Y-79289878D01*
X95968449Y-78942582D02*
X93998834Y-79289878D01*
X96664778Y-82891661D02*
X95968449Y-78942582D01*
X94874846Y-88309133D02*
X94753293Y-87619767D01*
X95738100Y-87446119D02*
X94753293Y-87619767D01*
X103009038Y-88347224D02*
X103993845Y-88173576D01*
X103816502Y-92926580D02*
X104801309Y-92752932D01*
X104801309Y-92752932D02*
X105450237Y-91826167D01*
X104920610Y-88822503D02*
X103993845Y-88173576D01*
X96598744Y-92016098D02*
G75*
G02*
X95671980Y-91367171I-138918J787846D01*
G01*
X142977500Y-107062742D02*
X142977500Y-107537258D01*
X144022500Y-107062742D02*
X144022500Y-107537258D01*
%LPC*%
D12*
X111784477Y-83118956D03*
X169554515Y-77399999D03*
D13*
X205980000Y-65650000D03*
D14*
X203440000Y-65650000D03*
X200900000Y-65650000D03*
X198360000Y-65650000D03*
D12*
X194177165Y-120406206D03*
X118252436Y-114041804D03*
D15*
X98058951Y-96557175D03*
X98631989Y-99807041D03*
D16*
X165700000Y-100900000D03*
D17*
X160200000Y-100900000D03*
D16*
X154700000Y-100900000D03*
D18*
X155200000Y-104650000D03*
D19*
X151955000Y-104650000D03*
X163445000Y-106850000D03*
D18*
X160200000Y-106850000D03*
D20*
X177325000Y-65900000D03*
X175675000Y-65900000D03*
D21*
X178049662Y-115522969D03*
X177084836Y-118678775D03*
D22*
X189137500Y-66800000D03*
X187262500Y-66800000D03*
D16*
X183700000Y-68900000D03*
D17*
X178200000Y-68900000D03*
D16*
X172700000Y-68900000D03*
D18*
X173200000Y-72650000D03*
D19*
X169955000Y-72650000D03*
X181445000Y-74850000D03*
D18*
X178200000Y-74850000D03*
D16*
X183700000Y-102900000D03*
D17*
X178200000Y-102900000D03*
D16*
X172700000Y-102900000D03*
D18*
X173200000Y-106650000D03*
D19*
X169955000Y-106650000D03*
X181445000Y-108850000D03*
D18*
X178200000Y-108850000D03*
D23*
X200300000Y-82350000D03*
X200300000Y-80800000D03*
D15*
X101010970Y-113298907D03*
X101584008Y-116548773D03*
D24*
X154399473Y-94750650D03*
X154399473Y-98050650D03*
X136399473Y-87750650D03*
X136399473Y-91050650D03*
D16*
X127338254Y-68747675D03*
D17*
X121851652Y-69131336D03*
D16*
X116365050Y-69514997D03*
D18*
X117125419Y-73220984D03*
D25*
X113888323Y-73447343D03*
X125503798Y-74840482D03*
D18*
X122266703Y-75066842D03*
D16*
X110255621Y-100650787D03*
D17*
X104839178Y-101605852D03*
D16*
X99422735Y-102560917D03*
D18*
X100566320Y-106167122D03*
D26*
X97370619Y-106730610D03*
X109068086Y-106901970D03*
D18*
X105872385Y-107465458D03*
D16*
X167961079Y-119824077D03*
D17*
X162482008Y-119344720D03*
D16*
X157002937Y-118865363D03*
D18*
X157174197Y-122644671D03*
D27*
X153941549Y-122361851D03*
X165196083Y-125554899D03*
D18*
X161963431Y-125272078D03*
D16*
X165700000Y-66900001D03*
D17*
X160200000Y-66900001D03*
D16*
X154700000Y-66900001D03*
D18*
X155200000Y-70650001D03*
D19*
X151955000Y-70650001D03*
X163445000Y-72850001D03*
D18*
X160200000Y-72850001D03*
D28*
X207900000Y-72400000D03*
X206800000Y-72400000D03*
X205700000Y-72400000D03*
X204600000Y-72400000D03*
X203500000Y-72400000D03*
X202400000Y-72400000D03*
X201300000Y-72400000D03*
X200200000Y-72400000D03*
X199100000Y-72400000D03*
X198000000Y-72400000D03*
X196900000Y-72400000D03*
X195800000Y-72400000D03*
X194700000Y-72400000D03*
D29*
X193200000Y-71150000D03*
X193200000Y-70050000D03*
X193200000Y-68950000D03*
X193200000Y-67850000D03*
X193200000Y-66750000D03*
X193200000Y-65650000D03*
X193200000Y-64550000D03*
X193200000Y-63450000D03*
X193200000Y-62350000D03*
X193200000Y-61250000D03*
X193200000Y-60150000D03*
D28*
X194700000Y-58900000D03*
X195800000Y-58900000D03*
X196900000Y-58900000D03*
X198000000Y-58900000D03*
X199100000Y-58900000D03*
X200200000Y-58900000D03*
X201300000Y-58900000D03*
X202400000Y-58900000D03*
X203500000Y-58900000D03*
X204600000Y-58900000D03*
X205700000Y-58900000D03*
X206800000Y-58900000D03*
X207900000Y-58900000D03*
X205700000Y-69900000D03*
X204600000Y-69900000D03*
X203500000Y-69900000D03*
X202400000Y-69900000D03*
X201300000Y-69900000D03*
X200200000Y-69900000D03*
X199100000Y-69900000D03*
X198000000Y-69900000D03*
X196900000Y-69900000D03*
X205700000Y-61400000D03*
X204600000Y-61400000D03*
X203500000Y-61400000D03*
X202400000Y-61400000D03*
X201300000Y-61400000D03*
X200200000Y-61400000D03*
X199100000Y-61400000D03*
X198000000Y-61400000D03*
X196900000Y-61400000D03*
D24*
X172399473Y-79750650D03*
X172399473Y-83050650D03*
D16*
X129709974Y-102664852D03*
D17*
X124223372Y-103048513D03*
D16*
X118736770Y-103432174D03*
D18*
X119497139Y-107138161D03*
D25*
X116260043Y-107364520D03*
X127875518Y-108757659D03*
D18*
X124638423Y-108984019D03*
D24*
X172399473Y-96750650D03*
X172399473Y-100050650D03*
D30*
X198475000Y-80000000D03*
X198475000Y-80950000D03*
X198475000Y-81900000D03*
X196200000Y-81900000D03*
X196200000Y-80000000D03*
D31*
X118008018Y-97318766D03*
X118238214Y-100610728D03*
D32*
X200600000Y-83925000D03*
X200600000Y-85475000D03*
D31*
X116822158Y-80360177D03*
X117052354Y-83652139D03*
D16*
X204566072Y-121362575D03*
D17*
X201899619Y-126172983D03*
D16*
X199233166Y-130983391D03*
D18*
X202755395Y-132364118D03*
D33*
X201182188Y-135202259D03*
X208676813Y-126219459D03*
D18*
X207103606Y-129057600D03*
D31*
X115636298Y-63401589D03*
X115866494Y-66693551D03*
D34*
X175025000Y-59300000D03*
X176575000Y-59300000D03*
D16*
X165700000Y-83900000D03*
D17*
X160200000Y-83900000D03*
D16*
X154700000Y-83900000D03*
D18*
X155200000Y-87650000D03*
D19*
X151955000Y-87650000D03*
X163445000Y-89850000D03*
D18*
X160200000Y-89850000D03*
D35*
X160200000Y-60685000D03*
X160200000Y-57935000D03*
D36*
X162825000Y-58460000D03*
X157575000Y-58460000D03*
X162825000Y-60160000D03*
X157575000Y-60160000D03*
D37*
X194750000Y-84600000D03*
X191450000Y-84600000D03*
D38*
X191375000Y-86600000D03*
X193025000Y-86600000D03*
D16*
X113207640Y-117392519D03*
D17*
X107791197Y-118347584D03*
D16*
X102374754Y-119302649D03*
D18*
X103518339Y-122908854D03*
D26*
X100322638Y-123472342D03*
X112020105Y-123643702D03*
D18*
X108824404Y-124207190D03*
D38*
X174975000Y-61200000D03*
X176625000Y-61200000D03*
D23*
X206300000Y-86875000D03*
X206300000Y-85325000D03*
D24*
X154399473Y-60750651D03*
X154399473Y-64050651D03*
D39*
X210830000Y-76350000D03*
X208620000Y-76350000D03*
D40*
X209730000Y-78500000D03*
X209730000Y-81500000D03*
D39*
X210830000Y-83650000D03*
X208620000Y-83650000D03*
D41*
X207970000Y-77750000D03*
X207970000Y-80750000D03*
X207970000Y-82250000D03*
D24*
X136399473Y-53750650D03*
X136399473Y-57050650D03*
D42*
X203200000Y-79325000D03*
X203200000Y-77675000D03*
D24*
X172399473Y-62750650D03*
X172399473Y-66050650D03*
X154399473Y-77750650D03*
X154399473Y-81050650D03*
D16*
X147700000Y-76900000D03*
D17*
X142200000Y-76900000D03*
D16*
X136700000Y-76900000D03*
D18*
X137200000Y-80650000D03*
D19*
X133955000Y-80650000D03*
X145445000Y-82850000D03*
D18*
X142200000Y-82850000D03*
D16*
X187058514Y-124707576D03*
D17*
X181798838Y-123099532D03*
D16*
X176539162Y-121491488D03*
D18*
X175920920Y-125223816D03*
D43*
X172817711Y-124275070D03*
X183162435Y-129738291D03*
D18*
X180059226Y-128789545D03*
D23*
X194400000Y-81575000D03*
X194400000Y-80025000D03*
D44*
X196762500Y-87550000D03*
X196762500Y-85650000D03*
X198637500Y-86600000D03*
D45*
X157239505Y-112713221D03*
X156951891Y-116000663D03*
D16*
X147700000Y-59900000D03*
D17*
X142200000Y-59900000D03*
D16*
X136700000Y-59900000D03*
D18*
X137200000Y-63650000D03*
D19*
X133955000Y-63650000D03*
X145445000Y-65850000D03*
D18*
X142200000Y-65850000D03*
D46*
X187477000Y-63297000D03*
X181077000Y-63297000D03*
X186677000Y-63297000D03*
X181877000Y-63297000D03*
D47*
X183027000Y-63297000D03*
X184027000Y-63297000D03*
X184527000Y-63297000D03*
X185527000Y-63297000D03*
X186027000Y-63297000D03*
X185027000Y-63297000D03*
X183527000Y-63297000D03*
X182519000Y-63297000D03*
D48*
X189852300Y-62397000D03*
D49*
X189852300Y-58597000D03*
X178701700Y-58597000D03*
D48*
X178701400Y-62397000D03*
D20*
X177325000Y-64300000D03*
X175675000Y-64300000D03*
D42*
X203200000Y-82425000D03*
X203200000Y-80775000D03*
D50*
X204437500Y-84050000D03*
X204437500Y-85950000D03*
X202562500Y-85000000D03*
D51*
X187350000Y-69737500D03*
D52*
X187275000Y-69200000D03*
D51*
X187350000Y-68662500D03*
X189050000Y-68662500D03*
D52*
X189125000Y-69200000D03*
D51*
X189050000Y-69737500D03*
D53*
X193709124Y-128264974D03*
X196595370Y-129864846D03*
D24*
X136399473Y-70750650D03*
X136399473Y-74050650D03*
D16*
X128524114Y-85706263D03*
D17*
X123037512Y-86089924D03*
D16*
X117550910Y-86473585D03*
D18*
X118311279Y-90179572D03*
D25*
X115074183Y-90405931D03*
X126689658Y-91799070D03*
D18*
X123452563Y-92025430D03*
D38*
X194675000Y-78400000D03*
X196325000Y-78400000D03*
D54*
X183125000Y-112500000D03*
X183125000Y-113700000D03*
D55*
X186900000Y-111350000D03*
X186900000Y-114850000D03*
D42*
X200300000Y-79300000D03*
X200300000Y-77650000D03*
D16*
X147700000Y-93900000D03*
D17*
X142200000Y-93900000D03*
D16*
X136700000Y-93900000D03*
D18*
X137200000Y-97650000D03*
D19*
X133955000Y-97650000D03*
X145445000Y-99850000D03*
D18*
X142200000Y-99850000D03*
D16*
X183700000Y-85900000D03*
D17*
X178200000Y-85900000D03*
D16*
X172700000Y-85900000D03*
D18*
X173200000Y-89650000D03*
D19*
X169955000Y-89650000D03*
X181445000Y-91850000D03*
D18*
X178200000Y-91850000D03*
D15*
X95106932Y-79815443D03*
X95679970Y-83065309D03*
D16*
X107303602Y-83909055D03*
D17*
X101887159Y-84864120D03*
D16*
X96470716Y-85819185D03*
D18*
X97614301Y-89425390D03*
D26*
X94418600Y-89988878D03*
X106116067Y-90160238D03*
D18*
X102920366Y-90723726D03*
D42*
X143500000Y-108125000D03*
X143500000Y-106475000D03*
%LPD*%
M02*
