M48
; DRILL file {KiCad 8.0.4} date 2024-10-20T02:46:27-0300
; FORMAT={-:-/ absolute / metric / decimal}
; #@! TF.CreationDate,2024-10-20T02:46:27-03:00
; #@! TF.GenerationSoftware,Kicad,Pcbnew,8.0.4
; #@! TF.FileFunction,NonPlated,1,2,NPTH
FMAT,2
METRIC
; #@! TA.AperFunction,NonPlated,NPTH,ComponentDrill
T1C0.750
; #@! TA.AperFunction,NonPlated,NPTH,ComponentDrill
T2C0.900
; #@! TA.AperFunction,NonPlated,NPTH,ComponentDrill
T3C1.700
; #@! TA.AperFunction,NonPlated,NPTH,ComponentDrill
T4C3.400
; #@! TA.AperFunction,NonPlated,NPTH,ComponentDrill
T5C4.300
%
G90
G05
T1
X160.2Y-57.935
X160.2Y-60.685
T2
X209.73Y-78.5
X209.73Y-81.5
T3
X96.471Y-85.819
X99.423Y-102.561
X102.375Y-119.303
X107.304Y-83.909
X110.256Y-100.651
X113.208Y-117.393
X116.365Y-69.515
X117.551Y-86.474
X118.737Y-103.432
X127.338Y-68.748
X128.524Y-85.706
X129.71Y-102.665
X136.7Y-59.9
X136.7Y-76.9
X136.7Y-93.9
X147.7Y-59.9
X147.7Y-76.9
X147.7Y-93.9
X154.7Y-66.9
X154.7Y-83.9
X154.7Y-100.9
X157.003Y-118.865
X165.7Y-66.9
X165.7Y-83.9
X165.7Y-100.9
X167.961Y-119.824
X172.7Y-68.9
X172.7Y-85.9
X172.7Y-102.9
X176.539Y-121.491
X183.7Y-68.9
X183.7Y-85.9
X183.7Y-102.9
X187.059Y-124.708
X199.233Y-130.983
X204.566Y-121.363
T4
X101.887Y-84.864
X104.839Y-101.606
X107.791Y-118.348
X121.852Y-69.131
X123.038Y-86.09
X124.223Y-103.049
X142.2Y-59.9
X142.2Y-76.9
X142.2Y-93.9
X160.2Y-66.9
X160.2Y-83.9
X160.2Y-100.9
X162.482Y-119.345
X178.2Y-68.9
X178.2Y-85.9
X178.2Y-102.9
X181.799Y-123.1
X201.9Y-126.173
T5
X111.784Y-83.119
X118.252Y-114.042
X169.555Y-77.4
X194.177Y-120.406
M30
