G04 #@! TF.GenerationSoftware,KiCad,Pcbnew,8.0.4*
G04 #@! TF.CreationDate,2024-10-20T02:46:56-03:00*
G04 #@! TF.ProjectId,carpo_right,63617270-6f5f-4726-9967-68742e6b6963,rev?*
G04 #@! TF.SameCoordinates,PX7b6f01cPY41b54a0*
G04 #@! TF.FileFunction,Paste,Bot*
G04 #@! TF.FilePolarity,Positive*
%FSLAX46Y46*%
G04 Gerber Fmt 4.6, Leading zero omitted, Abs format (unit mm)*
G04 Created by KiCad (PCBNEW 8.0.4) date 2024-10-20 02:46:56*
%MOMM*%
%LPD*%
G01*
G04 APERTURE LIST*
G04 Aperture macros list*
%AMRoundRect*
0 Rectangle with rounded corners*
0 $1 Rounding radius*
0 $2 $3 $4 $5 $6 $7 $8 $9 X,Y pos of 4 corners*
0 Add a 4 corners polygon primitive as box body*
4,1,4,$2,$3,$4,$5,$6,$7,$8,$9,$2,$3,0*
0 Add four circle primitives for the rounded corners*
1,1,$1+$1,$2,$3*
1,1,$1+$1,$4,$5*
1,1,$1+$1,$6,$7*
1,1,$1+$1,$8,$9*
0 Add four rect primitives between the rounded corners*
20,1,$1+$1,$2,$3,$4,$5,0*
20,1,$1+$1,$4,$5,$6,$7,0*
20,1,$1+$1,$6,$7,$8,$9,0*
20,1,$1+$1,$8,$9,$2,$3,0*%
G04 Aperture macros list end*
%ADD10RoundRect,0.225000X-0.330232X0.286700X-0.408374X-0.156464X0.330232X-0.286700X0.408374X0.156464X0*%
%ADD11RoundRect,0.260000X1.065000X1.040000X-1.065000X1.040000X-1.065000X-1.040000X1.065000X-1.040000X0*%
%ADD12RoundRect,0.200000X-0.200000X-0.275000X0.200000X-0.275000X0.200000X0.275000X-0.200000X0.275000X0*%
%ADD13RoundRect,0.225000X-0.424398X0.105529X-0.292831X-0.324808X0.424398X-0.105529X0.292831X0.324808X0*%
%ADD14RoundRect,0.243750X-0.243750X-0.456250X0.243750X-0.456250X0.243750X0.456250X-0.243750X0.456250X0*%
%ADD15RoundRect,0.225000X-0.250000X0.225000X-0.250000X-0.225000X0.250000X-0.225000X0.250000X0.225000X0*%
%ADD16RoundRect,0.225000X-0.375000X0.225000X-0.375000X-0.225000X0.375000X-0.225000X0.375000X0.225000X0*%
%ADD17RoundRect,0.260000X1.134952X0.963176X-0.989859X1.111757X-1.134952X-0.963176X0.989859X-1.111757X0*%
%ADD18RoundRect,0.260000X1.229414X0.839265X-0.868226X1.209135X-1.229414X-0.839265X0.868226X-1.209135X0*%
%ADD19RoundRect,0.260000X0.970305X1.128863X-1.151589X0.943222X-0.970305X-1.128863X1.151589X-0.943222X0*%
%ADD20R,0.700000X1.524000*%
%ADD21R,1.524000X0.700000*%
%ADD22RoundRect,0.150000X-0.512500X-0.150000X0.512500X-0.150000X0.512500X0.150000X-0.512500X0.150000X0*%
%ADD23RoundRect,0.225000X-0.358391X0.250611X-0.389782X-0.198293X0.358391X-0.250611X0.389782X0.198293X0*%
%ADD24RoundRect,0.260000X1.425927X-0.427268X0.393282X1.435672X-1.425927X0.427268X-0.393282X-1.435672X0*%
%ADD25RoundRect,0.225000X0.225000X0.250000X-0.225000X0.250000X-0.225000X-0.250000X0.225000X-0.250000X0*%
%ADD26R,1.550000X1.000000*%
%ADD27RoundRect,0.225000X-0.225000X-0.375000X0.225000X-0.375000X0.225000X0.375000X-0.225000X0.375000X0*%
%ADD28RoundRect,0.200000X0.200000X0.275000X-0.200000X0.275000X-0.200000X-0.275000X0.200000X-0.275000X0*%
%ADD29R,0.800000X1.000000*%
%ADD30R,1.500000X0.700000*%
%ADD31RoundRect,0.200000X0.275000X-0.200000X0.275000X0.200000X-0.275000X0.200000X-0.275000X-0.200000X0*%
%ADD32RoundRect,0.260000X0.714398X1.305933X-1.322531X0.683181X-0.714398X-1.305933X1.322531X-0.683181X0*%
%ADD33RoundRect,0.225000X-0.225000X-0.250000X0.225000X-0.250000X0.225000X0.250000X-0.225000X0.250000X0*%
%ADD34RoundRect,0.150000X0.587500X0.150000X-0.587500X0.150000X-0.587500X-0.150000X0.587500X-0.150000X0*%
%ADD35RoundRect,0.225000X-0.393183X0.191460X-0.353963X-0.256827X0.393183X-0.191460X0.353963X0.256827X0*%
%ADD36R,0.540000X0.800000*%
%ADD37R,0.300000X0.800000*%
%ADD38O,1.000000X1.800000*%
%ADD39O,1.000000X2.200000*%
%ADD40RoundRect,0.150000X-0.587500X-0.150000X0.587500X-0.150000X0.587500X0.150000X-0.587500X0.150000X0*%
%ADD41RoundRect,0.093750X0.156250X0.093750X-0.156250X0.093750X-0.156250X-0.093750X0.156250X-0.093750X0*%
%ADD42RoundRect,0.075000X0.250000X0.075000X-0.250000X0.075000X-0.250000X-0.075000X0.250000X-0.075000X0*%
%ADD43RoundRect,0.225000X0.014986X0.437065X-0.378593X0.218900X-0.014986X-0.437065X0.378593X-0.218900X0*%
%ADD44RoundRect,0.150000X0.275000X-0.150000X0.275000X0.150000X-0.275000X0.150000X-0.275000X-0.150000X0*%
%ADD45RoundRect,0.175000X0.225000X-0.175000X0.225000X0.175000X-0.225000X0.175000X-0.225000X-0.175000X0*%
%ADD46RoundRect,0.200000X-0.275000X0.200000X-0.275000X-0.200000X0.275000X-0.200000X0.275000X0.200000X0*%
G04 APERTURE END LIST*
D10*
X80141049Y-27657175D03*
X79568011Y-30907041D03*
D11*
X9755000Y-35750000D03*
X21245000Y-37950000D03*
D12*
X875000Y3000000D03*
X2525000Y3000000D03*
D13*
X150337Y-46622969D03*
X1115165Y-49778775D03*
D14*
X-10937500Y2100000D03*
X-9062500Y2100000D03*
D11*
X-8245000Y-3750000D03*
X3245000Y-5950000D03*
X-8245000Y-37750000D03*
X3245000Y-39950000D03*
D15*
X-22229532Y-8925000D03*
X-22229532Y-10475000D03*
D10*
X77189030Y-44398907D03*
X76615992Y-47648773D03*
D16*
X23800527Y-25850650D03*
X23800527Y-29150650D03*
X41800527Y-18850650D03*
X41800527Y-22150650D03*
D17*
X47861846Y-3397059D03*
X59170392Y-6393202D03*
D18*
X64589901Y-34967152D03*
X75523317Y-39128944D03*
D19*
X7831201Y-54899049D03*
X19469220Y-56089258D03*
D11*
X9755000Y-1750001D03*
X21245000Y-3950001D03*
D20*
X-29700000Y10000000D03*
X-28600000Y10000000D03*
X-27500000Y10000000D03*
X-26400000Y10000000D03*
X-25300000Y10000000D03*
X-24200000Y10000000D03*
X-23100000Y10000000D03*
X-22000000Y10000000D03*
X-20900000Y10000000D03*
X-19800000Y10000000D03*
X-18700000Y10000000D03*
X-17600000Y10000000D03*
X-16500000Y10000000D03*
D21*
X-15000000Y8750000D03*
X-15000000Y7650000D03*
X-15000000Y6550000D03*
X-15000000Y5450000D03*
X-15000000Y4350000D03*
X-15000000Y3250000D03*
X-15000000Y2150000D03*
X-15000000Y1050000D03*
X-15000000Y-50000D03*
X-15000000Y-1150000D03*
X-15000000Y-2250000D03*
D20*
X-16500000Y-3500000D03*
X-17600000Y-3500000D03*
X-18700000Y-3500000D03*
X-19800000Y-3500000D03*
X-20900000Y-3500000D03*
X-22000000Y-3500000D03*
X-23100000Y-3500000D03*
X-24200000Y-3500000D03*
X-25300000Y-3500000D03*
X-26400000Y-3500000D03*
X-27500000Y-3500000D03*
X-28600000Y-3500000D03*
X-29700000Y-3500000D03*
X-27500000Y7500000D03*
X-26400000Y7500000D03*
X-25300000Y7500000D03*
X-24200000Y7500000D03*
X-23100000Y7500000D03*
X-22000000Y7500000D03*
X-20900000Y7500000D03*
X-19800000Y7500000D03*
X-18700000Y7500000D03*
X-27500000Y-1000000D03*
X-26400000Y-1000000D03*
X-25300000Y-1000000D03*
X-24200000Y-1000000D03*
X-23100000Y-1000000D03*
X-22000000Y-1000000D03*
X-20900000Y-1000000D03*
X-19800000Y-1000000D03*
X-18700000Y-1000000D03*
D16*
X5800527Y-10850650D03*
X5800527Y-14150650D03*
D17*
X45490126Y-37314236D03*
X56798672Y-40310379D03*
D16*
X5800527Y-27850650D03*
X5800527Y-31150650D03*
D22*
X-20367032Y-12250000D03*
X-20367032Y-11300000D03*
X-20367032Y-10350000D03*
X-18092032Y-10350000D03*
X-18092032Y-12250000D03*
D23*
X60191982Y-28418766D03*
X59961786Y-31710728D03*
D15*
X-22129532Y-17125000D03*
X-22129532Y-18675000D03*
D23*
X61377842Y-11460177D03*
X61147646Y-14752139D03*
D24*
X-30976698Y-51879780D03*
X-27330399Y-62995741D03*
D23*
X62563702Y5498411D03*
X62333506Y2206449D03*
D25*
X3175000Y9600000D03*
X1625000Y9600000D03*
D11*
X9755000Y-18750000D03*
X21245000Y-20950000D03*
D26*
X20625000Y10440000D03*
X15375000Y10440000D03*
X20625000Y8740000D03*
X15375000Y8740000D03*
D27*
X-21079532Y-14400000D03*
X-17779532Y-14400000D03*
D28*
X-14704532Y-10400000D03*
X-16354532Y-10400000D03*
D18*
X61637882Y-51708884D03*
X72571298Y-55870676D03*
D28*
X3225000Y7700000D03*
X1575000Y7700000D03*
D15*
X-27929532Y-17225000D03*
X-27929532Y-18775000D03*
D16*
X23800527Y8149349D03*
X23800527Y4849349D03*
D29*
X-32630000Y-14750000D03*
X-30420000Y-14750000D03*
X-32630000Y-7450000D03*
X-30420000Y-7450000D03*
D30*
X-29770000Y-13350000D03*
X-29770000Y-10350000D03*
X-29770000Y-8850000D03*
D16*
X41800527Y15149350D03*
X41800527Y11849350D03*
D31*
X-26929532Y-11225000D03*
X-26929532Y-9575000D03*
D16*
X5800527Y6149350D03*
X5800527Y2849350D03*
X23800527Y-8850650D03*
X23800527Y-12150650D03*
D11*
X27755000Y-11750000D03*
X39245000Y-13950000D03*
D32*
X-10387177Y-60196280D03*
X1243983Y-58940799D03*
D33*
X-16304532Y-13600000D03*
X-14754532Y-13600000D03*
D34*
X-16754532Y-16750000D03*
X-16754532Y-18650000D03*
X-18629532Y-17700000D03*
D35*
X20960495Y-43813221D03*
X21248109Y-47100663D03*
D11*
X27755000Y5250000D03*
X39245000Y3050000D03*
D36*
X-2867000Y5603000D03*
X-9267000Y5603000D03*
X-3667000Y5603000D03*
X-8467000Y5603000D03*
D37*
X-7317000Y5603000D03*
X-6317000Y5603000D03*
X-5817000Y5603000D03*
X-4817000Y5603000D03*
X-4317000Y5603000D03*
X-5317000Y5603000D03*
X-6817000Y5603000D03*
X-7825000Y5603000D03*
D38*
X-491700Y6503000D03*
D39*
X-491700Y10303000D03*
X-11642300Y10303000D03*
D38*
X-11642600Y6503000D03*
D12*
X875000Y4600000D03*
X2525000Y4600000D03*
D31*
X-26929532Y-14325000D03*
X-26929532Y-12675000D03*
D40*
X-25867032Y-18650000D03*
X-25867032Y-16750000D03*
X-23992032Y-17700000D03*
D41*
X-9150000Y237500D03*
D42*
X-9075000Y-300000D03*
D41*
X-9150000Y-837500D03*
X-10850000Y-837500D03*
D42*
X-10925000Y-300000D03*
D41*
X-10850000Y237500D03*
D43*
X-15509124Y-59364974D03*
X-18395370Y-60964846D03*
D16*
X41800527Y-1850650D03*
X41800527Y-5150650D03*
D17*
X46675986Y-20355647D03*
X57984532Y-23351790D03*
D12*
X-16354532Y-12000000D03*
X-14704532Y-12000000D03*
D44*
X-4925000Y-44800000D03*
X-4925000Y-43600000D03*
D45*
X-8700000Y-45950000D03*
X-8700000Y-42450000D03*
D28*
X-22104532Y-12100000D03*
X-23754532Y-12100000D03*
D11*
X27755000Y-28750000D03*
X39245000Y-30950000D03*
X-8245000Y-20750000D03*
X3245000Y-22950000D03*
D10*
X83093068Y-10915443D03*
X82520030Y-14165309D03*
D18*
X67541920Y-18225420D03*
X78475336Y-22387212D03*
D46*
X34700000Y-37575000D03*
X34700000Y-39225000D03*
M02*
