G04 #@! TF.GenerationSoftware,KiCad,Pcbnew,8.0.4*
G04 #@! TF.CreationDate,2024-10-20T02:46:56-03:00*
G04 #@! TF.ProjectId,carpo_right,63617270-6f5f-4726-9967-68742e6b6963,rev?*
G04 #@! TF.SameCoordinates,PX7b6f01cPY41b54a0*
G04 #@! TF.FileFunction,Profile,NP*
%FSLAX46Y46*%
G04 Gerber Fmt 4.6, Leading zero omitted, Abs format (unit mm)*
G04 Created by KiCad (PCBNEW 8.0.4) date 2024-10-20 02:46:56*
%MOMM*%
%LPD*%
G01*
G04 APERTURE LIST*
G04 #@! TA.AperFunction,Profile*
%ADD10C,0.100000*%
G04 #@! TD*
G04 APERTURE END LIST*
D10*
X-38553436Y-50071308D02*
G75*
G02*
X-38163622Y-48711886I874604J484808D01*
G01*
X-9327538Y-65885043D02*
X7684923Y-60683811D01*
X45000000Y18500000D02*
G75*
G02*
X45999968Y17500000I-32J-1000000D01*
G01*
X25999999Y17500000D02*
X25999999Y12500000D01*
X-33000000Y10000000D02*
X-30350000Y10000000D01*
X-24104147Y-74075851D02*
X-9327538Y-65885043D01*
X-30999999Y-46756978D02*
G75*
G02*
X-32000010Y-45756978I-33J999978D01*
G01*
X-10999999Y-46756978D02*
X-30999999Y-46756978D01*
X-31999999Y-45756978D02*
X-31999999Y-20756978D01*
X24999999Y11500000D02*
X-1500000Y11500000D01*
X-9999999Y-45756978D02*
G75*
G02*
X-10999999Y-46756933I-999933J-22D01*
G01*
X45000000Y18500000D02*
X26999999Y18500000D01*
X26420762Y-58040817D02*
G75*
G02*
X32555314Y-52419499I5224006J457017D01*
G01*
X86825769Y-8171280D02*
G75*
G02*
X87636900Y-9329731I-173701J-984820D01*
G01*
X46000000Y10948004D02*
X46000000Y17500000D01*
X66960153Y-4668436D02*
G75*
G02*
X66136285Y-3613875I173615J984736D01*
G01*
X-9999999Y-20756978D02*
X-9999999Y-45756978D01*
X-10644000Y6003000D02*
X-10644000Y11500000D01*
X-33515190Y-46135209D02*
X-38163626Y-48711879D01*
X86825769Y-8171280D02*
X66960153Y-4668436D01*
X-1500000Y6003000D02*
X-10644000Y6003000D01*
X-31999999Y-20756978D02*
G75*
G02*
X-31000000Y-19756933I1000067J-22D01*
G01*
X66136237Y-3613872D02*
X66916919Y7550393D01*
X-1500000Y11500000D02*
X-1500000Y6003000D01*
X46930243Y9950439D02*
G75*
G02*
X45999973Y10948004I69725J997561D01*
G01*
X25999999Y17500000D02*
G75*
G02*
X26999999Y18499969I999969J0D01*
G01*
X32555306Y-52419544D02*
X77622415Y-60366091D01*
X25999999Y12500000D02*
G75*
G02*
X24999999Y11499969I-1000031J0D01*
G01*
X65989111Y8617714D02*
X46930243Y9950439D01*
X78780871Y-59554931D02*
G75*
G02*
X77622414Y-60366099I-984803J173631D01*
G01*
X-24104147Y-74075851D02*
G75*
G02*
X-25463643Y-73686077I-484885J874551D01*
G01*
X26420762Y-58040817D02*
G75*
G02*
X25511725Y-59124196I-996194J-87183D01*
G01*
X-10644000Y11500000D02*
X-32000000Y11500000D01*
X-10999999Y-19756978D02*
G75*
G02*
X-10000010Y-20756978I-33J-1000022D01*
G01*
X-33000000Y10500000D02*
G75*
G02*
X-32000000Y11499968I999968J0D01*
G01*
X7684923Y-60683811D02*
X25511723Y-59124168D01*
X-38553436Y-50071308D02*
X-25463576Y-73686040D01*
X-30350000Y10000000D02*
X-30350000Y-3499999D01*
X-31000000Y-19756978D02*
X-10999999Y-19756978D01*
X-33000000Y10500000D02*
X-33000000Y10000000D01*
X78780871Y-59554931D02*
X87636928Y-9329736D01*
X-33000000Y-3499999D02*
X-32999999Y-45260589D01*
X-32999999Y-45260589D02*
G75*
G02*
X-33515202Y-46135187I-999933J-11D01*
G01*
X-30350000Y-3499999D02*
X-33000000Y-3499999D01*
X65989111Y8617714D02*
G75*
G02*
X66916878Y7550396I-69743J-997514D01*
G01*
M02*
