M48
; DRILL file {KiCad 8.0.4} date 2024-10-20T02:46:58-0300
; FORMAT={-:-/ absolute / metric / decimal}
; #@! TF.CreationDate,2024-10-20T02:46:58-03:00
; #@! TF.GenerationSoftware,Kicad,Pcbnew,8.0.4
; #@! TF.FileFunction,NonPlated,1,2,NPTH
FMAT,2
METRIC
; #@! TA.AperFunction,NonPlated,NPTH,ComponentDrill
T1C0.750
; #@! TA.AperFunction,NonPlated,NPTH,ComponentDrill
T2C0.900
; #@! TA.AperFunction,NonPlated,NPTH,ComponentDrill
T3C1.700
; #@! TA.AperFunction,NonPlated,NPTH,ComponentDrill
T4C3.400
; #@! TA.AperFunction,NonPlated,NPTH,ComponentDrill
T5C4.300
%
G90
G05
T1
X18.0Y10.965
X18.0Y8.215
T2
X-31.53Y-9.6
X-31.53Y-12.6
T3
X-26.366Y-52.463
X-21.033Y-62.083
X-8.859Y-55.808
X-5.5Y0.0
X-5.5Y-17.0
X-5.5Y-34.0
X1.661Y-52.591
X5.5Y0.0
X5.5Y-17.0
X5.5Y-34.0
X10.239Y-50.924
X12.5Y2.0
X12.5Y-15.0
X12.5Y-32.0
X21.197Y-49.965
X23.5Y2.0
X23.5Y-15.0
X23.5Y-32.0
X30.5Y9.0
X30.5Y-8.0
X30.5Y-25.0
X41.5Y9.0
X41.5Y-8.0
X41.5Y-25.0
X48.49Y-33.765
X49.676Y-16.806
X50.862Y0.152
X59.463Y-34.532
X60.649Y-17.574
X61.835Y-0.615
X64.992Y-48.493
X67.944Y-31.751
X70.896Y-15.009
X75.825Y-50.403
X78.777Y-33.661
X81.729Y-16.919
T4
X-23.7Y-57.273
X-3.599Y-54.2
X0.0Y0.0
X0.0Y-17.0
X0.0Y-34.0
X15.718Y-50.445
X18.0Y2.0
X18.0Y-15.0
X18.0Y-32.0
X36.0Y9.0
X36.0Y-8.0
X36.0Y-25.0
X53.977Y-34.149
X55.162Y-17.19
X56.348Y-0.231
X70.409Y-49.448
X73.361Y-32.706
X76.313Y-15.964
T5
X-15.977Y-51.506
X8.645Y-8.5
X59.948Y-45.142
X66.416Y-14.219
M30
