G04 #@! TF.GenerationSoftware,KiCad,Pcbnew,8.0.4*
G04 #@! TF.CreationDate,2024-10-20T02:46:56-03:00*
G04 #@! TF.ProjectId,carpo_right,63617270-6f5f-4726-9967-68742e6b6963,rev?*
G04 #@! TF.SameCoordinates,PX7b6f01cPY41b54a0*
G04 #@! TF.FileFunction,Soldermask,Top*
G04 #@! TF.FilePolarity,Negative*
%FSLAX46Y46*%
G04 Gerber Fmt 4.6, Leading zero omitted, Abs format (unit mm)*
G04 Created by KiCad (PCBNEW 8.0.4) date 2024-10-20 02:46:56*
%MOMM*%
%LPD*%
G01*
G04 APERTURE LIST*
G04 Aperture macros list*
%AMRoundRect*
0 Rectangle with rounded corners*
0 $1 Rounding radius*
0 $2 $3 $4 $5 $6 $7 $8 $9 X,Y pos of 4 corners*
0 Add a 4 corners polygon primitive as box body*
4,1,4,$2,$3,$4,$5,$6,$7,$8,$9,$2,$3,0*
0 Add four circle primitives for the rounded corners*
1,1,$1+$1,$2,$3*
1,1,$1+$1,$4,$5*
1,1,$1+$1,$6,$7*
1,1,$1+$1,$8,$9*
0 Add four rect primitives between the rounded corners*
20,1,$1+$1,$2,$3,$4,$5,0*
20,1,$1+$1,$4,$5,$6,$7,0*
20,1,$1+$1,$6,$7,$8,$9,0*
20,1,$1+$1,$8,$9,$2,$3,0*%
G04 Aperture macros list end*
%ADD10RoundRect,0.218750X0.256250X-0.218750X0.256250X0.218750X-0.256250X0.218750X-0.256250X-0.218750X0*%
%ADD11R,1.700000X1.700000*%
%ADD12O,1.700000X1.700000*%
%ADD13C,4.300000*%
%ADD14C,1.700000*%
%ADD15C,3.400000*%
%ADD16C,0.750000*%
%ADD17C,0.900000*%
%ADD18O,1.000000X1.800000*%
%ADD19O,1.000000X2.200000*%
G04 APERTURE END LIST*
D10*
X30700000Y-39187500D03*
X30700000Y-37612500D03*
D11*
X-20220000Y3250000D03*
D12*
X-22760000Y3250000D03*
X-25300000Y3250000D03*
X-27840000Y3250000D03*
D13*
X66415523Y-14218956D03*
X8645485Y-8499999D03*
X-15977165Y-51506206D03*
D10*
X34700000Y-39187500D03*
X34700000Y-37612500D03*
D13*
X59947564Y-45141804D03*
D14*
X23500000Y-32000000D03*
D15*
X18000000Y-32000000D03*
D14*
X12500000Y-32000000D03*
X5500000Y0D03*
D15*
X0Y0D03*
D14*
X-5500000Y0D03*
X5500000Y-34000000D03*
D15*
X0Y-34000000D03*
D14*
X-5500000Y-34000000D03*
X61834950Y-614997D03*
D15*
X56348348Y-231336D03*
D14*
X50861746Y152325D03*
X78777265Y-33660917D03*
D15*
X73360822Y-32705852D03*
D14*
X67944379Y-31750787D03*
X21197063Y-49965363D03*
D15*
X15717992Y-50444720D03*
D14*
X10238921Y-50924077D03*
X23500000Y1999999D03*
D15*
X18000000Y1999999D03*
D14*
X12500000Y1999999D03*
X59463230Y-34532174D03*
D15*
X53976628Y-34148513D03*
D14*
X48490026Y-33764852D03*
X-21033166Y-62083391D03*
D15*
X-23699619Y-57272983D03*
D14*
X-26366072Y-52462575D03*
X23500000Y-15000000D03*
D15*
X18000000Y-15000000D03*
D14*
X12500000Y-15000000D03*
D16*
X18000000Y8215000D03*
X18000000Y10965000D03*
D14*
X75825246Y-50402649D03*
D15*
X70408803Y-49447584D03*
D14*
X64992360Y-48492519D03*
D17*
X-31530000Y-12600000D03*
X-31530000Y-9600000D03*
D14*
X41500000Y-8000000D03*
D15*
X36000000Y-8000000D03*
D14*
X30500000Y-8000000D03*
X1660838Y-52591488D03*
D15*
X-3598838Y-54199532D03*
D14*
X-8858514Y-55807576D03*
X41500000Y9000000D03*
D15*
X36000000Y9000000D03*
D14*
X30500000Y9000000D03*
D18*
X-491700Y6503000D03*
D19*
X-491700Y10303000D03*
X-11642300Y10303000D03*
D18*
X-11642600Y6503000D03*
D14*
X60649090Y-17573585D03*
D15*
X55162488Y-17189924D03*
D14*
X49675886Y-16806263D03*
X41500000Y-25000000D03*
D15*
X36000000Y-25000000D03*
D14*
X30500000Y-25000000D03*
X5500000Y-17000000D03*
D15*
X0Y-17000000D03*
D14*
X-5500000Y-17000000D03*
X81729284Y-16919185D03*
D15*
X76312841Y-15964120D03*
D14*
X70896398Y-15009055D03*
M02*
