G04 #@! TF.GenerationSoftware,KiCad,Pcbnew,8.0.4*
G04 #@! TF.CreationDate,2024-10-20T02:46:56-03:00*
G04 #@! TF.ProjectId,carpo_right,63617270-6f5f-4726-9967-68742e6b6963,rev?*
G04 #@! TF.SameCoordinates,PX7b6f01cPY41b54a0*
G04 #@! TF.FileFunction,Legend,Top*
G04 #@! TF.FilePolarity,Positive*
%FSLAX46Y46*%
G04 Gerber Fmt 4.6, Leading zero omitted, Abs format (unit mm)*
G04 Created by KiCad (PCBNEW 8.0.4) date 2024-10-20 02:46:56*
%MOMM*%
%LPD*%
G01*
G04 APERTURE LIST*
G04 Aperture macros list*
%AMRoundRect*
0 Rectangle with rounded corners*
0 $1 Rounding radius*
0 $2 $3 $4 $5 $6 $7 $8 $9 X,Y pos of 4 corners*
0 Add a 4 corners polygon primitive as box body*
4,1,4,$2,$3,$4,$5,$6,$7,$8,$9,$2,$3,0*
0 Add four circle primitives for the rounded corners*
1,1,$1+$1,$2,$3*
1,1,$1+$1,$4,$5*
1,1,$1+$1,$6,$7*
1,1,$1+$1,$8,$9*
0 Add four rect primitives between the rounded corners*
20,1,$1+$1,$2,$3,$4,$5,0*
20,1,$1+$1,$4,$5,$6,$7,0*
20,1,$1+$1,$6,$7,$8,$9,0*
20,1,$1+$1,$8,$9,$2,$3,0*%
G04 Aperture macros list end*
%ADD10C,0.000000*%
%ADD11C,0.200000*%
%ADD12C,0.150000*%
%ADD13C,0.120000*%
%ADD14RoundRect,0.218750X0.256250X-0.218750X0.256250X0.218750X-0.256250X0.218750X-0.256250X-0.218750X0*%
%ADD15R,1.700000X1.700000*%
%ADD16O,1.700000X1.700000*%
%ADD17C,4.300000*%
%ADD18C,1.700000*%
%ADD19C,3.400000*%
%ADD20C,0.750000*%
%ADD21C,0.900000*%
%ADD22O,1.000000X1.800000*%
%ADD23O,1.000000X2.200000*%
G04 APERTURE END LIST*
D10*
G36*
X50058710Y-47655988D02*
G01*
X50112951Y-47661250D01*
X50167829Y-47669483D01*
X50223502Y-47680849D01*
X50276366Y-47694774D01*
X50326444Y-47711200D01*
X50373761Y-47730063D01*
X50418338Y-47751302D01*
X50460200Y-47774858D01*
X50499371Y-47800668D01*
X50535873Y-47828673D01*
X50569731Y-47858811D01*
X50600968Y-47891020D01*
X50629606Y-47925240D01*
X50655670Y-47961411D01*
X50679185Y-47999470D01*
X50700172Y-48039356D01*
X50718656Y-48081010D01*
X50734660Y-48124370D01*
X50748208Y-48169375D01*
X50759322Y-48215963D01*
X50768026Y-48264074D01*
X50774345Y-48313647D01*
X50778302Y-48364621D01*
X50779920Y-48416935D01*
X50779222Y-48470527D01*
X50776233Y-48525337D01*
X50770976Y-48581304D01*
X50763473Y-48638367D01*
X50753750Y-48696465D01*
X50741828Y-48755536D01*
X50727733Y-48815520D01*
X50711486Y-48876356D01*
X50693113Y-48937983D01*
X50672636Y-49000339D01*
X50624416Y-49124049D01*
X50570615Y-49242246D01*
X50511422Y-49354410D01*
X50447029Y-49460025D01*
X50377625Y-49558571D01*
X50303403Y-49649529D01*
X50224551Y-49732383D01*
X50141261Y-49806612D01*
X50098010Y-49840330D01*
X50053721Y-49871699D01*
X50008419Y-49900652D01*
X49962125Y-49927124D01*
X49914865Y-49951052D01*
X49866662Y-49972372D01*
X49817540Y-49991016D01*
X49767523Y-50006920D01*
X49716633Y-50020021D01*
X49664896Y-50030254D01*
X49612336Y-50037553D01*
X49558974Y-50041852D01*
X49504837Y-50043089D01*
X49449948Y-50041198D01*
X49394329Y-50036114D01*
X49338006Y-50027772D01*
X49284918Y-50016921D01*
X49234319Y-50003560D01*
X49186205Y-49987740D01*
X49140570Y-49969508D01*
X49097411Y-49948913D01*
X49056721Y-49926007D01*
X49018499Y-49900835D01*
X48982736Y-49873449D01*
X48949429Y-49843896D01*
X48918573Y-49812226D01*
X48890164Y-49778488D01*
X48864197Y-49742731D01*
X48840667Y-49705003D01*
X48819569Y-49665355D01*
X48800899Y-49623834D01*
X48784650Y-49580490D01*
X48770820Y-49535372D01*
X48759403Y-49488528D01*
X48750394Y-49440008D01*
X48743789Y-49389861D01*
X48739583Y-49338136D01*
X48737770Y-49284881D01*
X48738347Y-49230147D01*
X48741308Y-49173981D01*
X48746650Y-49116433D01*
X48754366Y-49057551D01*
X48764452Y-48997386D01*
X48776904Y-48935984D01*
X48791716Y-48873396D01*
X48808885Y-48809673D01*
X48828404Y-48744859D01*
X48850270Y-48679007D01*
X48898964Y-48550628D01*
X48953062Y-48429446D01*
X49012368Y-48315784D01*
X49076686Y-48209965D01*
X49145820Y-48112311D01*
X49219572Y-48023148D01*
X49297746Y-47942797D01*
X49380144Y-47871580D01*
X49422866Y-47839498D01*
X49466571Y-47809822D01*
X49511234Y-47782591D01*
X49556829Y-47757845D01*
X49603333Y-47735625D01*
X49650722Y-47715972D01*
X49698971Y-47698927D01*
X49748054Y-47684527D01*
X49797948Y-47672816D01*
X49848626Y-47663833D01*
X49900067Y-47657618D01*
X49952244Y-47654212D01*
X50005135Y-47653655D01*
X50058710Y-47655988D01*
G37*
G36*
X40248310Y-44491835D02*
G01*
X54833275Y-47063558D01*
X55093269Y-47137061D01*
X55328074Y-47258044D01*
X55530712Y-47419176D01*
X55696726Y-47613761D01*
X55822843Y-47836404D01*
X55904904Y-48081840D01*
X55938296Y-48343843D01*
X55918387Y-48613380D01*
X55196640Y-52706611D01*
X55123170Y-52966654D01*
X55002181Y-53201435D01*
X54841116Y-53404051D01*
X54646466Y-53570085D01*
X54423911Y-53696156D01*
X54178375Y-53778311D01*
X53916361Y-53811643D01*
X53646907Y-53791789D01*
X40676050Y-51504677D01*
X47149798Y-51504677D01*
X47824142Y-51623582D01*
X48454996Y-49839494D01*
X48495545Y-49846644D01*
X48518524Y-49943012D01*
X48533841Y-49995760D01*
X48552604Y-50050601D01*
X48575485Y-50106823D01*
X48603153Y-50163711D01*
X48618991Y-50192181D01*
X48636280Y-50220553D01*
X48655099Y-50248734D01*
X48675535Y-50276635D01*
X48697671Y-50304169D01*
X48721591Y-50331246D01*
X48747379Y-50357777D01*
X48775118Y-50383673D01*
X48804893Y-50408844D01*
X48836787Y-50433202D01*
X48870884Y-50456657D01*
X48907267Y-50479120D01*
X48946021Y-50500503D01*
X48987231Y-50520715D01*
X49030979Y-50539668D01*
X49077348Y-50557274D01*
X49126425Y-50573442D01*
X49178291Y-50588083D01*
X49233032Y-50601109D01*
X49290729Y-50612430D01*
X49369376Y-50624275D01*
X49447946Y-50632087D01*
X49526355Y-50635895D01*
X49604520Y-50635725D01*
X49682356Y-50631607D01*
X49759779Y-50623565D01*
X49836704Y-50611627D01*
X49913050Y-50595823D01*
X49988730Y-50576177D01*
X50063661Y-50552718D01*
X50137759Y-50525473D01*
X50210941Y-50494471D01*
X50283121Y-50459736D01*
X50354216Y-50421298D01*
X50424142Y-50379184D01*
X50492815Y-50333420D01*
X50560152Y-50284035D01*
X50626067Y-50231055D01*
X50690477Y-50174508D01*
X50753297Y-50114420D01*
X50814445Y-50050821D01*
X50873837Y-49983737D01*
X50931385Y-49913195D01*
X50942220Y-49898786D01*
X51506454Y-49898786D01*
X51508758Y-49983335D01*
X51515267Y-50065831D01*
X51525951Y-50146198D01*
X51540777Y-50224361D01*
X51559718Y-50300245D01*
X51582740Y-50373774D01*
X51609815Y-50444873D01*
X51640913Y-50513467D01*
X51676000Y-50579480D01*
X51715048Y-50642838D01*
X51758025Y-50703465D01*
X51804901Y-50761288D01*
X51855646Y-50816228D01*
X51910229Y-50868212D01*
X51968620Y-50917164D01*
X52030787Y-50963011D01*
X52096700Y-51005675D01*
X52166329Y-51045082D01*
X52239643Y-51081155D01*
X52316610Y-51113822D01*
X52397202Y-51143006D01*
X52481387Y-51168632D01*
X52569135Y-51190624D01*
X52660415Y-51208909D01*
X52750194Y-51222637D01*
X52839339Y-51232095D01*
X52927775Y-51237332D01*
X53015426Y-51238400D01*
X53102219Y-51235349D01*
X53188077Y-51228231D01*
X53272925Y-51217097D01*
X53356690Y-51201998D01*
X53439296Y-51182984D01*
X53520666Y-51160107D01*
X53600728Y-51133419D01*
X53679406Y-51102970D01*
X53756624Y-51068811D01*
X53832306Y-51030994D01*
X53906380Y-50989568D01*
X53978770Y-50944586D01*
X54049401Y-50896098D01*
X54118196Y-50844156D01*
X54185082Y-50788811D01*
X54249984Y-50730113D01*
X54312826Y-50668114D01*
X54373533Y-50602865D01*
X54432031Y-50534417D01*
X54488245Y-50462820D01*
X54542099Y-50388127D01*
X54593519Y-50310388D01*
X54642428Y-50229655D01*
X54688753Y-50145977D01*
X54732418Y-50059406D01*
X54773349Y-49969994D01*
X54811470Y-49877792D01*
X54846706Y-49782850D01*
X54879040Y-49683925D01*
X54906918Y-49586490D01*
X54930374Y-49490620D01*
X54949440Y-49396390D01*
X54964146Y-49303874D01*
X54974525Y-49213145D01*
X54980610Y-49124276D01*
X54982432Y-49037345D01*
X54980023Y-48952423D01*
X54973415Y-48869585D01*
X54962641Y-48788907D01*
X54947731Y-48710460D01*
X54928719Y-48634321D01*
X54905637Y-48560562D01*
X54878516Y-48489259D01*
X54847388Y-48420485D01*
X54812286Y-48354315D01*
X54773240Y-48290823D01*
X54730285Y-48230083D01*
X54683450Y-48172168D01*
X54632769Y-48117154D01*
X54578274Y-48065115D01*
X54519995Y-48016124D01*
X54457967Y-47970256D01*
X54392220Y-47927586D01*
X54322787Y-47888186D01*
X54249698Y-47852132D01*
X54172987Y-47819497D01*
X54092687Y-47790358D01*
X54008827Y-47764785D01*
X53921441Y-47742854D01*
X53830561Y-47724641D01*
X53740367Y-47710839D01*
X53650836Y-47701315D01*
X53562039Y-47696018D01*
X53474052Y-47694900D01*
X53386951Y-47697908D01*
X53300810Y-47704996D01*
X53215703Y-47716112D01*
X53131705Y-47731206D01*
X53048892Y-47750229D01*
X52967337Y-47773131D01*
X52887117Y-47799862D01*
X52808305Y-47830372D01*
X52730977Y-47864611D01*
X52655206Y-47902531D01*
X52581069Y-47944079D01*
X52508640Y-47989208D01*
X52437993Y-48037867D01*
X52369205Y-48090006D01*
X52302347Y-48145576D01*
X52237497Y-48204526D01*
X52174729Y-48266807D01*
X52114118Y-48332369D01*
X52055738Y-48401162D01*
X51999665Y-48473136D01*
X51945972Y-48548242D01*
X51894735Y-48626429D01*
X51846029Y-48707648D01*
X51799928Y-48791850D01*
X51756508Y-48878983D01*
X51715843Y-48968999D01*
X51678007Y-49061848D01*
X51643077Y-49157478D01*
X51610639Y-49255750D01*
X51582651Y-49352570D01*
X51559082Y-49447863D01*
X51539901Y-49541554D01*
X51525079Y-49633566D01*
X51514584Y-49723825D01*
X51508386Y-49812257D01*
X51506454Y-49898786D01*
X50942220Y-49898786D01*
X50987011Y-49839222D01*
X51040625Y-49761847D01*
X51092148Y-49681095D01*
X51141493Y-49596996D01*
X51188576Y-49509575D01*
X51202174Y-49482003D01*
X51233315Y-49418860D01*
X51275623Y-49324879D01*
X51315420Y-49227660D01*
X51352618Y-49127229D01*
X51386269Y-49025990D01*
X51415457Y-48926796D01*
X51440243Y-48829693D01*
X51460686Y-48734732D01*
X51476843Y-48641957D01*
X51488776Y-48551419D01*
X51496544Y-48463164D01*
X51500205Y-48377241D01*
X51499818Y-48293698D01*
X51495443Y-48212581D01*
X51487140Y-48133940D01*
X51474968Y-48057823D01*
X51458984Y-47984277D01*
X51439250Y-47913350D01*
X51415824Y-47845090D01*
X51388764Y-47779545D01*
X51358133Y-47716763D01*
X51323987Y-47656792D01*
X51286387Y-47599679D01*
X51245390Y-47545473D01*
X51201058Y-47494221D01*
X51153448Y-47445973D01*
X51102620Y-47400774D01*
X51048635Y-47358674D01*
X50991549Y-47319721D01*
X50931424Y-47283961D01*
X50868318Y-47251443D01*
X50802290Y-47222216D01*
X50733399Y-47196326D01*
X50661707Y-47173822D01*
X50587269Y-47154751D01*
X50510147Y-47139163D01*
X50450682Y-47129844D01*
X50392804Y-47123070D01*
X50336494Y-47118727D01*
X50281735Y-47116705D01*
X50228511Y-47116895D01*
X50176802Y-47119184D01*
X50126591Y-47123462D01*
X50077862Y-47129617D01*
X49984776Y-47147119D01*
X49897405Y-47170803D01*
X49815607Y-47199782D01*
X49739243Y-47233170D01*
X49668170Y-47270081D01*
X49602252Y-47309627D01*
X49541345Y-47350922D01*
X49485310Y-47393080D01*
X49434007Y-47435214D01*
X49387296Y-47476437D01*
X49307087Y-47552605D01*
X49250677Y-47542658D01*
X49442198Y-46997362D01*
X48783621Y-46881237D01*
X47149798Y-51504677D01*
X40676050Y-51504677D01*
X39061941Y-51220066D01*
X38801852Y-51146547D01*
X38567039Y-51025611D01*
X38364503Y-50864449D01*
X38198399Y-50669847D01*
X38072369Y-50447268D01*
X37990221Y-50201767D01*
X37956833Y-49939765D01*
X37976727Y-49670276D01*
X38008575Y-49489657D01*
X38839470Y-49489657D01*
X38844778Y-50315882D01*
X39094923Y-50359990D01*
X39114458Y-50334349D01*
X39418568Y-50334349D01*
X39418799Y-50340517D01*
X39419333Y-50346611D01*
X39420165Y-50352618D01*
X39421292Y-50358532D01*
X39422708Y-50364343D01*
X39424408Y-50370043D01*
X39426386Y-50375622D01*
X39428639Y-50381073D01*
X39431160Y-50386385D01*
X39433945Y-50391550D01*
X39436989Y-50396559D01*
X39440287Y-50401405D01*
X39443834Y-50406077D01*
X39447625Y-50410565D01*
X39451655Y-50414863D01*
X39455919Y-50418962D01*
X39460412Y-50422851D01*
X39465129Y-50426523D01*
X39470064Y-50429968D01*
X39475214Y-50433178D01*
X39480573Y-50436143D01*
X39486135Y-50438856D01*
X39491897Y-50441307D01*
X39497853Y-50443486D01*
X39503998Y-50445387D01*
X39510327Y-50446999D01*
X39516834Y-50448314D01*
X39522963Y-50449227D01*
X39529126Y-50449818D01*
X39535310Y-50450091D01*
X39541506Y-50450054D01*
X39547701Y-50449712D01*
X39553882Y-50449069D01*
X39560040Y-50448135D01*
X39566162Y-50446913D01*
X39572237Y-50445409D01*
X39578253Y-50443630D01*
X39584199Y-50441581D01*
X39590063Y-50439268D01*
X39595833Y-50436698D01*
X39601497Y-50433877D01*
X39607046Y-50430809D01*
X39612465Y-50427501D01*
X39617746Y-50423959D01*
X39622874Y-50420189D01*
X39627841Y-50416198D01*
X39632631Y-50411989D01*
X39637237Y-50407570D01*
X39641643Y-50402947D01*
X39645841Y-50398126D01*
X39649818Y-50393112D01*
X39653563Y-50387912D01*
X39657064Y-50382530D01*
X39660309Y-50376974D01*
X39663287Y-50371249D01*
X39665986Y-50365361D01*
X39668395Y-50359317D01*
X39670502Y-50353121D01*
X39672295Y-50346780D01*
X39673774Y-50340532D01*
X39674898Y-50334306D01*
X39675675Y-50328111D01*
X39676113Y-50321954D01*
X39676218Y-50315848D01*
X39675998Y-50309800D01*
X39675459Y-50303820D01*
X39674609Y-50297917D01*
X39673455Y-50292100D01*
X39672004Y-50286379D01*
X39670263Y-50280763D01*
X39668240Y-50275262D01*
X39665941Y-50269884D01*
X39663372Y-50264639D01*
X39660543Y-50259537D01*
X39657459Y-50254586D01*
X39654128Y-50249797D01*
X39650557Y-50245177D01*
X39646753Y-50240737D01*
X39642724Y-50236487D01*
X39638476Y-50232434D01*
X39634015Y-50228590D01*
X39629350Y-50224962D01*
X39624488Y-50221560D01*
X39619435Y-50218393D01*
X39614200Y-50215473D01*
X39608788Y-50212805D01*
X39603208Y-50210402D01*
X39597465Y-50208271D01*
X39591568Y-50206423D01*
X39585523Y-50204866D01*
X39579337Y-50203610D01*
X39572840Y-50202626D01*
X39566344Y-50201963D01*
X39559857Y-50201615D01*
X39553391Y-50201573D01*
X39546954Y-50201835D01*
X39540558Y-50202394D01*
X39534214Y-50203246D01*
X39527930Y-50204382D01*
X39521718Y-50205798D01*
X39515588Y-50207490D01*
X39509550Y-50209449D01*
X39503614Y-50211673D01*
X39497790Y-50214153D01*
X39492089Y-50216885D01*
X39486521Y-50219863D01*
X39481096Y-50223082D01*
X39475826Y-50226536D01*
X39470717Y-50230219D01*
X39465784Y-50234126D01*
X39461035Y-50238250D01*
X39456481Y-50242587D01*
X39452131Y-50247130D01*
X39447996Y-50251874D01*
X39444086Y-50256813D01*
X39440412Y-50261942D01*
X39436984Y-50267254D01*
X39433811Y-50272745D01*
X39430906Y-50278407D01*
X39428277Y-50284237D01*
X39425933Y-50290229D01*
X39423888Y-50296375D01*
X39422150Y-50302672D01*
X39420786Y-50309089D01*
X39419751Y-50315474D01*
X39419039Y-50321818D01*
X39418647Y-50328113D01*
X39418568Y-50334349D01*
X39114458Y-50334349D01*
X39167702Y-50264463D01*
X39543296Y-49771477D01*
X39849655Y-49771477D01*
X40146584Y-49665902D01*
X40152873Y-49667011D01*
X39860755Y-50495027D01*
X40086391Y-50534812D01*
X40177893Y-50275343D01*
X40321594Y-49867856D01*
X45463543Y-49867856D01*
X46137887Y-49986761D01*
X46858299Y-47932425D01*
X46874270Y-47891806D01*
X46891935Y-47852286D01*
X46911243Y-47813897D01*
X46932142Y-47776663D01*
X46954581Y-47740617D01*
X46978508Y-47705786D01*
X47003873Y-47672199D01*
X47030621Y-47639884D01*
X47058705Y-47608871D01*
X47088071Y-47579189D01*
X47118668Y-47550865D01*
X47150444Y-47523930D01*
X47183348Y-47498412D01*
X47217329Y-47474339D01*
X47252334Y-47451741D01*
X47288314Y-47430646D01*
X47325216Y-47411083D01*
X47362988Y-47393081D01*
X47401579Y-47376668D01*
X47440937Y-47361875D01*
X47481012Y-47348728D01*
X47521751Y-47337257D01*
X47563104Y-47327492D01*
X47605019Y-47319460D01*
X47647443Y-47313190D01*
X47690326Y-47308712D01*
X47733616Y-47306054D01*
X47777263Y-47305245D01*
X47821214Y-47306313D01*
X47865417Y-47309288D01*
X47909822Y-47314198D01*
X47954376Y-47321074D01*
X48007893Y-47331639D01*
X48060955Y-47344112D01*
X48112259Y-47357853D01*
X48160506Y-47372227D01*
X48204393Y-47386596D01*
X48242619Y-47400322D01*
X48273883Y-47412770D01*
X48296883Y-47423299D01*
X48518876Y-46797348D01*
X48505519Y-46792507D01*
X48490894Y-46787702D01*
X48458445Y-46778252D01*
X48422734Y-46769100D01*
X48384967Y-46760351D01*
X48346348Y-46752107D01*
X48308084Y-46744470D01*
X48237438Y-46731435D01*
X48161078Y-46720728D01*
X48084436Y-46715399D01*
X48007815Y-46715367D01*
X47931513Y-46720552D01*
X47855831Y-46730876D01*
X47781070Y-46746258D01*
X47707530Y-46766616D01*
X47635510Y-46791873D01*
X47565313Y-46821948D01*
X47497237Y-46856761D01*
X47431585Y-46896233D01*
X47368654Y-46940282D01*
X47308747Y-46988831D01*
X47252164Y-47041797D01*
X47199204Y-47099103D01*
X47150169Y-47160667D01*
X47114082Y-47154304D01*
X47303618Y-46620273D01*
X46651785Y-46505337D01*
X45463543Y-49867856D01*
X40321594Y-49867856D01*
X40451716Y-49498877D01*
X40239568Y-49461470D01*
X39918291Y-49577270D01*
X39849655Y-49771477D01*
X39543296Y-49771477D01*
X39579578Y-49723855D01*
X39649225Y-49632439D01*
X39405920Y-49589538D01*
X39043859Y-50116181D01*
X39035473Y-50114702D01*
X39065649Y-49529539D01*
X38839470Y-49489657D01*
X38008575Y-49489657D01*
X38033629Y-49347566D01*
X38318599Y-47731421D01*
X39175750Y-47731421D01*
X39177230Y-47814099D01*
X39182798Y-47894926D01*
X39192441Y-47973814D01*
X39206148Y-48050680D01*
X39223905Y-48125437D01*
X39245702Y-48198003D01*
X39271525Y-48268290D01*
X39301361Y-48336213D01*
X39335201Y-48401687D01*
X39373030Y-48464628D01*
X39414837Y-48524949D01*
X39460609Y-48582566D01*
X39510335Y-48637394D01*
X39564000Y-48689347D01*
X39621596Y-48738341D01*
X39683107Y-48784289D01*
X39748523Y-48827107D01*
X39817831Y-48866710D01*
X39891018Y-48903011D01*
X39968073Y-48935928D01*
X40048984Y-48965373D01*
X40133737Y-48991262D01*
X40222321Y-49013509D01*
X40314725Y-49032030D01*
X40390903Y-49043987D01*
X40466314Y-49052896D01*
X40540910Y-49058808D01*
X40614643Y-49061772D01*
X40759338Y-49059058D01*
X40900026Y-49045157D01*
X41036333Y-49020468D01*
X41167884Y-48985391D01*
X41294309Y-48940329D01*
X41415232Y-48885682D01*
X41530281Y-48821851D01*
X41639082Y-48749237D01*
X41741260Y-48668241D01*
X41754294Y-48656057D01*
X42271379Y-48656057D01*
X42271897Y-48709606D01*
X42275581Y-48761789D01*
X42282367Y-48812581D01*
X42292195Y-48861956D01*
X42304999Y-48909890D01*
X42320721Y-48956357D01*
X42339295Y-49001334D01*
X42360661Y-49044794D01*
X42384755Y-49086712D01*
X42411516Y-49127064D01*
X42440879Y-49165824D01*
X42472784Y-49202967D01*
X42507168Y-49238470D01*
X42543969Y-49272304D01*
X42583123Y-49304447D01*
X42624570Y-49334873D01*
X42668244Y-49363557D01*
X42714087Y-49390474D01*
X42762033Y-49415599D01*
X42812021Y-49438907D01*
X42863989Y-49460373D01*
X42917874Y-49479971D01*
X42973613Y-49497677D01*
X43031145Y-49513466D01*
X43090406Y-49527312D01*
X43151335Y-49539191D01*
X43256950Y-49554379D01*
X43358935Y-49562384D01*
X43457212Y-49563679D01*
X43551704Y-49558738D01*
X43642336Y-49548033D01*
X43729029Y-49532039D01*
X43811708Y-49511229D01*
X43890296Y-49486077D01*
X43964715Y-49457055D01*
X44034889Y-49424638D01*
X44100741Y-49389299D01*
X44162196Y-49351511D01*
X44219175Y-49311750D01*
X44271602Y-49270486D01*
X44319401Y-49228194D01*
X44362493Y-49185348D01*
X44389559Y-49190121D01*
X44224847Y-49649441D01*
X44883422Y-49765565D01*
X45670259Y-47532232D01*
X45699486Y-47442350D01*
X45722700Y-47356171D01*
X45740128Y-47273623D01*
X45751993Y-47194627D01*
X45758525Y-47119112D01*
X45759949Y-47047002D01*
X45756490Y-46978221D01*
X45748374Y-46912695D01*
X45735828Y-46850350D01*
X45719078Y-46791113D01*
X45698349Y-46734905D01*
X45673868Y-46681654D01*
X45645861Y-46631286D01*
X45614554Y-46583725D01*
X45580172Y-46538896D01*
X45542944Y-46496725D01*
X45503093Y-46457138D01*
X45460845Y-46420058D01*
X45416429Y-46385413D01*
X45370068Y-46353126D01*
X45321990Y-46323125D01*
X45272420Y-46295333D01*
X45169711Y-46246078D01*
X45063747Y-46204766D01*
X44956337Y-46170798D01*
X44849292Y-46143579D01*
X44744417Y-46122509D01*
X44626408Y-46104785D01*
X44507764Y-46093243D01*
X44388894Y-46088148D01*
X44270208Y-46089762D01*
X44152118Y-46098349D01*
X44035033Y-46114171D01*
X43919364Y-46137492D01*
X43805520Y-46168575D01*
X43693912Y-46207683D01*
X43584952Y-46255079D01*
X43479048Y-46311027D01*
X43376609Y-46375790D01*
X43278050Y-46449630D01*
X43183777Y-46532811D01*
X43138377Y-46577987D01*
X43094203Y-46625596D01*
X43051305Y-46675673D01*
X43009736Y-46728250D01*
X43588735Y-46979170D01*
X43625825Y-46938344D01*
X43666644Y-46898738D01*
X43711101Y-46860682D01*
X43759104Y-46824502D01*
X43810562Y-46790526D01*
X43837557Y-46774466D01*
X43865382Y-46759081D01*
X43894024Y-46744411D01*
X43923471Y-46730496D01*
X43953715Y-46717379D01*
X43984740Y-46705099D01*
X44016537Y-46693698D01*
X44049095Y-46683216D01*
X44082401Y-46673695D01*
X44116445Y-46665176D01*
X44151214Y-46657700D01*
X44186697Y-46651307D01*
X44222883Y-46646038D01*
X44259761Y-46641936D01*
X44297317Y-46639039D01*
X44335542Y-46637391D01*
X44374424Y-46637030D01*
X44413952Y-46638000D01*
X44454113Y-46640339D01*
X44494896Y-46644090D01*
X44536290Y-46649293D01*
X44578283Y-46655990D01*
X44617996Y-46663685D01*
X44655946Y-46672446D01*
X44692139Y-46682261D01*
X44726583Y-46693117D01*
X44759286Y-46705005D01*
X44790253Y-46717909D01*
X44819494Y-46731820D01*
X44847015Y-46746725D01*
X44872822Y-46762612D01*
X44896924Y-46779470D01*
X44919328Y-46797286D01*
X44940040Y-46816048D01*
X44959068Y-46835746D01*
X44976419Y-46856365D01*
X44992101Y-46877894D01*
X45006120Y-46900323D01*
X45018483Y-46923638D01*
X45029199Y-46947829D01*
X45038274Y-46972881D01*
X45045716Y-46998785D01*
X45051530Y-47025528D01*
X45055727Y-47053097D01*
X45058311Y-47081482D01*
X45059290Y-47110670D01*
X45058671Y-47140649D01*
X45056463Y-47171407D01*
X45052672Y-47202933D01*
X45047303Y-47235214D01*
X45040367Y-47268239D01*
X45031870Y-47301995D01*
X45021817Y-47336470D01*
X45010218Y-47371653D01*
X45007432Y-47387452D01*
X44998919Y-47408553D01*
X44989363Y-47428060D01*
X44978724Y-47446024D01*
X44966962Y-47462500D01*
X44954040Y-47477543D01*
X44939918Y-47491204D01*
X44924556Y-47503538D01*
X44907914Y-47514598D01*
X44889956Y-47524438D01*
X44870639Y-47533111D01*
X44849927Y-47540671D01*
X44827779Y-47547171D01*
X44804156Y-47552665D01*
X44779019Y-47557206D01*
X44752328Y-47560849D01*
X44724045Y-47563646D01*
X44694130Y-47565651D01*
X44662545Y-47566917D01*
X44629249Y-47567499D01*
X44594204Y-47567450D01*
X44518708Y-47565671D01*
X44435743Y-47562010D01*
X44022928Y-47537105D01*
X43894370Y-47530566D01*
X43765465Y-47527086D01*
X43636952Y-47527571D01*
X43509569Y-47532929D01*
X43384058Y-47544066D01*
X43261154Y-47561890D01*
X43141600Y-47587309D01*
X43026133Y-47621228D01*
X42915493Y-47664556D01*
X42862214Y-47690031D01*
X42810418Y-47718199D01*
X42760199Y-47749172D01*
X42711648Y-47783064D01*
X42664859Y-47819988D01*
X42619923Y-47860059D01*
X42576933Y-47903388D01*
X42535980Y-47950090D01*
X42497159Y-48000278D01*
X42460560Y-48054066D01*
X42426276Y-48111567D01*
X42394401Y-48172893D01*
X42365025Y-48238159D01*
X42338242Y-48307477D01*
X42318456Y-48368697D01*
X42302211Y-48428701D01*
X42289443Y-48487463D01*
X42280089Y-48544961D01*
X42274089Y-48601167D01*
X42271379Y-48656057D01*
X41754294Y-48656057D01*
X41836444Y-48579264D01*
X41924258Y-48482704D01*
X41964773Y-48430215D01*
X42004331Y-48378967D01*
X42076289Y-48268450D01*
X42139757Y-48151556D01*
X41481175Y-48035430D01*
X41460588Y-48067525D01*
X41439140Y-48098531D01*
X41416853Y-48128436D01*
X41393755Y-48157233D01*
X41369866Y-48184913D01*
X41345214Y-48211469D01*
X41319820Y-48236889D01*
X41293708Y-48261168D01*
X41266905Y-48284296D01*
X41239432Y-48306264D01*
X41211314Y-48327065D01*
X41182576Y-48346687D01*
X41153242Y-48365127D01*
X41123335Y-48382371D01*
X41092880Y-48398415D01*
X41061900Y-48413246D01*
X41030421Y-48426860D01*
X40998465Y-48439245D01*
X40966057Y-48450395D01*
X40933221Y-48460298D01*
X40899981Y-48468950D01*
X40866362Y-48476339D01*
X40832387Y-48482458D01*
X40798079Y-48487297D01*
X40763466Y-48490850D01*
X40728568Y-48493106D01*
X40693410Y-48494058D01*
X40658017Y-48493697D01*
X40622413Y-48492015D01*
X40586622Y-48489002D01*
X40550667Y-48484650D01*
X40514574Y-48478951D01*
X40461946Y-48468240D01*
X40411481Y-48455073D01*
X40363196Y-48439487D01*
X40317111Y-48421526D01*
X40273244Y-48401229D01*
X40231616Y-48378636D01*
X40192244Y-48353789D01*
X40155147Y-48326727D01*
X40120345Y-48297490D01*
X40087855Y-48266120D01*
X40057698Y-48232656D01*
X40029891Y-48197139D01*
X40004455Y-48159610D01*
X39981406Y-48120107D01*
X39960765Y-48078673D01*
X39942550Y-48035347D01*
X39926781Y-47990171D01*
X39913476Y-47943183D01*
X39902654Y-47894425D01*
X39894333Y-47843937D01*
X39888533Y-47791760D01*
X39885272Y-47737934D01*
X39884571Y-47682499D01*
X39886446Y-47625494D01*
X39890918Y-47566962D01*
X39898005Y-47506943D01*
X39907725Y-47445476D01*
X39920099Y-47382603D01*
X39935144Y-47318362D01*
X39952880Y-47252797D01*
X39973325Y-47185945D01*
X39996498Y-47117848D01*
X40046352Y-46986556D01*
X40102614Y-46863333D01*
X40164901Y-46748401D01*
X40232829Y-46641982D01*
X40306017Y-46544299D01*
X40384079Y-46455572D01*
X40466633Y-46376025D01*
X40509475Y-46339763D01*
X40553297Y-46305879D01*
X40598050Y-46274400D01*
X40643687Y-46245355D01*
X40690159Y-46218771D01*
X40737420Y-46194677D01*
X40785420Y-46173099D01*
X40834112Y-46154065D01*
X40883449Y-46137604D01*
X40933382Y-46123743D01*
X40983863Y-46112509D01*
X41034845Y-46103932D01*
X41086280Y-46098037D01*
X41138120Y-46094853D01*
X41190315Y-46094407D01*
X41242821Y-46096729D01*
X41295587Y-46101844D01*
X41348567Y-46109782D01*
X41387993Y-46117545D01*
X41425918Y-46126637D01*
X41462353Y-46137019D01*
X41497305Y-46148652D01*
X41530782Y-46161498D01*
X41562793Y-46175515D01*
X41593348Y-46190665D01*
X41622455Y-46206909D01*
X41650121Y-46224207D01*
X41676357Y-46242520D01*
X41701170Y-46261808D01*
X41724571Y-46282033D01*
X41746565Y-46303154D01*
X41767164Y-46325133D01*
X41786374Y-46347930D01*
X41804206Y-46371506D01*
X41820667Y-46395821D01*
X41835765Y-46420835D01*
X41849512Y-46446511D01*
X41861913Y-46472808D01*
X41872978Y-46499687D01*
X41882716Y-46527109D01*
X41891135Y-46555034D01*
X41898245Y-46583423D01*
X41904052Y-46612236D01*
X41908568Y-46641435D01*
X41913755Y-46700830D01*
X41913875Y-46761293D01*
X41908997Y-46822511D01*
X42565299Y-46938235D01*
X42578991Y-46873780D01*
X42589371Y-46810202D01*
X42596473Y-46747549D01*
X42600332Y-46685874D01*
X42600987Y-46625222D01*
X42598467Y-46565646D01*
X42592813Y-46507194D01*
X42584055Y-46449916D01*
X42572231Y-46393862D01*
X42557375Y-46339083D01*
X42539523Y-46285625D01*
X42518710Y-46233541D01*
X42494970Y-46182878D01*
X42468338Y-46133688D01*
X42438851Y-46086019D01*
X42406542Y-46039921D01*
X42371447Y-45995444D01*
X42333601Y-45952638D01*
X42293040Y-45911551D01*
X42249797Y-45872234D01*
X42203908Y-45834736D01*
X42155409Y-45799108D01*
X42104334Y-45765396D01*
X42050719Y-45733654D01*
X41994598Y-45703930D01*
X41936006Y-45676272D01*
X41874979Y-45650732D01*
X41811552Y-45627358D01*
X41745760Y-45606201D01*
X41677637Y-45587309D01*
X41607219Y-45570733D01*
X41534542Y-45556522D01*
X41443052Y-45542597D01*
X41352178Y-45533145D01*
X41262002Y-45528104D01*
X41172603Y-45527407D01*
X41084062Y-45530992D01*
X40996460Y-45538794D01*
X40909877Y-45550752D01*
X40824395Y-45566800D01*
X40740094Y-45586875D01*
X40657055Y-45610914D01*
X40575356Y-45638852D01*
X40495081Y-45670625D01*
X40416310Y-45706170D01*
X40339122Y-45745425D01*
X40263599Y-45788324D01*
X40189821Y-45834804D01*
X40117869Y-45884801D01*
X40047824Y-45938253D01*
X39979766Y-45995094D01*
X39913775Y-46055261D01*
X39849933Y-46118692D01*
X39788321Y-46185320D01*
X39729017Y-46255085D01*
X39672104Y-46327921D01*
X39617663Y-46403765D01*
X39565772Y-46482552D01*
X39516514Y-46564220D01*
X39469969Y-46648705D01*
X39426218Y-46735942D01*
X39385340Y-46825870D01*
X39347418Y-46918423D01*
X39312531Y-47013537D01*
X39280870Y-47107966D01*
X39253394Y-47201225D01*
X39230091Y-47293228D01*
X39210950Y-47383890D01*
X39195957Y-47473125D01*
X39185101Y-47560849D01*
X39178369Y-47646976D01*
X39175750Y-47731421D01*
X38318599Y-47731421D01*
X38404938Y-47241768D01*
X38698474Y-45577044D01*
X38771959Y-45316955D01*
X38892944Y-45082172D01*
X39054096Y-44879621D01*
X39248660Y-44713523D01*
X39471304Y-44587469D01*
X39716738Y-44505345D01*
X39978761Y-44471965D01*
X40248310Y-44491835D01*
G37*
G36*
X53572218Y-48267324D02*
G01*
X53632082Y-48272752D01*
X53692777Y-48281725D01*
X53749197Y-48293315D01*
X53802605Y-48307601D01*
X53853037Y-48324506D01*
X53900532Y-48343952D01*
X53945126Y-48365862D01*
X53986859Y-48390159D01*
X54025769Y-48416766D01*
X54061893Y-48445606D01*
X54095269Y-48476602D01*
X54125935Y-48509675D01*
X54153929Y-48544750D01*
X54179289Y-48581749D01*
X54202053Y-48620595D01*
X54222258Y-48661210D01*
X54239943Y-48703517D01*
X54255146Y-48747441D01*
X54267905Y-48792901D01*
X54278256Y-48839822D01*
X54286239Y-48888127D01*
X54291892Y-48937739D01*
X54295252Y-48988579D01*
X54296356Y-49040571D01*
X54295244Y-49093639D01*
X54291953Y-49147704D01*
X54286521Y-49202689D01*
X54278986Y-49258518D01*
X54269385Y-49315112D01*
X54257757Y-49372395D01*
X54244139Y-49430291D01*
X54228570Y-49488720D01*
X54211088Y-49547607D01*
X54191730Y-49606874D01*
X54144878Y-49728436D01*
X54091659Y-49845561D01*
X54032288Y-49957589D01*
X53966982Y-50063858D01*
X53895955Y-50163709D01*
X53819421Y-50256481D01*
X53737597Y-50341515D01*
X53650698Y-50418148D01*
X53605412Y-50453109D01*
X53558938Y-50485722D01*
X53511302Y-50515905D01*
X53462532Y-50543575D01*
X53412655Y-50568651D01*
X53361696Y-50591048D01*
X53309684Y-50610685D01*
X53256646Y-50627479D01*
X53202607Y-50641348D01*
X53147595Y-50652208D01*
X53091638Y-50659978D01*
X53034761Y-50664575D01*
X52976991Y-50665917D01*
X52918356Y-50663921D01*
X52858882Y-50658503D01*
X52798596Y-50649582D01*
X52741768Y-50637934D01*
X52687973Y-50623618D01*
X52637176Y-50606714D01*
X52589338Y-50587294D01*
X52544422Y-50565436D01*
X52502389Y-50541216D01*
X52463203Y-50514710D01*
X52426825Y-50485993D01*
X52393218Y-50455141D01*
X52362345Y-50422231D01*
X52334168Y-50387339D01*
X52308648Y-50350540D01*
X52285749Y-50311911D01*
X52265432Y-50271527D01*
X52247660Y-50229465D01*
X52232396Y-50185800D01*
X52219601Y-50140608D01*
X52209239Y-50093966D01*
X52201271Y-50045949D01*
X52195661Y-49996634D01*
X52192369Y-49946095D01*
X52191358Y-49894411D01*
X52192591Y-49841655D01*
X52196031Y-49787905D01*
X52201638Y-49733236D01*
X52209377Y-49677725D01*
X52219209Y-49621446D01*
X52231096Y-49564477D01*
X52245002Y-49506892D01*
X52260887Y-49448769D01*
X52278716Y-49390183D01*
X52298449Y-49331210D01*
X52344514Y-49209432D01*
X52397080Y-49091969D01*
X52455925Y-48979505D01*
X52520833Y-48872717D01*
X52591582Y-48772288D01*
X52667954Y-48678897D01*
X52749732Y-48593225D01*
X52836693Y-48515950D01*
X52882051Y-48480675D01*
X52928622Y-48447754D01*
X52976380Y-48417274D01*
X53025297Y-48389318D01*
X53075347Y-48363972D01*
X53126501Y-48341320D01*
X53178733Y-48321449D01*
X53232014Y-48304441D01*
X53286318Y-48290385D01*
X53341617Y-48279363D01*
X53397884Y-48271460D01*
X53455091Y-48266763D01*
X53513211Y-48265356D01*
X53572218Y-48267324D01*
G37*
G36*
X44636902Y-48433742D02*
G01*
X44622843Y-48470823D01*
X44606958Y-48507301D01*
X44589286Y-48543117D01*
X44569867Y-48578216D01*
X44548741Y-48612540D01*
X44525947Y-48646032D01*
X44501523Y-48678636D01*
X44475511Y-48710295D01*
X44447948Y-48740952D01*
X44418874Y-48770549D01*
X44388329Y-48799030D01*
X44356353Y-48826338D01*
X44322984Y-48852416D01*
X44288262Y-48877207D01*
X44252226Y-48900653D01*
X44214916Y-48922700D01*
X44176370Y-48943289D01*
X44136629Y-48962363D01*
X44095733Y-48979865D01*
X44053719Y-48995739D01*
X44010628Y-49009926D01*
X43966498Y-49022372D01*
X43921371Y-49033019D01*
X43875284Y-49041810D01*
X43828277Y-49048686D01*
X43780390Y-49053593D01*
X43731662Y-49056474D01*
X43682132Y-49057269D01*
X43631839Y-49055924D01*
X43580825Y-49052382D01*
X43529126Y-49046584D01*
X43476784Y-49038475D01*
X43407342Y-49024161D01*
X43342113Y-49006461D01*
X43281323Y-48985428D01*
X43225195Y-48961114D01*
X43198951Y-48947745D01*
X43173957Y-48933574D01*
X43150242Y-48918612D01*
X43127833Y-48902862D01*
X43106760Y-48886333D01*
X43087049Y-48869031D01*
X43068731Y-48850963D01*
X43051832Y-48832134D01*
X43036380Y-48812553D01*
X43022404Y-48792226D01*
X43009932Y-48771158D01*
X42998994Y-48749358D01*
X42989615Y-48726832D01*
X42981825Y-48703586D01*
X42975652Y-48679627D01*
X42971124Y-48654962D01*
X42968269Y-48629598D01*
X42967115Y-48603540D01*
X42967692Y-48576797D01*
X42970026Y-48549375D01*
X42974147Y-48521280D01*
X42980081Y-48492518D01*
X42987857Y-48463098D01*
X42997505Y-48433024D01*
X43009491Y-48400953D01*
X43022914Y-48370510D01*
X43037735Y-48341656D01*
X43053914Y-48314358D01*
X43071412Y-48288577D01*
X43090186Y-48264279D01*
X43110199Y-48241425D01*
X43131409Y-48219982D01*
X43153777Y-48199909D01*
X43177263Y-48181173D01*
X43201828Y-48163736D01*
X43227430Y-48147563D01*
X43254030Y-48132616D01*
X43281589Y-48118861D01*
X43310065Y-48106258D01*
X43339419Y-48094774D01*
X43369611Y-48084370D01*
X43400601Y-48075011D01*
X43432351Y-48066660D01*
X43464817Y-48059282D01*
X43497962Y-48052838D01*
X43531745Y-48047294D01*
X43601065Y-48038756D01*
X43672458Y-48033377D01*
X43745604Y-48030866D01*
X43820184Y-48030931D01*
X43895877Y-48033282D01*
X44112775Y-48043051D01*
X44243980Y-48047425D01*
X44379108Y-48049329D01*
X44509720Y-48047164D01*
X44570696Y-48044059D01*
X44627379Y-48039337D01*
X44678716Y-48032799D01*
X44723650Y-48024246D01*
X44761127Y-48013479D01*
X44790093Y-48000297D01*
X44636902Y-48433742D01*
G37*
D11*
G36*
X-19772220Y-589160D02*
G01*
X-19807242Y-694224D01*
X-19874314Y-761296D01*
X-19945220Y-796749D01*
X-20113101Y-838720D01*
X-20231339Y-838720D01*
X-20399220Y-796749D01*
X-20470125Y-761297D01*
X-20537198Y-694224D01*
X-20572220Y-589159D01*
X-20572220Y-467292D01*
X-19772220Y-467292D01*
X-19772220Y-589160D01*
G37*
G36*
X-19461109Y-1149831D02*
G01*
X-20883331Y-1149831D01*
X-20883331Y-367292D01*
X-20772220Y-367292D01*
X-20772220Y-605387D01*
X-20771248Y-615260D01*
X-20771435Y-617895D01*
X-20770648Y-621358D01*
X-20770299Y-624896D01*
X-20769288Y-627337D01*
X-20767088Y-637010D01*
X-20719468Y-779868D01*
X-20711476Y-797768D01*
X-20709122Y-800482D01*
X-20707747Y-803801D01*
X-20695311Y-818955D01*
X-20600073Y-914193D01*
X-20592407Y-920484D01*
X-20590674Y-922482D01*
X-20587663Y-924377D01*
X-20584919Y-926629D01*
X-20582482Y-927638D01*
X-20574083Y-932925D01*
X-20478846Y-980544D01*
X-20477418Y-981090D01*
X-20476838Y-981520D01*
X-20468662Y-984441D01*
X-20460537Y-987550D01*
X-20459817Y-987601D01*
X-20458378Y-988115D01*
X-20267902Y-1035734D01*
X-20264521Y-1036234D01*
X-20263157Y-1036799D01*
X-20255807Y-1037522D01*
X-20248509Y-1038602D01*
X-20247051Y-1038384D01*
X-20243648Y-1038720D01*
X-20100791Y-1038720D01*
X-20097389Y-1038384D01*
X-20095930Y-1038602D01*
X-20088633Y-1037522D01*
X-20081282Y-1036799D01*
X-20079919Y-1036234D01*
X-20076537Y-1035734D01*
X-19886062Y-988115D01*
X-19884625Y-987601D01*
X-19883902Y-987550D01*
X-19875778Y-984441D01*
X-19867601Y-981520D01*
X-19867021Y-981089D01*
X-19865594Y-980544D01*
X-19770356Y-932925D01*
X-19761960Y-927639D01*
X-19759520Y-926629D01*
X-19756774Y-924375D01*
X-19753766Y-922482D01*
X-19752037Y-920487D01*
X-19744366Y-914193D01*
X-19649128Y-818955D01*
X-19636692Y-803801D01*
X-19635318Y-800482D01*
X-19632962Y-797767D01*
X-19624971Y-779867D01*
X-19577352Y-637010D01*
X-19575153Y-627337D01*
X-19574141Y-624896D01*
X-19573793Y-621358D01*
X-19573005Y-617895D01*
X-19573193Y-615260D01*
X-19572220Y-605387D01*
X-19572220Y-367292D01*
X-19574141Y-347783D01*
X-19589073Y-311735D01*
X-19616663Y-284145D01*
X-19652711Y-269213D01*
X-19672220Y-267292D01*
X-20672220Y-267292D01*
X-20691729Y-269213D01*
X-20727777Y-284145D01*
X-20755367Y-311735D01*
X-20770299Y-347783D01*
X-20772220Y-367292D01*
X-20883331Y-367292D01*
X-20883331Y115884D01*
X-20771976Y115884D01*
X-20770299Y102691D01*
X-20770299Y89390D01*
X-20767860Y83502D01*
X-20767056Y77177D01*
X-20760456Y65628D01*
X-20755367Y53342D01*
X-20750860Y48835D01*
X-20747697Y43300D01*
X-20737183Y35158D01*
X-20727777Y25752D01*
X-20721887Y23313D01*
X-20716848Y19410D01*
X-20704020Y15912D01*
X-20691729Y10820D01*
X-20681752Y9838D01*
X-20679205Y9143D01*
X-20677238Y9394D01*
X-20672220Y8899D01*
X-19672220Y8899D01*
X-19652711Y10820D01*
X-19616663Y25752D01*
X-19589073Y53342D01*
X-19574141Y89390D01*
X-19574141Y128408D01*
X-19589073Y164456D01*
X-19616663Y192046D01*
X-19652711Y206978D01*
X-19672220Y208899D01*
X-20295664Y208899D01*
X-19622606Y593503D01*
X-19618496Y596422D01*
X-19616663Y597180D01*
X-19614797Y599047D01*
X-19606621Y604850D01*
X-19598477Y615367D01*
X-19589073Y624770D01*
X-19586635Y630658D01*
X-19582730Y635699D01*
X-19579231Y648532D01*
X-19574141Y660818D01*
X-19574141Y667194D01*
X-19572464Y673343D01*
X-19574141Y686537D01*
X-19574141Y699836D01*
X-19576581Y705725D01*
X-19577384Y712049D01*
X-19583985Y723599D01*
X-19589073Y735884D01*
X-19593581Y740392D01*
X-19596743Y745926D01*
X-19607260Y754071D01*
X-19616663Y763474D01*
X-19622551Y765913D01*
X-19627592Y769817D01*
X-19640425Y773317D01*
X-19652711Y778406D01*
X-19662689Y779389D01*
X-19665235Y780083D01*
X-19667203Y779833D01*
X-19672220Y780327D01*
X-20672220Y780327D01*
X-20691729Y778406D01*
X-20727777Y763474D01*
X-20755367Y735884D01*
X-20770299Y699836D01*
X-20770299Y660818D01*
X-20755367Y624770D01*
X-20727777Y597180D01*
X-20691729Y582248D01*
X-20672220Y580327D01*
X-20048776Y580327D01*
X-20721834Y195723D01*
X-20725945Y192805D01*
X-20727777Y192046D01*
X-20729644Y190180D01*
X-20737819Y184376D01*
X-20745962Y173862D01*
X-20755367Y164456D01*
X-20757807Y158566D01*
X-20761709Y153527D01*
X-20765208Y140699D01*
X-20770299Y128408D01*
X-20770299Y122033D01*
X-20771976Y115884D01*
X-20883331Y115884D01*
X-20883331Y1394613D01*
X-20772220Y1394613D01*
X-20772220Y1299375D01*
X-20771248Y1289502D01*
X-20771435Y1286867D01*
X-20770648Y1283404D01*
X-20770299Y1279866D01*
X-20769288Y1277425D01*
X-20767088Y1267752D01*
X-20719468Y1124894D01*
X-20711476Y1106994D01*
X-20709122Y1104280D01*
X-20707747Y1100961D01*
X-20695311Y1085807D01*
X-20647692Y1038189D01*
X-20632539Y1025752D01*
X-20621981Y1021379D01*
X-20596490Y1010820D01*
X-20576981Y1008899D01*
X-20243648Y1008899D01*
X-20224139Y1010820D01*
X-20188091Y1025752D01*
X-20160501Y1053342D01*
X-20145569Y1089390D01*
X-20143648Y1108899D01*
X-20143648Y1299375D01*
X-20145569Y1318884D01*
X-20160501Y1354932D01*
X-20188091Y1382522D01*
X-20224139Y1397454D01*
X-20263157Y1397454D01*
X-20299205Y1382522D01*
X-20326795Y1354932D01*
X-20341727Y1318884D01*
X-20343648Y1299375D01*
X-20343648Y1208899D01*
X-20535559Y1208899D01*
X-20537198Y1210538D01*
X-20572220Y1315603D01*
X-20572220Y1378386D01*
X-20537198Y1483451D01*
X-20470125Y1550523D01*
X-20399220Y1585976D01*
X-20231339Y1627946D01*
X-20113101Y1627946D01*
X-19945220Y1585976D01*
X-19874314Y1550523D01*
X-19807242Y1483451D01*
X-19772220Y1378387D01*
X-19772220Y1275363D01*
X-19809282Y1201239D01*
X-19816288Y1182931D01*
X-19819054Y1144011D01*
X-19806715Y1106995D01*
X-19781151Y1077518D01*
X-19746252Y1060069D01*
X-19707332Y1057303D01*
X-19670316Y1069642D01*
X-19640839Y1095206D01*
X-19630396Y1111797D01*
X-19582777Y1207034D01*
X-19575771Y1225343D01*
X-19575517Y1228927D01*
X-19574141Y1232247D01*
X-19572220Y1251756D01*
X-19572220Y1394613D01*
X-19573193Y1404487D01*
X-19573005Y1407121D01*
X-19573793Y1410585D01*
X-19574141Y1414122D01*
X-19575153Y1416564D01*
X-19577352Y1426236D01*
X-19624971Y1569093D01*
X-19632962Y1586993D01*
X-19635318Y1589709D01*
X-19636692Y1593027D01*
X-19649128Y1608181D01*
X-19744366Y1703419D01*
X-19752037Y1709714D01*
X-19753766Y1711708D01*
X-19756774Y1713602D01*
X-19759520Y1715855D01*
X-19761960Y1716866D01*
X-19770356Y1722151D01*
X-19865594Y1769770D01*
X-19867021Y1770316D01*
X-19867601Y1770746D01*
X-19875778Y1773668D01*
X-19883902Y1776776D01*
X-19884625Y1776828D01*
X-19886062Y1777341D01*
X-20076537Y1824960D01*
X-20079919Y1825461D01*
X-20081282Y1826025D01*
X-20088633Y1826749D01*
X-20095930Y1827828D01*
X-20097389Y1827611D01*
X-20100791Y1827946D01*
X-20243648Y1827946D01*
X-20247051Y1827611D01*
X-20248509Y1827828D01*
X-20255807Y1826749D01*
X-20263157Y1826025D01*
X-20264521Y1825461D01*
X-20267902Y1824960D01*
X-20458378Y1777341D01*
X-20459817Y1776828D01*
X-20460537Y1776776D01*
X-20468662Y1773668D01*
X-20476838Y1770746D01*
X-20477418Y1770317D01*
X-20478846Y1769770D01*
X-20574083Y1722151D01*
X-20582482Y1716865D01*
X-20584919Y1715855D01*
X-20587663Y1713604D01*
X-20590674Y1711708D01*
X-20592407Y1709711D01*
X-20600073Y1703419D01*
X-20695311Y1608181D01*
X-20707747Y1593027D01*
X-20709122Y1589709D01*
X-20711476Y1586994D01*
X-20719468Y1569094D01*
X-20767088Y1426236D01*
X-20769288Y1416564D01*
X-20770299Y1414122D01*
X-20770648Y1410585D01*
X-20771435Y1407121D01*
X-20771248Y1404487D01*
X-20772220Y1394613D01*
X-20883331Y1394613D01*
X-20883331Y1939057D01*
X-19461109Y1939057D01*
X-19461109Y-1149831D01*
G37*
G36*
X-22001109Y-3006826D02*
G01*
X-23423331Y-3006826D01*
X-23423331Y-2801306D01*
X-23312072Y-2801306D01*
X-23302389Y-2839103D01*
X-23278978Y-2870318D01*
X-23245403Y-2890197D01*
X-23206777Y-2895715D01*
X-23168980Y-2886032D01*
X-23152220Y-2875863D01*
X-22650176Y-2499329D01*
X-22282931Y-2866574D01*
X-22267778Y-2879010D01*
X-22231729Y-2893941D01*
X-22192711Y-2893941D01*
X-22156663Y-2879010D01*
X-22129073Y-2851420D01*
X-22114142Y-2815372D01*
X-22114142Y-2776354D01*
X-22129073Y-2740305D01*
X-22141509Y-2725152D01*
X-22542226Y-2324435D01*
X-22212220Y-2324435D01*
X-22192711Y-2322514D01*
X-22156663Y-2307582D01*
X-22129073Y-2279992D01*
X-22114141Y-2243944D01*
X-22114141Y-2204926D01*
X-22129073Y-2168878D01*
X-22156663Y-2141288D01*
X-22192711Y-2126356D01*
X-22212220Y-2124435D01*
X-23212220Y-2124435D01*
X-23231729Y-2126356D01*
X-23267777Y-2141288D01*
X-23295367Y-2168878D01*
X-23310299Y-2204926D01*
X-23310299Y-2243944D01*
X-23295367Y-2279992D01*
X-23267777Y-2307582D01*
X-23231729Y-2322514D01*
X-23212220Y-2324435D01*
X-22825070Y-2324435D01*
X-22793033Y-2356472D01*
X-23272220Y-2715863D01*
X-23286675Y-2729105D01*
X-23306554Y-2762680D01*
X-23312072Y-2801306D01*
X-23423331Y-2801306D01*
X-23423331Y-1414911D01*
X-23312220Y-1414911D01*
X-23312220Y-1891101D01*
X-23310299Y-1910610D01*
X-23295367Y-1946658D01*
X-23267777Y-1974248D01*
X-23231729Y-1989180D01*
X-23192711Y-1989180D01*
X-23156663Y-1974248D01*
X-23129073Y-1946658D01*
X-23114141Y-1910610D01*
X-23112220Y-1891101D01*
X-23112220Y-1514911D01*
X-22212220Y-1514911D01*
X-22192711Y-1512990D01*
X-22156663Y-1498058D01*
X-22129073Y-1470468D01*
X-22114141Y-1434420D01*
X-22114141Y-1395402D01*
X-22129073Y-1359354D01*
X-22156663Y-1331764D01*
X-22192711Y-1316832D01*
X-22212220Y-1314911D01*
X-23212220Y-1314911D01*
X-23231729Y-1316832D01*
X-23267777Y-1331764D01*
X-23295367Y-1359354D01*
X-23310299Y-1395402D01*
X-23312220Y-1414911D01*
X-23423331Y-1414911D01*
X-23423331Y-700625D01*
X-23312220Y-700625D01*
X-23312220Y-795863D01*
X-23311248Y-805736D01*
X-23311435Y-808371D01*
X-23310648Y-811834D01*
X-23310299Y-815372D01*
X-23309288Y-817813D01*
X-23307088Y-827486D01*
X-23259468Y-970344D01*
X-23251476Y-988244D01*
X-23249122Y-990958D01*
X-23247747Y-994277D01*
X-23235311Y-1009431D01*
X-23187692Y-1057049D01*
X-23172539Y-1069486D01*
X-23136490Y-1084417D01*
X-23097472Y-1084417D01*
X-23061424Y-1069486D01*
X-23033834Y-1041896D01*
X-23018903Y-1005848D01*
X-23018903Y-966830D01*
X-23033834Y-930781D01*
X-23046271Y-915628D01*
X-23077198Y-884700D01*
X-23112220Y-779635D01*
X-23112220Y-716852D01*
X-23077198Y-611787D01*
X-23010125Y-544715D01*
X-22939220Y-509262D01*
X-22771339Y-467292D01*
X-22653101Y-467292D01*
X-22485220Y-509262D01*
X-22414314Y-544715D01*
X-22347242Y-611787D01*
X-22312220Y-716851D01*
X-22312220Y-779636D01*
X-22347242Y-884701D01*
X-22378169Y-915628D01*
X-22390605Y-930782D01*
X-22405537Y-966830D01*
X-22405537Y-1005848D01*
X-22390605Y-1041896D01*
X-22363015Y-1069486D01*
X-22326967Y-1084418D01*
X-22287949Y-1084418D01*
X-22251901Y-1069486D01*
X-22236747Y-1057050D01*
X-22189129Y-1009431D01*
X-22176692Y-994278D01*
X-22175318Y-990958D01*
X-22172962Y-988243D01*
X-22164971Y-970343D01*
X-22117352Y-827486D01*
X-22115153Y-817813D01*
X-22114141Y-815372D01*
X-22113793Y-811834D01*
X-22113005Y-808371D01*
X-22113193Y-805736D01*
X-22112220Y-795863D01*
X-22112220Y-700625D01*
X-22113193Y-690751D01*
X-22113005Y-688117D01*
X-22113793Y-684653D01*
X-22114141Y-681116D01*
X-22115153Y-678674D01*
X-22117352Y-669002D01*
X-22164971Y-526145D01*
X-22172962Y-508245D01*
X-22175318Y-505529D01*
X-22176692Y-502211D01*
X-22189128Y-487057D01*
X-22284366Y-391819D01*
X-22292037Y-385524D01*
X-22293766Y-383530D01*
X-22296774Y-381636D01*
X-22299520Y-379383D01*
X-22301960Y-378372D01*
X-22310356Y-373087D01*
X-22405594Y-325468D01*
X-22407021Y-324922D01*
X-22407601Y-324492D01*
X-22415778Y-321570D01*
X-22423902Y-318462D01*
X-22424625Y-318410D01*
X-22426062Y-317897D01*
X-22616537Y-270278D01*
X-22619919Y-269777D01*
X-22621282Y-269213D01*
X-22628633Y-268489D01*
X-22635930Y-267410D01*
X-22637389Y-267627D01*
X-22640791Y-267292D01*
X-22783648Y-267292D01*
X-22787051Y-267627D01*
X-22788509Y-267410D01*
X-22795807Y-268489D01*
X-22803157Y-269213D01*
X-22804521Y-269777D01*
X-22807902Y-270278D01*
X-22998378Y-317897D01*
X-22999817Y-318410D01*
X-23000537Y-318462D01*
X-23008662Y-321570D01*
X-23016838Y-324492D01*
X-23017418Y-324921D01*
X-23018846Y-325468D01*
X-23114083Y-373087D01*
X-23122482Y-378373D01*
X-23124919Y-379383D01*
X-23127663Y-381634D01*
X-23130674Y-383530D01*
X-23132407Y-385527D01*
X-23140073Y-391819D01*
X-23235311Y-487057D01*
X-23247747Y-502211D01*
X-23249122Y-505529D01*
X-23251476Y-508244D01*
X-23259468Y-526144D01*
X-23307088Y-669002D01*
X-23309288Y-678674D01*
X-23310299Y-681116D01*
X-23310648Y-684653D01*
X-23311435Y-688117D01*
X-23311248Y-690751D01*
X-23312220Y-700625D01*
X-23423331Y-700625D01*
X-23423331Y581350D01*
X-23312151Y581350D01*
X-23308786Y567216D01*
X-23306874Y552832D01*
X-23304304Y548392D01*
X-23303113Y543393D01*
X-23294598Y531627D01*
X-23287325Y519064D01*
X-23283248Y515944D01*
X-23280238Y511784D01*
X-23267876Y504177D01*
X-23256342Y495348D01*
X-23249142Y492649D01*
X-23247008Y491335D01*
X-23244618Y490952D01*
X-23237986Y488465D01*
X-22886041Y394613D01*
X-23237986Y300761D01*
X-23244618Y298275D01*
X-23247008Y297891D01*
X-23249142Y296578D01*
X-23256342Y293878D01*
X-23267876Y285050D01*
X-23280238Y277442D01*
X-23283248Y273283D01*
X-23287325Y270162D01*
X-23294598Y257600D01*
X-23303113Y245833D01*
X-23304304Y240835D01*
X-23306874Y236394D01*
X-23308786Y222011D01*
X-23312151Y207876D01*
X-23311338Y202805D01*
X-23312014Y197716D01*
X-23308273Y183684D01*
X-23305974Y169349D01*
X-23303285Y164979D01*
X-23301961Y160015D01*
X-23293133Y148482D01*
X-23285525Y136119D01*
X-23281366Y133110D01*
X-23278245Y129032D01*
X-23265683Y121760D01*
X-23253916Y113244D01*
X-23246645Y110738D01*
X-23244477Y109483D01*
X-23242080Y109165D01*
X-23235382Y106856D01*
X-22235382Y-131240D01*
X-22215959Y-133890D01*
X-22177433Y-127713D01*
X-22144202Y-107264D01*
X-22121327Y-75655D01*
X-22112290Y-37698D01*
X-22118466Y829D01*
X-22138915Y34059D01*
X-22170524Y56934D01*
X-22189058Y63322D01*
X-22803532Y209626D01*
X-22472167Y297990D01*
X-22467600Y299703D01*
X-22465676Y299958D01*
X-22463394Y301280D01*
X-22453812Y304872D01*
X-22443330Y312897D01*
X-22431909Y319508D01*
X-22427973Y324652D01*
X-22422829Y328588D01*
X-22416218Y340008D01*
X-22408193Y350491D01*
X-22406524Y356752D01*
X-22403279Y362356D01*
X-22401541Y375439D01*
X-22398140Y388192D01*
X-22398994Y394613D01*
X-22398140Y401034D01*
X-22401541Y413788D01*
X-22403279Y426870D01*
X-22406524Y432475D01*
X-22408193Y438735D01*
X-22416218Y449219D01*
X-22422829Y460638D01*
X-22427973Y464575D01*
X-22431909Y469718D01*
X-22443330Y476330D01*
X-22453812Y484354D01*
X-22463394Y487947D01*
X-22465676Y489268D01*
X-22467600Y489524D01*
X-22472167Y491236D01*
X-22803532Y579601D01*
X-22189058Y725903D01*
X-22170524Y732291D01*
X-22138915Y755166D01*
X-22118466Y788396D01*
X-22112289Y826923D01*
X-22121327Y864880D01*
X-22144202Y896489D01*
X-22177432Y916938D01*
X-22215959Y923115D01*
X-22235382Y920465D01*
X-23235382Y682370D01*
X-23242080Y680062D01*
X-23244477Y679743D01*
X-23246645Y678489D01*
X-23253916Y675982D01*
X-23265683Y667467D01*
X-23278245Y660194D01*
X-23281366Y656117D01*
X-23285525Y653107D01*
X-23293133Y640745D01*
X-23301961Y629211D01*
X-23303285Y624248D01*
X-23305974Y619877D01*
X-23308273Y605543D01*
X-23312014Y591510D01*
X-23311338Y586422D01*
X-23312151Y581350D01*
X-23423331Y581350D01*
X-23423331Y1585089D01*
X-23312220Y1585089D01*
X-23312220Y1346994D01*
X-23310299Y1327485D01*
X-23308924Y1324166D01*
X-23308669Y1320580D01*
X-23301662Y1302272D01*
X-23254042Y1207034D01*
X-23248758Y1198639D01*
X-23247747Y1196199D01*
X-23245494Y1193454D01*
X-23243599Y1190443D01*
X-23241603Y1188712D01*
X-23235311Y1181045D01*
X-23187692Y1133427D01*
X-23180026Y1127135D01*
X-23178293Y1125137D01*
X-23175285Y1123244D01*
X-23172539Y1120990D01*
X-23170099Y1119980D01*
X-23161702Y1114694D01*
X-23066465Y1067075D01*
X-23048156Y1060069D01*
X-23044573Y1059815D01*
X-23041252Y1058439D01*
X-23021743Y1056518D01*
X-22926505Y1056518D01*
X-22906996Y1058439D01*
X-22903676Y1059815D01*
X-22900092Y1060069D01*
X-22881784Y1067075D01*
X-22786546Y1114694D01*
X-22778150Y1119980D01*
X-22775710Y1120990D01*
X-22772964Y1123244D01*
X-22769956Y1125137D01*
X-22768227Y1127132D01*
X-22760556Y1133426D01*
X-22712938Y1181045D01*
X-22706646Y1188712D01*
X-22704648Y1190444D01*
X-22702755Y1193453D01*
X-22700501Y1196198D01*
X-22699491Y1198639D01*
X-22694205Y1207035D01*
X-22646586Y1302272D01*
X-22646040Y1303701D01*
X-22645610Y1304280D01*
X-22642689Y1312457D01*
X-22639580Y1320581D01*
X-22639529Y1321302D01*
X-22639015Y1322740D01*
X-22594059Y1502566D01*
X-22558605Y1573473D01*
X-22533937Y1598142D01*
X-22474327Y1627946D01*
X-22426303Y1627946D01*
X-22366694Y1598141D01*
X-22342025Y1573473D01*
X-22312220Y1513863D01*
X-22312220Y1315602D01*
X-22354707Y1188141D01*
X-22359054Y1169025D01*
X-22356288Y1130105D01*
X-22338838Y1095206D01*
X-22309362Y1069641D01*
X-22272346Y1057303D01*
X-22233426Y1060069D01*
X-22198527Y1077519D01*
X-22172962Y1106995D01*
X-22164971Y1124895D01*
X-22117352Y1267752D01*
X-22115153Y1277425D01*
X-22114141Y1279866D01*
X-22113793Y1283404D01*
X-22113005Y1286867D01*
X-22113193Y1289502D01*
X-22112220Y1299375D01*
X-22112220Y1537470D01*
X-22114141Y1556979D01*
X-22115517Y1560300D01*
X-22115771Y1563883D01*
X-22122777Y1582192D01*
X-22170396Y1677429D01*
X-22175682Y1685826D01*
X-22176692Y1688266D01*
X-22178946Y1691012D01*
X-22180839Y1694020D01*
X-22182837Y1695753D01*
X-22189129Y1703419D01*
X-22236747Y1751038D01*
X-22244418Y1757333D01*
X-22246147Y1759327D01*
X-22249155Y1761221D01*
X-22251901Y1763474D01*
X-22254341Y1764485D01*
X-22262737Y1769770D01*
X-22357975Y1817389D01*
X-22376283Y1824395D01*
X-22379867Y1824650D01*
X-22383187Y1826025D01*
X-22402696Y1827946D01*
X-22497934Y1827946D01*
X-22517443Y1826025D01*
X-22520764Y1824650D01*
X-22524347Y1824395D01*
X-22542656Y1817389D01*
X-22637893Y1769770D01*
X-22646290Y1764485D01*
X-22648730Y1763474D01*
X-22651476Y1761221D01*
X-22654484Y1759327D01*
X-22656217Y1757330D01*
X-22663883Y1751037D01*
X-22711502Y1703419D01*
X-22717797Y1695749D01*
X-22719791Y1694019D01*
X-22721685Y1691012D01*
X-22723938Y1688265D01*
X-22724949Y1685826D01*
X-22730234Y1677429D01*
X-22777853Y1582191D01*
X-22778399Y1580765D01*
X-22778829Y1580184D01*
X-22781751Y1572008D01*
X-22784859Y1563883D01*
X-22784911Y1563161D01*
X-22785424Y1561723D01*
X-22830381Y1381899D01*
X-22865834Y1310992D01*
X-22890503Y1286324D01*
X-22950112Y1256518D01*
X-22998136Y1256518D01*
X-23057746Y1286323D01*
X-23082417Y1310994D01*
X-23112220Y1370601D01*
X-23112220Y1568862D01*
X-23069732Y1696323D01*
X-23065385Y1715438D01*
X-23068151Y1754358D01*
X-23085600Y1789257D01*
X-23115076Y1814822D01*
X-23152092Y1827161D01*
X-23191012Y1824395D01*
X-23225911Y1806946D01*
X-23251476Y1777470D01*
X-23259468Y1759570D01*
X-23307088Y1616712D01*
X-23309288Y1607040D01*
X-23310299Y1604598D01*
X-23310648Y1601061D01*
X-23311435Y1597597D01*
X-23311248Y1594963D01*
X-23312220Y1585089D01*
X-23423331Y1585089D01*
X-23423331Y1939057D01*
X-22001109Y1939057D01*
X-22001109Y-3006826D01*
G37*
G36*
X-24946203Y-1981397D02*
G01*
X-24882024Y-2045576D01*
X-24852220Y-2105184D01*
X-24852220Y-2248446D01*
X-24882024Y-2308054D01*
X-24946203Y-2372233D01*
X-25097863Y-2410148D01*
X-25406577Y-2410148D01*
X-25558236Y-2372233D01*
X-25622417Y-2308052D01*
X-25652220Y-2248446D01*
X-25652220Y-2105183D01*
X-25622417Y-2045577D01*
X-25558236Y-1981396D01*
X-25406577Y-1943482D01*
X-25097863Y-1943482D01*
X-24946203Y-1981397D01*
G37*
G36*
X-24852220Y-636779D02*
G01*
X-24887242Y-741843D01*
X-24954314Y-808915D01*
X-25025220Y-844368D01*
X-25193101Y-886339D01*
X-25311339Y-886339D01*
X-25479220Y-844368D01*
X-25550125Y-808916D01*
X-25617198Y-741843D01*
X-25652220Y-636778D01*
X-25652220Y-514911D01*
X-24852220Y-514911D01*
X-24852220Y-636779D01*
G37*
G36*
X-24541109Y-2721259D02*
G01*
X-25963331Y-2721259D01*
X-25963331Y-2081577D01*
X-25852220Y-2081577D01*
X-25852220Y-2272053D01*
X-25850299Y-2291562D01*
X-25848924Y-2294881D01*
X-25848669Y-2298467D01*
X-25841662Y-2316775D01*
X-25794042Y-2412013D01*
X-25788758Y-2420408D01*
X-25787747Y-2422848D01*
X-25785494Y-2425593D01*
X-25783599Y-2428604D01*
X-25781603Y-2430335D01*
X-25775311Y-2438002D01*
X-25680073Y-2533240D01*
X-25664919Y-2545676D01*
X-25658051Y-2548521D01*
X-25652076Y-2552948D01*
X-25633616Y-2559543D01*
X-25443140Y-2607162D01*
X-25439759Y-2607662D01*
X-25438395Y-2608227D01*
X-25431045Y-2608950D01*
X-25423747Y-2610030D01*
X-25422289Y-2609812D01*
X-25418886Y-2610148D01*
X-25085553Y-2610148D01*
X-25082151Y-2609812D01*
X-25080692Y-2610030D01*
X-25073395Y-2608950D01*
X-25066044Y-2608227D01*
X-25064681Y-2607662D01*
X-25061299Y-2607162D01*
X-24870824Y-2559543D01*
X-24852363Y-2552948D01*
X-24846389Y-2548521D01*
X-24839520Y-2545676D01*
X-24824366Y-2533240D01*
X-24729128Y-2438002D01*
X-24722837Y-2430335D01*
X-24720839Y-2428603D01*
X-24718944Y-2425591D01*
X-24716692Y-2422848D01*
X-24715683Y-2420410D01*
X-24710396Y-2412012D01*
X-24662777Y-2316775D01*
X-24655771Y-2298466D01*
X-24655517Y-2294882D01*
X-24654141Y-2291562D01*
X-24652220Y-2272053D01*
X-24652220Y-2081577D01*
X-24654141Y-2062068D01*
X-24655517Y-2058747D01*
X-24655771Y-2055164D01*
X-24662777Y-2036855D01*
X-24710396Y-1941618D01*
X-24715683Y-1933219D01*
X-24716692Y-1930782D01*
X-24718944Y-1928038D01*
X-24720839Y-1925027D01*
X-24722837Y-1923294D01*
X-24729128Y-1915628D01*
X-24824366Y-1820390D01*
X-24839520Y-1807954D01*
X-24846389Y-1805108D01*
X-24852363Y-1800682D01*
X-24870824Y-1794087D01*
X-25061299Y-1746468D01*
X-25064681Y-1745967D01*
X-25066044Y-1745403D01*
X-25073395Y-1744679D01*
X-25080692Y-1743600D01*
X-25082151Y-1743817D01*
X-25085553Y-1743482D01*
X-25418886Y-1743482D01*
X-25422289Y-1743817D01*
X-25423747Y-1743600D01*
X-25431045Y-1744679D01*
X-25438395Y-1745403D01*
X-25439759Y-1745967D01*
X-25443140Y-1746468D01*
X-25633616Y-1794087D01*
X-25652076Y-1800682D01*
X-25658051Y-1805108D01*
X-25664919Y-1807954D01*
X-25680073Y-1820390D01*
X-25775311Y-1915628D01*
X-25781603Y-1923294D01*
X-25783599Y-1925026D01*
X-25785494Y-1928036D01*
X-25787747Y-1930782D01*
X-25788758Y-1933221D01*
X-25794042Y-1941617D01*
X-25841662Y-2036855D01*
X-25848669Y-2055163D01*
X-25848924Y-2058748D01*
X-25850299Y-2062068D01*
X-25852220Y-2081577D01*
X-25963331Y-2081577D01*
X-25963331Y-1395402D01*
X-25850299Y-1395402D01*
X-25850299Y-1434420D01*
X-25835367Y-1470468D01*
X-25807777Y-1498058D01*
X-25771729Y-1512990D01*
X-25752220Y-1514911D01*
X-24752220Y-1514911D01*
X-24732711Y-1512990D01*
X-24696663Y-1498058D01*
X-24669073Y-1470468D01*
X-24654141Y-1434420D01*
X-24654141Y-1395402D01*
X-24669073Y-1359354D01*
X-24696663Y-1331764D01*
X-24732711Y-1316832D01*
X-24752220Y-1314911D01*
X-25752220Y-1314911D01*
X-25771729Y-1316832D01*
X-25807777Y-1331764D01*
X-25835367Y-1359354D01*
X-25850299Y-1395402D01*
X-25963331Y-1395402D01*
X-25963331Y-414911D01*
X-25852220Y-414911D01*
X-25852220Y-653006D01*
X-25851248Y-662879D01*
X-25851435Y-665514D01*
X-25850648Y-668977D01*
X-25850299Y-672515D01*
X-25849288Y-674956D01*
X-25847088Y-684629D01*
X-25799468Y-827487D01*
X-25791476Y-845387D01*
X-25789122Y-848101D01*
X-25787747Y-851420D01*
X-25775311Y-866574D01*
X-25680073Y-961812D01*
X-25672407Y-968103D01*
X-25670674Y-970101D01*
X-25667663Y-971996D01*
X-25664919Y-974248D01*
X-25662482Y-975257D01*
X-25654083Y-980544D01*
X-25558846Y-1028163D01*
X-25557418Y-1028709D01*
X-25556838Y-1029139D01*
X-25548662Y-1032060D01*
X-25540537Y-1035169D01*
X-25539817Y-1035220D01*
X-25538378Y-1035734D01*
X-25347902Y-1083353D01*
X-25344521Y-1083853D01*
X-25343157Y-1084418D01*
X-25335807Y-1085141D01*
X-25328509Y-1086221D01*
X-25327051Y-1086003D01*
X-25323648Y-1086339D01*
X-25180791Y-1086339D01*
X-25177389Y-1086003D01*
X-25175930Y-1086221D01*
X-25168633Y-1085141D01*
X-25161282Y-1084418D01*
X-25159919Y-1083853D01*
X-25156537Y-1083353D01*
X-24966062Y-1035734D01*
X-24964625Y-1035220D01*
X-24963902Y-1035169D01*
X-24955778Y-1032060D01*
X-24947601Y-1029139D01*
X-24947021Y-1028708D01*
X-24945594Y-1028163D01*
X-24850356Y-980544D01*
X-24841960Y-975258D01*
X-24839520Y-974248D01*
X-24836774Y-971994D01*
X-24833766Y-970101D01*
X-24832037Y-968106D01*
X-24824366Y-961812D01*
X-24729128Y-866574D01*
X-24716692Y-851420D01*
X-24715318Y-848101D01*
X-24712962Y-845386D01*
X-24704971Y-827486D01*
X-24657352Y-684629D01*
X-24655153Y-674956D01*
X-24654141Y-672515D01*
X-24653793Y-668977D01*
X-24653005Y-665514D01*
X-24653193Y-662879D01*
X-24652220Y-653006D01*
X-24652220Y-414911D01*
X-24654141Y-395402D01*
X-24669073Y-359354D01*
X-24696663Y-331764D01*
X-24732711Y-316832D01*
X-24752220Y-314911D01*
X-25752220Y-314911D01*
X-25771729Y-316832D01*
X-25807777Y-331764D01*
X-25835367Y-359354D01*
X-25850299Y-395402D01*
X-25852220Y-414911D01*
X-25963331Y-414911D01*
X-25963331Y581350D01*
X-25852151Y581350D01*
X-25848786Y567216D01*
X-25846874Y552832D01*
X-25844304Y548392D01*
X-25843113Y543393D01*
X-25834598Y531627D01*
X-25827325Y519064D01*
X-25823248Y515944D01*
X-25820238Y511784D01*
X-25807876Y504177D01*
X-25796342Y495348D01*
X-25789142Y492649D01*
X-25787008Y491335D01*
X-25784618Y490952D01*
X-25777986Y488465D01*
X-25426041Y394613D01*
X-25777986Y300761D01*
X-25784618Y298275D01*
X-25787008Y297891D01*
X-25789142Y296578D01*
X-25796342Y293878D01*
X-25807876Y285050D01*
X-25820238Y277442D01*
X-25823248Y273283D01*
X-25827325Y270162D01*
X-25834598Y257600D01*
X-25843113Y245833D01*
X-25844304Y240835D01*
X-25846874Y236394D01*
X-25848786Y222011D01*
X-25852151Y207876D01*
X-25851338Y202805D01*
X-25852014Y197716D01*
X-25848273Y183684D01*
X-25845974Y169349D01*
X-25843285Y164979D01*
X-25841961Y160015D01*
X-25833133Y148482D01*
X-25825525Y136119D01*
X-25821366Y133110D01*
X-25818245Y129032D01*
X-25805683Y121760D01*
X-25793916Y113244D01*
X-25786645Y110738D01*
X-25784477Y109483D01*
X-25782080Y109165D01*
X-25775382Y106856D01*
X-24775382Y-131240D01*
X-24755959Y-133890D01*
X-24717433Y-127713D01*
X-24684202Y-107264D01*
X-24661327Y-75655D01*
X-24652290Y-37698D01*
X-24658466Y829D01*
X-24678915Y34059D01*
X-24710524Y56934D01*
X-24729058Y63322D01*
X-25343532Y209626D01*
X-25012167Y297990D01*
X-25007600Y299703D01*
X-25005676Y299958D01*
X-25003394Y301280D01*
X-24993812Y304872D01*
X-24983330Y312897D01*
X-24971909Y319508D01*
X-24967973Y324652D01*
X-24962829Y328588D01*
X-24956218Y340008D01*
X-24948193Y350491D01*
X-24946524Y356752D01*
X-24943279Y362356D01*
X-24941541Y375439D01*
X-24938140Y388192D01*
X-24938994Y394613D01*
X-24938140Y401034D01*
X-24941541Y413788D01*
X-24943279Y426870D01*
X-24946524Y432475D01*
X-24948193Y438735D01*
X-24956218Y449219D01*
X-24962829Y460638D01*
X-24967973Y464575D01*
X-24971909Y469718D01*
X-24983330Y476330D01*
X-24993812Y484354D01*
X-25003394Y487947D01*
X-25005676Y489268D01*
X-25007600Y489524D01*
X-25012167Y491236D01*
X-25343532Y579601D01*
X-24729058Y725903D01*
X-24710524Y732291D01*
X-24678915Y755166D01*
X-24658466Y788396D01*
X-24652289Y826923D01*
X-24661327Y864880D01*
X-24684202Y896489D01*
X-24717432Y916938D01*
X-24755959Y923115D01*
X-24775382Y920465D01*
X-25775382Y682370D01*
X-25782080Y680062D01*
X-25784477Y679743D01*
X-25786645Y678489D01*
X-25793916Y675982D01*
X-25805683Y667467D01*
X-25818245Y660194D01*
X-25821366Y656117D01*
X-25825525Y653107D01*
X-25833133Y640745D01*
X-25841961Y629211D01*
X-25843285Y624248D01*
X-25845974Y619877D01*
X-25848273Y605543D01*
X-25852014Y591510D01*
X-25851338Y586422D01*
X-25852151Y581350D01*
X-25963331Y581350D01*
X-25963331Y1585089D01*
X-25852220Y1585089D01*
X-25852220Y1346994D01*
X-25850299Y1327485D01*
X-25848924Y1324166D01*
X-25848669Y1320580D01*
X-25841662Y1302272D01*
X-25794042Y1207034D01*
X-25788758Y1198639D01*
X-25787747Y1196199D01*
X-25785494Y1193454D01*
X-25783599Y1190443D01*
X-25781603Y1188712D01*
X-25775311Y1181045D01*
X-25727692Y1133427D01*
X-25720026Y1127135D01*
X-25718293Y1125137D01*
X-25715285Y1123244D01*
X-25712539Y1120990D01*
X-25710099Y1119980D01*
X-25701702Y1114694D01*
X-25606465Y1067075D01*
X-25588156Y1060069D01*
X-25584573Y1059815D01*
X-25581252Y1058439D01*
X-25561743Y1056518D01*
X-25466505Y1056518D01*
X-25446996Y1058439D01*
X-25443676Y1059815D01*
X-25440092Y1060069D01*
X-25421784Y1067075D01*
X-25326546Y1114694D01*
X-25318150Y1119980D01*
X-25315710Y1120990D01*
X-25312964Y1123244D01*
X-25309956Y1125137D01*
X-25308227Y1127132D01*
X-25300556Y1133426D01*
X-25252938Y1181045D01*
X-25246646Y1188712D01*
X-25244648Y1190444D01*
X-25242755Y1193453D01*
X-25240501Y1196198D01*
X-25239491Y1198639D01*
X-25234205Y1207035D01*
X-25186586Y1302272D01*
X-25186040Y1303701D01*
X-25185610Y1304280D01*
X-25182689Y1312457D01*
X-25179580Y1320581D01*
X-25179529Y1321302D01*
X-25179015Y1322740D01*
X-25134059Y1502566D01*
X-25098605Y1573473D01*
X-25073937Y1598142D01*
X-25014327Y1627946D01*
X-24966303Y1627946D01*
X-24906694Y1598141D01*
X-24882025Y1573473D01*
X-24852220Y1513863D01*
X-24852220Y1315602D01*
X-24894707Y1188141D01*
X-24899054Y1169025D01*
X-24896288Y1130105D01*
X-24878838Y1095206D01*
X-24849362Y1069641D01*
X-24812346Y1057303D01*
X-24773426Y1060069D01*
X-24738527Y1077519D01*
X-24712962Y1106995D01*
X-24704971Y1124895D01*
X-24657352Y1267752D01*
X-24655153Y1277425D01*
X-24654141Y1279866D01*
X-24653793Y1283404D01*
X-24653005Y1286867D01*
X-24653193Y1289502D01*
X-24652220Y1299375D01*
X-24652220Y1537470D01*
X-24654141Y1556979D01*
X-24655517Y1560300D01*
X-24655771Y1563883D01*
X-24662777Y1582192D01*
X-24710396Y1677429D01*
X-24715682Y1685826D01*
X-24716692Y1688266D01*
X-24718946Y1691012D01*
X-24720839Y1694020D01*
X-24722837Y1695753D01*
X-24729129Y1703419D01*
X-24776747Y1751038D01*
X-24784418Y1757333D01*
X-24786147Y1759327D01*
X-24789155Y1761221D01*
X-24791901Y1763474D01*
X-24794341Y1764485D01*
X-24802737Y1769770D01*
X-24897975Y1817389D01*
X-24916283Y1824395D01*
X-24919867Y1824650D01*
X-24923187Y1826025D01*
X-24942696Y1827946D01*
X-25037934Y1827946D01*
X-25057443Y1826025D01*
X-25060764Y1824650D01*
X-25064347Y1824395D01*
X-25082656Y1817389D01*
X-25177893Y1769770D01*
X-25186290Y1764485D01*
X-25188730Y1763474D01*
X-25191476Y1761221D01*
X-25194484Y1759327D01*
X-25196217Y1757330D01*
X-25203883Y1751037D01*
X-25251502Y1703419D01*
X-25257797Y1695749D01*
X-25259791Y1694019D01*
X-25261685Y1691012D01*
X-25263938Y1688265D01*
X-25264949Y1685826D01*
X-25270234Y1677429D01*
X-25317853Y1582191D01*
X-25318399Y1580765D01*
X-25318829Y1580184D01*
X-25321751Y1572008D01*
X-25324859Y1563883D01*
X-25324911Y1563161D01*
X-25325424Y1561723D01*
X-25370381Y1381899D01*
X-25405834Y1310992D01*
X-25430503Y1286324D01*
X-25490112Y1256518D01*
X-25538136Y1256518D01*
X-25597746Y1286323D01*
X-25622417Y1310994D01*
X-25652220Y1370601D01*
X-25652220Y1568862D01*
X-25609732Y1696323D01*
X-25605385Y1715438D01*
X-25608151Y1754358D01*
X-25625600Y1789257D01*
X-25655076Y1814822D01*
X-25692092Y1827161D01*
X-25731012Y1824395D01*
X-25765911Y1806946D01*
X-25791476Y1777470D01*
X-25799468Y1759570D01*
X-25847088Y1616712D01*
X-25849288Y1607040D01*
X-25850299Y1604598D01*
X-25850648Y1601061D01*
X-25851435Y1597597D01*
X-25851248Y1594963D01*
X-25852220Y1585089D01*
X-25963331Y1585089D01*
X-25963331Y1939057D01*
X-24541109Y1939057D01*
X-24541109Y-2721259D01*
G37*
G36*
X-27081109Y-1057434D02*
G01*
X-28503331Y-1057434D01*
X-28503331Y-562530D01*
X-28392220Y-562530D01*
X-28392220Y-657768D01*
X-28391248Y-667641D01*
X-28391435Y-670276D01*
X-28390648Y-673739D01*
X-28390299Y-677277D01*
X-28389288Y-679718D01*
X-28387088Y-689391D01*
X-28339468Y-832249D01*
X-28331476Y-850149D01*
X-28329122Y-852863D01*
X-28327747Y-856182D01*
X-28315311Y-871336D01*
X-28267692Y-918954D01*
X-28252539Y-931391D01*
X-28216490Y-946322D01*
X-28177472Y-946322D01*
X-28141424Y-931391D01*
X-28113834Y-903801D01*
X-28098903Y-867753D01*
X-28098903Y-828735D01*
X-28113834Y-792686D01*
X-28126271Y-777533D01*
X-28157198Y-746605D01*
X-28192220Y-641540D01*
X-28192220Y-578757D01*
X-28157198Y-473692D01*
X-28090125Y-406620D01*
X-28019220Y-371167D01*
X-27851339Y-329197D01*
X-27733101Y-329197D01*
X-27565220Y-371167D01*
X-27494314Y-406620D01*
X-27427242Y-473692D01*
X-27392220Y-578756D01*
X-27392220Y-641541D01*
X-27427242Y-746606D01*
X-27458169Y-777533D01*
X-27470605Y-792687D01*
X-27485537Y-828735D01*
X-27485537Y-867753D01*
X-27470605Y-903801D01*
X-27443015Y-931391D01*
X-27406967Y-946323D01*
X-27367949Y-946323D01*
X-27331901Y-931391D01*
X-27316747Y-918955D01*
X-27269129Y-871336D01*
X-27256692Y-856183D01*
X-27255318Y-852863D01*
X-27252962Y-850148D01*
X-27244971Y-832248D01*
X-27197352Y-689391D01*
X-27195153Y-679718D01*
X-27194141Y-677277D01*
X-27193793Y-673739D01*
X-27193005Y-670276D01*
X-27193193Y-667641D01*
X-27192220Y-657768D01*
X-27192220Y-562530D01*
X-27193193Y-552656D01*
X-27193005Y-550022D01*
X-27193793Y-546558D01*
X-27194141Y-543021D01*
X-27195153Y-540579D01*
X-27197352Y-530907D01*
X-27244971Y-388050D01*
X-27252962Y-370150D01*
X-27255318Y-367434D01*
X-27256692Y-364116D01*
X-27269128Y-348962D01*
X-27364366Y-253724D01*
X-27372037Y-247429D01*
X-27373766Y-245435D01*
X-27376774Y-243541D01*
X-27379520Y-241288D01*
X-27381960Y-240277D01*
X-27390356Y-234992D01*
X-27485594Y-187373D01*
X-27487021Y-186827D01*
X-27487601Y-186397D01*
X-27495778Y-183475D01*
X-27503902Y-180367D01*
X-27504625Y-180315D01*
X-27506062Y-179802D01*
X-27696537Y-132183D01*
X-27699919Y-131682D01*
X-27701282Y-131118D01*
X-27708633Y-130394D01*
X-27715930Y-129315D01*
X-27717389Y-129532D01*
X-27720791Y-129197D01*
X-27863648Y-129197D01*
X-27867051Y-129532D01*
X-27868509Y-129315D01*
X-27875807Y-130394D01*
X-27883157Y-131118D01*
X-27884521Y-131682D01*
X-27887902Y-132183D01*
X-28078378Y-179802D01*
X-28079817Y-180315D01*
X-28080537Y-180367D01*
X-28088662Y-183475D01*
X-28096838Y-186397D01*
X-28097418Y-186826D01*
X-28098846Y-187373D01*
X-28194083Y-234992D01*
X-28202482Y-240278D01*
X-28204919Y-241288D01*
X-28207663Y-243539D01*
X-28210674Y-245435D01*
X-28212407Y-247432D01*
X-28220073Y-253724D01*
X-28315311Y-348962D01*
X-28327747Y-364116D01*
X-28329122Y-367434D01*
X-28331476Y-370149D01*
X-28339468Y-388049D01*
X-28387088Y-530907D01*
X-28389288Y-540579D01*
X-28390299Y-543021D01*
X-28390648Y-546558D01*
X-28391435Y-550022D01*
X-28391248Y-552656D01*
X-28392220Y-562530D01*
X-28503331Y-562530D01*
X-28503331Y437470D01*
X-28392220Y437470D01*
X-28392220Y342232D01*
X-28391248Y332359D01*
X-28391435Y329724D01*
X-28390648Y326261D01*
X-28390299Y322723D01*
X-28389288Y320282D01*
X-28387088Y310609D01*
X-28339468Y167751D01*
X-28331476Y149851D01*
X-28329122Y147137D01*
X-28327747Y143818D01*
X-28315311Y128664D01*
X-28267692Y81046D01*
X-28252539Y68609D01*
X-28216490Y53678D01*
X-28177472Y53678D01*
X-28141424Y68609D01*
X-28113834Y96199D01*
X-28098903Y132247D01*
X-28098903Y171265D01*
X-28113834Y207314D01*
X-28126271Y222467D01*
X-28157198Y253395D01*
X-28192220Y358460D01*
X-28192220Y421243D01*
X-28157198Y526308D01*
X-28090125Y593380D01*
X-28019220Y628833D01*
X-27851339Y670803D01*
X-27733101Y670803D01*
X-27565220Y628833D01*
X-27494314Y593380D01*
X-27427242Y526308D01*
X-27392220Y421244D01*
X-27392220Y358459D01*
X-27427242Y253394D01*
X-27458169Y222467D01*
X-27470605Y207313D01*
X-27485537Y171265D01*
X-27485537Y132247D01*
X-27470605Y96199D01*
X-27443015Y68609D01*
X-27406967Y53677D01*
X-27367949Y53677D01*
X-27331901Y68609D01*
X-27316747Y81045D01*
X-27269129Y128664D01*
X-27256692Y143817D01*
X-27255318Y147137D01*
X-27252962Y149852D01*
X-27244971Y167752D01*
X-27197352Y310609D01*
X-27195153Y320282D01*
X-27194141Y322723D01*
X-27193793Y326261D01*
X-27193005Y329724D01*
X-27193193Y332359D01*
X-27192220Y342232D01*
X-27192220Y437470D01*
X-27193193Y447344D01*
X-27193005Y449978D01*
X-27193793Y453442D01*
X-27194141Y456979D01*
X-27195153Y459421D01*
X-27197352Y469093D01*
X-27244971Y611950D01*
X-27252962Y629850D01*
X-27255318Y632566D01*
X-27256692Y635884D01*
X-27269128Y651038D01*
X-27364366Y746276D01*
X-27372037Y752571D01*
X-27373766Y754565D01*
X-27376774Y756459D01*
X-27379520Y758712D01*
X-27381960Y759723D01*
X-27390356Y765008D01*
X-27485594Y812627D01*
X-27487021Y813173D01*
X-27487601Y813603D01*
X-27495778Y816525D01*
X-27503902Y819633D01*
X-27504625Y819685D01*
X-27506062Y820198D01*
X-27696537Y867817D01*
X-27699919Y868318D01*
X-27701282Y868882D01*
X-27708633Y869606D01*
X-27715930Y870685D01*
X-27717389Y870468D01*
X-27720791Y870803D01*
X-27863648Y870803D01*
X-27867051Y870468D01*
X-27868509Y870685D01*
X-27875807Y869606D01*
X-27883157Y868882D01*
X-27884521Y868318D01*
X-27887902Y867817D01*
X-28078378Y820198D01*
X-28079817Y819685D01*
X-28080537Y819633D01*
X-28088662Y816525D01*
X-28096838Y813603D01*
X-28097418Y813174D01*
X-28098846Y812627D01*
X-28194083Y765008D01*
X-28202482Y759722D01*
X-28204919Y758712D01*
X-28207663Y756461D01*
X-28210674Y754565D01*
X-28212407Y752568D01*
X-28220073Y746276D01*
X-28315311Y651038D01*
X-28327747Y635884D01*
X-28329122Y632566D01*
X-28331476Y629851D01*
X-28339468Y611951D01*
X-28387088Y469093D01*
X-28389288Y459421D01*
X-28390299Y456979D01*
X-28390648Y453442D01*
X-28391435Y449978D01*
X-28391248Y447344D01*
X-28392220Y437470D01*
X-28503331Y437470D01*
X-28503331Y1402358D01*
X-28391435Y1402358D01*
X-28390547Y1389851D01*
X-28391435Y1377344D01*
X-28389176Y1370566D01*
X-28388669Y1363438D01*
X-28383063Y1352226D01*
X-28379097Y1340328D01*
X-28374414Y1334929D01*
X-28371219Y1328539D01*
X-28361748Y1320324D01*
X-28353532Y1310852D01*
X-28347143Y1307658D01*
X-28341743Y1302974D01*
X-28323843Y1294983D01*
X-27323843Y961650D01*
X-27304728Y957303D01*
X-27265808Y960069D01*
X-27230909Y977519D01*
X-27205344Y1006995D01*
X-27193005Y1044011D01*
X-27195772Y1082931D01*
X-27213221Y1117830D01*
X-27242697Y1143395D01*
X-27260598Y1151386D01*
X-27975993Y1389851D01*
X-27260598Y1628316D01*
X-27242697Y1636307D01*
X-27213221Y1661872D01*
X-27195772Y1696771D01*
X-27193005Y1735691D01*
X-27205344Y1772707D01*
X-27230909Y1802183D01*
X-27265808Y1819633D01*
X-27304728Y1822399D01*
X-27323843Y1818052D01*
X-28323843Y1484719D01*
X-28341743Y1476728D01*
X-28347143Y1472045D01*
X-28353532Y1468850D01*
X-28361748Y1459379D01*
X-28371219Y1451163D01*
X-28374414Y1444774D01*
X-28379097Y1439374D01*
X-28383063Y1427477D01*
X-28388669Y1416264D01*
X-28389176Y1409137D01*
X-28391435Y1402358D01*
X-28503331Y1402358D01*
X-28503331Y1933510D01*
X-27081109Y1933510D01*
X-27081109Y-1057434D01*
G37*
D12*
X31154819Y-42714285D02*
X30154819Y-42714285D01*
X30154819Y-42714285D02*
X30154819Y-42476190D01*
X30154819Y-42476190D02*
X30202438Y-42333333D01*
X30202438Y-42333333D02*
X30297676Y-42238095D01*
X30297676Y-42238095D02*
X30392914Y-42190476D01*
X30392914Y-42190476D02*
X30583390Y-42142857D01*
X30583390Y-42142857D02*
X30726247Y-42142857D01*
X30726247Y-42142857D02*
X30916723Y-42190476D01*
X30916723Y-42190476D02*
X31011961Y-42238095D01*
X31011961Y-42238095D02*
X31107200Y-42333333D01*
X31107200Y-42333333D02*
X31154819Y-42476190D01*
X31154819Y-42476190D02*
X31154819Y-42714285D01*
X30250057Y-41761904D02*
X30202438Y-41714285D01*
X30202438Y-41714285D02*
X30154819Y-41619047D01*
X30154819Y-41619047D02*
X30154819Y-41380952D01*
X30154819Y-41380952D02*
X30202438Y-41285714D01*
X30202438Y-41285714D02*
X30250057Y-41238095D01*
X30250057Y-41238095D02*
X30345295Y-41190476D01*
X30345295Y-41190476D02*
X30440533Y-41190476D01*
X30440533Y-41190476D02*
X30583390Y-41238095D01*
X30583390Y-41238095D02*
X31154819Y-41809523D01*
X31154819Y-41809523D02*
X31154819Y-41190476D01*
X30154819Y-40571428D02*
X30154819Y-40476190D01*
X30154819Y-40476190D02*
X30202438Y-40380952D01*
X30202438Y-40380952D02*
X30250057Y-40333333D01*
X30250057Y-40333333D02*
X30345295Y-40285714D01*
X30345295Y-40285714D02*
X30535771Y-40238095D01*
X30535771Y-40238095D02*
X30773866Y-40238095D01*
X30773866Y-40238095D02*
X30964342Y-40285714D01*
X30964342Y-40285714D02*
X31059580Y-40333333D01*
X31059580Y-40333333D02*
X31107200Y-40380952D01*
X31107200Y-40380952D02*
X31154819Y-40476190D01*
X31154819Y-40476190D02*
X31154819Y-40571428D01*
X31154819Y-40571428D02*
X31107200Y-40666666D01*
X31107200Y-40666666D02*
X31059580Y-40714285D01*
X31059580Y-40714285D02*
X30964342Y-40761904D01*
X30964342Y-40761904D02*
X30773866Y-40809523D01*
X30773866Y-40809523D02*
X30535771Y-40809523D01*
X30535771Y-40809523D02*
X30345295Y-40761904D01*
X30345295Y-40761904D02*
X30250057Y-40714285D01*
X30250057Y-40714285D02*
X30202438Y-40666666D01*
X30202438Y-40666666D02*
X30154819Y-40571428D01*
X35154819Y-42714285D02*
X34154819Y-42714285D01*
X34154819Y-42714285D02*
X34154819Y-42476190D01*
X34154819Y-42476190D02*
X34202438Y-42333333D01*
X34202438Y-42333333D02*
X34297676Y-42238095D01*
X34297676Y-42238095D02*
X34392914Y-42190476D01*
X34392914Y-42190476D02*
X34583390Y-42142857D01*
X34583390Y-42142857D02*
X34726247Y-42142857D01*
X34726247Y-42142857D02*
X34916723Y-42190476D01*
X34916723Y-42190476D02*
X35011961Y-42238095D01*
X35011961Y-42238095D02*
X35107200Y-42333333D01*
X35107200Y-42333333D02*
X35154819Y-42476190D01*
X35154819Y-42476190D02*
X35154819Y-42714285D01*
X34250057Y-41761904D02*
X34202438Y-41714285D01*
X34202438Y-41714285D02*
X34154819Y-41619047D01*
X34154819Y-41619047D02*
X34154819Y-41380952D01*
X34154819Y-41380952D02*
X34202438Y-41285714D01*
X34202438Y-41285714D02*
X34250057Y-41238095D01*
X34250057Y-41238095D02*
X34345295Y-41190476D01*
X34345295Y-41190476D02*
X34440533Y-41190476D01*
X34440533Y-41190476D02*
X34583390Y-41238095D01*
X34583390Y-41238095D02*
X35154819Y-41809523D01*
X35154819Y-41809523D02*
X35154819Y-41190476D01*
X35154819Y-40238095D02*
X35154819Y-40809523D01*
X35154819Y-40523809D02*
X34154819Y-40523809D01*
X34154819Y-40523809D02*
X34297676Y-40619047D01*
X34297676Y-40619047D02*
X34392914Y-40714285D01*
X34392914Y-40714285D02*
X34440533Y-40809523D01*
D13*
X29965000Y-37600000D02*
X29965000Y-39885000D01*
X29965000Y-39885000D02*
X31435000Y-39885000D01*
X31435000Y-39885000D02*
X31435000Y-37600000D01*
X-29170000Y4580000D02*
X-29170000Y1920000D01*
X-18890000Y4580000D02*
X-29170000Y4580000D01*
X-18890000Y4580000D02*
X-18890000Y1920000D01*
X-18890000Y1920000D02*
X-29170000Y1920000D01*
X33965000Y-37600000D02*
X33965000Y-39885000D01*
X33965000Y-39885000D02*
X35435000Y-39885000D01*
X35435000Y-39885000D02*
X35435000Y-37600000D01*
%LPC*%
D14*
X30700000Y-39187500D03*
X30700000Y-37612500D03*
D15*
X-20220000Y3250000D03*
D16*
X-22760000Y3250000D03*
X-25300000Y3250000D03*
X-27840000Y3250000D03*
D17*
X66415523Y-14218956D03*
X8645485Y-8499999D03*
X-15977165Y-51506206D03*
D14*
X34700000Y-39187500D03*
X34700000Y-37612500D03*
D17*
X59947564Y-45141804D03*
D18*
X23500000Y-32000000D03*
D19*
X18000000Y-32000000D03*
D18*
X12500000Y-32000000D03*
X5500000Y0D03*
D19*
X0Y0D03*
D18*
X-5500000Y0D03*
X5500000Y-34000000D03*
D19*
X0Y-34000000D03*
D18*
X-5500000Y-34000000D03*
X61834950Y-614997D03*
D19*
X56348348Y-231336D03*
D18*
X50861746Y152325D03*
X78777265Y-33660917D03*
D19*
X73360822Y-32705852D03*
D18*
X67944379Y-31750787D03*
X21197063Y-49965363D03*
D19*
X15717992Y-50444720D03*
D18*
X10238921Y-50924077D03*
X23500000Y1999999D03*
D19*
X18000000Y1999999D03*
D18*
X12500000Y1999999D03*
X59463230Y-34532174D03*
D19*
X53976628Y-34148513D03*
D18*
X48490026Y-33764852D03*
X-21033166Y-62083391D03*
D19*
X-23699619Y-57272983D03*
D18*
X-26366072Y-52462575D03*
X23500000Y-15000000D03*
D19*
X18000000Y-15000000D03*
D18*
X12500000Y-15000000D03*
D20*
X18000000Y8215000D03*
X18000000Y10965000D03*
D18*
X75825246Y-50402649D03*
D19*
X70408803Y-49447584D03*
D18*
X64992360Y-48492519D03*
D21*
X-31530000Y-12600000D03*
X-31530000Y-9600000D03*
D18*
X41500000Y-8000000D03*
D19*
X36000000Y-8000000D03*
D18*
X30500000Y-8000000D03*
X1660838Y-52591488D03*
D19*
X-3598838Y-54199532D03*
D18*
X-8858514Y-55807576D03*
X41500000Y9000000D03*
D19*
X36000000Y9000000D03*
D18*
X30500000Y9000000D03*
D22*
X-491700Y6503000D03*
D23*
X-491700Y10303000D03*
X-11642300Y10303000D03*
D22*
X-11642600Y6503000D03*
D18*
X60649090Y-17573585D03*
D19*
X55162488Y-17189924D03*
D18*
X49675886Y-16806263D03*
X41500000Y-25000000D03*
D19*
X36000000Y-25000000D03*
D18*
X30500000Y-25000000D03*
X5500000Y-17000000D03*
D19*
X0Y-17000000D03*
D18*
X-5500000Y-17000000D03*
X81729284Y-16919185D03*
D19*
X76312841Y-15964120D03*
D18*
X70896398Y-15009055D03*
%LPD*%
M02*
