G04 #@! TF.GenerationSoftware,KiCad,Pcbnew,8.0.4*
G04 #@! TF.CreationDate,2024-10-20T02:46:56-03:00*
G04 #@! TF.ProjectId,carpo_right,63617270-6f5f-4726-9967-68742e6b6963,rev?*
G04 #@! TF.SameCoordinates,PX7b6f01cPY41b54a0*
G04 #@! TF.FileFunction,Other,User*
%FSLAX46Y46*%
G04 Gerber Fmt 4.6, Leading zero omitted, Abs format (unit mm)*
G04 Created by KiCad (PCBNEW 8.0.4) date 2024-10-20 02:46:56*
%MOMM*%
%LPD*%
G01*
G04 APERTURE LIST*
%ADD10C,0.050000*%
G04 APERTURE END LIST*
D10*
X29970000Y-36920000D02*
X31430000Y-36920000D01*
X29970000Y-39880000D02*
X29970000Y-36920000D01*
X31430000Y-36920000D02*
X31430000Y-39880000D01*
X31430000Y-39880000D02*
X29970000Y-39880000D01*
X-29620000Y5050000D02*
X-29620000Y1450000D01*
X-29620000Y1450000D02*
X-18420000Y1450000D01*
X-18420000Y5050000D02*
X-29620000Y5050000D01*
X-18420000Y1450000D02*
X-18420000Y5050000D01*
X68565523Y-14218956D02*
G75*
G02*
X64265523Y-14218956I-2150000J0D01*
G01*
X64265523Y-14218956D02*
G75*
G02*
X68565523Y-14218956I2150000J0D01*
G01*
X10795485Y-8499999D02*
G75*
G02*
X6495485Y-8499999I-2150000J0D01*
G01*
X6495485Y-8499999D02*
G75*
G02*
X10795485Y-8499999I2150000J0D01*
G01*
X-13827165Y-51506206D02*
G75*
G02*
X-18127165Y-51506206I-2150000J0D01*
G01*
X-18127165Y-51506206D02*
G75*
G02*
X-13827165Y-51506206I2150000J0D01*
G01*
X33970000Y-36920000D02*
X35430000Y-36920000D01*
X33970000Y-39880000D02*
X33970000Y-36920000D01*
X35430000Y-36920000D02*
X35430000Y-39880000D01*
X35430000Y-39880000D02*
X33970000Y-39880000D01*
X62097564Y-45141804D02*
G75*
G02*
X57797564Y-45141804I-2150000J0D01*
G01*
X57797564Y-45141804D02*
G75*
G02*
X62097564Y-45141804I2150000J0D01*
G01*
X11000000Y-39000000D02*
X25000000Y-39000000D01*
X25000000Y-25000000D01*
X11000000Y-25000000D01*
X11000000Y-39000000D01*
X-7000000Y-7000000D02*
X7000000Y-7000000D01*
X7000000Y7000000D01*
X-7000000Y7000000D01*
X-7000000Y-7000000D01*
X-7000000Y-41000000D02*
X7000000Y-41000000D01*
X7000000Y-27000000D01*
X-7000000Y-27000000D01*
X-7000000Y-41000000D01*
X63819592Y6263317D02*
X62843001Y-7702580D01*
X48877104Y-6725989D01*
X49853695Y7239908D01*
X63819592Y6263317D01*
X81470014Y-27027735D02*
X79038939Y-40815044D01*
X65251630Y-38383969D01*
X67682705Y-24596660D01*
X81470014Y-27027735D01*
X23301445Y-56807993D02*
X9354719Y-58028173D01*
X8134539Y-44081447D01*
X22081265Y-42861267D01*
X23301445Y-56807993D01*
X11000000Y-5000001D02*
X25000000Y-5000001D01*
X25000000Y8999999D01*
X11000000Y8999999D01*
X11000000Y-5000001D01*
X61447872Y-27653860D02*
X60471281Y-41619757D01*
X46505384Y-40643166D01*
X47481975Y-26677269D01*
X61447872Y-27653860D01*
X-14183614Y-60001654D02*
X-26428290Y-66788988D01*
X-33215624Y-54544312D01*
X-20970948Y-47756978D01*
X-14183614Y-60001654D01*
X11000000Y-22000000D02*
X25000000Y-22000000D01*
X25000000Y-8000000D01*
X11000000Y-8000000D01*
X11000000Y-22000000D01*
X78517995Y-43769467D02*
X76086920Y-57556776D01*
X62299611Y-55125701D01*
X64730686Y-41338392D01*
X78517995Y-43769467D01*
X29000000Y-15000000D02*
X43000000Y-15000000D01*
X43000000Y-1000000D01*
X29000000Y-1000000D01*
X29000000Y-15000000D01*
X5141897Y-58847063D02*
X-8246369Y-62940267D01*
X-12339573Y-49552001D01*
X1048693Y-45458797D01*
X5141897Y-58847063D01*
X29000000Y2000000D02*
X43000000Y2000000D01*
X43000000Y16000000D01*
X29000000Y16000000D01*
X29000000Y2000000D01*
X62633732Y-10695271D02*
X61657141Y-24661168D01*
X47691244Y-23684577D01*
X48667835Y-9718680D01*
X62633732Y-10695271D01*
X29000000Y-32000000D02*
X43000000Y-32000000D01*
X43000000Y-18000000D01*
X29000000Y-18000000D01*
X29000000Y-32000000D01*
X-7000000Y-24000000D02*
X7000000Y-24000000D01*
X7000000Y-10000000D01*
X-7000000Y-10000000D01*
X-7000000Y-24000000D01*
X84422033Y-10286003D02*
X81990958Y-24073312D01*
X68203649Y-21642237D01*
X70634724Y-7854928D01*
X84422033Y-10286003D01*
M02*
