M48
; DRILL file {KiCad 8.0.4} date 2024-10-20T02:46:58-0300
; FORMAT={-:-/ absolute / metric / decimal}
; #@! TF.CreationDate,2024-10-20T02:46:58-03:00
; #@! TF.GenerationSoftware,Kicad,Pcbnew,8.0.4
; #@! TF.FileFunction,Plated,1,2,PTH
FMAT,2
METRIC
; #@! TA.AperFunction,Plated,PTH,ViaDrill
T1C0.300
; #@! TA.AperFunction,Plated,PTH,ComponentDrill
T2C0.600
; #@! TA.AperFunction,Plated,PTH,ComponentDrill
T3C1.000
; #@! TA.AperFunction,Plated,PTH,ComponentDrill
T4C3.000
%
G90
G05
T1
X-29.63Y8.8
X-29.63Y-2.3
X-28.83Y-18.8
X-26.03Y-9.6
X-26.03Y-11.2
X-25.93Y-18.0
X-24.73Y-16.7
X-23.03Y-10.475
X-23.005Y-12.1
X-21.509Y1.15
X-21.33Y-8.9
X-21.33Y-19.0
X-19.33Y-11.3
X-17.958Y0.735
X-17.2Y-0.1
X-16.5Y-2.4
X-16.33Y-9.6
X-16.13Y1.0
X-15.43Y-3.3
X-13.93Y-3.4
X-13.93Y-10.4
X-13.93Y-12.0
X-13.93Y-13.6
X-11.73Y-3.2
X-11.13Y4.4
X-10.43Y4.4
X-10.03Y-0.8
X-9.73Y4.4
X-8.7Y-30.4
X-8.666Y-5.95
X-8.4Y-43.7
X-8.38Y4.65
X-8.13Y1.1
X-8.1Y-16.9
X-7.7Y-40.0
X-7.604Y3.25
X-6.33Y4.5
X-5.63Y3.05
X-5.4Y-30.0
X-5.23Y4.5
X-4.394Y-13.051
X-3.53Y4.7
X-3.475Y-13.051
X-3.43Y0.2
X-2.03Y4.7
X2.07Y-19.5
X2.4Y-31.5
X2.57Y5.7
X3.2Y10.4
X3.225Y6.9
X3.57Y3.0
X7.0Y-14.874
X10.07Y-20.9
X13.67Y7.1
X33.25Y-18.251
X33.322Y-17.454
X33.4Y-1.251
X33.5Y-39.2
X35.9Y-38.4
X54.97Y-27.7
X65.97Y7.7
T3
X-27.84Y3.25
X-25.3Y3.25
X-22.76Y3.25
X-20.22Y3.25
T4
X-29.403Y-54.718
X-28.904Y-60.158
X-7.284Y-59.248
X-5.0Y-3.75
X-5.0Y-20.75
X-5.0Y-37.75
X-1.859Y-59.89
X0.0Y-5.95
X0.0Y-22.95
X0.0Y-39.95
X11.064Y-54.616
X13.0Y-1.75
X13.0Y-18.75
X13.0Y-35.75
X16.237Y-56.372
X18.0Y-3.95
X18.0Y-20.95
X18.0Y-37.95
X31.0Y5.25
X31.0Y-11.75
X31.0Y-28.75
X36.0Y3.05
X36.0Y-13.95
X36.0Y-30.95
X48.727Y-37.541
X49.913Y-20.582
X51.099Y-3.623
X53.562Y-40.084
X54.747Y-23.125
X55.933Y-6.167
X64.834Y-52.272
X67.786Y-35.531
X69.376Y-55.307
X70.738Y-18.789
X72.328Y-38.565
X75.28Y-21.824
T2
X-11.643Y6.103G85X-11.643Y6.903
G05
X-11.642Y9.703G85X-11.642Y10.903
G05
X-0.492Y9.703G85X-0.492Y10.903
G05
X-0.492Y6.103G85X-0.492Y6.903
G05
M30
