G04 #@! TF.GenerationSoftware,KiCad,Pcbnew,8.0.4*
G04 #@! TF.CreationDate,2024-10-20T02:46:56-03:00*
G04 #@! TF.ProjectId,carpo_right,63617270-6f5f-4726-9967-68742e6b6963,rev?*
G04 #@! TF.SameCoordinates,PX7b6f01cPY41b54a0*
G04 #@! TF.FileFunction,Legend,Bot*
G04 #@! TF.FilePolarity,Positive*
%FSLAX46Y46*%
G04 Gerber Fmt 4.6, Leading zero omitted, Abs format (unit mm)*
G04 Created by KiCad (PCBNEW 8.0.4) date 2024-10-20 02:46:56*
%MOMM*%
%LPD*%
G01*
G04 APERTURE LIST*
G04 Aperture macros list*
%AMRoundRect*
0 Rectangle with rounded corners*
0 $1 Rounding radius*
0 $2 $3 $4 $5 $6 $7 $8 $9 X,Y pos of 4 corners*
0 Add a 4 corners polygon primitive as box body*
4,1,4,$2,$3,$4,$5,$6,$7,$8,$9,$2,$3,0*
0 Add four circle primitives for the rounded corners*
1,1,$1+$1,$2,$3*
1,1,$1+$1,$4,$5*
1,1,$1+$1,$6,$7*
1,1,$1+$1,$8,$9*
0 Add four rect primitives between the rounded corners*
20,1,$1+$1,$2,$3,$4,$5,0*
20,1,$1+$1,$4,$5,$6,$7,0*
20,1,$1+$1,$6,$7,$8,$9,0*
20,1,$1+$1,$8,$9,$2,$3,0*%
G04 Aperture macros list end*
%ADD10C,0.150000*%
%ADD11C,0.120000*%
%ADD12R,1.700000X1.700000*%
%ADD13O,1.700000X1.700000*%
%ADD14C,4.300000*%
%ADD15RoundRect,0.225000X-0.330232X0.286700X-0.408374X-0.156464X0.330232X-0.286700X0.408374X0.156464X0*%
%ADD16C,1.700000*%
%ADD17C,3.400000*%
%ADD18C,3.300000*%
%ADD19RoundRect,0.260000X1.065000X1.040000X-1.065000X1.040000X-1.065000X-1.040000X1.065000X-1.040000X0*%
%ADD20RoundRect,0.200000X-0.200000X-0.275000X0.200000X-0.275000X0.200000X0.275000X-0.200000X0.275000X0*%
%ADD21RoundRect,0.225000X-0.424398X0.105529X-0.292831X-0.324808X0.424398X-0.105529X0.292831X0.324808X0*%
%ADD22RoundRect,0.243750X-0.243750X-0.456250X0.243750X-0.456250X0.243750X0.456250X-0.243750X0.456250X0*%
%ADD23RoundRect,0.225000X-0.250000X0.225000X-0.250000X-0.225000X0.250000X-0.225000X0.250000X0.225000X0*%
%ADD24RoundRect,0.225000X-0.375000X0.225000X-0.375000X-0.225000X0.375000X-0.225000X0.375000X0.225000X0*%
%ADD25RoundRect,0.260000X1.134952X0.963176X-0.989859X1.111757X-1.134952X-0.963176X0.989859X-1.111757X0*%
%ADD26RoundRect,0.260000X1.229414X0.839265X-0.868226X1.209135X-1.229414X-0.839265X0.868226X-1.209135X0*%
%ADD27RoundRect,0.260000X0.970305X1.128863X-1.151589X0.943222X-0.970305X-1.128863X1.151589X-0.943222X0*%
%ADD28R,0.700000X1.524000*%
%ADD29R,1.524000X0.700000*%
%ADD30RoundRect,0.150000X-0.512500X-0.150000X0.512500X-0.150000X0.512500X0.150000X-0.512500X0.150000X0*%
%ADD31RoundRect,0.225000X-0.358391X0.250611X-0.389782X-0.198293X0.358391X-0.250611X0.389782X0.198293X0*%
%ADD32RoundRect,0.260000X1.425927X-0.427268X0.393282X1.435672X-1.425927X0.427268X-0.393282X-1.435672X0*%
%ADD33RoundRect,0.225000X0.225000X0.250000X-0.225000X0.250000X-0.225000X-0.250000X0.225000X-0.250000X0*%
%ADD34C,0.750000*%
%ADD35R,1.550000X1.000000*%
%ADD36RoundRect,0.225000X-0.225000X-0.375000X0.225000X-0.375000X0.225000X0.375000X-0.225000X0.375000X0*%
%ADD37RoundRect,0.200000X0.200000X0.275000X-0.200000X0.275000X-0.200000X-0.275000X0.200000X-0.275000X0*%
%ADD38R,0.800000X1.000000*%
%ADD39C,0.900000*%
%ADD40R,1.500000X0.700000*%
%ADD41RoundRect,0.200000X0.275000X-0.200000X0.275000X0.200000X-0.275000X0.200000X-0.275000X-0.200000X0*%
%ADD42RoundRect,0.260000X0.714398X1.305933X-1.322531X0.683181X-0.714398X-1.305933X1.322531X-0.683181X0*%
%ADD43RoundRect,0.225000X-0.225000X-0.250000X0.225000X-0.250000X0.225000X0.250000X-0.225000X0.250000X0*%
%ADD44RoundRect,0.150000X0.587500X0.150000X-0.587500X0.150000X-0.587500X-0.150000X0.587500X-0.150000X0*%
%ADD45RoundRect,0.225000X-0.393183X0.191460X-0.353963X-0.256827X0.393183X-0.191460X0.353963X0.256827X0*%
%ADD46R,0.540000X0.800000*%
%ADD47R,0.300000X0.800000*%
%ADD48O,1.000000X1.800000*%
%ADD49O,1.000000X2.200000*%
%ADD50RoundRect,0.150000X-0.587500X-0.150000X0.587500X-0.150000X0.587500X0.150000X-0.587500X0.150000X0*%
%ADD51RoundRect,0.093750X0.156250X0.093750X-0.156250X0.093750X-0.156250X-0.093750X0.156250X-0.093750X0*%
%ADD52RoundRect,0.075000X0.250000X0.075000X-0.250000X0.075000X-0.250000X-0.075000X0.250000X-0.075000X0*%
%ADD53RoundRect,0.225000X0.014986X0.437065X-0.378593X0.218900X-0.014986X-0.437065X0.378593X-0.218900X0*%
%ADD54RoundRect,0.150000X0.275000X-0.150000X0.275000X0.150000X-0.275000X0.150000X-0.275000X-0.150000X0*%
%ADD55RoundRect,0.175000X0.225000X-0.175000X0.225000X0.175000X-0.225000X0.175000X-0.225000X-0.175000X0*%
%ADD56RoundRect,0.200000X-0.275000X0.200000X-0.275000X-0.200000X0.275000X-0.200000X0.275000X0.200000X0*%
G04 APERTURE END LIST*
D10*
X-3019049Y-45873866D02*
X-3780953Y-45873866D01*
X-3400001Y-46254819D02*
X-3400001Y-45492914D01*
X-23009516Y1595181D02*
X-23009516Y880896D01*
X-23009516Y880896D02*
X-22961897Y738039D01*
X-22961897Y738039D02*
X-22866659Y642800D01*
X-22866659Y642800D02*
X-22723802Y595181D01*
X-22723802Y595181D02*
X-22628564Y595181D01*
X-23438088Y642800D02*
X-23580945Y595181D01*
X-23580945Y595181D02*
X-23819040Y595181D01*
X-23819040Y595181D02*
X-23914278Y642800D01*
X-23914278Y642800D02*
X-23961897Y690420D01*
X-23961897Y690420D02*
X-24009516Y785658D01*
X-24009516Y785658D02*
X-24009516Y880896D01*
X-24009516Y880896D02*
X-23961897Y976134D01*
X-23961897Y976134D02*
X-23914278Y1023753D01*
X-23914278Y1023753D02*
X-23819040Y1071372D01*
X-23819040Y1071372D02*
X-23628564Y1118991D01*
X-23628564Y1118991D02*
X-23533326Y1166610D01*
X-23533326Y1166610D02*
X-23485707Y1214229D01*
X-23485707Y1214229D02*
X-23438088Y1309467D01*
X-23438088Y1309467D02*
X-23438088Y1404705D01*
X-23438088Y1404705D02*
X-23485707Y1499943D01*
X-23485707Y1499943D02*
X-23533326Y1547562D01*
X-23533326Y1547562D02*
X-23628564Y1595181D01*
X-23628564Y1595181D02*
X-23866659Y1595181D01*
X-23866659Y1595181D02*
X-24009516Y1547562D01*
X-24342850Y1595181D02*
X-24580945Y595181D01*
X-24580945Y595181D02*
X-24771421Y1309467D01*
X-24771421Y1309467D02*
X-24961897Y595181D01*
X-24961897Y595181D02*
X-25199992Y1595181D01*
X-25580945Y595181D02*
X-25580945Y1595181D01*
X-25580945Y1595181D02*
X-25819040Y1595181D01*
X-25819040Y1595181D02*
X-25961897Y1547562D01*
X-25961897Y1547562D02*
X-26057135Y1452324D01*
X-26057135Y1452324D02*
X-26104754Y1357086D01*
X-26104754Y1357086D02*
X-26152373Y1166610D01*
X-26152373Y1166610D02*
X-26152373Y1023753D01*
X-26152373Y1023753D02*
X-26104754Y833277D01*
X-26104754Y833277D02*
X-26057135Y738039D01*
X-26057135Y738039D02*
X-25961897Y642800D01*
X-25961897Y642800D02*
X-25819040Y595181D01*
X-25819040Y595181D02*
X-25580945Y595181D01*
X-27104754Y595181D02*
X-26533326Y595181D01*
X-26819040Y595181D02*
X-26819040Y1595181D01*
X-26819040Y1595181D02*
X-26723802Y1452324D01*
X-26723802Y1452324D02*
X-26628564Y1357086D01*
X-26628564Y1357086D02*
X-26533326Y1309467D01*
X78543682Y-27817952D02*
X77558875Y-27644304D01*
X77558875Y-27644304D02*
X77517530Y-27878782D01*
X77517530Y-27878782D02*
X77539619Y-28027738D01*
X77539619Y-28027738D02*
X77616872Y-28138067D01*
X77616872Y-28138067D02*
X77702394Y-28201500D01*
X77702394Y-28201500D02*
X77881708Y-28281472D01*
X77881708Y-28281472D02*
X78022394Y-28306279D01*
X78022394Y-28306279D02*
X78218246Y-28292459D01*
X78218246Y-28292459D02*
X78320306Y-28262101D01*
X78320306Y-28262101D02*
X78430635Y-28184848D01*
X78430635Y-28184848D02*
X78502338Y-28052430D01*
X78502338Y-28052430D02*
X78543682Y-27817952D01*
X78279076Y-29318611D02*
X78378303Y-28755864D01*
X78328689Y-29037238D02*
X77343882Y-28863590D01*
X77343882Y-28863590D02*
X77501106Y-28794605D01*
X77501106Y-28794605D02*
X77611435Y-28717352D01*
X77611435Y-28717352D02*
X77674869Y-28631830D01*
X77186771Y-29754606D02*
X77170233Y-29848397D01*
X77170233Y-29848397D02*
X77200591Y-29950458D01*
X77200591Y-29950458D02*
X77239218Y-30005622D01*
X77239218Y-30005622D02*
X77324740Y-30069056D01*
X77324740Y-30069056D02*
X77504053Y-30149027D01*
X77504053Y-30149027D02*
X77738532Y-30190372D01*
X77738532Y-30190372D02*
X77934383Y-30176552D01*
X77934383Y-30176552D02*
X78036443Y-30146194D01*
X78036443Y-30146194D02*
X78091608Y-30107568D01*
X78091608Y-30107568D02*
X78155041Y-30022046D01*
X78155041Y-30022046D02*
X78171579Y-29928254D01*
X78171579Y-29928254D02*
X78141221Y-29826194D01*
X78141221Y-29826194D02*
X78102595Y-29771030D01*
X78102595Y-29771030D02*
X78017073Y-29707596D01*
X78017073Y-29707596D02*
X77837759Y-29627625D01*
X77837759Y-29627625D02*
X77603281Y-29586280D01*
X77603281Y-29586280D02*
X77407430Y-29600100D01*
X77407430Y-29600100D02*
X77305369Y-29630457D01*
X77305369Y-29630457D02*
X77250205Y-29669084D01*
X77250205Y-29669084D02*
X77186771Y-29754606D01*
X14809523Y-39807200D02*
X14666666Y-39854819D01*
X14666666Y-39854819D02*
X14428571Y-39854819D01*
X14428571Y-39854819D02*
X14333333Y-39807200D01*
X14333333Y-39807200D02*
X14285714Y-39759580D01*
X14285714Y-39759580D02*
X14238095Y-39664342D01*
X14238095Y-39664342D02*
X14238095Y-39569104D01*
X14238095Y-39569104D02*
X14285714Y-39473866D01*
X14285714Y-39473866D02*
X14333333Y-39426247D01*
X14333333Y-39426247D02*
X14428571Y-39378628D01*
X14428571Y-39378628D02*
X14619047Y-39331009D01*
X14619047Y-39331009D02*
X14714285Y-39283390D01*
X14714285Y-39283390D02*
X14761904Y-39235771D01*
X14761904Y-39235771D02*
X14809523Y-39140533D01*
X14809523Y-39140533D02*
X14809523Y-39045295D01*
X14809523Y-39045295D02*
X14761904Y-38950057D01*
X14761904Y-38950057D02*
X14714285Y-38902438D01*
X14714285Y-38902438D02*
X14619047Y-38854819D01*
X14619047Y-38854819D02*
X14380952Y-38854819D01*
X14380952Y-38854819D02*
X14238095Y-38902438D01*
X13904761Y-38854819D02*
X13666666Y-39854819D01*
X13666666Y-39854819D02*
X13476190Y-39140533D01*
X13476190Y-39140533D02*
X13285714Y-39854819D01*
X13285714Y-39854819D02*
X13047619Y-38854819D01*
X12142857Y-39854819D02*
X12714285Y-39854819D01*
X12428571Y-39854819D02*
X12428571Y-38854819D01*
X12428571Y-38854819D02*
X12523809Y-38997676D01*
X12523809Y-38997676D02*
X12619047Y-39092914D01*
X12619047Y-39092914D02*
X12714285Y-39140533D01*
X11761904Y-38950057D02*
X11714285Y-38902438D01*
X11714285Y-38902438D02*
X11619047Y-38854819D01*
X11619047Y-38854819D02*
X11380952Y-38854819D01*
X11380952Y-38854819D02*
X11285714Y-38902438D01*
X11285714Y-38902438D02*
X11238095Y-38950057D01*
X11238095Y-38950057D02*
X11190476Y-39045295D01*
X11190476Y-39045295D02*
X11190476Y-39140533D01*
X11190476Y-39140533D02*
X11238095Y-39283390D01*
X11238095Y-39283390D02*
X11809523Y-39854819D01*
X11809523Y-39854819D02*
X11190476Y-39854819D01*
X-633334Y2545181D02*
X-300001Y3021372D01*
X-61906Y2545181D02*
X-61906Y3545181D01*
X-61906Y3545181D02*
X-442858Y3545181D01*
X-442858Y3545181D02*
X-538096Y3497562D01*
X-538096Y3497562D02*
X-585715Y3449943D01*
X-585715Y3449943D02*
X-633334Y3354705D01*
X-633334Y3354705D02*
X-633334Y3211848D01*
X-633334Y3211848D02*
X-585715Y3116610D01*
X-585715Y3116610D02*
X-538096Y3068991D01*
X-538096Y3068991D02*
X-442858Y3021372D01*
X-442858Y3021372D02*
X-61906Y3021372D01*
X-1585715Y2545181D02*
X-1014287Y2545181D01*
X-1300001Y2545181D02*
X-1300001Y3545181D01*
X-1300001Y3545181D02*
X-1204763Y3402324D01*
X-1204763Y3402324D02*
X-1109525Y3307086D01*
X-1109525Y3307086D02*
X-1014287Y3259467D01*
X-1359781Y-50079820D02*
X-403477Y-49787448D01*
X-403477Y-49787448D02*
X-473089Y-49559757D01*
X-473089Y-49559757D02*
X-560395Y-49437064D01*
X-560395Y-49437064D02*
X-679316Y-49373832D01*
X-679316Y-49373832D02*
X-784315Y-49356139D01*
X-784315Y-49356139D02*
X-980391Y-49366291D01*
X-980391Y-49366291D02*
X-1117006Y-49408058D01*
X-1117006Y-49408058D02*
X-1285237Y-49509286D01*
X-1285237Y-49509286D02*
X-1362391Y-49582669D01*
X-1362391Y-49582669D02*
X-1425623Y-49701591D01*
X-1425623Y-49701591D02*
X-1429394Y-49852128D01*
X-1429394Y-49852128D02*
X-1359781Y-50079820D01*
X-1805300Y-48622594D02*
X-1638231Y-49169054D01*
X-1721765Y-48895824D02*
X-765461Y-48603452D01*
X-765461Y-48603452D02*
X-874231Y-48736296D01*
X-874231Y-48736296D02*
X-937462Y-48855217D01*
X-937462Y-48855217D02*
X-955156Y-48960217D01*
X-946453Y-48011454D02*
X-1141367Y-47373917D01*
X-1141367Y-47373917D02*
X-1972370Y-48076134D01*
X-12396199Y2168991D02*
X-12062866Y2168991D01*
X-12062866Y1645181D02*
X-12062866Y2645181D01*
X-12062866Y2645181D02*
X-12539056Y2645181D01*
X-13443818Y1645181D02*
X-12872390Y1645181D01*
X-13158104Y1645181D02*
X-13158104Y2645181D01*
X-13158104Y2645181D02*
X-13062866Y2502324D01*
X-13062866Y2502324D02*
X-12967628Y2407086D01*
X-12967628Y2407086D02*
X-12872390Y2359467D01*
X-3666668Y-7807200D02*
X-3809525Y-7854819D01*
X-3809525Y-7854819D02*
X-4047620Y-7854819D01*
X-4047620Y-7854819D02*
X-4142858Y-7807200D01*
X-4142858Y-7807200D02*
X-4190477Y-7759580D01*
X-4190477Y-7759580D02*
X-4238096Y-7664342D01*
X-4238096Y-7664342D02*
X-4238096Y-7569104D01*
X-4238096Y-7569104D02*
X-4190477Y-7473866D01*
X-4190477Y-7473866D02*
X-4142858Y-7426247D01*
X-4142858Y-7426247D02*
X-4047620Y-7378628D01*
X-4047620Y-7378628D02*
X-3857144Y-7331009D01*
X-3857144Y-7331009D02*
X-3761906Y-7283390D01*
X-3761906Y-7283390D02*
X-3714287Y-7235771D01*
X-3714287Y-7235771D02*
X-3666668Y-7140533D01*
X-3666668Y-7140533D02*
X-3666668Y-7045295D01*
X-3666668Y-7045295D02*
X-3714287Y-6950057D01*
X-3714287Y-6950057D02*
X-3761906Y-6902438D01*
X-3761906Y-6902438D02*
X-3857144Y-6854819D01*
X-3857144Y-6854819D02*
X-4095239Y-6854819D01*
X-4095239Y-6854819D02*
X-4238096Y-6902438D01*
X-4571430Y-6854819D02*
X-4809525Y-7854819D01*
X-4809525Y-7854819D02*
X-5000001Y-7140533D01*
X-5000001Y-7140533D02*
X-5190477Y-7854819D01*
X-5190477Y-7854819D02*
X-5428572Y-6854819D01*
X-6333334Y-7854819D02*
X-5761906Y-7854819D01*
X-6047620Y-7854819D02*
X-6047620Y-6854819D01*
X-6047620Y-6854819D02*
X-5952382Y-6997676D01*
X-5952382Y-6997676D02*
X-5857144Y-7092914D01*
X-5857144Y-7092914D02*
X-5761906Y-7140533D01*
X-3290477Y-41407200D02*
X-3433334Y-41454819D01*
X-3433334Y-41454819D02*
X-3671429Y-41454819D01*
X-3671429Y-41454819D02*
X-3766667Y-41407200D01*
X-3766667Y-41407200D02*
X-3814286Y-41359580D01*
X-3814286Y-41359580D02*
X-3861905Y-41264342D01*
X-3861905Y-41264342D02*
X-3861905Y-41169104D01*
X-3861905Y-41169104D02*
X-3814286Y-41073866D01*
X-3814286Y-41073866D02*
X-3766667Y-41026247D01*
X-3766667Y-41026247D02*
X-3671429Y-40978628D01*
X-3671429Y-40978628D02*
X-3480953Y-40931009D01*
X-3480953Y-40931009D02*
X-3385715Y-40883390D01*
X-3385715Y-40883390D02*
X-3338096Y-40835771D01*
X-3338096Y-40835771D02*
X-3290477Y-40740533D01*
X-3290477Y-40740533D02*
X-3290477Y-40645295D01*
X-3290477Y-40645295D02*
X-3338096Y-40550057D01*
X-3338096Y-40550057D02*
X-3385715Y-40502438D01*
X-3385715Y-40502438D02*
X-3480953Y-40454819D01*
X-3480953Y-40454819D02*
X-3719048Y-40454819D01*
X-3719048Y-40454819D02*
X-3861905Y-40502438D01*
X-4195239Y-40454819D02*
X-4433334Y-41454819D01*
X-4433334Y-41454819D02*
X-4623810Y-40740533D01*
X-4623810Y-40740533D02*
X-4814286Y-41454819D01*
X-4814286Y-41454819D02*
X-5052381Y-40454819D01*
X-5957143Y-41454819D02*
X-5385715Y-41454819D01*
X-5671429Y-41454819D02*
X-5671429Y-40454819D01*
X-5671429Y-40454819D02*
X-5576191Y-40597676D01*
X-5576191Y-40597676D02*
X-5480953Y-40692914D01*
X-5480953Y-40692914D02*
X-5385715Y-40740533D01*
X-6909524Y-41454819D02*
X-6338096Y-41454819D01*
X-6623810Y-41454819D02*
X-6623810Y-40454819D01*
X-6623810Y-40454819D02*
X-6528572Y-40597676D01*
X-6528572Y-40597676D02*
X-6433334Y-40692914D01*
X-6433334Y-40692914D02*
X-6338096Y-40740533D01*
X-21869952Y-7033333D02*
X-21822332Y-6985714D01*
X-21822332Y-6985714D02*
X-21774713Y-6842857D01*
X-21774713Y-6842857D02*
X-21774713Y-6747619D01*
X-21774713Y-6747619D02*
X-21822332Y-6604762D01*
X-21822332Y-6604762D02*
X-21917571Y-6509524D01*
X-21917571Y-6509524D02*
X-22012809Y-6461905D01*
X-22012809Y-6461905D02*
X-22203285Y-6414286D01*
X-22203285Y-6414286D02*
X-22346142Y-6414286D01*
X-22346142Y-6414286D02*
X-22536618Y-6461905D01*
X-22536618Y-6461905D02*
X-22631856Y-6509524D01*
X-22631856Y-6509524D02*
X-22727094Y-6604762D01*
X-22727094Y-6604762D02*
X-22774713Y-6747619D01*
X-22774713Y-6747619D02*
X-22774713Y-6842857D01*
X-22774713Y-6842857D02*
X-22727094Y-6985714D01*
X-22727094Y-6985714D02*
X-22679475Y-7033333D01*
X-22774713Y-7938095D02*
X-22774713Y-7461905D01*
X-22774713Y-7461905D02*
X-22298523Y-7414286D01*
X-22298523Y-7414286D02*
X-22346142Y-7461905D01*
X-22346142Y-7461905D02*
X-22393761Y-7557143D01*
X-22393761Y-7557143D02*
X-22393761Y-7795238D01*
X-22393761Y-7795238D02*
X-22346142Y-7890476D01*
X-22346142Y-7890476D02*
X-22298523Y-7938095D01*
X-22298523Y-7938095D02*
X-22203285Y-7985714D01*
X-22203285Y-7985714D02*
X-21965190Y-7985714D01*
X-21965190Y-7985714D02*
X-21869952Y-7938095D01*
X-21869952Y-7938095D02*
X-21822332Y-7890476D01*
X-21822332Y-7890476D02*
X-21774713Y-7795238D01*
X-21774713Y-7795238D02*
X-21774713Y-7557143D01*
X-21774713Y-7557143D02*
X-21822332Y-7461905D01*
X-21822332Y-7461905D02*
X-21869952Y-7414286D01*
X75591663Y-44559684D02*
X74606856Y-44386036D01*
X74606856Y-44386036D02*
X74565511Y-44620514D01*
X74565511Y-44620514D02*
X74587600Y-44769470D01*
X74587600Y-44769470D02*
X74664853Y-44879799D01*
X74664853Y-44879799D02*
X74750375Y-44943232D01*
X74750375Y-44943232D02*
X74929689Y-45023204D01*
X74929689Y-45023204D02*
X75070375Y-45048011D01*
X75070375Y-45048011D02*
X75266227Y-45034191D01*
X75266227Y-45034191D02*
X75368287Y-45003833D01*
X75368287Y-45003833D02*
X75478616Y-44926580D01*
X75478616Y-44926580D02*
X75550319Y-44794162D01*
X75550319Y-44794162D02*
X75591663Y-44559684D01*
X75327057Y-46060343D02*
X75426284Y-45497596D01*
X75376670Y-45778970D02*
X74391863Y-45605322D01*
X74391863Y-45605322D02*
X74549087Y-45536337D01*
X74549087Y-45536337D02*
X74659416Y-45459084D01*
X74659416Y-45459084D02*
X74722850Y-45373562D01*
X74185139Y-46777712D02*
X74267828Y-46308756D01*
X74267828Y-46308756D02*
X74745053Y-46344550D01*
X74745053Y-46344550D02*
X74689889Y-46383176D01*
X74689889Y-46383176D02*
X74626455Y-46468699D01*
X74626455Y-46468699D02*
X74585110Y-46703177D01*
X74585110Y-46703177D02*
X74615468Y-46805237D01*
X74615468Y-46805237D02*
X74654095Y-46860401D01*
X74654095Y-46860401D02*
X74739617Y-46923835D01*
X74739617Y-46923835D02*
X74974095Y-46965180D01*
X74974095Y-46965180D02*
X75076155Y-46934822D01*
X75076155Y-46934822D02*
X75131320Y-46896195D01*
X75131320Y-46896195D02*
X75194753Y-46810673D01*
X75194753Y-46810673D02*
X75236098Y-46576195D01*
X75236098Y-46576195D02*
X75205740Y-46474135D01*
X75205740Y-46474135D02*
X75167114Y-46418970D01*
X22255346Y-26286364D02*
X21255346Y-26286364D01*
X21255346Y-26286364D02*
X21255346Y-26524459D01*
X21255346Y-26524459D02*
X21302965Y-26667316D01*
X21302965Y-26667316D02*
X21398203Y-26762554D01*
X21398203Y-26762554D02*
X21493441Y-26810173D01*
X21493441Y-26810173D02*
X21683917Y-26857792D01*
X21683917Y-26857792D02*
X21826774Y-26857792D01*
X21826774Y-26857792D02*
X22017250Y-26810173D01*
X22017250Y-26810173D02*
X22112488Y-26762554D01*
X22112488Y-26762554D02*
X22207727Y-26667316D01*
X22207727Y-26667316D02*
X22255346Y-26524459D01*
X22255346Y-26524459D02*
X22255346Y-26286364D01*
X22255346Y-27810173D02*
X22255346Y-27238745D01*
X22255346Y-27524459D02*
X21255346Y-27524459D01*
X21255346Y-27524459D02*
X21398203Y-27429221D01*
X21398203Y-27429221D02*
X21493441Y-27333983D01*
X21493441Y-27333983D02*
X21541060Y-27238745D01*
X21350584Y-28191126D02*
X21302965Y-28238745D01*
X21302965Y-28238745D02*
X21255346Y-28333983D01*
X21255346Y-28333983D02*
X21255346Y-28572078D01*
X21255346Y-28572078D02*
X21302965Y-28667316D01*
X21302965Y-28667316D02*
X21350584Y-28714935D01*
X21350584Y-28714935D02*
X21445822Y-28762554D01*
X21445822Y-28762554D02*
X21541060Y-28762554D01*
X21541060Y-28762554D02*
X21683917Y-28714935D01*
X21683917Y-28714935D02*
X22255346Y-28143507D01*
X22255346Y-28143507D02*
X22255346Y-28762554D01*
X40255346Y-19286364D02*
X39255346Y-19286364D01*
X39255346Y-19286364D02*
X39255346Y-19524459D01*
X39255346Y-19524459D02*
X39302965Y-19667316D01*
X39302965Y-19667316D02*
X39398203Y-19762554D01*
X39398203Y-19762554D02*
X39493441Y-19810173D01*
X39493441Y-19810173D02*
X39683917Y-19857792D01*
X39683917Y-19857792D02*
X39826774Y-19857792D01*
X39826774Y-19857792D02*
X40017250Y-19810173D01*
X40017250Y-19810173D02*
X40112488Y-19762554D01*
X40112488Y-19762554D02*
X40207727Y-19667316D01*
X40207727Y-19667316D02*
X40255346Y-19524459D01*
X40255346Y-19524459D02*
X40255346Y-19286364D01*
X40255346Y-20810173D02*
X40255346Y-20238745D01*
X40255346Y-20524459D02*
X39255346Y-20524459D01*
X39255346Y-20524459D02*
X39398203Y-20429221D01*
X39398203Y-20429221D02*
X39493441Y-20333983D01*
X39493441Y-20333983D02*
X39541060Y-20238745D01*
X39255346Y-21143507D02*
X39255346Y-21762554D01*
X39255346Y-21762554D02*
X39636298Y-21429221D01*
X39636298Y-21429221D02*
X39636298Y-21572078D01*
X39636298Y-21572078D02*
X39683917Y-21667316D01*
X39683917Y-21667316D02*
X39731536Y-21714935D01*
X39731536Y-21714935D02*
X39826774Y-21762554D01*
X39826774Y-21762554D02*
X40064869Y-21762554D01*
X40064869Y-21762554D02*
X40160107Y-21714935D01*
X40160107Y-21714935D02*
X40207727Y-21667316D01*
X40207727Y-21667316D02*
X40255346Y-21572078D01*
X40255346Y-21572078D02*
X40255346Y-21286364D01*
X40255346Y-21286364D02*
X40207727Y-21191126D01*
X40207727Y-21191126D02*
X40160107Y-21143507D01*
X52146010Y-7763743D02*
X52000179Y-7801281D01*
X52000179Y-7801281D02*
X51762663Y-7784672D01*
X51762663Y-7784672D02*
X51670979Y-7730526D01*
X51670979Y-7730526D02*
X51626798Y-7679701D01*
X51626798Y-7679701D02*
X51585938Y-7581373D01*
X51585938Y-7581373D02*
X51592582Y-7486367D01*
X51592582Y-7486367D02*
X51646728Y-7394683D01*
X51646728Y-7394683D02*
X51697553Y-7350501D01*
X51697553Y-7350501D02*
X51795881Y-7309642D01*
X51795881Y-7309642D02*
X51989215Y-7275426D01*
X51989215Y-7275426D02*
X52087543Y-7234566D01*
X52087543Y-7234566D02*
X52138367Y-7190385D01*
X52138367Y-7190385D02*
X52192514Y-7098700D01*
X52192514Y-7098700D02*
X52199157Y-7003694D01*
X52199157Y-7003694D02*
X52158298Y-6905367D01*
X52158298Y-6905367D02*
X52114116Y-6854542D01*
X52114116Y-6854542D02*
X52022432Y-6800395D01*
X52022432Y-6800395D02*
X51784917Y-6783787D01*
X51784917Y-6783787D02*
X51639086Y-6821324D01*
X51309886Y-6750569D02*
X51002615Y-7731525D01*
X51002615Y-7731525D02*
X50862428Y-7005692D01*
X50862428Y-7005692D02*
X50622590Y-7704951D01*
X50622590Y-7704951D02*
X50454831Y-6690778D01*
X49624028Y-6966830D02*
X49577523Y-7631872D01*
X49888117Y-6603414D02*
X50075806Y-7332568D01*
X50075806Y-7332568D02*
X49458266Y-7289386D01*
X68863109Y-39840422D02*
X68714153Y-39862510D01*
X68714153Y-39862510D02*
X68479675Y-39821166D01*
X68479675Y-39821166D02*
X68394153Y-39757732D01*
X68394153Y-39757732D02*
X68355526Y-39702568D01*
X68355526Y-39702568D02*
X68325169Y-39600507D01*
X68325169Y-39600507D02*
X68341707Y-39506716D01*
X68341707Y-39506716D02*
X68405140Y-39421194D01*
X68405140Y-39421194D02*
X68460305Y-39382567D01*
X68460305Y-39382567D02*
X68562365Y-39352210D01*
X68562365Y-39352210D02*
X68758216Y-39338390D01*
X68758216Y-39338390D02*
X68860276Y-39308032D01*
X68860276Y-39308032D02*
X68915441Y-39269405D01*
X68915441Y-39269405D02*
X68978874Y-39183883D01*
X68978874Y-39183883D02*
X68995412Y-39090092D01*
X68995412Y-39090092D02*
X68965055Y-38988032D01*
X68965055Y-38988032D02*
X68926428Y-38932867D01*
X68926428Y-38932867D02*
X68840906Y-38869434D01*
X68840906Y-38869434D02*
X68606428Y-38828089D01*
X68606428Y-38828089D02*
X68457472Y-38850178D01*
X68137472Y-38745399D02*
X67729345Y-39688862D01*
X67729345Y-39688862D02*
X67665797Y-38952352D01*
X67665797Y-38952352D02*
X67354181Y-39622711D01*
X67354181Y-39622711D02*
X67293351Y-38596558D01*
X66228686Y-39424256D02*
X66791433Y-39523483D01*
X66510060Y-39473869D02*
X66683708Y-38489062D01*
X66683708Y-38489062D02*
X66752692Y-38646286D01*
X66752692Y-38646286D02*
X66829946Y-38756615D01*
X66829946Y-38756615D02*
X66915468Y-38820049D01*
X65792691Y-38331951D02*
X65698900Y-38315413D01*
X65698900Y-38315413D02*
X65596840Y-38345771D01*
X65596840Y-38345771D02*
X65541675Y-38384398D01*
X65541675Y-38384398D02*
X65478242Y-38469920D01*
X65478242Y-38469920D02*
X65398270Y-38649233D01*
X65398270Y-38649233D02*
X65356926Y-38883711D01*
X65356926Y-38883711D02*
X65370745Y-39079563D01*
X65370745Y-39079563D02*
X65401103Y-39181623D01*
X65401103Y-39181623D02*
X65439730Y-39236788D01*
X65439730Y-39236788D02*
X65525252Y-39300221D01*
X65525252Y-39300221D02*
X65619043Y-39316759D01*
X65619043Y-39316759D02*
X65721103Y-39286401D01*
X65721103Y-39286401D02*
X65776268Y-39247775D01*
X65776268Y-39247775D02*
X65839701Y-39162252D01*
X65839701Y-39162252D02*
X65919673Y-38982939D01*
X65919673Y-38982939D02*
X65961018Y-38748461D01*
X65961018Y-38748461D02*
X65947198Y-38552610D01*
X65947198Y-38552610D02*
X65916840Y-38450549D01*
X65916840Y-38450549D02*
X65878214Y-38395385D01*
X65878214Y-38395385D02*
X65792691Y-38331951D01*
X13220098Y-58500279D02*
X13081935Y-58560167D01*
X13081935Y-58560167D02*
X12844746Y-58580919D01*
X12844746Y-58580919D02*
X12745720Y-58541781D01*
X12745720Y-58541781D02*
X12694132Y-58498494D01*
X12694132Y-58498494D02*
X12638393Y-58407768D01*
X12638393Y-58407768D02*
X12630093Y-58312893D01*
X12630093Y-58312893D02*
X12669230Y-58213867D01*
X12669230Y-58213867D02*
X12712518Y-58162279D01*
X12712518Y-58162279D02*
X12803243Y-58106540D01*
X12803243Y-58106540D02*
X12988844Y-58042501D01*
X12988844Y-58042501D02*
X13079570Y-57986763D01*
X13079570Y-57986763D02*
X13122857Y-57935175D01*
X13122857Y-57935175D02*
X13161995Y-57836149D01*
X13161995Y-57836149D02*
X13153694Y-57741273D01*
X13153694Y-57741273D02*
X13097956Y-57650548D01*
X13097956Y-57650548D02*
X13046367Y-57607260D01*
X13046367Y-57607260D02*
X12947342Y-57568123D01*
X12947342Y-57568123D02*
X12710152Y-57588874D01*
X12710152Y-57588874D02*
X12571989Y-57648763D01*
X12235774Y-57630377D02*
X12085740Y-58647323D01*
X12085740Y-58647323D02*
X11833735Y-57952356D01*
X11833735Y-57952356D02*
X11706238Y-58680525D01*
X11706238Y-58680525D02*
X11381893Y-57705082D01*
X10567730Y-58780132D02*
X11136984Y-58730328D01*
X10852357Y-58755230D02*
X10765201Y-57759035D01*
X10765201Y-57759035D02*
X10872527Y-57893048D01*
X10872527Y-57893048D02*
X10975704Y-57979624D01*
X10975704Y-57979624D02*
X11074730Y-58018761D01*
X9948672Y-58260681D02*
X10039397Y-58204943D01*
X10039397Y-58204943D02*
X10082685Y-58153354D01*
X10082685Y-58153354D02*
X10121822Y-58054328D01*
X10121822Y-58054328D02*
X10117672Y-58006891D01*
X10117672Y-58006891D02*
X10061934Y-57916165D01*
X10061934Y-57916165D02*
X10010346Y-57872878D01*
X10010346Y-57872878D02*
X9911320Y-57833740D01*
X9911320Y-57833740D02*
X9721568Y-57850341D01*
X9721568Y-57850341D02*
X9630843Y-57906080D01*
X9630843Y-57906080D02*
X9587555Y-57957668D01*
X9587555Y-57957668D02*
X9548418Y-58056694D01*
X9548418Y-58056694D02*
X9552568Y-58104132D01*
X9552568Y-58104132D02*
X9608307Y-58194857D01*
X9608307Y-58194857D02*
X9659895Y-58238145D01*
X9659895Y-58238145D02*
X9758921Y-58277282D01*
X9758921Y-58277282D02*
X9948672Y-58260681D01*
X9948672Y-58260681D02*
X10047698Y-58299818D01*
X10047698Y-58299818D02*
X10099286Y-58343106D01*
X10099286Y-58343106D02*
X10155025Y-58433831D01*
X10155025Y-58433831D02*
X10171626Y-58623583D01*
X10171626Y-58623583D02*
X10132488Y-58722609D01*
X10132488Y-58722609D02*
X10089201Y-58774197D01*
X10089201Y-58774197D02*
X9998475Y-58829935D01*
X9998475Y-58829935D02*
X9808724Y-58846536D01*
X9808724Y-58846536D02*
X9709698Y-58807399D01*
X9709698Y-58807399D02*
X9658110Y-58764111D01*
X9658110Y-58764111D02*
X9602372Y-58673386D01*
X9602372Y-58673386D02*
X9585770Y-58483634D01*
X9585770Y-58483634D02*
X9624908Y-58384609D01*
X9624908Y-58384609D02*
X9668195Y-58333020D01*
X9668195Y-58333020D02*
X9758921Y-58277282D01*
X14333332Y-5807201D02*
X14190475Y-5854820D01*
X14190475Y-5854820D02*
X13952380Y-5854820D01*
X13952380Y-5854820D02*
X13857142Y-5807201D01*
X13857142Y-5807201D02*
X13809523Y-5759581D01*
X13809523Y-5759581D02*
X13761904Y-5664343D01*
X13761904Y-5664343D02*
X13761904Y-5569105D01*
X13761904Y-5569105D02*
X13809523Y-5473867D01*
X13809523Y-5473867D02*
X13857142Y-5426248D01*
X13857142Y-5426248D02*
X13952380Y-5378629D01*
X13952380Y-5378629D02*
X14142856Y-5331010D01*
X14142856Y-5331010D02*
X14238094Y-5283391D01*
X14238094Y-5283391D02*
X14285713Y-5235772D01*
X14285713Y-5235772D02*
X14333332Y-5140534D01*
X14333332Y-5140534D02*
X14333332Y-5045296D01*
X14333332Y-5045296D02*
X14285713Y-4950058D01*
X14285713Y-4950058D02*
X14238094Y-4902439D01*
X14238094Y-4902439D02*
X14142856Y-4854820D01*
X14142856Y-4854820D02*
X13904761Y-4854820D01*
X13904761Y-4854820D02*
X13761904Y-4902439D01*
X13428570Y-4854820D02*
X13190475Y-5854820D01*
X13190475Y-5854820D02*
X12999999Y-5140534D01*
X12999999Y-5140534D02*
X12809523Y-5854820D01*
X12809523Y-5854820D02*
X12571428Y-4854820D01*
X12238094Y-4950058D02*
X12190475Y-4902439D01*
X12190475Y-4902439D02*
X12095237Y-4854820D01*
X12095237Y-4854820D02*
X11857142Y-4854820D01*
X11857142Y-4854820D02*
X11761904Y-4902439D01*
X11761904Y-4902439D02*
X11714285Y-4950058D01*
X11714285Y-4950058D02*
X11666666Y-5045296D01*
X11666666Y-5045296D02*
X11666666Y-5140534D01*
X11666666Y-5140534D02*
X11714285Y-5283391D01*
X11714285Y-5283391D02*
X12285713Y-5854820D01*
X12285713Y-5854820D02*
X11666666Y-5854820D01*
X-13795181Y9311905D02*
X-12985658Y9311905D01*
X-12985658Y9311905D02*
X-12890420Y9264286D01*
X-12890420Y9264286D02*
X-12842800Y9216667D01*
X-12842800Y9216667D02*
X-12795181Y9121429D01*
X-12795181Y9121429D02*
X-12795181Y8930953D01*
X-12795181Y8930953D02*
X-12842800Y8835715D01*
X-12842800Y8835715D02*
X-12890420Y8788096D01*
X-12890420Y8788096D02*
X-12985658Y8740477D01*
X-12985658Y8740477D02*
X-13795181Y8740477D01*
X-12795181Y7740477D02*
X-12795181Y8311905D01*
X-12795181Y8026191D02*
X-13795181Y8026191D01*
X-13795181Y8026191D02*
X-13652324Y8121429D01*
X-13652324Y8121429D02*
X-13557086Y8216667D01*
X-13557086Y8216667D02*
X-13509467Y8311905D01*
X4255346Y-11762555D02*
X3255346Y-11762555D01*
X3255346Y-11762555D02*
X3255346Y-12000650D01*
X3255346Y-12000650D02*
X3302965Y-12143507D01*
X3302965Y-12143507D02*
X3398203Y-12238745D01*
X3398203Y-12238745D02*
X3493441Y-12286364D01*
X3493441Y-12286364D02*
X3683917Y-12333983D01*
X3683917Y-12333983D02*
X3826774Y-12333983D01*
X3826774Y-12333983D02*
X4017250Y-12286364D01*
X4017250Y-12286364D02*
X4112488Y-12238745D01*
X4112488Y-12238745D02*
X4207727Y-12143507D01*
X4207727Y-12143507D02*
X4255346Y-12000650D01*
X4255346Y-12000650D02*
X4255346Y-11762555D01*
X3255346Y-13191126D02*
X3255346Y-13000650D01*
X3255346Y-13000650D02*
X3302965Y-12905412D01*
X3302965Y-12905412D02*
X3350584Y-12857793D01*
X3350584Y-12857793D02*
X3493441Y-12762555D01*
X3493441Y-12762555D02*
X3683917Y-12714936D01*
X3683917Y-12714936D02*
X4064869Y-12714936D01*
X4064869Y-12714936D02*
X4160107Y-12762555D01*
X4160107Y-12762555D02*
X4207727Y-12810174D01*
X4207727Y-12810174D02*
X4255346Y-12905412D01*
X4255346Y-12905412D02*
X4255346Y-13095888D01*
X4255346Y-13095888D02*
X4207727Y-13191126D01*
X4207727Y-13191126D02*
X4160107Y-13238745D01*
X4160107Y-13238745D02*
X4064869Y-13286364D01*
X4064869Y-13286364D02*
X3826774Y-13286364D01*
X3826774Y-13286364D02*
X3731536Y-13238745D01*
X3731536Y-13238745D02*
X3683917Y-13191126D01*
X3683917Y-13191126D02*
X3636298Y-13095888D01*
X3636298Y-13095888D02*
X3636298Y-12905412D01*
X3636298Y-12905412D02*
X3683917Y-12810174D01*
X3683917Y-12810174D02*
X3731536Y-12762555D01*
X3731536Y-12762555D02*
X3826774Y-12714936D01*
X50249321Y-41714138D02*
X50103490Y-41751675D01*
X50103490Y-41751675D02*
X49865974Y-41735067D01*
X49865974Y-41735067D02*
X49774290Y-41680920D01*
X49774290Y-41680920D02*
X49730109Y-41630095D01*
X49730109Y-41630095D02*
X49689249Y-41531768D01*
X49689249Y-41531768D02*
X49695893Y-41436761D01*
X49695893Y-41436761D02*
X49750039Y-41345077D01*
X49750039Y-41345077D02*
X49800864Y-41300896D01*
X49800864Y-41300896D02*
X49899192Y-41260036D01*
X49899192Y-41260036D02*
X50092526Y-41225820D01*
X50092526Y-41225820D02*
X50190854Y-41184961D01*
X50190854Y-41184961D02*
X50241678Y-41140779D01*
X50241678Y-41140779D02*
X50295825Y-41049095D01*
X50295825Y-41049095D02*
X50302468Y-40954089D01*
X50302468Y-40954089D02*
X50261609Y-40855761D01*
X50261609Y-40855761D02*
X50217427Y-40804936D01*
X50217427Y-40804936D02*
X50125743Y-40750790D01*
X50125743Y-40750790D02*
X49888228Y-40734181D01*
X49888228Y-40734181D02*
X49742397Y-40771719D01*
X49413197Y-40700964D02*
X49105926Y-41681919D01*
X49105926Y-41681919D02*
X48965739Y-40956086D01*
X48965739Y-40956086D02*
X48725901Y-41655345D01*
X48725901Y-41655345D02*
X48558142Y-40641172D01*
X47585828Y-41575623D02*
X48155865Y-41615484D01*
X47870846Y-41595554D02*
X47940603Y-40597990D01*
X47940603Y-40597990D02*
X48025644Y-40747142D01*
X48025644Y-40747142D02*
X48114006Y-40848792D01*
X48114006Y-40848792D02*
X48205691Y-40902938D01*
X46777277Y-40850789D02*
X46730773Y-41515832D01*
X47041367Y-40487374D02*
X47229056Y-41216528D01*
X47229056Y-41216528D02*
X46611516Y-41173346D01*
X4255346Y-28286364D02*
X3255346Y-28286364D01*
X3255346Y-28286364D02*
X3255346Y-28524459D01*
X3255346Y-28524459D02*
X3302965Y-28667316D01*
X3302965Y-28667316D02*
X3398203Y-28762554D01*
X3398203Y-28762554D02*
X3493441Y-28810173D01*
X3493441Y-28810173D02*
X3683917Y-28857792D01*
X3683917Y-28857792D02*
X3826774Y-28857792D01*
X3826774Y-28857792D02*
X4017250Y-28810173D01*
X4017250Y-28810173D02*
X4112488Y-28762554D01*
X4112488Y-28762554D02*
X4207727Y-28667316D01*
X4207727Y-28667316D02*
X4255346Y-28524459D01*
X4255346Y-28524459D02*
X4255346Y-28286364D01*
X4255346Y-29810173D02*
X4255346Y-29238745D01*
X4255346Y-29524459D02*
X3255346Y-29524459D01*
X3255346Y-29524459D02*
X3398203Y-29429221D01*
X3398203Y-29429221D02*
X3493441Y-29333983D01*
X3493441Y-29333983D02*
X3541060Y-29238745D01*
X4255346Y-30762554D02*
X4255346Y-30191126D01*
X4255346Y-30476840D02*
X3255346Y-30476840D01*
X3255346Y-30476840D02*
X3398203Y-30381602D01*
X3398203Y-30381602D02*
X3493441Y-30286364D01*
X3493441Y-30286364D02*
X3541060Y-30191126D01*
X-17167628Y-8454819D02*
X-17167628Y-9264342D01*
X-17167628Y-9264342D02*
X-17215247Y-9359580D01*
X-17215247Y-9359580D02*
X-17262866Y-9407200D01*
X-17262866Y-9407200D02*
X-17358104Y-9454819D01*
X-17358104Y-9454819D02*
X-17548580Y-9454819D01*
X-17548580Y-9454819D02*
X-17643818Y-9407200D01*
X-17643818Y-9407200D02*
X-17691437Y-9359580D01*
X-17691437Y-9359580D02*
X-17739056Y-9264342D01*
X-17739056Y-9264342D02*
X-17739056Y-8454819D01*
X-18120009Y-8454819D02*
X-18739056Y-8454819D01*
X-18739056Y-8454819D02*
X-18405723Y-8835771D01*
X-18405723Y-8835771D02*
X-18548580Y-8835771D01*
X-18548580Y-8835771D02*
X-18643818Y-8883390D01*
X-18643818Y-8883390D02*
X-18691437Y-8931009D01*
X-18691437Y-8931009D02*
X-18739056Y-9026247D01*
X-18739056Y-9026247D02*
X-18739056Y-9264342D01*
X-18739056Y-9264342D02*
X-18691437Y-9359580D01*
X-18691437Y-9359580D02*
X-18643818Y-9407200D01*
X-18643818Y-9407200D02*
X-18548580Y-9454819D01*
X-18548580Y-9454819D02*
X-18262866Y-9454819D01*
X-18262866Y-9454819D02*
X-18167628Y-9407200D01*
X-18167628Y-9407200D02*
X-18120009Y-9359580D01*
X58620171Y-28745632D02*
X57622607Y-28675876D01*
X57622607Y-28675876D02*
X57605998Y-28913391D01*
X57605998Y-28913391D02*
X57643536Y-29059222D01*
X57643536Y-29059222D02*
X57731899Y-29160871D01*
X57731899Y-29160871D02*
X57823583Y-29215018D01*
X57823583Y-29215018D02*
X58010273Y-29275808D01*
X58010273Y-29275808D02*
X58152783Y-29285773D01*
X58152783Y-29285773D02*
X58346117Y-29251557D01*
X58346117Y-29251557D02*
X58444444Y-29210698D01*
X58444444Y-29210698D02*
X58546094Y-29122335D01*
X58546094Y-29122335D02*
X58603562Y-28983148D01*
X58603562Y-28983148D02*
X58620171Y-28745632D01*
X58513875Y-30265730D02*
X58553736Y-29695693D01*
X58533806Y-29980712D02*
X57536242Y-29910955D01*
X57536242Y-29910955D02*
X57685394Y-29825914D01*
X57685394Y-29825914D02*
X57787044Y-29737552D01*
X57787044Y-29737552D02*
X57841190Y-29645867D01*
X57789041Y-31074280D02*
X58454084Y-31120785D01*
X57425626Y-30810191D02*
X58154780Y-30622502D01*
X58154780Y-30622502D02*
X58111598Y-31240042D01*
X-20269952Y-17733333D02*
X-20222332Y-17685714D01*
X-20222332Y-17685714D02*
X-20174713Y-17542857D01*
X-20174713Y-17542857D02*
X-20174713Y-17447619D01*
X-20174713Y-17447619D02*
X-20222332Y-17304762D01*
X-20222332Y-17304762D02*
X-20317571Y-17209524D01*
X-20317571Y-17209524D02*
X-20412809Y-17161905D01*
X-20412809Y-17161905D02*
X-20603285Y-17114286D01*
X-20603285Y-17114286D02*
X-20746142Y-17114286D01*
X-20746142Y-17114286D02*
X-20936618Y-17161905D01*
X-20936618Y-17161905D02*
X-21031856Y-17209524D01*
X-21031856Y-17209524D02*
X-21127094Y-17304762D01*
X-21127094Y-17304762D02*
X-21174713Y-17447619D01*
X-21174713Y-17447619D02*
X-21174713Y-17542857D01*
X-21174713Y-17542857D02*
X-21127094Y-17685714D01*
X-21127094Y-17685714D02*
X-21079475Y-17733333D01*
X-21174713Y-18590476D02*
X-21174713Y-18400000D01*
X-21174713Y-18400000D02*
X-21127094Y-18304762D01*
X-21127094Y-18304762D02*
X-21079475Y-18257143D01*
X-21079475Y-18257143D02*
X-20936618Y-18161905D01*
X-20936618Y-18161905D02*
X-20746142Y-18114286D01*
X-20746142Y-18114286D02*
X-20365190Y-18114286D01*
X-20365190Y-18114286D02*
X-20269952Y-18161905D01*
X-20269952Y-18161905D02*
X-20222332Y-18209524D01*
X-20222332Y-18209524D02*
X-20174713Y-18304762D01*
X-20174713Y-18304762D02*
X-20174713Y-18495238D01*
X-20174713Y-18495238D02*
X-20222332Y-18590476D01*
X-20222332Y-18590476D02*
X-20269952Y-18638095D01*
X-20269952Y-18638095D02*
X-20365190Y-18685714D01*
X-20365190Y-18685714D02*
X-20603285Y-18685714D01*
X-20603285Y-18685714D02*
X-20698523Y-18638095D01*
X-20698523Y-18638095D02*
X-20746142Y-18590476D01*
X-20746142Y-18590476D02*
X-20793761Y-18495238D01*
X-20793761Y-18495238D02*
X-20793761Y-18304762D01*
X-20793761Y-18304762D02*
X-20746142Y-18209524D01*
X-20746142Y-18209524D02*
X-20698523Y-18161905D01*
X-20698523Y-18161905D02*
X-20603285Y-18114286D01*
X59772814Y-12262074D02*
X58775249Y-12192318D01*
X58775249Y-12192318D02*
X58758641Y-12429833D01*
X58758641Y-12429833D02*
X58796179Y-12575664D01*
X58796179Y-12575664D02*
X58884541Y-12677314D01*
X58884541Y-12677314D02*
X58976226Y-12731460D01*
X58976226Y-12731460D02*
X59162916Y-12792250D01*
X59162916Y-12792250D02*
X59305425Y-12802215D01*
X59305425Y-12802215D02*
X59498759Y-12767999D01*
X59498759Y-12767999D02*
X59597087Y-12727140D01*
X59597087Y-12727140D02*
X59698737Y-12638777D01*
X59698737Y-12638777D02*
X59756205Y-12499590D01*
X59756205Y-12499590D02*
X59772814Y-12262074D01*
X59699735Y-13307141D02*
X59686448Y-13497154D01*
X59686448Y-13497154D02*
X59632302Y-13588838D01*
X59632302Y-13588838D02*
X59581477Y-13633019D01*
X59581477Y-13633019D02*
X59432324Y-13718060D01*
X59432324Y-13718060D02*
X59238990Y-13752276D01*
X59238990Y-13752276D02*
X58858966Y-13725702D01*
X58858966Y-13725702D02*
X58767282Y-13671556D01*
X58767282Y-13671556D02*
X58723100Y-13620731D01*
X58723100Y-13620731D02*
X58682241Y-13522403D01*
X58682241Y-13522403D02*
X58695528Y-13332391D01*
X58695528Y-13332391D02*
X58749674Y-13240707D01*
X58749674Y-13240707D02*
X58800499Y-13196525D01*
X58800499Y-13196525D02*
X58898827Y-13155666D01*
X58898827Y-13155666D02*
X59136342Y-13172274D01*
X59136342Y-13172274D02*
X59228027Y-13226421D01*
X59228027Y-13226421D02*
X59272208Y-13277246D01*
X59272208Y-13277246D02*
X59313067Y-13375574D01*
X59313067Y-13375574D02*
X59299780Y-13565586D01*
X59299780Y-13565586D02*
X59245634Y-13657270D01*
X59245634Y-13657270D02*
X59194809Y-13701451D01*
X59194809Y-13701451D02*
X59096481Y-13742311D01*
X-32074724Y-58267535D02*
X-32185631Y-58165676D01*
X-32185631Y-58165676D02*
X-32301062Y-57957433D01*
X-32301062Y-57957433D02*
X-32305586Y-57851050D01*
X-32305586Y-57851050D02*
X-32287023Y-57786315D01*
X-32287023Y-57786315D02*
X-32226812Y-57698494D01*
X-32226812Y-57698494D02*
X-32143515Y-57652322D01*
X-32143515Y-57652322D02*
X-32037132Y-57647798D01*
X-32037132Y-57647798D02*
X-31972397Y-57666360D01*
X-31972397Y-57666360D02*
X-31884576Y-57726571D01*
X-31884576Y-57726571D02*
X-31750583Y-57870079D01*
X-31750583Y-57870079D02*
X-31662762Y-57930290D01*
X-31662762Y-57930290D02*
X-31598028Y-57948853D01*
X-31598028Y-57948853D02*
X-31491644Y-57944329D01*
X-31491644Y-57944329D02*
X-31408347Y-57898156D01*
X-31408347Y-57898156D02*
X-31348136Y-57810336D01*
X-31348136Y-57810336D02*
X-31329574Y-57745601D01*
X-31329574Y-57745601D02*
X-31334098Y-57639217D01*
X-31334098Y-57639217D02*
X-31449528Y-57430975D01*
X-31449528Y-57430975D02*
X-31560436Y-57329115D01*
X-31680390Y-57014489D02*
X-32670441Y-57291056D01*
X-32670441Y-57291056D02*
X-32138057Y-56778169D01*
X-32138057Y-56778169D02*
X-32855130Y-56957867D01*
X-32855130Y-56957867D02*
X-32095941Y-56264815D01*
X-33409198Y-55958302D02*
X-33132164Y-56458085D01*
X-33270681Y-56208194D02*
X-32396062Y-55723384D01*
X-32396062Y-55723384D02*
X-32474835Y-55875940D01*
X-32474835Y-55875940D02*
X-32511960Y-56005409D01*
X-32511960Y-56005409D02*
X-32507436Y-56111792D01*
X-32950130Y-54723819D02*
X-32857785Y-54890413D01*
X-32857785Y-54890413D02*
X-32853261Y-54996796D01*
X-32853261Y-54996796D02*
X-32871824Y-55061531D01*
X-32871824Y-55061531D02*
X-32950597Y-55214086D01*
X-32950597Y-55214086D02*
X-33094105Y-55348080D01*
X-33094105Y-55348080D02*
X-33427293Y-55532769D01*
X-33427293Y-55532769D02*
X-33533677Y-55537293D01*
X-33533677Y-55537293D02*
X-33598411Y-55518730D01*
X-33598411Y-55518730D02*
X-33686232Y-55458519D01*
X-33686232Y-55458519D02*
X-33778577Y-55291925D01*
X-33778577Y-55291925D02*
X-33783101Y-55185542D01*
X-33783101Y-55185542D02*
X-33764538Y-55120807D01*
X-33764538Y-55120807D02*
X-33704328Y-55032986D01*
X-33704328Y-55032986D02*
X-33496085Y-54917555D01*
X-33496085Y-54917555D02*
X-33389701Y-54913032D01*
X-33389701Y-54913032D02*
X-33324967Y-54931594D01*
X-33324967Y-54931594D02*
X-33237146Y-54991805D01*
X-33237146Y-54991805D02*
X-33144801Y-55158399D01*
X-33144801Y-55158399D02*
X-33140277Y-55264783D01*
X-33140277Y-55264783D02*
X-33158840Y-55329517D01*
X-33158840Y-55329517D02*
X-33219051Y-55417338D01*
X60958674Y4696514D02*
X59961109Y4766270D01*
X59961109Y4766270D02*
X59944501Y4528755D01*
X59944501Y4528755D02*
X59982039Y4382924D01*
X59982039Y4382924D02*
X60070401Y4281274D01*
X60070401Y4281274D02*
X60162086Y4227128D01*
X60162086Y4227128D02*
X60348776Y4166338D01*
X60348776Y4166338D02*
X60491285Y4156373D01*
X60491285Y4156373D02*
X60684619Y4190589D01*
X60684619Y4190589D02*
X60782947Y4231448D01*
X60782947Y4231448D02*
X60884597Y4319811D01*
X60884597Y4319811D02*
X60942065Y4458998D01*
X60942065Y4458998D02*
X60958674Y4696514D01*
X60193979Y3317927D02*
X60859021Y3271422D01*
X59830563Y3582016D02*
X60559717Y3769705D01*
X60559717Y3769705D02*
X60516535Y3152165D01*
X4966666Y9240420D02*
X5014285Y9192800D01*
X5014285Y9192800D02*
X5157142Y9145181D01*
X5157142Y9145181D02*
X5252380Y9145181D01*
X5252380Y9145181D02*
X5395237Y9192800D01*
X5395237Y9192800D02*
X5490475Y9288039D01*
X5490475Y9288039D02*
X5538094Y9383277D01*
X5538094Y9383277D02*
X5585713Y9573753D01*
X5585713Y9573753D02*
X5585713Y9716610D01*
X5585713Y9716610D02*
X5538094Y9907086D01*
X5538094Y9907086D02*
X5490475Y10002324D01*
X5490475Y10002324D02*
X5395237Y10097562D01*
X5395237Y10097562D02*
X5252380Y10145181D01*
X5252380Y10145181D02*
X5157142Y10145181D01*
X5157142Y10145181D02*
X5014285Y10097562D01*
X5014285Y10097562D02*
X4966666Y10049943D01*
X4014285Y9145181D02*
X4585713Y9145181D01*
X4299999Y9145181D02*
X4299999Y10145181D01*
X4299999Y10145181D02*
X4395237Y10002324D01*
X4395237Y10002324D02*
X4490475Y9907086D01*
X4490475Y9907086D02*
X4585713Y9859467D01*
X14333332Y-22807200D02*
X14190475Y-22854819D01*
X14190475Y-22854819D02*
X13952380Y-22854819D01*
X13952380Y-22854819D02*
X13857142Y-22807200D01*
X13857142Y-22807200D02*
X13809523Y-22759580D01*
X13809523Y-22759580D02*
X13761904Y-22664342D01*
X13761904Y-22664342D02*
X13761904Y-22569104D01*
X13761904Y-22569104D02*
X13809523Y-22473866D01*
X13809523Y-22473866D02*
X13857142Y-22426247D01*
X13857142Y-22426247D02*
X13952380Y-22378628D01*
X13952380Y-22378628D02*
X14142856Y-22331009D01*
X14142856Y-22331009D02*
X14238094Y-22283390D01*
X14238094Y-22283390D02*
X14285713Y-22235771D01*
X14285713Y-22235771D02*
X14333332Y-22140533D01*
X14333332Y-22140533D02*
X14333332Y-22045295D01*
X14333332Y-22045295D02*
X14285713Y-21950057D01*
X14285713Y-21950057D02*
X14238094Y-21902438D01*
X14238094Y-21902438D02*
X14142856Y-21854819D01*
X14142856Y-21854819D02*
X13904761Y-21854819D01*
X13904761Y-21854819D02*
X13761904Y-21902438D01*
X13428570Y-21854819D02*
X13190475Y-22854819D01*
X13190475Y-22854819D02*
X12999999Y-22140533D01*
X12999999Y-22140533D02*
X12809523Y-22854819D01*
X12809523Y-22854819D02*
X12571428Y-21854819D01*
X12285713Y-21854819D02*
X11619047Y-21854819D01*
X11619047Y-21854819D02*
X12047618Y-22854819D01*
X20238095Y13635181D02*
X20571428Y14111372D01*
X20809523Y13635181D02*
X20809523Y14635181D01*
X20809523Y14635181D02*
X20428571Y14635181D01*
X20428571Y14635181D02*
X20333333Y14587562D01*
X20333333Y14587562D02*
X20285714Y14539943D01*
X20285714Y14539943D02*
X20238095Y14444705D01*
X20238095Y14444705D02*
X20238095Y14301848D01*
X20238095Y14301848D02*
X20285714Y14206610D01*
X20285714Y14206610D02*
X20333333Y14158991D01*
X20333333Y14158991D02*
X20428571Y14111372D01*
X20428571Y14111372D02*
X20809523Y14111372D01*
X20047619Y13539943D02*
X19285714Y13539943D01*
X19190475Y14635181D02*
X18619047Y14635181D01*
X18904761Y13635181D02*
X18904761Y14635181D01*
X18333332Y13920896D02*
X17857142Y13920896D01*
X18428570Y13635181D02*
X18095237Y14635181D01*
X18095237Y14635181D02*
X17761904Y13635181D01*
X16857142Y13730420D02*
X16904761Y13682800D01*
X16904761Y13682800D02*
X17047618Y13635181D01*
X17047618Y13635181D02*
X17142856Y13635181D01*
X17142856Y13635181D02*
X17285713Y13682800D01*
X17285713Y13682800D02*
X17380951Y13778039D01*
X17380951Y13778039D02*
X17428570Y13873277D01*
X17428570Y13873277D02*
X17476189Y14063753D01*
X17476189Y14063753D02*
X17476189Y14206610D01*
X17476189Y14206610D02*
X17428570Y14397086D01*
X17428570Y14397086D02*
X17380951Y14492324D01*
X17380951Y14492324D02*
X17285713Y14587562D01*
X17285713Y14587562D02*
X17142856Y14635181D01*
X17142856Y14635181D02*
X17047618Y14635181D01*
X17047618Y14635181D02*
X16904761Y14587562D01*
X16904761Y14587562D02*
X16857142Y14539943D01*
X16571427Y14635181D02*
X15999999Y14635181D01*
X16285713Y13635181D02*
X16285713Y14635181D01*
X15142856Y13635181D02*
X15714284Y13635181D01*
X15428570Y13635181D02*
X15428570Y14635181D01*
X15428570Y14635181D02*
X15523808Y14492324D01*
X15523808Y14492324D02*
X15619046Y14397086D01*
X15619046Y14397086D02*
X15714284Y14349467D01*
X-14415247Y-15654819D02*
X-14415247Y-14654819D01*
X-14415247Y-14654819D02*
X-14653342Y-14654819D01*
X-14653342Y-14654819D02*
X-14796199Y-14702438D01*
X-14796199Y-14702438D02*
X-14891437Y-14797676D01*
X-14891437Y-14797676D02*
X-14939056Y-14892914D01*
X-14939056Y-14892914D02*
X-14986675Y-15083390D01*
X-14986675Y-15083390D02*
X-14986675Y-15226247D01*
X-14986675Y-15226247D02*
X-14939056Y-15416723D01*
X-14939056Y-15416723D02*
X-14891437Y-15511961D01*
X-14891437Y-15511961D02*
X-14796199Y-15607200D01*
X-14796199Y-15607200D02*
X-14653342Y-15654819D01*
X-14653342Y-15654819D02*
X-14415247Y-15654819D01*
X-15939056Y-15654819D02*
X-15367628Y-15654819D01*
X-15653342Y-15654819D02*
X-15653342Y-14654819D01*
X-15653342Y-14654819D02*
X-15558104Y-14797676D01*
X-15558104Y-14797676D02*
X-15462866Y-14892914D01*
X-15462866Y-14892914D02*
X-15367628Y-14940533D01*
X-16415247Y-15654819D02*
X-16605723Y-15654819D01*
X-16605723Y-15654819D02*
X-16700961Y-15607200D01*
X-16700961Y-15607200D02*
X-16748580Y-15559580D01*
X-16748580Y-15559580D02*
X-16843818Y-15416723D01*
X-16843818Y-15416723D02*
X-16891437Y-15226247D01*
X-16891437Y-15226247D02*
X-16891437Y-14845295D01*
X-16891437Y-14845295D02*
X-16843818Y-14750057D01*
X-16843818Y-14750057D02*
X-16796199Y-14702438D01*
X-16796199Y-14702438D02*
X-16700961Y-14654819D01*
X-16700961Y-14654819D02*
X-16510485Y-14654819D01*
X-16510485Y-14654819D02*
X-16415247Y-14702438D01*
X-16415247Y-14702438D02*
X-16367628Y-14750057D01*
X-16367628Y-14750057D02*
X-16320009Y-14845295D01*
X-16320009Y-14845295D02*
X-16320009Y-15083390D01*
X-16320009Y-15083390D02*
X-16367628Y-15178628D01*
X-16367628Y-15178628D02*
X-16415247Y-15226247D01*
X-16415247Y-15226247D02*
X-16510485Y-15273866D01*
X-16510485Y-15273866D02*
X-16700961Y-15273866D01*
X-16700961Y-15273866D02*
X-16796199Y-15226247D01*
X-16796199Y-15226247D02*
X-16843818Y-15178628D01*
X-16843818Y-15178628D02*
X-16891437Y-15083390D01*
X-12462866Y-10854819D02*
X-12129533Y-10378628D01*
X-11891438Y-10854819D02*
X-11891438Y-9854819D01*
X-11891438Y-9854819D02*
X-12272390Y-9854819D01*
X-12272390Y-9854819D02*
X-12367628Y-9902438D01*
X-12367628Y-9902438D02*
X-12415247Y-9950057D01*
X-12415247Y-9950057D02*
X-12462866Y-10045295D01*
X-12462866Y-10045295D02*
X-12462866Y-10188152D01*
X-12462866Y-10188152D02*
X-12415247Y-10283390D01*
X-12415247Y-10283390D02*
X-12367628Y-10331009D01*
X-12367628Y-10331009D02*
X-12272390Y-10378628D01*
X-12272390Y-10378628D02*
X-11891438Y-10378628D01*
X-13320009Y-10188152D02*
X-13320009Y-10854819D01*
X-13081914Y-9807200D02*
X-12843819Y-10521485D01*
X-12843819Y-10521485D02*
X-13462866Y-10521485D01*
X65911090Y-56582154D02*
X65762134Y-56604242D01*
X65762134Y-56604242D02*
X65527656Y-56562898D01*
X65527656Y-56562898D02*
X65442134Y-56499464D01*
X65442134Y-56499464D02*
X65403507Y-56444300D01*
X65403507Y-56444300D02*
X65373150Y-56342239D01*
X65373150Y-56342239D02*
X65389688Y-56248448D01*
X65389688Y-56248448D02*
X65453121Y-56162926D01*
X65453121Y-56162926D02*
X65508286Y-56124299D01*
X65508286Y-56124299D02*
X65610346Y-56093942D01*
X65610346Y-56093942D02*
X65806197Y-56080122D01*
X65806197Y-56080122D02*
X65908257Y-56049764D01*
X65908257Y-56049764D02*
X65963422Y-56011137D01*
X65963422Y-56011137D02*
X66026855Y-55925615D01*
X66026855Y-55925615D02*
X66043393Y-55831824D01*
X66043393Y-55831824D02*
X66013036Y-55729764D01*
X66013036Y-55729764D02*
X65974409Y-55674599D01*
X65974409Y-55674599D02*
X65888887Y-55611166D01*
X65888887Y-55611166D02*
X65654409Y-55569821D01*
X65654409Y-55569821D02*
X65505453Y-55591910D01*
X65185453Y-55487131D02*
X64777326Y-56430594D01*
X64777326Y-56430594D02*
X64713778Y-55694084D01*
X64713778Y-55694084D02*
X64402162Y-56364443D01*
X64402162Y-56364443D02*
X64341332Y-55338290D01*
X63276667Y-56165988D02*
X63839414Y-56265215D01*
X63558041Y-56215601D02*
X63731689Y-55230794D01*
X63731689Y-55230794D02*
X63800673Y-55388018D01*
X63800673Y-55388018D02*
X63877927Y-55498347D01*
X63877927Y-55498347D02*
X63963449Y-55561781D01*
X62559299Y-55024070D02*
X63028255Y-55106759D01*
X63028255Y-55106759D02*
X62992461Y-55583984D01*
X62992461Y-55583984D02*
X62953834Y-55528820D01*
X62953834Y-55528820D02*
X62868312Y-55465386D01*
X62868312Y-55465386D02*
X62633834Y-55424041D01*
X62633834Y-55424041D02*
X62531774Y-55454399D01*
X62531774Y-55454399D02*
X62476609Y-55493026D01*
X62476609Y-55493026D02*
X62413176Y-55578548D01*
X62413176Y-55578548D02*
X62371831Y-55813026D01*
X62371831Y-55813026D02*
X62402189Y-55915086D01*
X62402189Y-55915086D02*
X62440815Y-55970251D01*
X62440815Y-55970251D02*
X62526337Y-56033684D01*
X62526337Y-56033684D02*
X62760815Y-56075029D01*
X62760815Y-56075029D02*
X62862876Y-56044671D01*
X62862876Y-56044671D02*
X62918040Y-56006045D01*
X4966666Y7245181D02*
X5299999Y7721372D01*
X5538094Y7245181D02*
X5538094Y8245181D01*
X5538094Y8245181D02*
X5157142Y8245181D01*
X5157142Y8245181D02*
X5061904Y8197562D01*
X5061904Y8197562D02*
X5014285Y8149943D01*
X5014285Y8149943D02*
X4966666Y8054705D01*
X4966666Y8054705D02*
X4966666Y7911848D01*
X4966666Y7911848D02*
X5014285Y7816610D01*
X5014285Y7816610D02*
X5061904Y7768991D01*
X5061904Y7768991D02*
X5157142Y7721372D01*
X5157142Y7721372D02*
X5538094Y7721372D01*
X4633332Y8245181D02*
X4014285Y8245181D01*
X4014285Y8245181D02*
X4347618Y7864229D01*
X4347618Y7864229D02*
X4204761Y7864229D01*
X4204761Y7864229D02*
X4109523Y7816610D01*
X4109523Y7816610D02*
X4061904Y7768991D01*
X4061904Y7768991D02*
X4014285Y7673753D01*
X4014285Y7673753D02*
X4014285Y7435658D01*
X4014285Y7435658D02*
X4061904Y7340420D01*
X4061904Y7340420D02*
X4109523Y7292800D01*
X4109523Y7292800D02*
X4204761Y7245181D01*
X4204761Y7245181D02*
X4490475Y7245181D01*
X4490475Y7245181D02*
X4585713Y7292800D01*
X4585713Y7292800D02*
X4633332Y7340420D01*
X-29069952Y-17833333D02*
X-29022332Y-17785714D01*
X-29022332Y-17785714D02*
X-28974713Y-17642857D01*
X-28974713Y-17642857D02*
X-28974713Y-17547619D01*
X-28974713Y-17547619D02*
X-29022332Y-17404762D01*
X-29022332Y-17404762D02*
X-29117571Y-17309524D01*
X-29117571Y-17309524D02*
X-29212809Y-17261905D01*
X-29212809Y-17261905D02*
X-29403285Y-17214286D01*
X-29403285Y-17214286D02*
X-29546142Y-17214286D01*
X-29546142Y-17214286D02*
X-29736618Y-17261905D01*
X-29736618Y-17261905D02*
X-29831856Y-17309524D01*
X-29831856Y-17309524D02*
X-29927094Y-17404762D01*
X-29927094Y-17404762D02*
X-29974713Y-17547619D01*
X-29974713Y-17547619D02*
X-29974713Y-17642857D01*
X-29974713Y-17642857D02*
X-29927094Y-17785714D01*
X-29927094Y-17785714D02*
X-29879475Y-17833333D01*
X-29974713Y-18166667D02*
X-29974713Y-18833333D01*
X-29974713Y-18833333D02*
X-28974713Y-18404762D01*
X22255346Y7237444D02*
X21255346Y7237444D01*
X21255346Y7237444D02*
X21255346Y6999349D01*
X21255346Y6999349D02*
X21302965Y6856492D01*
X21302965Y6856492D02*
X21398203Y6761254D01*
X21398203Y6761254D02*
X21493441Y6713635D01*
X21493441Y6713635D02*
X21683917Y6666016D01*
X21683917Y6666016D02*
X21826774Y6666016D01*
X21826774Y6666016D02*
X22017250Y6713635D01*
X22017250Y6713635D02*
X22112488Y6761254D01*
X22112488Y6761254D02*
X22207727Y6856492D01*
X22207727Y6856492D02*
X22255346Y6999349D01*
X22255346Y6999349D02*
X22255346Y7237444D01*
X21350584Y6285063D02*
X21302965Y6237444D01*
X21302965Y6237444D02*
X21255346Y6142206D01*
X21255346Y6142206D02*
X21255346Y5904111D01*
X21255346Y5904111D02*
X21302965Y5808873D01*
X21302965Y5808873D02*
X21350584Y5761254D01*
X21350584Y5761254D02*
X21445822Y5713635D01*
X21445822Y5713635D02*
X21541060Y5713635D01*
X21541060Y5713635D02*
X21683917Y5761254D01*
X21683917Y5761254D02*
X22255346Y6332682D01*
X22255346Y6332682D02*
X22255346Y5713635D01*
X-27592800Y-5290476D02*
X-27545181Y-5433333D01*
X-27545181Y-5433333D02*
X-27545181Y-5671428D01*
X-27545181Y-5671428D02*
X-27592800Y-5766666D01*
X-27592800Y-5766666D02*
X-27640420Y-5814285D01*
X-27640420Y-5814285D02*
X-27735658Y-5861904D01*
X-27735658Y-5861904D02*
X-27830896Y-5861904D01*
X-27830896Y-5861904D02*
X-27926134Y-5814285D01*
X-27926134Y-5814285D02*
X-27973753Y-5766666D01*
X-27973753Y-5766666D02*
X-28021372Y-5671428D01*
X-28021372Y-5671428D02*
X-28068991Y-5480952D01*
X-28068991Y-5480952D02*
X-28116610Y-5385714D01*
X-28116610Y-5385714D02*
X-28164229Y-5338095D01*
X-28164229Y-5338095D02*
X-28259467Y-5290476D01*
X-28259467Y-5290476D02*
X-28354705Y-5290476D01*
X-28354705Y-5290476D02*
X-28449943Y-5338095D01*
X-28449943Y-5338095D02*
X-28497562Y-5385714D01*
X-28497562Y-5385714D02*
X-28545181Y-5480952D01*
X-28545181Y-5480952D02*
X-28545181Y-5719047D01*
X-28545181Y-5719047D02*
X-28497562Y-5861904D01*
X-28545181Y-6195238D02*
X-27545181Y-6433333D01*
X-27545181Y-6433333D02*
X-28259467Y-6623809D01*
X-28259467Y-6623809D02*
X-27545181Y-6814285D01*
X-27545181Y-6814285D02*
X-28545181Y-7052381D01*
X-27545181Y-7957142D02*
X-27545181Y-7385714D01*
X-27545181Y-7671428D02*
X-28545181Y-7671428D01*
X-28545181Y-7671428D02*
X-28402324Y-7576190D01*
X-28402324Y-7576190D02*
X-28307086Y-7480952D01*
X-28307086Y-7480952D02*
X-28259467Y-7385714D01*
X-27545181Y-8433333D02*
X-27545181Y-8623809D01*
X-27545181Y-8623809D02*
X-27592800Y-8719047D01*
X-27592800Y-8719047D02*
X-27640420Y-8766666D01*
X-27640420Y-8766666D02*
X-27783277Y-8861904D01*
X-27783277Y-8861904D02*
X-27973753Y-8909523D01*
X-27973753Y-8909523D02*
X-28354705Y-8909523D01*
X-28354705Y-8909523D02*
X-28449943Y-8861904D01*
X-28449943Y-8861904D02*
X-28497562Y-8814285D01*
X-28497562Y-8814285D02*
X-28545181Y-8719047D01*
X-28545181Y-8719047D02*
X-28545181Y-8528571D01*
X-28545181Y-8528571D02*
X-28497562Y-8433333D01*
X-28497562Y-8433333D02*
X-28449943Y-8385714D01*
X-28449943Y-8385714D02*
X-28354705Y-8338095D01*
X-28354705Y-8338095D02*
X-28116610Y-8338095D01*
X-28116610Y-8338095D02*
X-28021372Y-8385714D01*
X-28021372Y-8385714D02*
X-27973753Y-8433333D01*
X-27973753Y-8433333D02*
X-27926134Y-8528571D01*
X-27926134Y-8528571D02*
X-27926134Y-8719047D01*
X-27926134Y-8719047D02*
X-27973753Y-8814285D01*
X-27973753Y-8814285D02*
X-28021372Y-8861904D01*
X-28021372Y-8861904D02*
X-28116610Y-8909523D01*
X40255346Y14237445D02*
X39255346Y14237445D01*
X39255346Y14237445D02*
X39255346Y13999350D01*
X39255346Y13999350D02*
X39302965Y13856493D01*
X39302965Y13856493D02*
X39398203Y13761255D01*
X39398203Y13761255D02*
X39493441Y13713636D01*
X39493441Y13713636D02*
X39683917Y13666017D01*
X39683917Y13666017D02*
X39826774Y13666017D01*
X39826774Y13666017D02*
X40017250Y13713636D01*
X40017250Y13713636D02*
X40112488Y13761255D01*
X40112488Y13761255D02*
X40207727Y13856493D01*
X40207727Y13856493D02*
X40255346Y13999350D01*
X40255346Y13999350D02*
X40255346Y14237445D01*
X39255346Y13332683D02*
X39255346Y12713636D01*
X39255346Y12713636D02*
X39636298Y13046969D01*
X39636298Y13046969D02*
X39636298Y12904112D01*
X39636298Y12904112D02*
X39683917Y12808874D01*
X39683917Y12808874D02*
X39731536Y12761255D01*
X39731536Y12761255D02*
X39826774Y12713636D01*
X39826774Y12713636D02*
X40064869Y12713636D01*
X40064869Y12713636D02*
X40160107Y12761255D01*
X40160107Y12761255D02*
X40207727Y12808874D01*
X40207727Y12808874D02*
X40255346Y12904112D01*
X40255346Y12904112D02*
X40255346Y13189826D01*
X40255346Y13189826D02*
X40207727Y13285064D01*
X40207727Y13285064D02*
X40160107Y13332683D01*
X-27874713Y-10233333D02*
X-28350904Y-9900000D01*
X-27874713Y-9661905D02*
X-28874713Y-9661905D01*
X-28874713Y-9661905D02*
X-28874713Y-10042857D01*
X-28874713Y-10042857D02*
X-28827094Y-10138095D01*
X-28827094Y-10138095D02*
X-28779475Y-10185714D01*
X-28779475Y-10185714D02*
X-28684237Y-10233333D01*
X-28684237Y-10233333D02*
X-28541380Y-10233333D01*
X-28541380Y-10233333D02*
X-28446142Y-10185714D01*
X-28446142Y-10185714D02*
X-28398523Y-10138095D01*
X-28398523Y-10138095D02*
X-28350904Y-10042857D01*
X-28350904Y-10042857D02*
X-28350904Y-9661905D01*
X-28446142Y-10804762D02*
X-28493761Y-10709524D01*
X-28493761Y-10709524D02*
X-28541380Y-10661905D01*
X-28541380Y-10661905D02*
X-28636618Y-10614286D01*
X-28636618Y-10614286D02*
X-28684237Y-10614286D01*
X-28684237Y-10614286D02*
X-28779475Y-10661905D01*
X-28779475Y-10661905D02*
X-28827094Y-10709524D01*
X-28827094Y-10709524D02*
X-28874713Y-10804762D01*
X-28874713Y-10804762D02*
X-28874713Y-10995238D01*
X-28874713Y-10995238D02*
X-28827094Y-11090476D01*
X-28827094Y-11090476D02*
X-28779475Y-11138095D01*
X-28779475Y-11138095D02*
X-28684237Y-11185714D01*
X-28684237Y-11185714D02*
X-28636618Y-11185714D01*
X-28636618Y-11185714D02*
X-28541380Y-11138095D01*
X-28541380Y-11138095D02*
X-28493761Y-11090476D01*
X-28493761Y-11090476D02*
X-28446142Y-10995238D01*
X-28446142Y-10995238D02*
X-28446142Y-10804762D01*
X-28446142Y-10804762D02*
X-28398523Y-10709524D01*
X-28398523Y-10709524D02*
X-28350904Y-10661905D01*
X-28350904Y-10661905D02*
X-28255666Y-10614286D01*
X-28255666Y-10614286D02*
X-28065190Y-10614286D01*
X-28065190Y-10614286D02*
X-27969952Y-10661905D01*
X-27969952Y-10661905D02*
X-27922332Y-10709524D01*
X-27922332Y-10709524D02*
X-27874713Y-10804762D01*
X-27874713Y-10804762D02*
X-27874713Y-10995238D01*
X-27874713Y-10995238D02*
X-27922332Y-11090476D01*
X-27922332Y-11090476D02*
X-27969952Y-11138095D01*
X-27969952Y-11138095D02*
X-28065190Y-11185714D01*
X-28065190Y-11185714D02*
X-28255666Y-11185714D01*
X-28255666Y-11185714D02*
X-28350904Y-11138095D01*
X-28350904Y-11138095D02*
X-28398523Y-11090476D01*
X-28398523Y-11090476D02*
X-28446142Y-10995238D01*
X4255346Y5237445D02*
X3255346Y5237445D01*
X3255346Y5237445D02*
X3255346Y4999350D01*
X3255346Y4999350D02*
X3302965Y4856493D01*
X3302965Y4856493D02*
X3398203Y4761255D01*
X3398203Y4761255D02*
X3493441Y4713636D01*
X3493441Y4713636D02*
X3683917Y4666017D01*
X3683917Y4666017D02*
X3826774Y4666017D01*
X3826774Y4666017D02*
X4017250Y4713636D01*
X4017250Y4713636D02*
X4112488Y4761255D01*
X4112488Y4761255D02*
X4207727Y4856493D01*
X4207727Y4856493D02*
X4255346Y4999350D01*
X4255346Y4999350D02*
X4255346Y5237445D01*
X4255346Y3713636D02*
X4255346Y4285064D01*
X4255346Y3999350D02*
X3255346Y3999350D01*
X3255346Y3999350D02*
X3398203Y4094588D01*
X3398203Y4094588D02*
X3493441Y4189826D01*
X3493441Y4189826D02*
X3541060Y4285064D01*
X22255346Y-9762555D02*
X21255346Y-9762555D01*
X21255346Y-9762555D02*
X21255346Y-10000650D01*
X21255346Y-10000650D02*
X21302965Y-10143507D01*
X21302965Y-10143507D02*
X21398203Y-10238745D01*
X21398203Y-10238745D02*
X21493441Y-10286364D01*
X21493441Y-10286364D02*
X21683917Y-10333983D01*
X21683917Y-10333983D02*
X21826774Y-10333983D01*
X21826774Y-10333983D02*
X22017250Y-10286364D01*
X22017250Y-10286364D02*
X22112488Y-10238745D01*
X22112488Y-10238745D02*
X22207727Y-10143507D01*
X22207727Y-10143507D02*
X22255346Y-10000650D01*
X22255346Y-10000650D02*
X22255346Y-9762555D01*
X21255346Y-10667317D02*
X21255346Y-11333983D01*
X21255346Y-11333983D02*
X22255346Y-10905412D01*
X32333332Y-15807200D02*
X32190475Y-15854819D01*
X32190475Y-15854819D02*
X31952380Y-15854819D01*
X31952380Y-15854819D02*
X31857142Y-15807200D01*
X31857142Y-15807200D02*
X31809523Y-15759580D01*
X31809523Y-15759580D02*
X31761904Y-15664342D01*
X31761904Y-15664342D02*
X31761904Y-15569104D01*
X31761904Y-15569104D02*
X31809523Y-15473866D01*
X31809523Y-15473866D02*
X31857142Y-15426247D01*
X31857142Y-15426247D02*
X31952380Y-15378628D01*
X31952380Y-15378628D02*
X32142856Y-15331009D01*
X32142856Y-15331009D02*
X32238094Y-15283390D01*
X32238094Y-15283390D02*
X32285713Y-15235771D01*
X32285713Y-15235771D02*
X32333332Y-15140533D01*
X32333332Y-15140533D02*
X32333332Y-15045295D01*
X32333332Y-15045295D02*
X32285713Y-14950057D01*
X32285713Y-14950057D02*
X32238094Y-14902438D01*
X32238094Y-14902438D02*
X32142856Y-14854819D01*
X32142856Y-14854819D02*
X31904761Y-14854819D01*
X31904761Y-14854819D02*
X31761904Y-14902438D01*
X31428570Y-14854819D02*
X31190475Y-15854819D01*
X31190475Y-15854819D02*
X30999999Y-15140533D01*
X30999999Y-15140533D02*
X30809523Y-15854819D01*
X30809523Y-15854819D02*
X30571428Y-14854819D01*
X30047618Y-15283390D02*
X30142856Y-15235771D01*
X30142856Y-15235771D02*
X30190475Y-15188152D01*
X30190475Y-15188152D02*
X30238094Y-15092914D01*
X30238094Y-15092914D02*
X30238094Y-15045295D01*
X30238094Y-15045295D02*
X30190475Y-14950057D01*
X30190475Y-14950057D02*
X30142856Y-14902438D01*
X30142856Y-14902438D02*
X30047618Y-14854819D01*
X30047618Y-14854819D02*
X29857142Y-14854819D01*
X29857142Y-14854819D02*
X29761904Y-14902438D01*
X29761904Y-14902438D02*
X29714285Y-14950057D01*
X29714285Y-14950057D02*
X29666666Y-15045295D01*
X29666666Y-15045295D02*
X29666666Y-15092914D01*
X29666666Y-15092914D02*
X29714285Y-15188152D01*
X29714285Y-15188152D02*
X29761904Y-15235771D01*
X29761904Y-15235771D02*
X29857142Y-15283390D01*
X29857142Y-15283390D02*
X30047618Y-15283390D01*
X30047618Y-15283390D02*
X30142856Y-15331009D01*
X30142856Y-15331009D02*
X30190475Y-15378628D01*
X30190475Y-15378628D02*
X30238094Y-15473866D01*
X30238094Y-15473866D02*
X30238094Y-15664342D01*
X30238094Y-15664342D02*
X30190475Y-15759580D01*
X30190475Y-15759580D02*
X30142856Y-15807200D01*
X30142856Y-15807200D02*
X30047618Y-15854819D01*
X30047618Y-15854819D02*
X29857142Y-15854819D01*
X29857142Y-15854819D02*
X29761904Y-15807200D01*
X29761904Y-15807200D02*
X29714285Y-15759580D01*
X29714285Y-15759580D02*
X29666666Y-15664342D01*
X29666666Y-15664342D02*
X29666666Y-15473866D01*
X29666666Y-15473866D02*
X29714285Y-15378628D01*
X29714285Y-15378628D02*
X29761904Y-15331009D01*
X29761904Y-15331009D02*
X29857142Y-15283390D01*
X-4367302Y-62598399D02*
X-4489994Y-62685705D01*
X-4489994Y-62685705D02*
X-4717686Y-62755317D01*
X-4717686Y-62755317D02*
X-4822685Y-62737624D01*
X-4822685Y-62737624D02*
X-4882146Y-62706008D01*
X-4882146Y-62706008D02*
X-4955529Y-62628854D01*
X-4955529Y-62628854D02*
X-4983374Y-62537777D01*
X-4983374Y-62537777D02*
X-4965680Y-62432778D01*
X-4965680Y-62432778D02*
X-4934064Y-62373317D01*
X-4934064Y-62373317D02*
X-4856910Y-62299934D01*
X-4856910Y-62299934D02*
X-4688679Y-62198706D01*
X-4688679Y-62198706D02*
X-4611525Y-62125323D01*
X-4611525Y-62125323D02*
X-4579909Y-62065862D01*
X-4579909Y-62065862D02*
X-4562216Y-61960863D01*
X-4562216Y-61960863D02*
X-4590061Y-61869786D01*
X-4590061Y-61869786D02*
X-4663444Y-61792632D01*
X-4663444Y-61792632D02*
X-4722905Y-61761016D01*
X-4722905Y-61761016D02*
X-4827904Y-61743323D01*
X-4827904Y-61743323D02*
X-5055596Y-61812935D01*
X-5055596Y-61812935D02*
X-5178288Y-61900241D01*
X-5510979Y-61952160D02*
X-5446299Y-62978077D01*
X-5446299Y-62978077D02*
X-5837289Y-62350692D01*
X-5837289Y-62350692D02*
X-5810605Y-63089456D01*
X-5810605Y-63089456D02*
X-6330669Y-62202764D01*
X-6903525Y-63423595D02*
X-6357065Y-63256526D01*
X-6630295Y-63340061D02*
X-6922667Y-62383756D01*
X-6922667Y-62383756D02*
X-6789823Y-62492526D01*
X-6789823Y-62492526D02*
X-6670901Y-62555758D01*
X-6670901Y-62555758D02*
X-6565902Y-62573451D01*
X-7514665Y-62564748D02*
X-8152201Y-62759662D01*
X-8152201Y-62759662D02*
X-7449985Y-63590665D01*
X-12462866Y-13959580D02*
X-12415247Y-14007200D01*
X-12415247Y-14007200D02*
X-12272390Y-14054819D01*
X-12272390Y-14054819D02*
X-12177152Y-14054819D01*
X-12177152Y-14054819D02*
X-12034295Y-14007200D01*
X-12034295Y-14007200D02*
X-11939057Y-13911961D01*
X-11939057Y-13911961D02*
X-11891438Y-13816723D01*
X-11891438Y-13816723D02*
X-11843819Y-13626247D01*
X-11843819Y-13626247D02*
X-11843819Y-13483390D01*
X-11843819Y-13483390D02*
X-11891438Y-13292914D01*
X-11891438Y-13292914D02*
X-11939057Y-13197676D01*
X-11939057Y-13197676D02*
X-12034295Y-13102438D01*
X-12034295Y-13102438D02*
X-12177152Y-13054819D01*
X-12177152Y-13054819D02*
X-12272390Y-13054819D01*
X-12272390Y-13054819D02*
X-12415247Y-13102438D01*
X-12415247Y-13102438D02*
X-12462866Y-13150057D01*
X-13320009Y-13388152D02*
X-13320009Y-14054819D01*
X-13081914Y-13007200D02*
X-12843819Y-13721485D01*
X-12843819Y-13721485D02*
X-13462866Y-13721485D01*
X-14726326Y-17350057D02*
X-14631088Y-17302438D01*
X-14631088Y-17302438D02*
X-14535850Y-17207200D01*
X-14535850Y-17207200D02*
X-14392993Y-17064342D01*
X-14392993Y-17064342D02*
X-14297755Y-17016723D01*
X-14297755Y-17016723D02*
X-14202517Y-17016723D01*
X-14250136Y-17254819D02*
X-14154898Y-17207200D01*
X-14154898Y-17207200D02*
X-14059660Y-17111961D01*
X-14059660Y-17111961D02*
X-14012041Y-16921485D01*
X-14012041Y-16921485D02*
X-14012041Y-16588152D01*
X-14012041Y-16588152D02*
X-14059660Y-16397676D01*
X-14059660Y-16397676D02*
X-14154898Y-16302438D01*
X-14154898Y-16302438D02*
X-14250136Y-16254819D01*
X-14250136Y-16254819D02*
X-14440612Y-16254819D01*
X-14440612Y-16254819D02*
X-14535850Y-16302438D01*
X-14535850Y-16302438D02*
X-14631088Y-16397676D01*
X-14631088Y-16397676D02*
X-14678707Y-16588152D01*
X-14678707Y-16588152D02*
X-14678707Y-16921485D01*
X-14678707Y-16921485D02*
X-14631088Y-17111961D01*
X-14631088Y-17111961D02*
X-14535850Y-17207200D01*
X-14535850Y-17207200D02*
X-14440612Y-17254819D01*
X-14440612Y-17254819D02*
X-14250136Y-17254819D01*
X-15631088Y-17254819D02*
X-15059660Y-17254819D01*
X-15345374Y-17254819D02*
X-15345374Y-16254819D01*
X-15345374Y-16254819D02*
X-15250136Y-16397676D01*
X-15250136Y-16397676D02*
X-15154898Y-16492914D01*
X-15154898Y-16492914D02*
X-15059660Y-16540533D01*
X18764656Y-46880559D02*
X19760851Y-46793403D01*
X19760851Y-46793403D02*
X19740099Y-46556214D01*
X19740099Y-46556214D02*
X19680211Y-46418050D01*
X19680211Y-46418050D02*
X19577035Y-46331475D01*
X19577035Y-46331475D02*
X19478009Y-46292338D01*
X19478009Y-46292338D02*
X19284107Y-46261501D01*
X19284107Y-46261501D02*
X19141793Y-46273952D01*
X19141793Y-46273952D02*
X18956192Y-46337991D01*
X18956192Y-46337991D02*
X18865467Y-46393729D01*
X18865467Y-46393729D02*
X18778892Y-46496906D01*
X18778892Y-46496906D02*
X18743905Y-46643369D01*
X18743905Y-46643369D02*
X18764656Y-46880559D01*
X18631847Y-45362548D02*
X18681651Y-45931802D01*
X18656749Y-45647175D02*
X19652944Y-45560019D01*
X19652944Y-45560019D02*
X19518931Y-45667345D01*
X19518931Y-45667345D02*
X19432356Y-45770522D01*
X19432356Y-45770522D02*
X19393218Y-45869548D01*
X19151298Y-44743490D02*
X19207037Y-44834216D01*
X19207037Y-44834216D02*
X19258625Y-44877503D01*
X19258625Y-44877503D02*
X19357651Y-44916640D01*
X19357651Y-44916640D02*
X19405089Y-44912490D01*
X19405089Y-44912490D02*
X19495814Y-44856752D01*
X19495814Y-44856752D02*
X19539102Y-44805164D01*
X19539102Y-44805164D02*
X19578239Y-44706138D01*
X19578239Y-44706138D02*
X19561638Y-44516386D01*
X19561638Y-44516386D02*
X19505899Y-44425661D01*
X19505899Y-44425661D02*
X19454311Y-44382373D01*
X19454311Y-44382373D02*
X19355285Y-44343236D01*
X19355285Y-44343236D02*
X19307847Y-44347386D01*
X19307847Y-44347386D02*
X19217122Y-44403125D01*
X19217122Y-44403125D02*
X19173834Y-44454713D01*
X19173834Y-44454713D02*
X19134697Y-44553739D01*
X19134697Y-44553739D02*
X19151298Y-44743490D01*
X19151298Y-44743490D02*
X19112161Y-44842516D01*
X19112161Y-44842516D02*
X19068873Y-44894104D01*
X19068873Y-44894104D02*
X18978148Y-44949843D01*
X18978148Y-44949843D02*
X18788397Y-44966444D01*
X18788397Y-44966444D02*
X18689371Y-44927306D01*
X18689371Y-44927306D02*
X18637783Y-44884019D01*
X18637783Y-44884019D02*
X18582044Y-44793294D01*
X18582044Y-44793294D02*
X18565443Y-44603542D01*
X18565443Y-44603542D02*
X18604580Y-44504516D01*
X18604580Y-44504516D02*
X18647868Y-44452928D01*
X18647868Y-44452928D02*
X18738593Y-44397190D01*
X18738593Y-44397190D02*
X18928345Y-44380589D01*
X18928345Y-44380589D02*
X19027371Y-44419726D01*
X19027371Y-44419726D02*
X19078959Y-44463013D01*
X19078959Y-44463013D02*
X19134697Y-44553739D01*
X32333332Y1192800D02*
X32190475Y1145181D01*
X32190475Y1145181D02*
X31952380Y1145181D01*
X31952380Y1145181D02*
X31857142Y1192800D01*
X31857142Y1192800D02*
X31809523Y1240420D01*
X31809523Y1240420D02*
X31761904Y1335658D01*
X31761904Y1335658D02*
X31761904Y1430896D01*
X31761904Y1430896D02*
X31809523Y1526134D01*
X31809523Y1526134D02*
X31857142Y1573753D01*
X31857142Y1573753D02*
X31952380Y1621372D01*
X31952380Y1621372D02*
X32142856Y1668991D01*
X32142856Y1668991D02*
X32238094Y1716610D01*
X32238094Y1716610D02*
X32285713Y1764229D01*
X32285713Y1764229D02*
X32333332Y1859467D01*
X32333332Y1859467D02*
X32333332Y1954705D01*
X32333332Y1954705D02*
X32285713Y2049943D01*
X32285713Y2049943D02*
X32238094Y2097562D01*
X32238094Y2097562D02*
X32142856Y2145181D01*
X32142856Y2145181D02*
X31904761Y2145181D01*
X31904761Y2145181D02*
X31761904Y2097562D01*
X31428570Y2145181D02*
X31190475Y1145181D01*
X31190475Y1145181D02*
X30999999Y1859467D01*
X30999999Y1859467D02*
X30809523Y1145181D01*
X30809523Y1145181D02*
X30571428Y2145181D01*
X30285713Y2145181D02*
X29666666Y2145181D01*
X29666666Y2145181D02*
X29999999Y1764229D01*
X29999999Y1764229D02*
X29857142Y1764229D01*
X29857142Y1764229D02*
X29761904Y1716610D01*
X29761904Y1716610D02*
X29714285Y1668991D01*
X29714285Y1668991D02*
X29666666Y1573753D01*
X29666666Y1573753D02*
X29666666Y1335658D01*
X29666666Y1335658D02*
X29714285Y1240420D01*
X29714285Y1240420D02*
X29761904Y1192800D01*
X29761904Y1192800D02*
X29857142Y1145181D01*
X29857142Y1145181D02*
X30142856Y1145181D01*
X30142856Y1145181D02*
X30238094Y1192800D01*
X30238094Y1192800D02*
X30285713Y1240420D01*
X-562866Y4045181D02*
X-229533Y4521372D01*
X8562Y4045181D02*
X8562Y5045181D01*
X8562Y5045181D02*
X-372390Y5045181D01*
X-372390Y5045181D02*
X-467628Y4997562D01*
X-467628Y4997562D02*
X-515247Y4949943D01*
X-515247Y4949943D02*
X-562866Y4854705D01*
X-562866Y4854705D02*
X-562866Y4711848D01*
X-562866Y4711848D02*
X-515247Y4616610D01*
X-515247Y4616610D02*
X-467628Y4568991D01*
X-467628Y4568991D02*
X-372390Y4521372D01*
X-372390Y4521372D02*
X8562Y4521372D01*
X-943819Y4949943D02*
X-991438Y4997562D01*
X-991438Y4997562D02*
X-1086676Y5045181D01*
X-1086676Y5045181D02*
X-1324771Y5045181D01*
X-1324771Y5045181D02*
X-1420009Y4997562D01*
X-1420009Y4997562D02*
X-1467628Y4949943D01*
X-1467628Y4949943D02*
X-1515247Y4854705D01*
X-1515247Y4854705D02*
X-1515247Y4759467D01*
X-1515247Y4759467D02*
X-1467628Y4616610D01*
X-1467628Y4616610D02*
X-896200Y4045181D01*
X-896200Y4045181D02*
X-1515247Y4045181D01*
X-27874713Y-13408333D02*
X-28350904Y-13075000D01*
X-27874713Y-12836905D02*
X-28874713Y-12836905D01*
X-28874713Y-12836905D02*
X-28874713Y-13217857D01*
X-28874713Y-13217857D02*
X-28827094Y-13313095D01*
X-28827094Y-13313095D02*
X-28779475Y-13360714D01*
X-28779475Y-13360714D02*
X-28684237Y-13408333D01*
X-28684237Y-13408333D02*
X-28541380Y-13408333D01*
X-28541380Y-13408333D02*
X-28446142Y-13360714D01*
X-28446142Y-13360714D02*
X-28398523Y-13313095D01*
X-28398523Y-13313095D02*
X-28350904Y-13217857D01*
X-28350904Y-13217857D02*
X-28350904Y-12836905D01*
X-28874713Y-13741667D02*
X-28874713Y-14408333D01*
X-28874713Y-14408333D02*
X-27874713Y-13979762D01*
X-23067628Y-14854819D02*
X-23067628Y-15664342D01*
X-23067628Y-15664342D02*
X-23115247Y-15759580D01*
X-23115247Y-15759580D02*
X-23162866Y-15807200D01*
X-23162866Y-15807200D02*
X-23258104Y-15854819D01*
X-23258104Y-15854819D02*
X-23448580Y-15854819D01*
X-23448580Y-15854819D02*
X-23543818Y-15807200D01*
X-23543818Y-15807200D02*
X-23591437Y-15759580D01*
X-23591437Y-15759580D02*
X-23639056Y-15664342D01*
X-23639056Y-15664342D02*
X-23639056Y-14854819D01*
X-24067628Y-14950057D02*
X-24115247Y-14902438D01*
X-24115247Y-14902438D02*
X-24210485Y-14854819D01*
X-24210485Y-14854819D02*
X-24448580Y-14854819D01*
X-24448580Y-14854819D02*
X-24543818Y-14902438D01*
X-24543818Y-14902438D02*
X-24591437Y-14950057D01*
X-24591437Y-14950057D02*
X-24639056Y-15045295D01*
X-24639056Y-15045295D02*
X-24639056Y-15140533D01*
X-24639056Y-15140533D02*
X-24591437Y-15283390D01*
X-24591437Y-15283390D02*
X-24020009Y-15854819D01*
X-24020009Y-15854819D02*
X-24639056Y-15854819D01*
X-9962866Y-2131009D02*
X-10296199Y-2131009D01*
X-10439056Y-2654819D02*
X-9962866Y-2654819D01*
X-9962866Y-2654819D02*
X-9962866Y-1654819D01*
X-9962866Y-1654819D02*
X-10439056Y-1654819D01*
X-10820009Y-2607200D02*
X-10962866Y-2654819D01*
X-10962866Y-2654819D02*
X-11200961Y-2654819D01*
X-11200961Y-2654819D02*
X-11296199Y-2607200D01*
X-11296199Y-2607200D02*
X-11343818Y-2559580D01*
X-11343818Y-2559580D02*
X-11391437Y-2464342D01*
X-11391437Y-2464342D02*
X-11391437Y-2369104D01*
X-11391437Y-2369104D02*
X-11343818Y-2273866D01*
X-11343818Y-2273866D02*
X-11296199Y-2226247D01*
X-11296199Y-2226247D02*
X-11200961Y-2178628D01*
X-11200961Y-2178628D02*
X-11010485Y-2131009D01*
X-11010485Y-2131009D02*
X-10915247Y-2083390D01*
X-10915247Y-2083390D02*
X-10867628Y-2035771D01*
X-10867628Y-2035771D02*
X-10820009Y-1940533D01*
X-10820009Y-1940533D02*
X-10820009Y-1845295D01*
X-10820009Y-1845295D02*
X-10867628Y-1750057D01*
X-10867628Y-1750057D02*
X-10915247Y-1702438D01*
X-10915247Y-1702438D02*
X-11010485Y-1654819D01*
X-11010485Y-1654819D02*
X-11248580Y-1654819D01*
X-11248580Y-1654819D02*
X-11391437Y-1702438D01*
X-11820009Y-2654819D02*
X-11820009Y-1654819D01*
X-11820009Y-1654819D02*
X-12058104Y-1654819D01*
X-12058104Y-1654819D02*
X-12200961Y-1702438D01*
X-12200961Y-1702438D02*
X-12296199Y-1797676D01*
X-12296199Y-1797676D02*
X-12343818Y-1892914D01*
X-12343818Y-1892914D02*
X-12391437Y-2083390D01*
X-12391437Y-2083390D02*
X-12391437Y-2226247D01*
X-12391437Y-2226247D02*
X-12343818Y-2416723D01*
X-12343818Y-2416723D02*
X-12296199Y-2511961D01*
X-12296199Y-2511961D02*
X-12200961Y-2607200D01*
X-12200961Y-2607200D02*
X-12058104Y-2654819D01*
X-12058104Y-2654819D02*
X-11820009Y-2654819D01*
X-13343818Y-2654819D02*
X-12772390Y-2654819D01*
X-13058104Y-2654819D02*
X-13058104Y-1654819D01*
X-13058104Y-1654819D02*
X-12962866Y-1797676D01*
X-12962866Y-1797676D02*
X-12867628Y-1892914D01*
X-12867628Y-1892914D02*
X-12772390Y-1940533D01*
X-16639328Y-58224767D02*
X-17124137Y-57350147D01*
X-17124137Y-57350147D02*
X-17332380Y-57465578D01*
X-17332380Y-57465578D02*
X-17434240Y-57576485D01*
X-17434240Y-57576485D02*
X-17471364Y-57705954D01*
X-17471364Y-57705954D02*
X-17466840Y-57812338D01*
X-17466840Y-57812338D02*
X-17416144Y-58002018D01*
X-17416144Y-58002018D02*
X-17346886Y-58126964D01*
X-17346886Y-58126964D02*
X-17212893Y-58270472D01*
X-17212893Y-58270472D02*
X-17125072Y-58330683D01*
X-17125072Y-58330683D02*
X-16995602Y-58367808D01*
X-16995602Y-58367808D02*
X-16847570Y-58340198D01*
X-16847570Y-58340198D02*
X-16639328Y-58224767D01*
X-17972081Y-58963524D02*
X-17472299Y-58686490D01*
X-17722190Y-58825007D02*
X-18207000Y-57950388D01*
X-18207000Y-57950388D02*
X-18054444Y-58029161D01*
X-18054444Y-58029161D02*
X-17924975Y-58066286D01*
X-17924975Y-58066286D02*
X-17818591Y-58061762D01*
X-19206565Y-58504456D02*
X-19039971Y-58412111D01*
X-19039971Y-58412111D02*
X-18933588Y-58407587D01*
X-18933588Y-58407587D02*
X-18868853Y-58426150D01*
X-18868853Y-58426150D02*
X-18716297Y-58504923D01*
X-18716297Y-58504923D02*
X-18582304Y-58648431D01*
X-18582304Y-58648431D02*
X-18397615Y-58981619D01*
X-18397615Y-58981619D02*
X-18393091Y-59088003D01*
X-18393091Y-59088003D02*
X-18411653Y-59152737D01*
X-18411653Y-59152737D02*
X-18471864Y-59240558D01*
X-18471864Y-59240558D02*
X-18638458Y-59332903D01*
X-18638458Y-59332903D02*
X-18744842Y-59337427D01*
X-18744842Y-59337427D02*
X-18809576Y-59318864D01*
X-18809576Y-59318864D02*
X-18897397Y-59258654D01*
X-18897397Y-59258654D02*
X-19012828Y-59050411D01*
X-19012828Y-59050411D02*
X-19017352Y-58944027D01*
X-19017352Y-58944027D02*
X-18998790Y-58879293D01*
X-18998790Y-58879293D02*
X-18938579Y-58791472D01*
X-18938579Y-58791472D02*
X-18771984Y-58699127D01*
X-18771984Y-58699127D02*
X-18665601Y-58694603D01*
X-18665601Y-58694603D02*
X-18600866Y-58713166D01*
X-18600866Y-58713166D02*
X-18513045Y-58773377D01*
X40255346Y-2762555D02*
X39255346Y-2762555D01*
X39255346Y-2762555D02*
X39255346Y-3000650D01*
X39255346Y-3000650D02*
X39302965Y-3143507D01*
X39302965Y-3143507D02*
X39398203Y-3238745D01*
X39398203Y-3238745D02*
X39493441Y-3286364D01*
X39493441Y-3286364D02*
X39683917Y-3333983D01*
X39683917Y-3333983D02*
X39826774Y-3333983D01*
X39826774Y-3333983D02*
X40017250Y-3286364D01*
X40017250Y-3286364D02*
X40112488Y-3238745D01*
X40112488Y-3238745D02*
X40207727Y-3143507D01*
X40207727Y-3143507D02*
X40255346Y-3000650D01*
X40255346Y-3000650D02*
X40255346Y-2762555D01*
X39683917Y-3905412D02*
X39636298Y-3810174D01*
X39636298Y-3810174D02*
X39588679Y-3762555D01*
X39588679Y-3762555D02*
X39493441Y-3714936D01*
X39493441Y-3714936D02*
X39445822Y-3714936D01*
X39445822Y-3714936D02*
X39350584Y-3762555D01*
X39350584Y-3762555D02*
X39302965Y-3810174D01*
X39302965Y-3810174D02*
X39255346Y-3905412D01*
X39255346Y-3905412D02*
X39255346Y-4095888D01*
X39255346Y-4095888D02*
X39302965Y-4191126D01*
X39302965Y-4191126D02*
X39350584Y-4238745D01*
X39350584Y-4238745D02*
X39445822Y-4286364D01*
X39445822Y-4286364D02*
X39493441Y-4286364D01*
X39493441Y-4286364D02*
X39588679Y-4238745D01*
X39588679Y-4238745D02*
X39636298Y-4191126D01*
X39636298Y-4191126D02*
X39683917Y-4095888D01*
X39683917Y-4095888D02*
X39683917Y-3905412D01*
X39683917Y-3905412D02*
X39731536Y-3810174D01*
X39731536Y-3810174D02*
X39779155Y-3762555D01*
X39779155Y-3762555D02*
X39874393Y-3714936D01*
X39874393Y-3714936D02*
X40064869Y-3714936D01*
X40064869Y-3714936D02*
X40160107Y-3762555D01*
X40160107Y-3762555D02*
X40207727Y-3810174D01*
X40207727Y-3810174D02*
X40255346Y-3905412D01*
X40255346Y-3905412D02*
X40255346Y-4095888D01*
X40255346Y-4095888D02*
X40207727Y-4191126D01*
X40207727Y-4191126D02*
X40160107Y-4238745D01*
X40160107Y-4238745D02*
X40064869Y-4286364D01*
X40064869Y-4286364D02*
X39874393Y-4286364D01*
X39874393Y-4286364D02*
X39779155Y-4238745D01*
X39779155Y-4238745D02*
X39731536Y-4191126D01*
X39731536Y-4191126D02*
X39683917Y-4095888D01*
X50960150Y-24722331D02*
X50814319Y-24759869D01*
X50814319Y-24759869D02*
X50576803Y-24743260D01*
X50576803Y-24743260D02*
X50485119Y-24689114D01*
X50485119Y-24689114D02*
X50440938Y-24638289D01*
X50440938Y-24638289D02*
X50400078Y-24539961D01*
X50400078Y-24539961D02*
X50406722Y-24444955D01*
X50406722Y-24444955D02*
X50460868Y-24353271D01*
X50460868Y-24353271D02*
X50511693Y-24309089D01*
X50511693Y-24309089D02*
X50610021Y-24268230D01*
X50610021Y-24268230D02*
X50803355Y-24234014D01*
X50803355Y-24234014D02*
X50901683Y-24193154D01*
X50901683Y-24193154D02*
X50952507Y-24148973D01*
X50952507Y-24148973D02*
X51006654Y-24057288D01*
X51006654Y-24057288D02*
X51013297Y-23962282D01*
X51013297Y-23962282D02*
X50972438Y-23863955D01*
X50972438Y-23863955D02*
X50928256Y-23813130D01*
X50928256Y-23813130D02*
X50836572Y-23758983D01*
X50836572Y-23758983D02*
X50599057Y-23742375D01*
X50599057Y-23742375D02*
X50453226Y-23779912D01*
X50124026Y-23709157D02*
X49816755Y-24690113D01*
X49816755Y-24690113D02*
X49676568Y-23964280D01*
X49676568Y-23964280D02*
X49436730Y-24663539D01*
X49436730Y-24663539D02*
X49268971Y-23649366D01*
X48771688Y-24617034D02*
X48581675Y-24603747D01*
X48581675Y-24603747D02*
X48489991Y-24549601D01*
X48489991Y-24549601D02*
X48445810Y-24498776D01*
X48445810Y-24498776D02*
X48360769Y-24349623D01*
X48360769Y-24349623D02*
X48326553Y-24156290D01*
X48326553Y-24156290D02*
X48353127Y-23776265D01*
X48353127Y-23776265D02*
X48407273Y-23684581D01*
X48407273Y-23684581D02*
X48458098Y-23640399D01*
X48458098Y-23640399D02*
X48556426Y-23599540D01*
X48556426Y-23599540D02*
X48746438Y-23612827D01*
X48746438Y-23612827D02*
X48838122Y-23666973D01*
X48838122Y-23666973D02*
X48882304Y-23717798D01*
X48882304Y-23717798D02*
X48923163Y-23816126D01*
X48923163Y-23816126D02*
X48906555Y-24053641D01*
X48906555Y-24053641D02*
X48852408Y-24145326D01*
X48852408Y-24145326D02*
X48801583Y-24189507D01*
X48801583Y-24189507D02*
X48703255Y-24230366D01*
X48703255Y-24230366D02*
X48513243Y-24217080D01*
X48513243Y-24217080D02*
X48421559Y-24162933D01*
X48421559Y-24162933D02*
X48377378Y-24112108D01*
X48377378Y-24112108D02*
X48336518Y-24013780D01*
X-12462866Y-12454819D02*
X-12129533Y-11978628D01*
X-11891438Y-12454819D02*
X-11891438Y-11454819D01*
X-11891438Y-11454819D02*
X-12272390Y-11454819D01*
X-12272390Y-11454819D02*
X-12367628Y-11502438D01*
X-12367628Y-11502438D02*
X-12415247Y-11550057D01*
X-12415247Y-11550057D02*
X-12462866Y-11645295D01*
X-12462866Y-11645295D02*
X-12462866Y-11788152D01*
X-12462866Y-11788152D02*
X-12415247Y-11883390D01*
X-12415247Y-11883390D02*
X-12367628Y-11931009D01*
X-12367628Y-11931009D02*
X-12272390Y-11978628D01*
X-12272390Y-11978628D02*
X-11891438Y-11978628D01*
X-13320009Y-11454819D02*
X-13129533Y-11454819D01*
X-13129533Y-11454819D02*
X-13034295Y-11502438D01*
X-13034295Y-11502438D02*
X-12986676Y-11550057D01*
X-12986676Y-11550057D02*
X-12891438Y-11692914D01*
X-12891438Y-11692914D02*
X-12843819Y-11883390D01*
X-12843819Y-11883390D02*
X-12843819Y-12264342D01*
X-12843819Y-12264342D02*
X-12891438Y-12359580D01*
X-12891438Y-12359580D02*
X-12939057Y-12407200D01*
X-12939057Y-12407200D02*
X-13034295Y-12454819D01*
X-13034295Y-12454819D02*
X-13224771Y-12454819D01*
X-13224771Y-12454819D02*
X-13320009Y-12407200D01*
X-13320009Y-12407200D02*
X-13367628Y-12359580D01*
X-13367628Y-12359580D02*
X-13415247Y-12264342D01*
X-13415247Y-12264342D02*
X-13415247Y-12026247D01*
X-13415247Y-12026247D02*
X-13367628Y-11931009D01*
X-13367628Y-11931009D02*
X-13320009Y-11883390D01*
X-13320009Y-11883390D02*
X-13224771Y-11835771D01*
X-13224771Y-11835771D02*
X-13034295Y-11835771D01*
X-13034295Y-11835771D02*
X-12939057Y-11883390D01*
X-12939057Y-11883390D02*
X-12891438Y-11931009D01*
X-12891438Y-11931009D02*
X-12843819Y-12026247D01*
X-3845181Y-43166666D02*
X-3130896Y-43166666D01*
X-3130896Y-43166666D02*
X-2988039Y-43119047D01*
X-2988039Y-43119047D02*
X-2892800Y-43023809D01*
X-2892800Y-43023809D02*
X-2845181Y-42880952D01*
X-2845181Y-42880952D02*
X-2845181Y-42785714D01*
X-3749943Y-43595238D02*
X-3797562Y-43642857D01*
X-3797562Y-43642857D02*
X-3845181Y-43738095D01*
X-3845181Y-43738095D02*
X-3845181Y-43976190D01*
X-3845181Y-43976190D02*
X-3797562Y-44071428D01*
X-3797562Y-44071428D02*
X-3749943Y-44119047D01*
X-3749943Y-44119047D02*
X-3654705Y-44166666D01*
X-3654705Y-44166666D02*
X-3559467Y-44166666D01*
X-3559467Y-44166666D02*
X-3416610Y-44119047D01*
X-3416610Y-44119047D02*
X-2845181Y-43547619D01*
X-2845181Y-43547619D02*
X-2845181Y-44166666D01*
X-22762866Y-14054819D02*
X-22429533Y-13578628D01*
X-22191438Y-14054819D02*
X-22191438Y-13054819D01*
X-22191438Y-13054819D02*
X-22572390Y-13054819D01*
X-22572390Y-13054819D02*
X-22667628Y-13102438D01*
X-22667628Y-13102438D02*
X-22715247Y-13150057D01*
X-22715247Y-13150057D02*
X-22762866Y-13245295D01*
X-22762866Y-13245295D02*
X-22762866Y-13388152D01*
X-22762866Y-13388152D02*
X-22715247Y-13483390D01*
X-22715247Y-13483390D02*
X-22667628Y-13531009D01*
X-22667628Y-13531009D02*
X-22572390Y-13578628D01*
X-22572390Y-13578628D02*
X-22191438Y-13578628D01*
X-23667628Y-13054819D02*
X-23191438Y-13054819D01*
X-23191438Y-13054819D02*
X-23143819Y-13531009D01*
X-23143819Y-13531009D02*
X-23191438Y-13483390D01*
X-23191438Y-13483390D02*
X-23286676Y-13435771D01*
X-23286676Y-13435771D02*
X-23524771Y-13435771D01*
X-23524771Y-13435771D02*
X-23620009Y-13483390D01*
X-23620009Y-13483390D02*
X-23667628Y-13531009D01*
X-23667628Y-13531009D02*
X-23715247Y-13626247D01*
X-23715247Y-13626247D02*
X-23715247Y-13864342D01*
X-23715247Y-13864342D02*
X-23667628Y-13959580D01*
X-23667628Y-13959580D02*
X-23620009Y-14007200D01*
X-23620009Y-14007200D02*
X-23524771Y-14054819D01*
X-23524771Y-14054819D02*
X-23286676Y-14054819D01*
X-23286676Y-14054819D02*
X-23191438Y-14007200D01*
X-23191438Y-14007200D02*
X-23143819Y-13959580D01*
X32809523Y-32807200D02*
X32666666Y-32854819D01*
X32666666Y-32854819D02*
X32428571Y-32854819D01*
X32428571Y-32854819D02*
X32333333Y-32807200D01*
X32333333Y-32807200D02*
X32285714Y-32759580D01*
X32285714Y-32759580D02*
X32238095Y-32664342D01*
X32238095Y-32664342D02*
X32238095Y-32569104D01*
X32238095Y-32569104D02*
X32285714Y-32473866D01*
X32285714Y-32473866D02*
X32333333Y-32426247D01*
X32333333Y-32426247D02*
X32428571Y-32378628D01*
X32428571Y-32378628D02*
X32619047Y-32331009D01*
X32619047Y-32331009D02*
X32714285Y-32283390D01*
X32714285Y-32283390D02*
X32761904Y-32235771D01*
X32761904Y-32235771D02*
X32809523Y-32140533D01*
X32809523Y-32140533D02*
X32809523Y-32045295D01*
X32809523Y-32045295D02*
X32761904Y-31950057D01*
X32761904Y-31950057D02*
X32714285Y-31902438D01*
X32714285Y-31902438D02*
X32619047Y-31854819D01*
X32619047Y-31854819D02*
X32380952Y-31854819D01*
X32380952Y-31854819D02*
X32238095Y-31902438D01*
X31904761Y-31854819D02*
X31666666Y-32854819D01*
X31666666Y-32854819D02*
X31476190Y-32140533D01*
X31476190Y-32140533D02*
X31285714Y-32854819D01*
X31285714Y-32854819D02*
X31047619Y-31854819D01*
X30142857Y-32854819D02*
X30714285Y-32854819D01*
X30428571Y-32854819D02*
X30428571Y-31854819D01*
X30428571Y-31854819D02*
X30523809Y-31997676D01*
X30523809Y-31997676D02*
X30619047Y-32092914D01*
X30619047Y-32092914D02*
X30714285Y-32140533D01*
X29809523Y-31854819D02*
X29190476Y-31854819D01*
X29190476Y-31854819D02*
X29523809Y-32235771D01*
X29523809Y-32235771D02*
X29380952Y-32235771D01*
X29380952Y-32235771D02*
X29285714Y-32283390D01*
X29285714Y-32283390D02*
X29238095Y-32331009D01*
X29238095Y-32331009D02*
X29190476Y-32426247D01*
X29190476Y-32426247D02*
X29190476Y-32664342D01*
X29190476Y-32664342D02*
X29238095Y-32759580D01*
X29238095Y-32759580D02*
X29285714Y-32807200D01*
X29285714Y-32807200D02*
X29380952Y-32854819D01*
X29380952Y-32854819D02*
X29666666Y-32854819D01*
X29666666Y-32854819D02*
X29761904Y-32807200D01*
X29761904Y-32807200D02*
X29809523Y-32759580D01*
X-3666668Y-24807200D02*
X-3809525Y-24854819D01*
X-3809525Y-24854819D02*
X-4047620Y-24854819D01*
X-4047620Y-24854819D02*
X-4142858Y-24807200D01*
X-4142858Y-24807200D02*
X-4190477Y-24759580D01*
X-4190477Y-24759580D02*
X-4238096Y-24664342D01*
X-4238096Y-24664342D02*
X-4238096Y-24569104D01*
X-4238096Y-24569104D02*
X-4190477Y-24473866D01*
X-4190477Y-24473866D02*
X-4142858Y-24426247D01*
X-4142858Y-24426247D02*
X-4047620Y-24378628D01*
X-4047620Y-24378628D02*
X-3857144Y-24331009D01*
X-3857144Y-24331009D02*
X-3761906Y-24283390D01*
X-3761906Y-24283390D02*
X-3714287Y-24235771D01*
X-3714287Y-24235771D02*
X-3666668Y-24140533D01*
X-3666668Y-24140533D02*
X-3666668Y-24045295D01*
X-3666668Y-24045295D02*
X-3714287Y-23950057D01*
X-3714287Y-23950057D02*
X-3761906Y-23902438D01*
X-3761906Y-23902438D02*
X-3857144Y-23854819D01*
X-3857144Y-23854819D02*
X-4095239Y-23854819D01*
X-4095239Y-23854819D02*
X-4238096Y-23902438D01*
X-4571430Y-23854819D02*
X-4809525Y-24854819D01*
X-4809525Y-24854819D02*
X-5000001Y-24140533D01*
X-5000001Y-24140533D02*
X-5190477Y-24854819D01*
X-5190477Y-24854819D02*
X-5428572Y-23854819D01*
X-6238096Y-23854819D02*
X-6047620Y-23854819D01*
X-6047620Y-23854819D02*
X-5952382Y-23902438D01*
X-5952382Y-23902438D02*
X-5904763Y-23950057D01*
X-5904763Y-23950057D02*
X-5809525Y-24092914D01*
X-5809525Y-24092914D02*
X-5761906Y-24283390D01*
X-5761906Y-24283390D02*
X-5761906Y-24664342D01*
X-5761906Y-24664342D02*
X-5809525Y-24759580D01*
X-5809525Y-24759580D02*
X-5857144Y-24807200D01*
X-5857144Y-24807200D02*
X-5952382Y-24854819D01*
X-5952382Y-24854819D02*
X-6142858Y-24854819D01*
X-6142858Y-24854819D02*
X-6238096Y-24807200D01*
X-6238096Y-24807200D02*
X-6285715Y-24759580D01*
X-6285715Y-24759580D02*
X-6333334Y-24664342D01*
X-6333334Y-24664342D02*
X-6333334Y-24426247D01*
X-6333334Y-24426247D02*
X-6285715Y-24331009D01*
X-6285715Y-24331009D02*
X-6238096Y-24283390D01*
X-6238096Y-24283390D02*
X-6142858Y-24235771D01*
X-6142858Y-24235771D02*
X-5952382Y-24235771D01*
X-5952382Y-24235771D02*
X-5857144Y-24283390D01*
X-5857144Y-24283390D02*
X-5809525Y-24331009D01*
X-5809525Y-24331009D02*
X-5761906Y-24426247D01*
X81413012Y-11545177D02*
X80428204Y-11371528D01*
X80428204Y-11371528D02*
X80386859Y-11606006D01*
X80386859Y-11606006D02*
X80408948Y-11754962D01*
X80408948Y-11754962D02*
X80486201Y-11865291D01*
X80486201Y-11865291D02*
X80571723Y-11928725D01*
X80571723Y-11928725D02*
X80751037Y-12008696D01*
X80751037Y-12008696D02*
X80891724Y-12033503D01*
X80891724Y-12033503D02*
X81087575Y-12019683D01*
X81087575Y-12019683D02*
X81189635Y-11989326D01*
X81189635Y-11989326D02*
X81299964Y-11912072D01*
X81299964Y-11912072D02*
X81371667Y-11779655D01*
X81371667Y-11779655D02*
X81413012Y-11545177D01*
X80171866Y-12825292D02*
X80254556Y-12356336D01*
X80254556Y-12356336D02*
X80731781Y-12392130D01*
X80731781Y-12392130D02*
X80676616Y-12430757D01*
X80676616Y-12430757D02*
X80613183Y-12516279D01*
X80613183Y-12516279D02*
X80571838Y-12750757D01*
X80571838Y-12750757D02*
X80602196Y-12852817D01*
X80602196Y-12852817D02*
X80640822Y-12907982D01*
X80640822Y-12907982D02*
X80726344Y-12971415D01*
X80726344Y-12971415D02*
X80960822Y-13012760D01*
X80960822Y-13012760D02*
X81062883Y-12982402D01*
X81062883Y-12982402D02*
X81118047Y-12943776D01*
X81118047Y-12943776D02*
X81181481Y-12858254D01*
X81181481Y-12858254D02*
X81222826Y-12623776D01*
X81222826Y-12623776D02*
X81192468Y-12521715D01*
X81192468Y-12521715D02*
X81153841Y-12466551D01*
X71346171Y-23016000D02*
X71197216Y-23038089D01*
X71197216Y-23038089D02*
X70962738Y-22996744D01*
X70962738Y-22996744D02*
X70877215Y-22933310D01*
X70877215Y-22933310D02*
X70838589Y-22878146D01*
X70838589Y-22878146D02*
X70808231Y-22776086D01*
X70808231Y-22776086D02*
X70824769Y-22682294D01*
X70824769Y-22682294D02*
X70888202Y-22596772D01*
X70888202Y-22596772D02*
X70943367Y-22558146D01*
X70943367Y-22558146D02*
X71045427Y-22527788D01*
X71045427Y-22527788D02*
X71241279Y-22513968D01*
X71241279Y-22513968D02*
X71343339Y-22483610D01*
X71343339Y-22483610D02*
X71398503Y-22444984D01*
X71398503Y-22444984D02*
X71461937Y-22359462D01*
X71461937Y-22359462D02*
X71478475Y-22265670D01*
X71478475Y-22265670D02*
X71448117Y-22163610D01*
X71448117Y-22163610D02*
X71409490Y-22108446D01*
X71409490Y-22108446D02*
X71323968Y-22045012D01*
X71323968Y-22045012D02*
X71089490Y-22003667D01*
X71089490Y-22003667D02*
X70940534Y-22025756D01*
X70620534Y-21920978D02*
X70212408Y-22864441D01*
X70212408Y-22864441D02*
X70148860Y-22127931D01*
X70148860Y-22127931D02*
X69837243Y-22798289D01*
X69837243Y-22798289D02*
X69776413Y-21772136D01*
X68932292Y-21623295D02*
X69401248Y-21705985D01*
X69401248Y-21705985D02*
X69365454Y-22183210D01*
X69365454Y-22183210D02*
X69326828Y-22128045D01*
X69326828Y-22128045D02*
X69241306Y-22064612D01*
X69241306Y-22064612D02*
X69006827Y-22023267D01*
X69006827Y-22023267D02*
X68904767Y-22053624D01*
X68904767Y-22053624D02*
X68849603Y-22092251D01*
X68849603Y-22092251D02*
X68786169Y-22177773D01*
X68786169Y-22177773D02*
X68744824Y-22412251D01*
X68744824Y-22412251D02*
X68775182Y-22514312D01*
X68775182Y-22514312D02*
X68813809Y-22569476D01*
X68813809Y-22569476D02*
X68899331Y-22632910D01*
X68899331Y-22632910D02*
X69133809Y-22674254D01*
X69133809Y-22674254D02*
X69235869Y-22643897D01*
X69235869Y-22643897D02*
X69291034Y-22605270D01*
X35154819Y-35733333D02*
X34678628Y-35400000D01*
X35154819Y-35161905D02*
X34154819Y-35161905D01*
X34154819Y-35161905D02*
X34154819Y-35542857D01*
X34154819Y-35542857D02*
X34202438Y-35638095D01*
X34202438Y-35638095D02*
X34250057Y-35685714D01*
X34250057Y-35685714D02*
X34345295Y-35733333D01*
X34345295Y-35733333D02*
X34488152Y-35733333D01*
X34488152Y-35733333D02*
X34583390Y-35685714D01*
X34583390Y-35685714D02*
X34631009Y-35638095D01*
X34631009Y-35638095D02*
X34678628Y-35542857D01*
X34678628Y-35542857D02*
X34678628Y-35161905D01*
X35154819Y-36209524D02*
X35154819Y-36400000D01*
X35154819Y-36400000D02*
X35107200Y-36495238D01*
X35107200Y-36495238D02*
X35059580Y-36542857D01*
X35059580Y-36542857D02*
X34916723Y-36638095D01*
X34916723Y-36638095D02*
X34726247Y-36685714D01*
X34726247Y-36685714D02*
X34345295Y-36685714D01*
X34345295Y-36685714D02*
X34250057Y-36638095D01*
X34250057Y-36638095D02*
X34202438Y-36590476D01*
X34202438Y-36590476D02*
X34154819Y-36495238D01*
X34154819Y-36495238D02*
X34154819Y-36304762D01*
X34154819Y-36304762D02*
X34202438Y-36209524D01*
X34202438Y-36209524D02*
X34250057Y-36161905D01*
X34250057Y-36161905D02*
X34345295Y-36114286D01*
X34345295Y-36114286D02*
X34583390Y-36114286D01*
X34583390Y-36114286D02*
X34678628Y-36161905D01*
X34678628Y-36161905D02*
X34726247Y-36209524D01*
X34726247Y-36209524D02*
X34773866Y-36304762D01*
X34773866Y-36304762D02*
X34773866Y-36495238D01*
X34773866Y-36495238D02*
X34726247Y-36590476D01*
X34726247Y-36590476D02*
X34678628Y-36638095D01*
X34678628Y-36638095D02*
X34583390Y-36685714D01*
D11*
X78583203Y-30733393D02*
X79279532Y-26784314D01*
X80552818Y-31080689D02*
X81249147Y-27131610D01*
X81249147Y-27131610D02*
X79279532Y-26784314D01*
X10496000Y-34175000D02*
X10496000Y-33475000D01*
X11496000Y-33475000D02*
X10496000Y-33475000D01*
X18500000Y-35625000D02*
X19500000Y-35625000D01*
X18500000Y-40275000D02*
X19500000Y-40275000D01*
X19500000Y-40275000D02*
X20300000Y-39475000D01*
X20300000Y-36425000D02*
X19500000Y-35625000D01*
X11550000Y-38125000D02*
G75*
G02*
X10750000Y-37325000I0J800000D01*
G01*
X1937258Y3522500D02*
X1462742Y3522500D01*
X1937258Y2477500D02*
X1462742Y2477500D01*
X158861Y-50071146D02*
X-1013551Y-46236364D01*
X899059Y-45651621D02*
X-1013551Y-46236364D01*
X2071470Y-49486405D02*
X899059Y-45651621D01*
X-9741422Y2810000D02*
X-10258578Y2810000D01*
X-9741422Y1390000D02*
X-10258578Y1390000D01*
X-7504000Y-2175000D02*
X-7504000Y-1475000D01*
X-6504000Y-1475000D02*
X-7504000Y-1475000D01*
X500000Y-3625000D02*
X1500000Y-3625000D01*
X500000Y-8275000D02*
X1500000Y-8275000D01*
X1500000Y-8275000D02*
X2300000Y-7475000D01*
X2300000Y-4425000D02*
X1500000Y-3625000D01*
X-6450000Y-6125000D02*
G75*
G02*
X-7250000Y-5325000I0J800000D01*
G01*
X-7504000Y-36175000D02*
X-7504000Y-35475000D01*
X-6504000Y-35475000D02*
X-7504000Y-35475000D01*
X500000Y-37625000D02*
X1500000Y-37625000D01*
X500000Y-42275000D02*
X1500000Y-42275000D01*
X1500000Y-42275000D02*
X2300000Y-41475000D01*
X2300000Y-38425000D02*
X1500000Y-37625000D01*
X-6450000Y-40125000D02*
G75*
G02*
X-7250000Y-39325000I0J800000D01*
G01*
X-22739532Y-9840580D02*
X-22739532Y-9559420D01*
X-21719532Y-9840580D02*
X-21719532Y-9559420D01*
X75631184Y-47475125D02*
X76327513Y-43526046D01*
X77600799Y-47822421D02*
X78297128Y-43873342D01*
X78297128Y-43873342D02*
X76327513Y-43526046D01*
X22800527Y-29150650D02*
X22800527Y-25140650D01*
X24800527Y-25140650D02*
X22800527Y-25140650D01*
X24800527Y-29150650D02*
X24800527Y-25140650D01*
X40800527Y-22150650D02*
X40800527Y-18140650D01*
X42800527Y-18140650D02*
X40800527Y-18140650D01*
X42800527Y-22150650D02*
X42800527Y-18140650D01*
X48710907Y-1877585D02*
X48759737Y-1179290D01*
X49757301Y-1249047D02*
X48759737Y-1179290D01*
X56269895Y-8521057D02*
X57267459Y-8590813D01*
X56594263Y-3882384D02*
X57591827Y-3952140D01*
X57267459Y-8590813D02*
X58121316Y-7848567D01*
X58334073Y-4805997D02*
X57591827Y-3952140D01*
X49486801Y-5891487D02*
G75*
G02*
X48744555Y-5037630I55806J798052D01*
G01*
X65593140Y-33544753D02*
X65714696Y-32855388D01*
X66699501Y-33029036D02*
X65714696Y-32855388D01*
X72416287Y-40941960D02*
X73401095Y-41115608D01*
X73223751Y-36362604D02*
X74208559Y-36536252D01*
X73401095Y-41115608D02*
X74327860Y-40466681D01*
X74857487Y-37463017D02*
X74208559Y-36536252D01*
X65945217Y-37617769D02*
G75*
G02*
X65296289Y-36691004I138918J787846D01*
G01*
X8432111Y-53265460D02*
X8371102Y-52568124D01*
X9367296Y-52480968D02*
X8371102Y-52568124D01*
X16532029Y-54012348D02*
X17528224Y-53925192D01*
X16937303Y-58644653D02*
X17933498Y-58557499D01*
X17933498Y-58557499D02*
X18660729Y-57690817D01*
X18394904Y-54652423D02*
X17528224Y-53925192D01*
X9826365Y-57108567D02*
G75*
G02*
X8959685Y-56381336I-69724J796956D01*
G01*
X10496000Y-175001D02*
X10496000Y524999D01*
X11496000Y524999D02*
X10496000Y524999D01*
X18500000Y-1625001D02*
X19500000Y-1625001D01*
X18500000Y-6275001D02*
X19500000Y-6275001D01*
X19500000Y-6275001D02*
X20300000Y-5475001D01*
X20300000Y-2425001D02*
X19500000Y-1625001D01*
X11550000Y-4125001D02*
G75*
G02*
X10750000Y-3325001I0J800000D01*
G01*
X-14500000Y10500000D02*
X-15500000Y10500000D01*
X-14500000Y10500000D02*
X-14500000Y9500000D01*
X-14500000Y-4000000D02*
X-15500000Y-4000000D01*
X-14500000Y-4000000D02*
X-14500000Y-3000000D01*
X-29700000Y11051892D02*
X-29940000Y11381892D01*
X-29460000Y11381892D01*
X-29700000Y11051892D01*
G36*
X-29700000Y11051892D02*
G01*
X-29940000Y11381892D01*
X-29460000Y11381892D01*
X-29700000Y11051892D01*
G37*
X4800527Y-14150650D02*
X4800527Y-10140650D01*
X6800527Y-10140650D02*
X4800527Y-10140650D01*
X6800527Y-14150650D02*
X6800527Y-10140650D01*
X46339187Y-35794762D02*
X46388017Y-35096467D01*
X47385581Y-35166224D02*
X46388017Y-35096467D01*
X53898175Y-42438234D02*
X54895739Y-42507990D01*
X54222543Y-37799561D02*
X55220107Y-37869317D01*
X54895739Y-42507990D02*
X55749596Y-41765744D01*
X55962353Y-38723174D02*
X55220107Y-37869317D01*
X47115081Y-39808664D02*
G75*
G02*
X46372835Y-38954807I55806J798052D01*
G01*
X4800527Y-31150650D02*
X4800527Y-27140650D01*
X6800527Y-27140650D02*
X4800527Y-27140650D01*
X6800527Y-31150650D02*
X6800527Y-27140650D01*
X-20029532Y-9740000D02*
X-19229532Y-9740000D01*
X-20029532Y-12860000D02*
X-19229532Y-12860000D01*
X-18429532Y-9740000D02*
X-19229532Y-9740000D01*
X-18429532Y-12860000D02*
X-19229532Y-12860000D01*
X-20289532Y-13140000D02*
X-20769532Y-13140000D01*
X-20529532Y-12810000D01*
X-20289532Y-13140000D01*
G36*
X-20289532Y-13140000D02*
G01*
X-20769532Y-13140000D01*
X-20529532Y-12810000D01*
X-20289532Y-13140000D01*
G37*
X58964222Y-31640971D02*
X59243946Y-27640739D01*
X60959350Y-31780484D02*
X61239074Y-27780252D01*
X61239074Y-27780252D02*
X59243946Y-27640739D01*
X-22639532Y-18040580D02*
X-22639532Y-17759420D01*
X-21619532Y-18040580D02*
X-21619532Y-17759420D01*
X60150082Y-14682382D02*
X60429806Y-10682150D01*
X62145210Y-14821895D02*
X62424934Y-10821663D01*
X62424934Y-10821663D02*
X60429806Y-10682150D01*
X-30694692Y-61722092D02*
X-30209883Y-62596712D01*
X-30209883Y-62596712D02*
X-29122339Y-62908560D01*
X-29239928Y-51764298D02*
X-28627694Y-51424931D01*
X-28142885Y-52299551D02*
X-28627694Y-51424931D01*
X-26627711Y-59467728D02*
X-26142901Y-60342347D01*
X-26454749Y-61429891D02*
X-26142901Y-60342347D01*
X-32183687Y-54601145D02*
G75*
G02*
X-31871839Y-53513601I699696J387848D01*
G01*
X61335942Y2276206D02*
X61615666Y6276438D01*
X63331070Y2136693D02*
X63610794Y6136925D01*
X63610794Y6136925D02*
X61615666Y6276438D01*
X2259420Y10110000D02*
X2540580Y10110000D01*
X2259420Y9090000D02*
X2540580Y9090000D01*
X10496000Y-17175000D02*
X10496000Y-16475000D01*
X11496000Y-16475000D02*
X10496000Y-16475000D01*
X18500000Y-18625000D02*
X19500000Y-18625000D01*
X18500000Y-23275000D02*
X19500000Y-23275000D01*
X19500000Y-23275000D02*
X20300000Y-22475000D01*
X20300000Y-19425000D02*
X19500000Y-18625000D01*
X11550000Y-21125000D02*
G75*
G02*
X10750000Y-20325000I0J800000D01*
G01*
X15550000Y9865000D02*
X15550000Y9315000D01*
X16575000Y11440000D02*
X15650000Y11440000D01*
X20350000Y11440000D02*
X19425000Y11440000D01*
X20350000Y7740000D02*
X15650000Y7740000D01*
X20450000Y9865000D02*
X20450000Y9315000D01*
X-21789532Y-13400000D02*
X-21789532Y-15400000D01*
X-17779532Y-13400000D02*
X-21789532Y-13400000D01*
X-17779532Y-15400000D02*
X-21789532Y-15400000D01*
X-15766790Y-9877500D02*
X-15292274Y-9877500D01*
X-15766790Y-10922500D02*
X-15292274Y-10922500D01*
X62641121Y-50286485D02*
X62762677Y-49597120D01*
X63747482Y-49770768D02*
X62762677Y-49597120D01*
X69464268Y-57683692D02*
X70449076Y-57857340D01*
X70271732Y-53104336D02*
X71256540Y-53277984D01*
X70449076Y-57857340D02*
X71375841Y-57208413D01*
X71905468Y-54204749D02*
X71256540Y-53277984D01*
X62993198Y-54359501D02*
G75*
G02*
X62344270Y-53432736I138918J787846D01*
G01*
X2162742Y8222500D02*
X2637258Y8222500D01*
X2162742Y7177500D02*
X2637258Y7177500D01*
X-28439532Y-18140580D02*
X-28439532Y-17859420D01*
X-27419532Y-18140580D02*
X-27419532Y-17859420D01*
X22800527Y4849349D02*
X22800527Y8859349D01*
X24800527Y8859349D02*
X22800527Y8859349D01*
X24800527Y4849349D02*
X24800527Y8859349D01*
X-32930000Y-8250000D02*
X-32930000Y-13950000D01*
X-31920000Y-14550000D02*
X-31130000Y-14550000D01*
X-31130000Y-7650000D02*
X-31920000Y-7650000D01*
X-30080000Y-9500000D02*
X-30080000Y-9700000D01*
X-30080000Y-11000000D02*
X-30080000Y-12700000D01*
X40800527Y11849350D02*
X40800527Y15859350D01*
X42800527Y15859350D02*
X40800527Y15859350D01*
X42800527Y11849350D02*
X42800527Y15859350D01*
X-27452032Y-10162742D02*
X-27452032Y-10637258D01*
X-26407032Y-10162742D02*
X-26407032Y-10637258D01*
X4800527Y2849350D02*
X4800527Y6859350D01*
X6800527Y6859350D02*
X4800527Y6859350D01*
X6800527Y2849350D02*
X6800527Y6859350D01*
X22800527Y-12150650D02*
X22800527Y-8140650D01*
X24800527Y-8140650D02*
X22800527Y-8140650D01*
X24800527Y-12150650D02*
X24800527Y-8140650D01*
X28496000Y-10175000D02*
X28496000Y-9475000D01*
X29496000Y-9475000D02*
X28496000Y-9475000D01*
X36500000Y-11625000D02*
X37500000Y-11625000D01*
X36500000Y-16275000D02*
X37500000Y-16275000D01*
X37500000Y-16275000D02*
X38300000Y-15475000D01*
X38300000Y-12425000D02*
X37500000Y-11625000D01*
X29550000Y-14125000D02*
G75*
G02*
X28750000Y-13325000I0J800000D01*
G01*
X-10139040Y-58473452D02*
X-10343701Y-57804039D01*
X-9387396Y-57511667D02*
X-10343701Y-57804039D01*
X-2060838Y-57519951D02*
X-1104533Y-57227579D01*
X-701310Y-61966768D02*
X254995Y-61674396D01*
X-105592Y-57758726D02*
X-1104533Y-57227579D01*
X254995Y-61674396D02*
X786141Y-60675455D01*
X-7976227Y-61942696D02*
G75*
G02*
X-8975168Y-61411550I-233897J765044D01*
G01*
X-15388952Y-13090000D02*
X-15670112Y-13090000D01*
X-15388952Y-14110000D02*
X-15670112Y-14110000D01*
X-18342032Y-16140000D02*
X-17692032Y-16140000D01*
X-18342032Y-19260000D02*
X-17692032Y-19260000D01*
X-17042032Y-16140000D02*
X-17692032Y-16140000D01*
X-17042032Y-19260000D02*
X-17692032Y-19260000D01*
X-16529532Y-16190000D02*
X-16769532Y-15860000D01*
X-16289532Y-15860000D01*
X-16529532Y-16190000D01*
G36*
X-16529532Y-16190000D02*
G01*
X-16769532Y-15860000D01*
X-16289532Y-15860000D01*
X-16529532Y-16190000D01*
G37*
X20251914Y-47187822D02*
X19902420Y-43193078D01*
X21894809Y-43018767D02*
X19902420Y-43193078D01*
X22244304Y-47013510D02*
X21894809Y-43018767D01*
X28496000Y6825000D02*
X28496000Y7525000D01*
X29496000Y7525000D02*
X28496000Y7525000D01*
X36500000Y5375000D02*
X37500000Y5375000D01*
X36500000Y725000D02*
X37500000Y725000D01*
X37500000Y725000D02*
X38300000Y1525000D01*
X38300000Y4575000D02*
X37500000Y5375000D01*
X29550000Y2875000D02*
G75*
G02*
X28750000Y3675000I0J800000D01*
G01*
X1937258Y5122500D02*
X1462742Y5122500D01*
X1937258Y4077500D02*
X1462742Y4077500D01*
X-27452032Y-13262742D02*
X-27452032Y-13737258D01*
X-26407032Y-13262742D02*
X-26407032Y-13737258D01*
X-25579532Y-16140000D02*
X-24929532Y-16140000D01*
X-25579532Y-19260000D02*
X-24929532Y-19260000D01*
X-24279532Y-16140000D02*
X-24929532Y-16140000D01*
X-24279532Y-19260000D02*
X-24929532Y-19260000D01*
X-25852032Y-19540000D02*
X-26332032Y-19540000D01*
X-26092032Y-19210000D01*
X-25852032Y-19540000D01*
G36*
X-25852032Y-19540000D02*
G01*
X-26332032Y-19540000D01*
X-26092032Y-19210000D01*
X-25852032Y-19540000D01*
G37*
X-9600000Y690000D02*
X-10650000Y690000D01*
X-9350000Y-1290000D02*
X-10650000Y-1290000D01*
X-8950000Y690000D02*
X-9230000Y690000D01*
X-9230000Y970000D01*
X-8950000Y690000D01*
G36*
X-8950000Y690000D02*
G01*
X-9230000Y690000D01*
X-9230000Y970000D01*
X-8950000Y690000D01*
G37*
X-18880180Y-60090226D02*
X-15372954Y-58146140D01*
X-17910560Y-61839466D02*
X-14403335Y-59895379D01*
X-14403335Y-59895379D02*
X-15372954Y-58146140D01*
X40800527Y-5150650D02*
X40800527Y-1140650D01*
X42800527Y-1140650D02*
X40800527Y-1140650D01*
X42800527Y-5150650D02*
X42800527Y-1140650D01*
X47525047Y-18836173D02*
X47573877Y-18137878D01*
X48571441Y-18207635D02*
X47573877Y-18137878D01*
X55084035Y-25479645D02*
X56081599Y-25549401D01*
X55408403Y-20840972D02*
X56405967Y-20910728D01*
X56081599Y-25549401D02*
X56935456Y-24807155D01*
X57148213Y-21764585D02*
X56405967Y-20910728D01*
X48300941Y-22850075D02*
G75*
G02*
X47558695Y-21996218I55806J798052D01*
G01*
X-15292274Y-11477500D02*
X-15766790Y-11477500D01*
X-15292274Y-12522500D02*
X-15766790Y-12522500D01*
X-9430000Y-43060000D02*
X-9430000Y-43560000D01*
X-9430000Y-43560000D02*
X-8930000Y-43860000D01*
X-9430000Y-44840000D02*
X-9430000Y-45340000D01*
X-8930000Y-43860000D02*
X-8930000Y-44540000D01*
X-8930000Y-44540000D02*
X-9430000Y-44840000D01*
X-4710000Y-41990000D02*
X-8040000Y-41990000D01*
X-4710000Y-43040000D02*
X-4710000Y-41990000D01*
X-4710000Y-45360000D02*
X-4710000Y-46410000D01*
X-4710000Y-46410000D02*
X-8040000Y-46410000D01*
X-4500000Y-45360000D02*
X-4710000Y-45360000D01*
X-4000000Y-44800000D02*
X-3646447Y-45050000D01*
X-3646447Y-44550000D02*
X-4000000Y-44800000D01*
X-3646447Y-45050000D02*
X-3646447Y-44550000D01*
X-23166790Y-11577500D02*
X-22692274Y-11577500D01*
X-23166790Y-12622500D02*
X-22692274Y-12622500D01*
X28496000Y-27175000D02*
X28496000Y-26475000D01*
X29496000Y-26475000D02*
X28496000Y-26475000D01*
X36500000Y-28625000D02*
X37500000Y-28625000D01*
X36500000Y-33275000D02*
X37500000Y-33275000D01*
X37500000Y-33275000D02*
X38300000Y-32475000D01*
X38300000Y-29425000D02*
X37500000Y-28625000D01*
X29550000Y-31125000D02*
G75*
G02*
X28750000Y-30325000I0J800000D01*
G01*
X-7504000Y-19175000D02*
X-7504000Y-18475000D01*
X-6504000Y-18475000D02*
X-7504000Y-18475000D01*
X500000Y-20625000D02*
X1500000Y-20625000D01*
X500000Y-25275000D02*
X1500000Y-25275000D01*
X1500000Y-25275000D02*
X2300000Y-24475000D01*
X2300000Y-21425000D02*
X1500000Y-20625000D01*
X-6450000Y-23125000D02*
G75*
G02*
X-7250000Y-22325000I0J800000D01*
G01*
X81535222Y-13991661D02*
X82231551Y-10042582D01*
X83504837Y-14338957D02*
X84201166Y-10389878D01*
X84201166Y-10389878D02*
X82231551Y-10042582D01*
X68545159Y-16803021D02*
X68666715Y-16113656D01*
X69651520Y-16287304D02*
X68666715Y-16113656D01*
X75368306Y-24200228D02*
X76353114Y-24373876D01*
X76175770Y-19620872D02*
X77160578Y-19794520D01*
X76353114Y-24373876D02*
X77279879Y-23724949D01*
X77809506Y-20721285D02*
X77160578Y-19794520D01*
X68897236Y-20876037D02*
G75*
G02*
X68248308Y-19949272I138918J787846D01*
G01*
X34177500Y-38637258D02*
X34177500Y-38162742D01*
X35222500Y-38637258D02*
X35222500Y-38162742D01*
%LPC*%
D12*
X-20220000Y3250000D03*
D13*
X-22760000Y3250000D03*
X-25300000Y3250000D03*
X-27840000Y3250000D03*
D14*
X66415523Y-14218956D03*
X8645485Y-8499999D03*
X-15977165Y-51506206D03*
X59947564Y-45141804D03*
D15*
X80141049Y-27657175D03*
X79568011Y-30907041D03*
D16*
X23500000Y-32000000D03*
D17*
X18000000Y-32000000D03*
D16*
X12500000Y-32000000D03*
D18*
X13000000Y-35750000D03*
D19*
X9755000Y-35750000D03*
X21245000Y-37950000D03*
D18*
X18000000Y-37950000D03*
D20*
X875000Y3000000D03*
X2525000Y3000000D03*
D21*
X150337Y-46622969D03*
X1115165Y-49778775D03*
D22*
X-10937500Y2100000D03*
X-9062500Y2100000D03*
D16*
X5500000Y0D03*
D17*
X0Y0D03*
D16*
X-5500000Y0D03*
D18*
X-5000000Y-3750000D03*
D19*
X-8245000Y-3750000D03*
X3245000Y-5950000D03*
D18*
X0Y-5950000D03*
D16*
X5500000Y-34000000D03*
D17*
X0Y-34000000D03*
D16*
X-5500000Y-34000000D03*
D18*
X-5000000Y-37750000D03*
D19*
X-8245000Y-37750000D03*
X3245000Y-39950000D03*
D18*
X0Y-39950000D03*
D23*
X-22229532Y-8925000D03*
X-22229532Y-10475000D03*
D15*
X77189030Y-44398907D03*
X76615992Y-47648773D03*
D24*
X23800527Y-25850650D03*
X23800527Y-29150650D03*
X41800527Y-18850650D03*
X41800527Y-22150650D03*
D16*
X61834950Y-614997D03*
D17*
X56348348Y-231336D03*
D16*
X50861746Y152325D03*
D18*
X51098941Y-3623419D03*
D25*
X47861846Y-3397059D03*
X59170392Y-6393202D03*
D18*
X55933297Y-6166842D03*
D16*
X78777265Y-33660917D03*
D17*
X73360822Y-32705852D03*
D16*
X67944379Y-31750787D03*
D18*
X67785603Y-35530640D03*
D26*
X64589901Y-34967152D03*
X75523317Y-39128944D03*
D18*
X72327615Y-38565458D03*
D16*
X21197063Y-49965363D03*
D17*
X15717992Y-50444720D03*
D16*
X10238921Y-50924077D03*
D18*
X11063853Y-54616229D03*
D27*
X7831201Y-54899049D03*
X19469220Y-56089258D03*
D18*
X16236569Y-56372078D03*
D16*
X23500000Y1999999D03*
D17*
X18000000Y1999999D03*
D16*
X12500000Y1999999D03*
D18*
X13000000Y-1750001D03*
D19*
X9755000Y-1750001D03*
X21245000Y-3950001D03*
D18*
X18000000Y-3950001D03*
D28*
X-29700000Y10000000D03*
X-28600000Y10000000D03*
X-27500000Y10000000D03*
X-26400000Y10000000D03*
X-25300000Y10000000D03*
X-24200000Y10000000D03*
X-23100000Y10000000D03*
X-22000000Y10000000D03*
X-20900000Y10000000D03*
X-19800000Y10000000D03*
X-18700000Y10000000D03*
X-17600000Y10000000D03*
X-16500000Y10000000D03*
D29*
X-15000000Y8750000D03*
X-15000000Y7650000D03*
X-15000000Y6550000D03*
X-15000000Y5450000D03*
X-15000000Y4350000D03*
X-15000000Y3250000D03*
X-15000000Y2150000D03*
X-15000000Y1050000D03*
X-15000000Y-50000D03*
X-15000000Y-1150000D03*
X-15000000Y-2250000D03*
D28*
X-16500000Y-3500000D03*
X-17600000Y-3500000D03*
X-18700000Y-3500000D03*
X-19800000Y-3500000D03*
X-20900000Y-3500000D03*
X-22000000Y-3500000D03*
X-23100000Y-3500000D03*
X-24200000Y-3500000D03*
X-25300000Y-3500000D03*
X-26400000Y-3500000D03*
X-27500000Y-3500000D03*
X-28600000Y-3500000D03*
X-29700000Y-3500000D03*
X-27500000Y7500000D03*
X-26400000Y7500000D03*
X-25300000Y7500000D03*
X-24200000Y7500000D03*
X-23100000Y7500000D03*
X-22000000Y7500000D03*
X-20900000Y7500000D03*
X-19800000Y7500000D03*
X-18700000Y7500000D03*
X-27500000Y-1000000D03*
X-26400000Y-1000000D03*
X-25300000Y-1000000D03*
X-24200000Y-1000000D03*
X-23100000Y-1000000D03*
X-22000000Y-1000000D03*
X-20900000Y-1000000D03*
X-19800000Y-1000000D03*
X-18700000Y-1000000D03*
D24*
X5800527Y-10850650D03*
X5800527Y-14150650D03*
D16*
X59463230Y-34532174D03*
D17*
X53976628Y-34148513D03*
D16*
X48490026Y-33764852D03*
D18*
X48727221Y-37540596D03*
D25*
X45490126Y-37314236D03*
X56798672Y-40310379D03*
D18*
X53561577Y-40084019D03*
D24*
X5800527Y-27850650D03*
X5800527Y-31150650D03*
D30*
X-20367032Y-12250000D03*
X-20367032Y-11300000D03*
X-20367032Y-10350000D03*
X-18092032Y-10350000D03*
X-18092032Y-12250000D03*
D31*
X60191982Y-28418766D03*
X59961786Y-31710728D03*
D23*
X-22129532Y-17125000D03*
X-22129532Y-18675000D03*
D31*
X61377842Y-11460177D03*
X61147646Y-14752139D03*
D16*
X-21033166Y-62083391D03*
D17*
X-23699619Y-57272983D03*
D16*
X-26366072Y-52462575D03*
D18*
X-29403491Y-54717921D03*
D32*
X-30976698Y-51879780D03*
X-27330399Y-62995741D03*
D18*
X-28903606Y-60157600D03*
D31*
X62563702Y5498411D03*
X62333506Y2206449D03*
D33*
X3175000Y9600000D03*
X1625000Y9600000D03*
D16*
X23500000Y-15000000D03*
D17*
X18000000Y-15000000D03*
D16*
X12500000Y-15000000D03*
D18*
X13000000Y-18750000D03*
D19*
X9755000Y-18750000D03*
X21245000Y-20950000D03*
D18*
X18000000Y-20950000D03*
D34*
X18000000Y8215000D03*
X18000000Y10965000D03*
D35*
X20625000Y10440000D03*
X15375000Y10440000D03*
X20625000Y8740000D03*
X15375000Y8740000D03*
D36*
X-21079532Y-14400000D03*
X-17779532Y-14400000D03*
D37*
X-14704532Y-10400000D03*
X-16354532Y-10400000D03*
D16*
X75825246Y-50402649D03*
D17*
X70408803Y-49447584D03*
D16*
X64992360Y-48492519D03*
D18*
X64833584Y-52272372D03*
D26*
X61637882Y-51708884D03*
X72571298Y-55870676D03*
D18*
X69375596Y-55307190D03*
D37*
X3225000Y7700000D03*
X1575000Y7700000D03*
D23*
X-27929532Y-17225000D03*
X-27929532Y-18775000D03*
D24*
X23800527Y8149349D03*
X23800527Y4849349D03*
D38*
X-32630000Y-14750000D03*
X-30420000Y-14750000D03*
D39*
X-31530000Y-12600000D03*
X-31530000Y-9600000D03*
D38*
X-32630000Y-7450000D03*
X-30420000Y-7450000D03*
D40*
X-29770000Y-13350000D03*
X-29770000Y-10350000D03*
X-29770000Y-8850000D03*
D24*
X41800527Y15149350D03*
X41800527Y11849350D03*
D41*
X-26929532Y-11225000D03*
X-26929532Y-9575000D03*
D24*
X5800527Y6149350D03*
X5800527Y2849350D03*
X23800527Y-8850650D03*
X23800527Y-12150650D03*
D16*
X41500000Y-8000000D03*
D17*
X36000000Y-8000000D03*
D16*
X30500000Y-8000000D03*
D18*
X31000000Y-11750000D03*
D19*
X27755000Y-11750000D03*
X39245000Y-13950000D03*
D18*
X36000000Y-13950000D03*
D16*
X1660838Y-52591488D03*
D17*
X-3598838Y-54199532D03*
D16*
X-8858514Y-55807576D03*
D18*
X-7283968Y-59247533D03*
D42*
X-10387177Y-60196280D03*
X1243983Y-58940799D03*
D18*
X-1859226Y-59889545D03*
D43*
X-16304532Y-13600000D03*
X-14754532Y-13600000D03*
D44*
X-16754532Y-16750000D03*
X-16754532Y-18650000D03*
X-18629532Y-17700000D03*
D45*
X20960495Y-43813221D03*
X21248109Y-47100663D03*
D16*
X41500000Y9000000D03*
D17*
X36000000Y9000000D03*
D16*
X30500000Y9000000D03*
D18*
X31000000Y5250000D03*
D19*
X27755000Y5250000D03*
X39245000Y3050000D03*
D18*
X36000000Y3050000D03*
D46*
X-2867000Y5603000D03*
X-9267000Y5603000D03*
X-3667000Y5603000D03*
X-8467000Y5603000D03*
D47*
X-7317000Y5603000D03*
X-6317000Y5603000D03*
X-5817000Y5603000D03*
X-4817000Y5603000D03*
X-4317000Y5603000D03*
X-5317000Y5603000D03*
X-6817000Y5603000D03*
X-7825000Y5603000D03*
D48*
X-491700Y6503000D03*
D49*
X-491700Y10303000D03*
X-11642300Y10303000D03*
D48*
X-11642600Y6503000D03*
D20*
X875000Y4600000D03*
X2525000Y4600000D03*
D41*
X-26929532Y-14325000D03*
X-26929532Y-12675000D03*
D50*
X-25867032Y-18650000D03*
X-25867032Y-16750000D03*
X-23992032Y-17700000D03*
D51*
X-9150000Y237500D03*
D52*
X-9075000Y-300000D03*
D51*
X-9150000Y-837500D03*
X-10850000Y-837500D03*
D52*
X-10925000Y-300000D03*
D51*
X-10850000Y237500D03*
D53*
X-15509124Y-59364974D03*
X-18395370Y-60964846D03*
D24*
X41800527Y-1850650D03*
X41800527Y-5150650D03*
D16*
X60649090Y-17573585D03*
D17*
X55162488Y-17189924D03*
D16*
X49675886Y-16806263D03*
D18*
X49913081Y-20582007D03*
D25*
X46675986Y-20355647D03*
X57984532Y-23351790D03*
D18*
X54747437Y-23125430D03*
D20*
X-16354532Y-12000000D03*
X-14704532Y-12000000D03*
D54*
X-4925000Y-44800000D03*
X-4925000Y-43600000D03*
D55*
X-8700000Y-45950000D03*
X-8700000Y-42450000D03*
D37*
X-22104532Y-12100000D03*
X-23754532Y-12100000D03*
D16*
X41500000Y-25000000D03*
D17*
X36000000Y-25000000D03*
D16*
X30500000Y-25000000D03*
D18*
X31000000Y-28750000D03*
D19*
X27755000Y-28750000D03*
X39245000Y-30950000D03*
D18*
X36000000Y-30950000D03*
D16*
X5500000Y-17000000D03*
D17*
X0Y-17000000D03*
D16*
X-5500000Y-17000000D03*
D18*
X-5000000Y-20750000D03*
D19*
X-8245000Y-20750000D03*
X3245000Y-22950000D03*
D18*
X0Y-22950000D03*
D15*
X83093068Y-10915443D03*
X82520030Y-14165309D03*
D16*
X81729284Y-16919185D03*
D17*
X76312841Y-15964120D03*
D16*
X70896398Y-15009055D03*
D18*
X70737622Y-18788908D03*
D26*
X67541920Y-18225420D03*
X78475336Y-22387212D03*
D18*
X75279634Y-21823726D03*
D56*
X34700000Y-37575000D03*
X34700000Y-39225000D03*
%LPD*%
M02*
