<?xml version="1.0" encoding="UTF-8" standalone="no"?>
<!DOCTYPE svg PUBLIC "-//W3C//DTD SVG 1.1//EN" "http://www.w3.org/Graphics/SVG/1.1/DTD/svg11.dtd">
<svg width="100%" height="100%" viewBox="0 0 148 56" version="1.1" xmlns="http://www.w3.org/2000/svg" xmlns:xlink="http://www.w3.org/1999/xlink" xml:space="preserve" xmlns:serif="http://www.serif.com/" style="fill-rule:evenodd;clip-rule:evenodd;stroke-linejoin:round;stroke-miterlimit:2;">
    <g transform="matrix(1,0,0,1,-1092,-1261)">
        <g transform="matrix(1,0,0,0.898175,827.335,1134.53)">
            <g transform="matrix(0.777183,0,0,0.426542,66.1377,92.1202)">
                <path d="M445.248,144.317L445.248,230.073L444.961,235.832L444.133,241.236L442.829,246.109L441.11,250.336L439.026,253.823L436.624,256.469L433.96,258.148L431.121,258.731L270.41,258.731L267.571,258.148L264.907,256.469L262.505,253.823L260.422,250.336L258.702,246.109L257.398,241.236L256.57,235.832L256.283,230.073L256.283,144.317L256.57,138.557L257.398,133.153L258.702,128.28L260.422,124.054L262.505,120.566L264.907,117.92L267.571,116.241L270.41,115.658L431.121,115.658L433.96,116.241L436.624,117.92L439.026,120.566L441.11,124.054L442.829,128.28L444.133,133.153L444.961,138.557L445.248,144.317Z" style="fill:white;"/>
            </g>
            <g transform="matrix(0.857433,0,0,0.569305,37.9886,65.3957)">
                <path d="M436.405,154.595L436.405,220.224C436.405,231.576 430.909,240.792 424.139,240.792L277.606,240.792C270.718,240.792 265.126,231.415 265.126,219.865L265.126,154.991C265.126,143.183 270.843,133.597 277.884,133.597L423.883,133.597C430.794,133.597 436.405,143.006 436.405,154.595Z" style="fill:white;"/>
            </g>
            <g transform="matrix(1,0,0,1.11337,11.0181,-71.4059)">
                <g transform="matrix(54.1667,0,0,54.1667,258.933,228.045)">
                    <path d="M0.254,0.011C0.383,0.011 0.478,-0.066 0.509,-0.173L0.406,-0.173C0.382,-0.114 0.331,-0.079 0.27,-0.079C0.18,-0.079 0.134,-0.154 0.154,-0.273C0.173,-0.39 0.244,-0.463 0.333,-0.463C0.401,-0.463 0.435,-0.42 0.438,-0.369L0.542,-0.369C0.548,-0.479 0.471,-0.553 0.347,-0.553C0.193,-0.553 0.074,-0.437 0.047,-0.27C0.019,-0.106 0.096,0.011 0.254,0.011Z" style="fill-rule:nonzero;"/>
                </g>
                <g transform="matrix(54.1667,0,0,54.1667,286.982,228.045)">
                    <path d="M0.183,0.012C0.273,0.012 0.332,-0.034 0.359,-0.075L0.363,-0.075L0.35,-0L0.454,-0L0.514,-0.362C0.54,-0.521 0.421,-0.553 0.335,-0.553C0.236,-0.553 0.137,-0.513 0.086,-0.413L0.181,-0.391C0.204,-0.429 0.252,-0.467 0.324,-0.467C0.392,-0.467 0.419,-0.43 0.409,-0.369L0.409,-0.366C0.402,-0.328 0.362,-0.329 0.262,-0.317C0.157,-0.305 0.047,-0.278 0.026,-0.154C0.009,-0.047 0.08,0.012 0.183,0.012ZM0.219,-0.073C0.159,-0.073 0.121,-0.1 0.13,-0.153C0.139,-0.21 0.194,-0.23 0.256,-0.238C0.291,-0.243 0.374,-0.252 0.392,-0.267L0.38,-0.197C0.37,-0.132 0.308,-0.073 0.219,-0.073Z" style="fill-rule:nonzero;"/>
                </g>
                <g transform="matrix(54.1667,0,0,54.1667,315.108,228.045)">
                    <path d="M0.026,-0L0.132,-0L0.187,-0.333C0.2,-0.404 0.263,-0.456 0.338,-0.456C0.36,-0.456 0.385,-0.452 0.393,-0.45L0.41,-0.551C0.399,-0.553 0.379,-0.554 0.365,-0.554C0.301,-0.554 0.24,-0.517 0.211,-0.459L0.205,-0.459L0.219,-0.545L0.117,-0.545L0.026,-0Z" style="fill-rule:nonzero;"/>
                </g>
                <g transform="matrix(54.1667,0,0,54.1667,333.289,228.045)">
                    <path d="M-0.008,0.205L0.098,0.205L0.146,-0.085L0.153,-0.085C0.167,-0.05 0.195,0.011 0.295,0.011C0.427,0.011 0.54,-0.095 0.57,-0.272C0.599,-0.449 0.519,-0.553 0.387,-0.553C0.286,-0.553 0.239,-0.491 0.215,-0.457L0.206,-0.457L0.221,-0.545L0.117,-0.545L-0.008,0.205ZM0.175,-0.273C0.194,-0.387 0.257,-0.462 0.349,-0.462C0.445,-0.462 0.479,-0.381 0.462,-0.273C0.444,-0.163 0.381,-0.08 0.286,-0.08C0.195,-0.08 0.157,-0.158 0.175,-0.273Z" style="fill-rule:nonzero;"/>
                </g>
                <g transform="matrix(54.1667,0,0,54.1667,364.012,228.045)">
                    <path d="M0.258,0.011C0.409,0.011 0.526,-0.099 0.554,-0.266C0.581,-0.438 0.499,-0.553 0.343,-0.553C0.191,-0.553 0.074,-0.442 0.048,-0.275C0.02,-0.104 0.102,0.011 0.258,0.011ZM0.264,-0.078C0.166,-0.078 0.136,-0.164 0.152,-0.266C0.169,-0.373 0.234,-0.464 0.337,-0.464C0.434,-0.464 0.465,-0.377 0.449,-0.275C0.431,-0.168 0.366,-0.078 0.264,-0.078Z" style="fill-rule:nonzero;"/>
                </g>
            </g>
        </g>
    </g>
</svg>
